G75*
G70*
%OFA0B0*%
%FSLAX24Y24*%
%IPPOS*%
%LPD*%
%AMOC8*
5,1,8,0,0,1.08239X$1,22.5*
%
%ADD10C,0.0000*%
%ADD11R,0.1102X0.0787*%
%ADD12R,0.1575X0.0276*%
%ADD13R,0.1575X0.0472*%
%ADD14OC8,0.0660*%
%ADD15C,0.0520*%
%ADD16C,0.0650*%
%ADD17C,0.0591*%
%ADD18R,0.0610X0.0236*%
%ADD19R,0.0709X0.0472*%
%ADD20R,0.0740X0.0740*%
%ADD21C,0.0740*%
%ADD22C,0.0760*%
%ADD23C,0.0560*%
%ADD24C,0.1266*%
%ADD25R,0.0394X0.0551*%
%ADD26R,0.1004X0.1063*%
%ADD27C,0.0500*%
%ADD28C,0.0300*%
%ADD29C,0.0450*%
%ADD30C,0.0160*%
%ADD31C,0.0280*%
%ADD32C,0.0240*%
D10*
X002390Y000680D02*
X002390Y027176D01*
X028890Y027180D01*
X028890Y023676D01*
X029790Y023680D01*
X029790Y017180D01*
X034890Y017180D01*
X034890Y010380D01*
X029790Y010380D01*
X029790Y004180D01*
X028890Y004180D01*
X028890Y000680D01*
X002390Y000680D01*
X020400Y009113D02*
X020402Y009142D01*
X020408Y009170D01*
X020417Y009198D01*
X020430Y009224D01*
X020447Y009247D01*
X020466Y009269D01*
X020488Y009288D01*
X020513Y009303D01*
X020539Y009316D01*
X020567Y009324D01*
X020595Y009329D01*
X020624Y009330D01*
X020653Y009327D01*
X020681Y009320D01*
X020708Y009310D01*
X020734Y009296D01*
X020757Y009279D01*
X020778Y009259D01*
X020796Y009236D01*
X020811Y009211D01*
X020822Y009184D01*
X020830Y009156D01*
X020834Y009127D01*
X020834Y009099D01*
X020830Y009070D01*
X020822Y009042D01*
X020811Y009015D01*
X020796Y008990D01*
X020778Y008967D01*
X020757Y008947D01*
X020734Y008930D01*
X020708Y008916D01*
X020681Y008906D01*
X020653Y008899D01*
X020624Y008896D01*
X020595Y008897D01*
X020567Y008902D01*
X020539Y008910D01*
X020513Y008923D01*
X020488Y008938D01*
X020466Y008957D01*
X020447Y008979D01*
X020430Y009002D01*
X020417Y009028D01*
X020408Y009056D01*
X020402Y009084D01*
X020400Y009113D01*
X026890Y006680D02*
X026892Y006724D01*
X026898Y006768D01*
X026908Y006811D01*
X026921Y006853D01*
X026938Y006894D01*
X026959Y006933D01*
X026983Y006970D01*
X027010Y007005D01*
X027040Y007037D01*
X027073Y007067D01*
X027109Y007093D01*
X027146Y007117D01*
X027186Y007136D01*
X027227Y007153D01*
X027270Y007165D01*
X027313Y007174D01*
X027357Y007179D01*
X027401Y007180D01*
X027445Y007177D01*
X027489Y007170D01*
X027532Y007159D01*
X027574Y007145D01*
X027614Y007127D01*
X027653Y007105D01*
X027689Y007081D01*
X027723Y007053D01*
X027755Y007022D01*
X027784Y006988D01*
X027810Y006952D01*
X027832Y006914D01*
X027851Y006874D01*
X027866Y006832D01*
X027878Y006790D01*
X027886Y006746D01*
X027890Y006702D01*
X027890Y006658D01*
X027886Y006614D01*
X027878Y006570D01*
X027866Y006528D01*
X027851Y006486D01*
X027832Y006446D01*
X027810Y006408D01*
X027784Y006372D01*
X027755Y006338D01*
X027723Y006307D01*
X027689Y006279D01*
X027653Y006255D01*
X027614Y006233D01*
X027574Y006215D01*
X027532Y006201D01*
X027489Y006190D01*
X027445Y006183D01*
X027401Y006180D01*
X027357Y006181D01*
X027313Y006186D01*
X027270Y006195D01*
X027227Y006207D01*
X027186Y006224D01*
X027146Y006243D01*
X027109Y006267D01*
X027073Y006293D01*
X027040Y006323D01*
X027010Y006355D01*
X026983Y006390D01*
X026959Y006427D01*
X026938Y006466D01*
X026921Y006507D01*
X026908Y006549D01*
X026898Y006592D01*
X026892Y006636D01*
X026890Y006680D01*
X026890Y005180D02*
X026892Y005224D01*
X026898Y005268D01*
X026908Y005311D01*
X026921Y005353D01*
X026938Y005394D01*
X026959Y005433D01*
X026983Y005470D01*
X027010Y005505D01*
X027040Y005537D01*
X027073Y005567D01*
X027109Y005593D01*
X027146Y005617D01*
X027186Y005636D01*
X027227Y005653D01*
X027270Y005665D01*
X027313Y005674D01*
X027357Y005679D01*
X027401Y005680D01*
X027445Y005677D01*
X027489Y005670D01*
X027532Y005659D01*
X027574Y005645D01*
X027614Y005627D01*
X027653Y005605D01*
X027689Y005581D01*
X027723Y005553D01*
X027755Y005522D01*
X027784Y005488D01*
X027810Y005452D01*
X027832Y005414D01*
X027851Y005374D01*
X027866Y005332D01*
X027878Y005290D01*
X027886Y005246D01*
X027890Y005202D01*
X027890Y005158D01*
X027886Y005114D01*
X027878Y005070D01*
X027866Y005028D01*
X027851Y004986D01*
X027832Y004946D01*
X027810Y004908D01*
X027784Y004872D01*
X027755Y004838D01*
X027723Y004807D01*
X027689Y004779D01*
X027653Y004755D01*
X027614Y004733D01*
X027574Y004715D01*
X027532Y004701D01*
X027489Y004690D01*
X027445Y004683D01*
X027401Y004680D01*
X027357Y004681D01*
X027313Y004686D01*
X027270Y004695D01*
X027227Y004707D01*
X027186Y004724D01*
X027146Y004743D01*
X027109Y004767D01*
X027073Y004793D01*
X027040Y004823D01*
X027010Y004855D01*
X026983Y004890D01*
X026959Y004927D01*
X026938Y004966D01*
X026921Y005007D01*
X026908Y005049D01*
X026898Y005092D01*
X026892Y005136D01*
X026890Y005180D01*
X026890Y003680D02*
X026892Y003724D01*
X026898Y003768D01*
X026908Y003811D01*
X026921Y003853D01*
X026938Y003894D01*
X026959Y003933D01*
X026983Y003970D01*
X027010Y004005D01*
X027040Y004037D01*
X027073Y004067D01*
X027109Y004093D01*
X027146Y004117D01*
X027186Y004136D01*
X027227Y004153D01*
X027270Y004165D01*
X027313Y004174D01*
X027357Y004179D01*
X027401Y004180D01*
X027445Y004177D01*
X027489Y004170D01*
X027532Y004159D01*
X027574Y004145D01*
X027614Y004127D01*
X027653Y004105D01*
X027689Y004081D01*
X027723Y004053D01*
X027755Y004022D01*
X027784Y003988D01*
X027810Y003952D01*
X027832Y003914D01*
X027851Y003874D01*
X027866Y003832D01*
X027878Y003790D01*
X027886Y003746D01*
X027890Y003702D01*
X027890Y003658D01*
X027886Y003614D01*
X027878Y003570D01*
X027866Y003528D01*
X027851Y003486D01*
X027832Y003446D01*
X027810Y003408D01*
X027784Y003372D01*
X027755Y003338D01*
X027723Y003307D01*
X027689Y003279D01*
X027653Y003255D01*
X027614Y003233D01*
X027574Y003215D01*
X027532Y003201D01*
X027489Y003190D01*
X027445Y003183D01*
X027401Y003180D01*
X027357Y003181D01*
X027313Y003186D01*
X027270Y003195D01*
X027227Y003207D01*
X027186Y003224D01*
X027146Y003243D01*
X027109Y003267D01*
X027073Y003293D01*
X027040Y003323D01*
X027010Y003355D01*
X026983Y003390D01*
X026959Y003427D01*
X026938Y003466D01*
X026921Y003507D01*
X026908Y003549D01*
X026898Y003592D01*
X026892Y003636D01*
X026890Y003680D01*
X026890Y002180D02*
X026892Y002224D01*
X026898Y002268D01*
X026908Y002311D01*
X026921Y002353D01*
X026938Y002394D01*
X026959Y002433D01*
X026983Y002470D01*
X027010Y002505D01*
X027040Y002537D01*
X027073Y002567D01*
X027109Y002593D01*
X027146Y002617D01*
X027186Y002636D01*
X027227Y002653D01*
X027270Y002665D01*
X027313Y002674D01*
X027357Y002679D01*
X027401Y002680D01*
X027445Y002677D01*
X027489Y002670D01*
X027532Y002659D01*
X027574Y002645D01*
X027614Y002627D01*
X027653Y002605D01*
X027689Y002581D01*
X027723Y002553D01*
X027755Y002522D01*
X027784Y002488D01*
X027810Y002452D01*
X027832Y002414D01*
X027851Y002374D01*
X027866Y002332D01*
X027878Y002290D01*
X027886Y002246D01*
X027890Y002202D01*
X027890Y002158D01*
X027886Y002114D01*
X027878Y002070D01*
X027866Y002028D01*
X027851Y001986D01*
X027832Y001946D01*
X027810Y001908D01*
X027784Y001872D01*
X027755Y001838D01*
X027723Y001807D01*
X027689Y001779D01*
X027653Y001755D01*
X027614Y001733D01*
X027574Y001715D01*
X027532Y001701D01*
X027489Y001690D01*
X027445Y001683D01*
X027401Y001680D01*
X027357Y001681D01*
X027313Y001686D01*
X027270Y001695D01*
X027227Y001707D01*
X027186Y001724D01*
X027146Y001743D01*
X027109Y001767D01*
X027073Y001793D01*
X027040Y001823D01*
X027010Y001855D01*
X026983Y001890D01*
X026959Y001927D01*
X026938Y001966D01*
X026921Y002007D01*
X026908Y002049D01*
X026898Y002092D01*
X026892Y002136D01*
X026890Y002180D01*
X033512Y012894D02*
X033514Y012923D01*
X033520Y012951D01*
X033529Y012979D01*
X033542Y013005D01*
X033559Y013028D01*
X033578Y013050D01*
X033600Y013069D01*
X033625Y013084D01*
X033651Y013097D01*
X033679Y013105D01*
X033707Y013110D01*
X033736Y013111D01*
X033765Y013108D01*
X033793Y013101D01*
X033820Y013091D01*
X033846Y013077D01*
X033869Y013060D01*
X033890Y013040D01*
X033908Y013017D01*
X033923Y012992D01*
X033934Y012965D01*
X033942Y012937D01*
X033946Y012908D01*
X033946Y012880D01*
X033942Y012851D01*
X033934Y012823D01*
X033923Y012796D01*
X033908Y012771D01*
X033890Y012748D01*
X033869Y012728D01*
X033846Y012711D01*
X033820Y012697D01*
X033793Y012687D01*
X033765Y012680D01*
X033736Y012677D01*
X033707Y012678D01*
X033679Y012683D01*
X033651Y012691D01*
X033625Y012704D01*
X033600Y012719D01*
X033578Y012738D01*
X033559Y012760D01*
X033542Y012783D01*
X033529Y012809D01*
X033520Y012837D01*
X033514Y012865D01*
X033512Y012894D01*
X033512Y014666D02*
X033514Y014695D01*
X033520Y014723D01*
X033529Y014751D01*
X033542Y014777D01*
X033559Y014800D01*
X033578Y014822D01*
X033600Y014841D01*
X033625Y014856D01*
X033651Y014869D01*
X033679Y014877D01*
X033707Y014882D01*
X033736Y014883D01*
X033765Y014880D01*
X033793Y014873D01*
X033820Y014863D01*
X033846Y014849D01*
X033869Y014832D01*
X033890Y014812D01*
X033908Y014789D01*
X033923Y014764D01*
X033934Y014737D01*
X033942Y014709D01*
X033946Y014680D01*
X033946Y014652D01*
X033942Y014623D01*
X033934Y014595D01*
X033923Y014568D01*
X033908Y014543D01*
X033890Y014520D01*
X033869Y014500D01*
X033846Y014483D01*
X033820Y014469D01*
X033793Y014459D01*
X033765Y014452D01*
X033736Y014449D01*
X033707Y014450D01*
X033679Y014455D01*
X033651Y014463D01*
X033625Y014476D01*
X033600Y014491D01*
X033578Y014510D01*
X033559Y014532D01*
X033542Y014555D01*
X033529Y014581D01*
X033520Y014609D01*
X033514Y014637D01*
X033512Y014666D01*
X020302Y017420D02*
X020304Y017455D01*
X020310Y017490D01*
X020320Y017524D01*
X020333Y017557D01*
X020350Y017588D01*
X020371Y017616D01*
X020394Y017643D01*
X020421Y017666D01*
X020449Y017687D01*
X020480Y017704D01*
X020513Y017717D01*
X020547Y017727D01*
X020582Y017733D01*
X020617Y017735D01*
X020652Y017733D01*
X020687Y017727D01*
X020721Y017717D01*
X020754Y017704D01*
X020785Y017687D01*
X020813Y017666D01*
X020840Y017643D01*
X020863Y017616D01*
X020884Y017588D01*
X020901Y017557D01*
X020914Y017524D01*
X020924Y017490D01*
X020930Y017455D01*
X020932Y017420D01*
X020930Y017385D01*
X020924Y017350D01*
X020914Y017316D01*
X020901Y017283D01*
X020884Y017252D01*
X020863Y017224D01*
X020840Y017197D01*
X020813Y017174D01*
X020785Y017153D01*
X020754Y017136D01*
X020721Y017123D01*
X020687Y017113D01*
X020652Y017107D01*
X020617Y017105D01*
X020582Y017107D01*
X020547Y017113D01*
X020513Y017123D01*
X020480Y017136D01*
X020449Y017153D01*
X020421Y017174D01*
X020394Y017197D01*
X020371Y017224D01*
X020350Y017252D01*
X020333Y017283D01*
X020320Y017316D01*
X020310Y017350D01*
X020304Y017385D01*
X020302Y017420D01*
D11*
X020144Y018286D03*
X028373Y019231D03*
X028373Y008247D03*
X020184Y008208D03*
D12*
X019436Y008877D03*
X019436Y009349D03*
X019436Y009861D03*
D13*
X019436Y010491D03*
X019436Y011475D03*
X019436Y012460D03*
X019436Y013444D03*
X019436Y014428D03*
X019436Y015412D03*
X019436Y016397D03*
X019436Y017381D03*
D14*
X016390Y019180D03*
X016390Y020180D03*
X016390Y021180D03*
X016390Y022180D03*
X016390Y023680D03*
X017390Y023680D03*
X018390Y023680D03*
X015390Y023680D03*
X014390Y023680D03*
X013390Y023680D03*
X012390Y022180D03*
X012390Y021180D03*
X012390Y020180D03*
X012390Y019180D03*
X011390Y023680D03*
X010390Y023680D03*
X009390Y023680D03*
X008390Y023680D03*
X007390Y023680D03*
X006390Y023680D03*
X011390Y010680D03*
X012390Y010680D03*
X013390Y010680D03*
X014390Y010680D03*
X015390Y010680D03*
X016390Y010680D03*
X017390Y010680D03*
X017390Y006680D03*
X016390Y006680D03*
X015390Y006680D03*
X014390Y006680D03*
X013390Y006680D03*
X012390Y006680D03*
X011390Y006680D03*
X011390Y004680D03*
X010390Y004680D03*
X009390Y004680D03*
X008390Y004680D03*
X007390Y004680D03*
X006390Y004680D03*
X012390Y004680D03*
X013390Y004680D03*
X014990Y004680D03*
X015990Y004680D03*
X016990Y004680D03*
X017990Y004680D03*
X018990Y004680D03*
X019990Y004680D03*
X020990Y004680D03*
X021990Y004680D03*
X022890Y002680D03*
X022890Y001680D03*
X018890Y001680D03*
X018890Y002680D03*
D15*
X018050Y020180D02*
X017530Y020180D01*
X017530Y021180D02*
X018050Y021180D01*
X018050Y022180D02*
X017530Y022180D01*
D16*
X024760Y022844D03*
X024760Y020876D03*
X017900Y013654D03*
X017900Y011686D03*
D17*
X016622Y012550D03*
X015756Y012550D03*
X014890Y012550D03*
X013630Y012550D03*
X013630Y013810D03*
X014890Y013810D03*
X015756Y013810D03*
X016622Y013810D03*
X016622Y015550D03*
X015756Y015550D03*
X014890Y015550D03*
X013630Y015550D03*
X013630Y016810D03*
X014890Y016810D03*
X015756Y016810D03*
X016622Y016810D03*
D18*
X027740Y020566D03*
X027740Y020960D03*
X027740Y021353D03*
X027740Y021747D03*
X027740Y022141D03*
X027740Y022534D03*
D19*
X029266Y023046D03*
X029266Y020054D03*
D20*
X026590Y019880D03*
X031790Y015180D03*
X027890Y025180D03*
X027890Y026180D03*
X025390Y002880D03*
D21*
X025390Y003880D03*
X025390Y004880D03*
X025390Y005880D03*
X017390Y002680D03*
X016390Y002680D03*
X016390Y001680D03*
X017390Y001680D03*
X015390Y001680D03*
X014390Y001680D03*
X014390Y002680D03*
X015390Y002680D03*
X013390Y002680D03*
X012390Y002680D03*
X012390Y001680D03*
X013390Y001680D03*
X011390Y001680D03*
X010390Y001680D03*
X010390Y002680D03*
X011390Y002680D03*
X009390Y002680D03*
X008390Y002680D03*
X007390Y002680D03*
X007390Y001680D03*
X008390Y001680D03*
X009390Y001680D03*
X006390Y001680D03*
X005390Y001680D03*
X005390Y002680D03*
X006390Y002680D03*
X004390Y002680D03*
X003390Y002680D03*
X003390Y001680D03*
X004390Y001680D03*
X004390Y004680D03*
X003390Y004680D03*
X003390Y005680D03*
X004390Y005680D03*
X004390Y006680D03*
X003390Y006680D03*
X003390Y007680D03*
X004390Y007680D03*
X005390Y007680D03*
X006390Y007680D03*
X007390Y007680D03*
X008390Y007680D03*
X009390Y007680D03*
X010390Y007680D03*
X010390Y006680D03*
X009390Y006680D03*
X008390Y006680D03*
X007390Y006680D03*
X006390Y006680D03*
X005390Y006680D03*
X005390Y005680D03*
X005390Y004680D03*
X005390Y008680D03*
X006390Y008680D03*
X006390Y009680D03*
X005390Y009680D03*
X004390Y009680D03*
X003390Y009680D03*
X003390Y008680D03*
X004390Y008680D03*
X004390Y010680D03*
X003390Y010680D03*
X003390Y011680D03*
X004390Y011680D03*
X005390Y011680D03*
X006390Y011680D03*
X006390Y010680D03*
X005390Y010680D03*
X007390Y010680D03*
X008390Y010680D03*
X009390Y010680D03*
X009390Y011680D03*
X008390Y011680D03*
X007390Y011680D03*
X007390Y012680D03*
X008390Y012680D03*
X009390Y012680D03*
X009390Y013680D03*
X008390Y013680D03*
X007390Y013680D03*
X006390Y013680D03*
X005390Y013680D03*
X005390Y012680D03*
X006390Y012680D03*
X004390Y012680D03*
X003390Y012680D03*
X003390Y013680D03*
X004390Y013680D03*
X004390Y014680D03*
X003390Y014680D03*
X003390Y015680D03*
X004390Y015680D03*
X004390Y016680D03*
X003390Y016680D03*
X003390Y017680D03*
X004390Y017680D03*
X004390Y018680D03*
X003390Y018680D03*
X005390Y018680D03*
X006390Y018680D03*
X006390Y017680D03*
X005390Y017680D03*
X005390Y016680D03*
X006390Y016680D03*
X006390Y015680D03*
X005390Y015680D03*
X005390Y014680D03*
X006390Y014680D03*
X007390Y014680D03*
X008390Y014680D03*
X009390Y014680D03*
X010390Y014680D03*
X010390Y013680D03*
X010390Y012680D03*
X010390Y011680D03*
X010390Y010680D03*
X010390Y009680D03*
X010390Y008680D03*
X009390Y008680D03*
X008390Y008680D03*
X007390Y008680D03*
X007390Y009680D03*
X008390Y009680D03*
X009390Y009680D03*
X009390Y015680D03*
X008390Y015680D03*
X007390Y015680D03*
X007390Y016680D03*
X008390Y016680D03*
X009390Y016680D03*
X010390Y016680D03*
X010390Y015680D03*
X010390Y017680D03*
X010390Y018680D03*
X009390Y018680D03*
X008390Y018680D03*
X007390Y018680D03*
X007390Y017680D03*
X008390Y017680D03*
X009390Y017680D03*
X009390Y019680D03*
X008390Y019680D03*
X007390Y019680D03*
X006390Y019680D03*
X006390Y020680D03*
X005390Y020680D03*
X005390Y021680D03*
X006390Y021680D03*
X007390Y021680D03*
X008390Y021680D03*
X009390Y021680D03*
X009390Y020680D03*
X008390Y020680D03*
X007390Y020680D03*
X005390Y022680D03*
X005390Y023680D03*
X005390Y024680D03*
X005390Y025680D03*
X010390Y021680D03*
X011390Y021680D03*
X010390Y020680D03*
X010390Y019680D03*
X013390Y024680D03*
X014390Y024680D03*
X015390Y024680D03*
X016390Y024680D03*
X017390Y024680D03*
X018390Y024680D03*
X021390Y025180D03*
X021390Y026180D03*
X024890Y026180D03*
X024890Y025180D03*
X025890Y025180D03*
X026890Y025180D03*
X026890Y026180D03*
X025890Y026180D03*
X026590Y022880D03*
X026590Y021880D03*
X026590Y020880D03*
X031790Y014180D03*
X031790Y013180D03*
X031790Y012180D03*
D22*
X011890Y012680D03*
X011890Y016680D03*
D23*
X032745Y015158D03*
X032745Y014174D03*
X032745Y013386D03*
X032745Y012402D03*
D24*
X033690Y011497D03*
X033690Y016063D03*
D25*
X019864Y020947D03*
X019116Y020947D03*
X019490Y021813D03*
D26*
X010138Y025580D03*
X007642Y025580D03*
D27*
X007542Y025680D01*
X005390Y025680D01*
X006390Y025080D02*
X006990Y024480D01*
X011190Y024480D01*
X012490Y025780D01*
X019090Y025780D01*
X020790Y024080D01*
X022690Y024080D01*
X023790Y024080D01*
X024890Y025180D01*
X024890Y026180D01*
X021390Y026180D02*
X020990Y026580D01*
X008642Y026580D01*
X007642Y025580D01*
X017390Y024680D02*
X017390Y023680D01*
X017390Y022580D01*
X017790Y022180D01*
X018490Y022880D01*
X020090Y022880D01*
X020590Y022380D01*
X020590Y020947D01*
X019864Y020947D01*
X020590Y020947D02*
X024689Y020947D01*
X024760Y020876D01*
X026706Y020876D01*
X026790Y020960D01*
X026590Y020880D02*
X026590Y020876D01*
X019490Y021813D02*
X019223Y022080D01*
X018790Y022080D01*
X017900Y013654D02*
X018110Y013444D01*
X019436Y013444D01*
D28*
X026590Y020880D02*
X026590Y020960D01*
X026790Y020960D01*
X027740Y020960D01*
D29*
X018790Y022080D03*
X006390Y025080D03*
D30*
X006030Y024931D02*
X005838Y024931D01*
X005822Y024969D02*
X005679Y025112D01*
X005516Y025180D01*
X005679Y025248D01*
X005721Y025290D01*
X006055Y025290D01*
X006000Y025158D01*
X006000Y025002D01*
X006059Y024859D01*
X006769Y024149D01*
X006912Y024090D01*
X007135Y024090D01*
X006920Y023875D01*
X006920Y023485D01*
X007170Y023235D01*
X007170Y022141D01*
X007101Y022112D01*
X006958Y021969D01*
X006890Y021806D01*
X006822Y021969D01*
X006679Y022112D01*
X006610Y022141D01*
X006610Y023235D01*
X006860Y023485D01*
X006860Y023875D01*
X006585Y024150D01*
X006195Y024150D01*
X005920Y023875D01*
X005920Y023485D01*
X006170Y023235D01*
X006170Y022141D01*
X006101Y022112D01*
X005958Y021969D01*
X005911Y021856D01*
X005900Y021891D01*
X005860Y021968D01*
X005810Y022038D01*
X005748Y022100D01*
X005678Y022150D01*
X005601Y022190D01*
X005566Y022201D01*
X005679Y022248D01*
X005822Y022391D01*
X005900Y022579D01*
X005900Y022781D01*
X005822Y022969D01*
X005679Y023112D01*
X005516Y023180D01*
X005679Y023248D01*
X005822Y023391D01*
X005900Y023579D01*
X005900Y023781D01*
X005822Y023969D01*
X005679Y024112D01*
X005516Y024180D01*
X005679Y024248D01*
X005822Y024391D01*
X005900Y024579D01*
X005900Y024781D01*
X005822Y024969D01*
X005702Y025089D02*
X006000Y025089D01*
X006037Y025248D02*
X005679Y025248D01*
X005264Y025180D02*
X005101Y025112D01*
X004958Y024969D01*
X004880Y024781D01*
X004880Y024579D01*
X004958Y024391D01*
X005101Y024248D01*
X005264Y024180D01*
X005101Y024112D01*
X004958Y023969D01*
X004929Y023900D01*
X003099Y023900D01*
X002970Y023771D01*
X002570Y023371D01*
X002570Y004089D01*
X002699Y003960D01*
X002999Y003660D01*
X005681Y003660D01*
X006001Y003980D01*
X006130Y004109D01*
X006130Y004275D01*
X006195Y004210D01*
X006549Y004210D01*
X007170Y003589D01*
X007299Y003460D01*
X022742Y003460D01*
X022743Y003460D01*
X022838Y003420D01*
X022942Y003420D01*
X023037Y003460D01*
X023110Y003533D01*
X023150Y003628D01*
X023150Y003732D01*
X023110Y003827D01*
X023037Y003900D01*
X022942Y003940D01*
X022850Y003940D01*
X022850Y004032D01*
X022810Y004127D01*
X022737Y004200D01*
X022642Y004240D01*
X022538Y004240D01*
X022443Y004200D01*
X022442Y004200D01*
X021231Y004200D01*
X021500Y004469D01*
X021500Y004662D01*
X021008Y004662D01*
X021008Y004698D01*
X020972Y004698D01*
X020972Y004662D01*
X020480Y004662D01*
X020480Y004469D01*
X020749Y004200D01*
X008181Y004200D01*
X007860Y004521D01*
X007860Y004875D01*
X007585Y005150D01*
X007195Y005150D01*
X006920Y004875D01*
X006920Y004485D01*
X007195Y004210D01*
X007549Y004210D01*
X007859Y003900D01*
X007481Y003900D01*
X006860Y004521D01*
X006860Y004875D01*
X006585Y005150D01*
X006195Y005150D01*
X006130Y005085D01*
X006130Y005109D01*
X006481Y005460D01*
X007699Y005460D01*
X008102Y005057D01*
X007920Y004875D01*
X007920Y004485D01*
X008195Y004210D01*
X008585Y004210D01*
X008860Y004485D01*
X008860Y004875D01*
X008610Y005125D01*
X008610Y005171D01*
X008010Y005771D01*
X007881Y005900D01*
X006299Y005900D01*
X005845Y005446D01*
X005900Y005579D01*
X005900Y005781D01*
X005822Y005969D01*
X005679Y006112D01*
X005516Y006180D01*
X005679Y006248D01*
X005822Y006391D01*
X005890Y006554D01*
X005958Y006391D01*
X006101Y006248D01*
X006289Y006170D01*
X006491Y006170D01*
X006679Y006248D01*
X006822Y006391D01*
X006890Y006554D01*
X006958Y006391D01*
X007101Y006248D01*
X007289Y006170D01*
X007491Y006170D01*
X007679Y006248D01*
X007822Y006391D01*
X007890Y006554D01*
X007958Y006391D01*
X008101Y006248D01*
X008289Y006170D01*
X008491Y006170D01*
X008679Y006248D01*
X008822Y006391D01*
X008890Y006554D01*
X008958Y006391D01*
X009101Y006248D01*
X009289Y006170D01*
X009491Y006170D01*
X009679Y006248D01*
X009822Y006391D01*
X009890Y006554D01*
X009958Y006391D01*
X010101Y006248D01*
X010289Y006170D01*
X010491Y006170D01*
X010624Y006225D01*
X010170Y005771D01*
X010170Y005125D01*
X009920Y004875D01*
X009920Y004485D01*
X010195Y004210D01*
X010585Y004210D01*
X010860Y004485D01*
X010860Y004875D01*
X010610Y005125D01*
X010610Y005589D01*
X011231Y006210D01*
X011585Y006210D01*
X011670Y006295D01*
X011670Y006189D01*
X011799Y006060D01*
X012150Y005709D01*
X012150Y005105D01*
X011920Y004875D01*
X011920Y004485D01*
X012195Y004210D01*
X012585Y004210D01*
X012860Y004485D01*
X012860Y004875D01*
X012590Y005145D01*
X012590Y005684D01*
X012631Y005643D01*
X012734Y005600D01*
X012759Y005600D01*
X013190Y005169D01*
X013190Y005145D01*
X012920Y004875D01*
X012920Y004485D01*
X013195Y004210D01*
X013585Y004210D01*
X013860Y004485D01*
X013860Y004875D01*
X013630Y005105D01*
X013630Y005150D01*
X016479Y005150D01*
X016637Y004992D01*
X016520Y004875D01*
X016520Y004485D01*
X016795Y004210D01*
X017185Y004210D01*
X017460Y004485D01*
X017460Y004875D01*
X017275Y005060D01*
X017299Y005060D01*
X017520Y004839D01*
X017520Y004485D01*
X017795Y004210D01*
X018185Y004210D01*
X018460Y004485D01*
X018460Y004875D01*
X018185Y005150D01*
X017831Y005150D01*
X017481Y005500D01*
X017381Y005500D01*
X017121Y005760D01*
X018581Y005760D01*
X018748Y005926D01*
X018710Y005836D01*
X018710Y005724D01*
X018753Y005621D01*
X018770Y005604D01*
X018770Y005125D01*
X018520Y004875D01*
X018520Y004485D01*
X018795Y004210D01*
X019185Y004210D01*
X019460Y004485D01*
X019460Y004875D01*
X019210Y005125D01*
X019210Y005604D01*
X019227Y005621D01*
X019270Y005724D01*
X019270Y005836D01*
X019232Y005926D01*
X019770Y005389D01*
X019770Y005125D01*
X019520Y004875D01*
X019520Y004485D01*
X019795Y004210D01*
X020185Y004210D01*
X020460Y004485D01*
X020460Y004875D01*
X020210Y005125D01*
X020210Y005571D01*
X020081Y005700D01*
X019381Y006400D01*
X018599Y006400D01*
X018470Y006271D01*
X018399Y006200D01*
X017631Y006200D01*
X017900Y006469D01*
X017900Y006680D01*
X017900Y006891D01*
X017601Y007190D01*
X017390Y007190D01*
X017390Y006680D01*
X017390Y006680D01*
X017900Y006680D01*
X017390Y006680D01*
X017390Y006680D01*
X017390Y006680D01*
X016880Y006680D01*
X016880Y006891D01*
X017179Y007190D01*
X017390Y007190D01*
X017390Y006680D01*
X016880Y006680D01*
X016880Y006501D01*
X016860Y006521D01*
X016860Y006875D01*
X016585Y007150D01*
X016195Y007150D01*
X015920Y006875D01*
X015920Y006485D01*
X016195Y006210D01*
X016549Y006210D01*
X016719Y006040D01*
X014710Y006040D01*
X014710Y006335D01*
X014860Y006485D01*
X014860Y006875D01*
X014585Y007150D01*
X014195Y007150D01*
X013920Y006875D01*
X013920Y006485D01*
X014195Y006210D01*
X014270Y006210D01*
X014270Y005729D01*
X014399Y005600D01*
X016659Y005600D01*
X017070Y005189D01*
X017109Y005150D01*
X017101Y005150D01*
X016790Y005461D01*
X016661Y005590D01*
X013791Y005590D01*
X013211Y006170D01*
X013390Y006170D01*
X013601Y006170D01*
X013900Y006469D01*
X013900Y006680D01*
X013900Y006891D01*
X013601Y007190D01*
X013390Y007190D01*
X013390Y006680D01*
X013390Y006680D01*
X013900Y006680D01*
X013390Y006680D01*
X013390Y006680D01*
X013390Y006680D01*
X012880Y006680D01*
X012880Y006891D01*
X013179Y007190D01*
X013390Y007190D01*
X013390Y006680D01*
X013390Y006170D01*
X013390Y006680D01*
X013390Y006680D01*
X012880Y006680D01*
X012880Y006501D01*
X012860Y006521D01*
X012860Y006875D01*
X012585Y007150D01*
X012195Y007150D01*
X012110Y007065D01*
X012110Y009049D01*
X012190Y009129D01*
X018532Y009129D01*
X018549Y009113D01*
X018532Y009097D01*
X013299Y009097D01*
X013202Y009000D01*
X012566Y009000D01*
X012549Y009017D01*
X012446Y009060D01*
X012334Y009060D01*
X012231Y009017D01*
X012153Y008939D01*
X012110Y008836D01*
X012110Y008724D01*
X012153Y008621D01*
X012231Y008543D01*
X012334Y008500D01*
X012446Y008500D01*
X012549Y008543D01*
X012566Y008560D01*
X013384Y008560D01*
X013481Y008657D01*
X018532Y008657D01*
X018590Y008599D01*
X019493Y008599D01*
X019493Y007756D01*
X019575Y007674D01*
X020793Y007674D01*
X020875Y007756D01*
X020875Y008659D01*
X020793Y008741D01*
X020755Y008741D01*
X020841Y008777D01*
X020953Y008888D01*
X021013Y009034D01*
X021013Y009192D01*
X020953Y009338D01*
X020841Y009449D01*
X020696Y009510D01*
X020538Y009510D01*
X020392Y009449D01*
X020363Y009420D01*
X020363Y009545D01*
X020303Y009605D01*
X020363Y009665D01*
X020363Y010057D01*
X020293Y010127D01*
X020363Y010197D01*
X020363Y010260D01*
X020614Y010260D01*
X020631Y010243D01*
X020734Y010200D01*
X020846Y010200D01*
X020949Y010243D01*
X021027Y010321D01*
X021070Y010424D01*
X021070Y010536D01*
X021027Y010639D01*
X020949Y010717D01*
X020846Y010760D01*
X020734Y010760D01*
X020631Y010717D01*
X020614Y010700D01*
X020363Y010700D01*
X020363Y010785D01*
X020281Y010867D01*
X018590Y010867D01*
X018508Y010785D01*
X018508Y010197D01*
X018578Y010127D01*
X018508Y010057D01*
X018508Y009665D01*
X018568Y009605D01*
X018532Y009569D01*
X012008Y009569D01*
X011670Y009231D01*
X011670Y007065D01*
X011585Y007150D01*
X011195Y007150D01*
X010920Y006875D01*
X010920Y006521D01*
X010845Y006446D01*
X010900Y006579D01*
X010900Y006781D01*
X010822Y006969D01*
X010679Y007112D01*
X010516Y007180D01*
X010679Y007248D01*
X010822Y007391D01*
X010900Y007579D01*
X010900Y007781D01*
X010822Y007969D01*
X010679Y008112D01*
X010516Y008180D01*
X010679Y008248D01*
X010822Y008391D01*
X010900Y008579D01*
X010900Y008781D01*
X010822Y008969D01*
X010679Y009112D01*
X010516Y009180D01*
X010679Y009248D01*
X010822Y009391D01*
X010900Y009579D01*
X010900Y009781D01*
X010822Y009969D01*
X010679Y010112D01*
X010516Y010180D01*
X010679Y010248D01*
X010822Y010391D01*
X010900Y010579D01*
X010900Y010781D01*
X010822Y010969D01*
X010679Y011112D01*
X010516Y011180D01*
X010679Y011248D01*
X010822Y011391D01*
X010870Y011506D01*
X010870Y011189D01*
X011052Y011007D01*
X010920Y010875D01*
X010920Y010485D01*
X011195Y010210D01*
X011585Y010210D01*
X011860Y010485D01*
X011860Y010875D01*
X011585Y011150D01*
X011531Y011150D01*
X011481Y011200D01*
X011310Y011371D01*
X011310Y017189D01*
X011481Y017360D01*
X014581Y017360D01*
X015181Y017960D01*
X016281Y017960D01*
X016410Y018089D01*
X017181Y018860D01*
X017181Y018860D01*
X017310Y018989D01*
X017310Y019838D01*
X017450Y019780D01*
X018130Y019780D01*
X018277Y019841D01*
X018389Y019953D01*
X018450Y020100D01*
X018450Y020260D01*
X018389Y020407D01*
X018277Y020519D01*
X018130Y020580D01*
X017450Y020580D01*
X017310Y020522D01*
X017310Y020789D01*
X017345Y020824D01*
X017450Y020780D01*
X018130Y020780D01*
X018277Y020841D01*
X018389Y020953D01*
X018392Y020960D01*
X018779Y020960D01*
X018779Y020613D01*
X018861Y020531D01*
X019371Y020531D01*
X019453Y020613D01*
X019453Y021281D01*
X019371Y021363D01*
X019012Y021363D01*
X018974Y021400D01*
X018392Y021400D01*
X018389Y021407D01*
X018277Y021519D01*
X018130Y021580D01*
X017450Y021580D01*
X017303Y021519D01*
X017191Y021407D01*
X017130Y021260D01*
X017130Y021231D01*
X016900Y021001D01*
X016900Y021180D01*
X016900Y021391D01*
X016601Y021690D01*
X016390Y021690D01*
X016390Y021180D01*
X016390Y021180D01*
X016900Y021180D01*
X016390Y021180D01*
X016390Y021180D01*
X016390Y020670D01*
X016601Y020670D01*
X016870Y020939D01*
X016870Y019421D01*
X016601Y019690D01*
X016390Y019690D01*
X016390Y019180D01*
X016390Y019180D01*
X016390Y019180D01*
X015880Y019180D01*
X015880Y019391D01*
X016179Y019690D01*
X016390Y019690D01*
X016390Y019180D01*
X015880Y019180D01*
X015880Y018969D01*
X016179Y018670D01*
X016369Y018670D01*
X016099Y018400D01*
X014999Y018400D01*
X014870Y018271D01*
X014399Y017800D01*
X011299Y017800D01*
X010999Y017500D01*
X010870Y017371D01*
X010870Y016854D01*
X010822Y016969D01*
X010679Y017112D01*
X010516Y017180D01*
X010679Y017248D01*
X010822Y017391D01*
X010900Y017579D01*
X010900Y017781D01*
X010822Y017969D01*
X010679Y018112D01*
X010516Y018180D01*
X010679Y018248D01*
X010822Y018391D01*
X010900Y018579D01*
X010900Y018781D01*
X010822Y018969D01*
X010679Y019112D01*
X010516Y019180D01*
X010679Y019248D01*
X010822Y019391D01*
X010900Y019579D01*
X010900Y019781D01*
X010822Y019969D01*
X010679Y020112D01*
X010516Y020180D01*
X010679Y020248D01*
X010822Y020391D01*
X010900Y020579D01*
X010900Y020781D01*
X010822Y020969D01*
X010679Y021112D01*
X010516Y021180D01*
X010679Y021248D01*
X010822Y021391D01*
X010890Y021554D01*
X010958Y021391D01*
X011101Y021248D01*
X011170Y021219D01*
X011170Y021089D01*
X011299Y020960D01*
X011920Y020339D01*
X011920Y019985D01*
X012170Y019735D01*
X012170Y019625D01*
X011920Y019375D01*
X011920Y018985D01*
X012195Y018710D01*
X012585Y018710D01*
X012860Y018985D01*
X012860Y019375D01*
X012610Y019625D01*
X012610Y019735D01*
X012860Y019985D01*
X012860Y020375D01*
X012585Y020650D01*
X012231Y020650D01*
X011647Y021234D01*
X011679Y021248D01*
X011822Y021391D01*
X011900Y021579D01*
X011900Y021781D01*
X011822Y021969D01*
X011679Y022112D01*
X011610Y022141D01*
X011610Y023235D01*
X011860Y023485D01*
X011860Y023875D01*
X011585Y024150D01*
X011412Y024150D01*
X011521Y024259D01*
X012652Y025390D01*
X018928Y025390D01*
X020569Y023749D01*
X020712Y023690D01*
X022370Y023690D01*
X022370Y023528D01*
X022370Y023527D01*
X022330Y023432D01*
X022330Y023328D01*
X022370Y023233D01*
X022443Y023160D01*
X022538Y023120D01*
X022642Y023120D01*
X022737Y023160D01*
X022810Y023233D01*
X022850Y023328D01*
X022850Y023432D01*
X022810Y023527D01*
X022810Y023528D01*
X022810Y023690D01*
X023868Y023690D01*
X024011Y023749D01*
X024121Y023859D01*
X024932Y024670D01*
X024991Y024670D01*
X025179Y024748D01*
X025322Y024891D01*
X025390Y025054D01*
X025458Y024891D01*
X025601Y024748D01*
X025789Y024670D01*
X025991Y024670D01*
X026179Y024748D01*
X026322Y024891D01*
X026390Y025054D01*
X026458Y024891D01*
X026601Y024748D01*
X026789Y024670D01*
X026991Y024670D01*
X027179Y024748D01*
X027322Y024891D01*
X027340Y024934D01*
X027340Y024786D01*
X027352Y024741D01*
X027376Y024699D01*
X027409Y024666D01*
X027451Y024642D01*
X027496Y024630D01*
X027870Y024630D01*
X027870Y025160D01*
X027910Y025160D01*
X027910Y025200D01*
X028440Y025200D01*
X028440Y025574D01*
X028428Y025619D01*
X028404Y025661D01*
X028385Y025680D01*
X028404Y025699D01*
X028428Y025741D01*
X028440Y025786D01*
X028440Y026160D01*
X027910Y026160D01*
X027910Y026200D01*
X027870Y026200D01*
X027870Y026730D01*
X027496Y026730D01*
X027451Y026718D01*
X027409Y026694D01*
X027376Y026661D01*
X027352Y026619D01*
X027340Y026574D01*
X027340Y026426D01*
X027322Y026469D01*
X027179Y026612D01*
X026991Y026690D01*
X026789Y026690D01*
X026601Y026612D01*
X026458Y026469D01*
X026390Y026306D01*
X026322Y026469D01*
X026179Y026612D01*
X025991Y026690D01*
X025789Y026690D01*
X025601Y026612D01*
X025458Y026469D01*
X025390Y026306D01*
X025322Y026469D01*
X025179Y026612D01*
X024991Y026690D01*
X024789Y026690D01*
X024601Y026612D01*
X024458Y026469D01*
X024380Y026281D01*
X024380Y026079D01*
X024458Y025891D01*
X024500Y025849D01*
X024500Y025511D01*
X024458Y025469D01*
X024380Y025281D01*
X024380Y025222D01*
X023628Y024470D01*
X020952Y024470D01*
X019421Y026001D01*
X019311Y026111D01*
X019168Y026170D01*
X012412Y026170D01*
X012269Y026111D01*
X011028Y024870D01*
X010669Y024870D01*
X010709Y024881D01*
X010751Y024904D01*
X010784Y024938D01*
X010808Y024979D01*
X010820Y025025D01*
X010820Y025500D01*
X010218Y025500D01*
X010218Y025660D01*
X010820Y025660D01*
X010820Y026135D01*
X010808Y026181D01*
X010803Y026190D01*
X020828Y026190D01*
X020880Y026138D01*
X020880Y026079D01*
X020958Y025891D01*
X021101Y025748D01*
X021264Y025680D01*
X021101Y025612D01*
X020958Y025469D01*
X020880Y025281D01*
X020880Y025079D01*
X020958Y024891D01*
X021101Y024748D01*
X021289Y024670D01*
X021491Y024670D01*
X021679Y024748D01*
X021822Y024891D01*
X021900Y025079D01*
X021900Y025281D01*
X021822Y025469D01*
X021679Y025612D01*
X021516Y025680D01*
X021679Y025748D01*
X021822Y025891D01*
X021900Y026079D01*
X021900Y026281D01*
X021822Y026469D01*
X021679Y026612D01*
X021491Y026690D01*
X021432Y026690D01*
X021211Y026911D01*
X021068Y026970D01*
X008564Y026970D01*
X008421Y026911D01*
X008311Y026801D01*
X007762Y026251D01*
X007082Y026251D01*
X007000Y026169D01*
X007000Y026070D01*
X005721Y026070D01*
X005679Y026112D01*
X005491Y026190D01*
X005289Y026190D01*
X005101Y026112D01*
X004958Y025969D01*
X004880Y025781D01*
X004880Y025579D01*
X004958Y025391D01*
X005101Y025248D01*
X005264Y025180D01*
X005101Y025248D02*
X002570Y025248D01*
X002570Y025406D02*
X004951Y025406D01*
X004886Y025565D02*
X002570Y025565D01*
X002570Y025723D02*
X004880Y025723D01*
X004921Y025882D02*
X002570Y025882D01*
X002570Y026040D02*
X005029Y026040D01*
X005078Y025089D02*
X002570Y025089D01*
X002570Y024931D02*
X004942Y024931D01*
X004880Y024772D02*
X002570Y024772D01*
X002570Y024614D02*
X004880Y024614D01*
X004931Y024455D02*
X002570Y024455D01*
X002570Y024297D02*
X005052Y024297D01*
X005163Y024138D02*
X002570Y024138D01*
X002570Y023980D02*
X004968Y023980D01*
X005390Y023680D02*
X003190Y023680D01*
X002790Y023280D01*
X002790Y004180D01*
X003090Y003880D01*
X005590Y003880D01*
X005910Y004200D01*
X005910Y005200D01*
X006390Y005680D01*
X007790Y005680D01*
X008390Y005080D01*
X008390Y004680D01*
X008080Y004326D02*
X008056Y004326D01*
X007921Y004484D02*
X007897Y004484D01*
X007920Y004643D02*
X007860Y004643D01*
X007860Y004801D02*
X007920Y004801D01*
X008005Y004960D02*
X007775Y004960D01*
X007617Y005118D02*
X008041Y005118D01*
X007882Y005277D02*
X006298Y005277D01*
X006163Y005118D02*
X006139Y005118D01*
X006456Y005435D02*
X007724Y005435D01*
X008029Y005752D02*
X010170Y005752D01*
X010170Y005594D02*
X008188Y005594D01*
X008346Y005435D02*
X010170Y005435D01*
X010170Y005277D02*
X008505Y005277D01*
X008617Y005118D02*
X009163Y005118D01*
X009195Y005150D02*
X008920Y004875D01*
X008920Y004485D01*
X009195Y004210D01*
X009585Y004210D01*
X009860Y004485D01*
X009860Y004875D01*
X009585Y005150D01*
X009195Y005150D01*
X009005Y004960D02*
X008775Y004960D01*
X008860Y004801D02*
X008920Y004801D01*
X008920Y004643D02*
X008860Y004643D01*
X008859Y004484D02*
X008921Y004484D01*
X009080Y004326D02*
X008700Y004326D01*
X008090Y003980D02*
X022590Y003980D01*
X022771Y004167D02*
X024957Y004167D01*
X024958Y004169D02*
X024880Y003981D01*
X024880Y003879D01*
X023174Y003060D01*
X023085Y003150D01*
X022695Y003150D01*
X022420Y002875D01*
X022420Y002485D01*
X022695Y002210D01*
X023085Y002210D01*
X023360Y002485D01*
X023360Y002662D01*
X025068Y003481D01*
X025101Y003448D01*
X025144Y003430D01*
X024996Y003430D01*
X024951Y003418D01*
X024909Y003394D01*
X024876Y003361D01*
X024852Y003319D01*
X024840Y003274D01*
X024840Y002900D01*
X025370Y002900D01*
X025370Y002860D01*
X025410Y002860D01*
X025410Y002900D01*
X025940Y002900D01*
X025940Y003274D01*
X025928Y003319D01*
X025904Y003361D01*
X025871Y003394D01*
X025829Y003418D01*
X025784Y003430D01*
X025636Y003430D01*
X025679Y003448D01*
X025822Y003591D01*
X025900Y003779D01*
X025900Y003981D01*
X025822Y004169D01*
X025679Y004312D01*
X025566Y004359D01*
X025601Y004370D01*
X025678Y004410D01*
X025748Y004460D01*
X025810Y004522D01*
X025860Y004592D01*
X025900Y004669D01*
X025926Y004751D01*
X025940Y004837D01*
X025940Y004860D01*
X025410Y004860D01*
X025410Y004900D01*
X025940Y004900D01*
X025940Y004923D01*
X025926Y005009D01*
X025900Y005091D01*
X025860Y005168D01*
X025810Y005238D01*
X025748Y005300D01*
X025678Y005350D01*
X025601Y005390D01*
X025566Y005401D01*
X025679Y005448D01*
X025822Y005591D01*
X025900Y005779D01*
X025900Y005981D01*
X025822Y006169D01*
X025679Y006312D01*
X025491Y006390D01*
X025289Y006390D01*
X025101Y006312D01*
X024958Y006169D01*
X024880Y005981D01*
X024880Y005779D01*
X024958Y005591D01*
X025101Y005448D01*
X025214Y005401D01*
X025179Y005390D01*
X025102Y005350D01*
X025032Y005300D01*
X024970Y005238D01*
X024920Y005168D01*
X024880Y005091D01*
X024854Y005009D01*
X024840Y004923D01*
X024840Y004900D01*
X025370Y004900D01*
X025370Y004860D01*
X024840Y004860D01*
X024840Y004837D01*
X024854Y004751D01*
X024880Y004669D01*
X024920Y004592D01*
X024970Y004522D01*
X025032Y004460D01*
X025102Y004410D01*
X025179Y004370D01*
X025214Y004359D01*
X025101Y004312D01*
X024958Y004169D01*
X024891Y004009D02*
X022850Y004009D01*
X023088Y003850D02*
X024819Y003850D01*
X024489Y003692D02*
X023150Y003692D01*
X023111Y003533D02*
X024159Y003533D01*
X023828Y003375D02*
X002570Y003375D01*
X002570Y003533D02*
X007226Y003533D01*
X007390Y003680D02*
X022890Y003680D01*
X023498Y003216D02*
X003520Y003216D01*
X003519Y003216D02*
X003433Y003230D01*
X003410Y003230D01*
X003410Y002700D01*
X003370Y002700D01*
X003370Y003230D01*
X003347Y003230D01*
X003261Y003216D01*
X003179Y003190D01*
X003102Y003150D01*
X003032Y003100D01*
X002970Y003038D01*
X002920Y002968D01*
X002880Y002891D01*
X002854Y002809D01*
X002840Y002723D01*
X002840Y002700D01*
X003370Y002700D01*
X003370Y002660D01*
X002840Y002660D01*
X002840Y002637D01*
X002854Y002551D01*
X002880Y002469D01*
X002920Y002392D01*
X002970Y002322D01*
X003032Y002260D01*
X003102Y002210D01*
X003179Y002170D01*
X003214Y002159D01*
X003101Y002112D01*
X002958Y001969D01*
X002880Y001781D01*
X002880Y001579D01*
X002958Y001391D01*
X003101Y001248D01*
X003289Y001170D01*
X003491Y001170D01*
X003679Y001248D01*
X003822Y001391D01*
X003890Y001554D01*
X003958Y001391D01*
X004101Y001248D01*
X004289Y001170D01*
X004491Y001170D01*
X004679Y001248D01*
X004822Y001391D01*
X004890Y001554D01*
X004958Y001391D01*
X005101Y001248D01*
X005289Y001170D01*
X005491Y001170D01*
X005679Y001248D01*
X005822Y001391D01*
X005890Y001554D01*
X005958Y001391D01*
X006101Y001248D01*
X006289Y001170D01*
X006491Y001170D01*
X006679Y001248D01*
X006822Y001391D01*
X006890Y001554D01*
X006958Y001391D01*
X007101Y001248D01*
X007289Y001170D01*
X007491Y001170D01*
X007679Y001248D01*
X007822Y001391D01*
X007890Y001554D01*
X007958Y001391D01*
X008101Y001248D01*
X008289Y001170D01*
X008491Y001170D01*
X008679Y001248D01*
X008822Y001391D01*
X008890Y001554D01*
X008958Y001391D01*
X009101Y001248D01*
X009289Y001170D01*
X009491Y001170D01*
X009679Y001248D01*
X009822Y001391D01*
X009890Y001554D01*
X009958Y001391D01*
X010101Y001248D01*
X010289Y001170D01*
X010491Y001170D01*
X010679Y001248D01*
X010822Y001391D01*
X010890Y001554D01*
X010958Y001391D01*
X011101Y001248D01*
X011289Y001170D01*
X011491Y001170D01*
X011679Y001248D01*
X011822Y001391D01*
X011890Y001554D01*
X011958Y001391D01*
X012101Y001248D01*
X012289Y001170D01*
X012491Y001170D01*
X012679Y001248D01*
X012822Y001391D01*
X012890Y001554D01*
X012958Y001391D01*
X013101Y001248D01*
X013289Y001170D01*
X013491Y001170D01*
X013679Y001248D01*
X013822Y001391D01*
X013890Y001554D01*
X013958Y001391D01*
X014101Y001248D01*
X014289Y001170D01*
X014491Y001170D01*
X014679Y001248D01*
X014822Y001391D01*
X014890Y001554D01*
X014958Y001391D01*
X015101Y001248D01*
X015289Y001170D01*
X015491Y001170D01*
X015679Y001248D01*
X015822Y001391D01*
X015890Y001554D01*
X015958Y001391D01*
X016101Y001248D01*
X016289Y001170D01*
X016491Y001170D01*
X016679Y001248D01*
X016822Y001391D01*
X016890Y001554D01*
X016958Y001391D01*
X017101Y001248D01*
X017289Y001170D01*
X017491Y001170D01*
X017679Y001248D01*
X017822Y001391D01*
X017900Y001579D01*
X017900Y001781D01*
X017822Y001969D01*
X017679Y002112D01*
X017516Y002180D01*
X017679Y002248D01*
X017822Y002391D01*
X017900Y002579D01*
X017900Y002781D01*
X017822Y002969D01*
X017679Y003112D01*
X017491Y003190D01*
X017289Y003190D01*
X017101Y003112D01*
X016958Y002969D01*
X016890Y002806D01*
X016822Y002969D01*
X016679Y003112D01*
X016491Y003190D01*
X016289Y003190D01*
X016101Y003112D01*
X015958Y002969D01*
X015890Y002806D01*
X015822Y002969D01*
X015679Y003112D01*
X015491Y003190D01*
X015289Y003190D01*
X015101Y003112D01*
X014958Y002969D01*
X014890Y002806D01*
X014822Y002969D01*
X014679Y003112D01*
X014491Y003190D01*
X014289Y003190D01*
X014101Y003112D01*
X013958Y002969D01*
X013890Y002806D01*
X013822Y002969D01*
X013679Y003112D01*
X013491Y003190D01*
X013289Y003190D01*
X013101Y003112D01*
X012958Y002969D01*
X012890Y002806D01*
X012822Y002969D01*
X012679Y003112D01*
X012491Y003190D01*
X012289Y003190D01*
X012101Y003112D01*
X011958Y002969D01*
X011890Y002806D01*
X011822Y002969D01*
X011679Y003112D01*
X011491Y003190D01*
X011289Y003190D01*
X011101Y003112D01*
X010958Y002969D01*
X010890Y002806D01*
X010822Y002969D01*
X010679Y003112D01*
X010491Y003190D01*
X010289Y003190D01*
X010101Y003112D01*
X009958Y002969D01*
X009890Y002806D01*
X009822Y002969D01*
X009679Y003112D01*
X009491Y003190D01*
X009289Y003190D01*
X009101Y003112D01*
X008958Y002969D01*
X008890Y002806D01*
X008822Y002969D01*
X008679Y003112D01*
X008491Y003190D01*
X008289Y003190D01*
X008101Y003112D01*
X007958Y002969D01*
X007890Y002806D01*
X007822Y002969D01*
X007679Y003112D01*
X007491Y003190D01*
X007289Y003190D01*
X007101Y003112D01*
X006958Y002969D01*
X006890Y002806D01*
X006822Y002969D01*
X006679Y003112D01*
X006491Y003190D01*
X006289Y003190D01*
X006101Y003112D01*
X005958Y002969D01*
X005890Y002806D01*
X005822Y002969D01*
X005679Y003112D01*
X005491Y003190D01*
X005289Y003190D01*
X005101Y003112D01*
X004958Y002969D01*
X004890Y002806D01*
X004822Y002969D01*
X004679Y003112D01*
X004491Y003190D01*
X004289Y003190D01*
X004101Y003112D01*
X003958Y002969D01*
X003911Y002856D01*
X003900Y002891D01*
X003860Y002968D01*
X003810Y003038D01*
X003748Y003100D01*
X003678Y003150D01*
X003601Y003190D01*
X003519Y003216D01*
X003410Y003216D02*
X003370Y003216D01*
X003260Y003216D02*
X002570Y003216D01*
X002570Y003058D02*
X002990Y003058D01*
X002884Y002899D02*
X002570Y002899D01*
X002570Y002741D02*
X002843Y002741D01*
X002849Y002582D02*
X002570Y002582D01*
X002570Y002424D02*
X002903Y002424D01*
X003027Y002265D02*
X002570Y002265D01*
X002570Y002107D02*
X003095Y002107D01*
X002949Y001948D02*
X002570Y001948D01*
X002570Y001790D02*
X002883Y001790D01*
X002880Y001631D02*
X002570Y001631D01*
X002570Y001473D02*
X002924Y001473D01*
X003035Y001314D02*
X002570Y001314D01*
X002570Y001156D02*
X028710Y001156D01*
X028710Y001314D02*
X023245Y001314D01*
X023101Y001170D02*
X023400Y001469D01*
X023400Y001680D01*
X023400Y001891D01*
X023101Y002190D01*
X022890Y002190D01*
X022890Y001680D01*
X023400Y001680D01*
X022890Y001680D01*
X022890Y001680D01*
X022890Y001680D01*
X022890Y001170D01*
X023101Y001170D01*
X022890Y001170D02*
X022890Y001680D01*
X022890Y001680D01*
X022890Y001680D01*
X022380Y001680D01*
X022380Y001891D01*
X022679Y002190D01*
X022890Y002190D01*
X022890Y001680D01*
X022380Y001680D01*
X022380Y001469D01*
X022679Y001170D01*
X022890Y001170D01*
X022890Y001314D02*
X022890Y001314D01*
X022890Y001473D02*
X022890Y001473D01*
X022890Y001631D02*
X022890Y001631D01*
X022890Y001790D02*
X022890Y001790D01*
X022890Y001948D02*
X022890Y001948D01*
X022890Y002107D02*
X022890Y002107D01*
X023185Y002107D02*
X026710Y002107D01*
X026710Y002045D02*
X026814Y001795D01*
X027005Y001604D01*
X027255Y001500D01*
X027525Y001500D01*
X027775Y001604D01*
X027966Y001795D01*
X028070Y002045D01*
X028070Y002315D01*
X027966Y002565D01*
X027775Y002756D01*
X027525Y002860D01*
X027255Y002860D01*
X027005Y002756D01*
X026814Y002565D01*
X026710Y002315D01*
X026710Y002045D01*
X026750Y001948D02*
X023343Y001948D01*
X023400Y001790D02*
X026819Y001790D01*
X026977Y001631D02*
X023400Y001631D01*
X023400Y001473D02*
X028710Y001473D01*
X028710Y001631D02*
X027803Y001631D01*
X027961Y001790D02*
X028710Y001790D01*
X028710Y001948D02*
X028030Y001948D01*
X028070Y002107D02*
X028710Y002107D01*
X028710Y002265D02*
X028070Y002265D01*
X028025Y002424D02*
X028710Y002424D01*
X028710Y002582D02*
X027950Y002582D01*
X027791Y002741D02*
X028710Y002741D01*
X028710Y002899D02*
X025410Y002899D01*
X025410Y002860D02*
X025940Y002860D01*
X025940Y002486D01*
X025928Y002441D01*
X025904Y002399D01*
X025871Y002366D01*
X025829Y002342D01*
X025784Y002330D01*
X025410Y002330D01*
X025410Y002860D01*
X025370Y002860D02*
X025370Y002330D01*
X024996Y002330D01*
X024951Y002342D01*
X024909Y002366D01*
X024876Y002399D01*
X024852Y002441D01*
X024840Y002486D01*
X024840Y002860D01*
X025370Y002860D01*
X025370Y002899D02*
X023855Y002899D01*
X024185Y003058D02*
X024840Y003058D01*
X024840Y003216D02*
X024515Y003216D01*
X024845Y003375D02*
X024890Y003375D01*
X025390Y003880D02*
X022890Y002680D01*
X022603Y003058D02*
X019177Y003058D01*
X019085Y003150D02*
X018695Y003150D01*
X018420Y002875D01*
X018420Y002485D01*
X018695Y002210D01*
X019085Y002210D01*
X019360Y002485D01*
X019360Y002875D01*
X019085Y003150D01*
X019336Y002899D02*
X022444Y002899D01*
X022420Y002741D02*
X019360Y002741D01*
X019360Y002582D02*
X022420Y002582D01*
X022482Y002424D02*
X019298Y002424D01*
X019140Y002265D02*
X022640Y002265D01*
X022595Y002107D02*
X019128Y002107D01*
X019085Y002150D02*
X018695Y002150D01*
X018420Y001875D01*
X018420Y001485D01*
X018695Y001210D01*
X019085Y001210D01*
X019360Y001485D01*
X019360Y001875D01*
X019085Y002150D01*
X019287Y001948D02*
X022437Y001948D01*
X022380Y001790D02*
X019360Y001790D01*
X019360Y001631D02*
X022380Y001631D01*
X022380Y001473D02*
X019347Y001473D01*
X019189Y001314D02*
X022535Y001314D01*
X023140Y002265D02*
X026710Y002265D01*
X026755Y002424D02*
X025918Y002424D01*
X025940Y002582D02*
X026830Y002582D01*
X026989Y002741D02*
X025940Y002741D01*
X025940Y003058D02*
X027116Y003058D01*
X027005Y003104D02*
X027255Y003000D01*
X027525Y003000D01*
X027775Y003104D01*
X027966Y003295D01*
X028070Y003545D01*
X028070Y003815D01*
X027966Y004065D01*
X027775Y004256D01*
X027525Y004360D01*
X027255Y004360D01*
X027005Y004256D01*
X026814Y004065D01*
X026710Y003815D01*
X026710Y003545D01*
X026814Y003295D01*
X027005Y003104D01*
X026892Y003216D02*
X025940Y003216D01*
X025890Y003375D02*
X026781Y003375D01*
X026715Y003533D02*
X025764Y003533D01*
X025864Y003692D02*
X026710Y003692D01*
X026724Y003850D02*
X025900Y003850D01*
X025889Y004009D02*
X026790Y004009D01*
X026915Y004167D02*
X025823Y004167D01*
X025647Y004326D02*
X027171Y004326D01*
X027255Y004500D02*
X027525Y004500D01*
X027775Y004604D01*
X027966Y004795D01*
X028070Y005045D01*
X028070Y005315D01*
X027966Y005565D01*
X027775Y005756D01*
X027525Y005860D01*
X027255Y005860D01*
X027005Y005756D01*
X026814Y005565D01*
X026710Y005315D01*
X026710Y005045D01*
X026814Y004795D01*
X027005Y004604D01*
X027255Y004500D01*
X026966Y004643D02*
X025886Y004643D01*
X025934Y004801D02*
X026811Y004801D01*
X026745Y004960D02*
X025934Y004960D01*
X025886Y005118D02*
X026710Y005118D01*
X026710Y005277D02*
X025771Y005277D01*
X025648Y005435D02*
X026760Y005435D01*
X026842Y005594D02*
X025823Y005594D01*
X025889Y005752D02*
X027000Y005752D01*
X027088Y006069D02*
X025864Y006069D01*
X025900Y005911D02*
X029610Y005911D01*
X029610Y006069D02*
X027692Y006069D01*
X027775Y006104D02*
X027525Y006000D01*
X027255Y006000D01*
X027005Y006104D01*
X026814Y006295D01*
X026710Y006545D01*
X026710Y006815D01*
X026814Y007065D01*
X027005Y007256D01*
X027255Y007360D01*
X027525Y007360D01*
X027775Y007256D01*
X027966Y007065D01*
X028070Y006815D01*
X028070Y006545D01*
X027966Y006295D01*
X027775Y006104D01*
X027899Y006228D02*
X029610Y006228D01*
X029610Y006386D02*
X028004Y006386D01*
X028070Y006545D02*
X029610Y006545D01*
X029610Y006703D02*
X028070Y006703D01*
X028051Y006862D02*
X029610Y006862D01*
X029610Y007020D02*
X027985Y007020D01*
X027853Y007179D02*
X029610Y007179D01*
X029610Y007337D02*
X027581Y007337D01*
X027199Y007337D02*
X012110Y007337D01*
X012110Y007179D02*
X013167Y007179D01*
X013390Y007179D02*
X013390Y007179D01*
X013390Y007020D02*
X013390Y007020D01*
X013390Y006862D02*
X013390Y006862D01*
X013390Y006703D02*
X013390Y006703D01*
X013390Y006545D02*
X013390Y006545D01*
X013390Y006386D02*
X013390Y006386D01*
X013390Y006228D02*
X013390Y006228D01*
X013312Y006069D02*
X014270Y006069D01*
X014270Y005911D02*
X013471Y005911D01*
X013629Y005752D02*
X014270Y005752D01*
X014490Y005820D02*
X016750Y005820D01*
X017290Y005280D01*
X017390Y005280D01*
X017990Y004680D01*
X017680Y004326D02*
X017300Y004326D01*
X017459Y004484D02*
X017521Y004484D01*
X017520Y004643D02*
X017460Y004643D01*
X017460Y004801D02*
X017520Y004801D01*
X017399Y004960D02*
X017375Y004960D01*
X016990Y004950D02*
X016990Y004680D01*
X016990Y004950D02*
X016570Y005370D01*
X013700Y005370D01*
X012390Y006680D01*
X012370Y006660D01*
X012860Y006703D02*
X012880Y006703D01*
X012880Y006545D02*
X012860Y006545D01*
X012860Y006862D02*
X012880Y006862D01*
X013009Y007020D02*
X012715Y007020D01*
X012110Y007496D02*
X029610Y007496D01*
X029610Y007654D02*
X012110Y007654D01*
X012110Y007813D02*
X019493Y007813D01*
X019493Y007971D02*
X012110Y007971D01*
X012110Y008130D02*
X019493Y008130D01*
X019493Y008288D02*
X012110Y008288D01*
X012110Y008447D02*
X019493Y008447D01*
X019436Y008877D02*
X013390Y008877D01*
X013293Y008780D01*
X012390Y008780D01*
X012110Y008764D02*
X012110Y008764D01*
X012110Y008922D02*
X012146Y008922D01*
X012142Y009081D02*
X013283Y009081D01*
X013429Y008605D02*
X018584Y008605D01*
X019436Y009349D02*
X012099Y009349D01*
X011890Y009140D01*
X011890Y006280D01*
X012370Y005800D01*
X012370Y004700D01*
X012390Y004680D01*
X012080Y004326D02*
X011700Y004326D01*
X011585Y004210D02*
X011860Y004485D01*
X011860Y004875D01*
X011585Y005150D01*
X011195Y005150D01*
X010920Y004875D01*
X010920Y004485D01*
X011195Y004210D01*
X011585Y004210D01*
X011859Y004484D02*
X011921Y004484D01*
X011920Y004643D02*
X011860Y004643D01*
X011860Y004801D02*
X011920Y004801D01*
X012005Y004960D02*
X011775Y004960D01*
X011617Y005118D02*
X012150Y005118D01*
X012150Y005277D02*
X010610Y005277D01*
X010610Y005435D02*
X012150Y005435D01*
X012150Y005594D02*
X010615Y005594D01*
X010773Y005752D02*
X012107Y005752D01*
X011948Y005911D02*
X010932Y005911D01*
X011090Y006069D02*
X011790Y006069D01*
X011670Y006228D02*
X011602Y006228D01*
X011390Y006680D02*
X010390Y005680D01*
X010390Y004680D01*
X010080Y004326D02*
X009700Y004326D01*
X009859Y004484D02*
X009921Y004484D01*
X009920Y004643D02*
X009860Y004643D01*
X009860Y004801D02*
X009920Y004801D01*
X010005Y004960D02*
X009775Y004960D01*
X009617Y005118D02*
X010163Y005118D01*
X010617Y005118D02*
X011163Y005118D01*
X011005Y004960D02*
X010775Y004960D01*
X010860Y004801D02*
X010920Y004801D01*
X010920Y004643D02*
X010860Y004643D01*
X010859Y004484D02*
X010921Y004484D01*
X011080Y004326D02*
X010700Y004326D01*
X012617Y005118D02*
X013163Y005118D01*
X013082Y005277D02*
X012590Y005277D01*
X012590Y005435D02*
X012924Y005435D01*
X012765Y005594D02*
X012590Y005594D01*
X012790Y005880D02*
X013410Y005260D01*
X013410Y004700D01*
X013390Y004680D01*
X013080Y004326D02*
X012700Y004326D01*
X012859Y004484D02*
X012921Y004484D01*
X012920Y004643D02*
X012860Y004643D01*
X012860Y004801D02*
X012920Y004801D01*
X013005Y004960D02*
X012775Y004960D01*
X013630Y005118D02*
X014763Y005118D01*
X014795Y005150D02*
X014520Y004875D01*
X014520Y004485D01*
X014795Y004210D01*
X015185Y004210D01*
X015460Y004485D01*
X015460Y004875D01*
X015185Y005150D01*
X014795Y005150D01*
X014605Y004960D02*
X013775Y004960D01*
X013860Y004801D02*
X014520Y004801D01*
X014520Y004643D02*
X013860Y004643D01*
X013859Y004484D02*
X014521Y004484D01*
X014680Y004326D02*
X013700Y004326D01*
X015300Y004326D02*
X015680Y004326D01*
X015795Y004210D02*
X016185Y004210D01*
X016460Y004485D01*
X016460Y004875D01*
X016185Y005150D01*
X015795Y005150D01*
X015520Y004875D01*
X015520Y004485D01*
X015795Y004210D01*
X015521Y004484D02*
X015459Y004484D01*
X015460Y004643D02*
X015520Y004643D01*
X015520Y004801D02*
X015460Y004801D01*
X015375Y004960D02*
X015605Y004960D01*
X015763Y005118D02*
X015217Y005118D01*
X016217Y005118D02*
X016511Y005118D01*
X016605Y004960D02*
X016375Y004960D01*
X016460Y004801D02*
X016520Y004801D01*
X016520Y004643D02*
X016460Y004643D01*
X016459Y004484D02*
X016521Y004484D01*
X016680Y004326D02*
X016300Y004326D01*
X016975Y005277D02*
X016982Y005277D01*
X016824Y005435D02*
X016816Y005435D01*
X016665Y005594D02*
X013788Y005594D01*
X013659Y006228D02*
X014178Y006228D01*
X014019Y006386D02*
X013817Y006386D01*
X013900Y006545D02*
X013920Y006545D01*
X013920Y006703D02*
X013900Y006703D01*
X013900Y006862D02*
X013920Y006862D01*
X014065Y007020D02*
X013771Y007020D01*
X013613Y007179D02*
X015167Y007179D01*
X015179Y007190D02*
X014880Y006891D01*
X014880Y006680D01*
X015390Y006680D01*
X015390Y006680D01*
X015390Y007190D01*
X015601Y007190D01*
X015900Y006891D01*
X015900Y006680D01*
X015390Y006680D01*
X015390Y006680D01*
X015390Y006680D01*
X015390Y007190D01*
X015179Y007190D01*
X015390Y007179D02*
X015390Y007179D01*
X015390Y007020D02*
X015390Y007020D01*
X015390Y006862D02*
X015390Y006862D01*
X015390Y006703D02*
X015390Y006703D01*
X015390Y006680D02*
X014880Y006680D01*
X014880Y006469D01*
X015179Y006170D01*
X015390Y006170D01*
X015601Y006170D01*
X015900Y006469D01*
X015900Y006680D01*
X015390Y006680D01*
X015390Y006170D01*
X015390Y006680D01*
X015390Y006680D01*
X015390Y006545D02*
X015390Y006545D01*
X015390Y006386D02*
X015390Y006386D01*
X015390Y006228D02*
X015390Y006228D01*
X015659Y006228D02*
X016178Y006228D01*
X016019Y006386D02*
X015817Y006386D01*
X015900Y006545D02*
X015920Y006545D01*
X015920Y006703D02*
X015900Y006703D01*
X015900Y006862D02*
X015920Y006862D01*
X016065Y007020D02*
X015771Y007020D01*
X015613Y007179D02*
X017167Y007179D01*
X017390Y007179D02*
X017390Y007179D01*
X017390Y007020D02*
X017390Y007020D01*
X017390Y006862D02*
X017390Y006862D01*
X017390Y006703D02*
X017390Y006703D01*
X017771Y007020D02*
X026795Y007020D01*
X026729Y006862D02*
X017900Y006862D01*
X017900Y006703D02*
X026710Y006703D01*
X026710Y006545D02*
X017900Y006545D01*
X017817Y006386D02*
X018585Y006386D01*
X018426Y006228D02*
X017659Y006228D01*
X017090Y005980D02*
X018490Y005980D01*
X018690Y006180D01*
X019290Y006180D01*
X019990Y005480D01*
X019990Y004680D01*
X019680Y004326D02*
X019300Y004326D01*
X019459Y004484D02*
X019521Y004484D01*
X019520Y004643D02*
X019460Y004643D01*
X019460Y004801D02*
X019520Y004801D01*
X019605Y004960D02*
X019375Y004960D01*
X019217Y005118D02*
X019763Y005118D01*
X019770Y005277D02*
X019210Y005277D01*
X019210Y005435D02*
X019724Y005435D01*
X019565Y005594D02*
X019210Y005594D01*
X019270Y005752D02*
X019407Y005752D01*
X019248Y005911D02*
X019239Y005911D01*
X018990Y005780D02*
X018990Y004680D01*
X018680Y004326D02*
X018300Y004326D01*
X018459Y004484D02*
X018521Y004484D01*
X018520Y004643D02*
X018460Y004643D01*
X018460Y004801D02*
X018520Y004801D01*
X018605Y004960D02*
X018375Y004960D01*
X018217Y005118D02*
X018763Y005118D01*
X018770Y005277D02*
X017705Y005277D01*
X017546Y005435D02*
X018770Y005435D01*
X018770Y005594D02*
X017288Y005594D01*
X017129Y005752D02*
X018710Y005752D01*
X018732Y005911D02*
X018741Y005911D01*
X019395Y006386D02*
X025279Y006386D01*
X025501Y006386D02*
X026776Y006386D01*
X026881Y006228D02*
X025764Y006228D01*
X025016Y006228D02*
X019554Y006228D01*
X019712Y006069D02*
X024916Y006069D01*
X024880Y005911D02*
X019871Y005911D01*
X020029Y005752D02*
X024891Y005752D01*
X024957Y005594D02*
X020188Y005594D01*
X020210Y005435D02*
X025132Y005435D01*
X025009Y005277D02*
X020210Y005277D01*
X020217Y005118D02*
X020707Y005118D01*
X020779Y005190D02*
X020480Y004891D01*
X020480Y004698D01*
X020972Y004698D01*
X020972Y005190D01*
X020779Y005190D01*
X020972Y005118D02*
X021008Y005118D01*
X021008Y005190D02*
X021008Y004698D01*
X021500Y004698D01*
X021500Y004891D01*
X021201Y005190D01*
X021008Y005190D01*
X021008Y004960D02*
X020972Y004960D01*
X020972Y004801D02*
X021008Y004801D01*
X021273Y005118D02*
X021763Y005118D01*
X021795Y005150D02*
X021520Y004875D01*
X021520Y004485D01*
X021795Y004210D01*
X022185Y004210D01*
X022460Y004485D01*
X022460Y004875D01*
X022185Y005150D01*
X021795Y005150D01*
X021605Y004960D02*
X021432Y004960D01*
X021500Y004801D02*
X021520Y004801D01*
X021520Y004643D02*
X021500Y004643D01*
X021500Y004484D02*
X021521Y004484D01*
X021680Y004326D02*
X021357Y004326D01*
X020623Y004326D02*
X020300Y004326D01*
X020459Y004484D02*
X020480Y004484D01*
X020480Y004643D02*
X020460Y004643D01*
X020460Y004801D02*
X020480Y004801D01*
X020548Y004960D02*
X020375Y004960D01*
X022217Y005118D02*
X024894Y005118D01*
X024846Y004960D02*
X022375Y004960D01*
X022460Y004801D02*
X024846Y004801D01*
X024894Y004643D02*
X022460Y004643D01*
X022459Y004484D02*
X025008Y004484D01*
X025133Y004326D02*
X022300Y004326D01*
X023524Y002741D02*
X024840Y002741D01*
X024840Y002582D02*
X023360Y002582D01*
X023298Y002424D02*
X024862Y002424D01*
X025370Y002424D02*
X025410Y002424D01*
X025410Y002582D02*
X025370Y002582D01*
X025370Y002741D02*
X025410Y002741D01*
X027664Y003058D02*
X028710Y003058D01*
X028710Y003216D02*
X027888Y003216D01*
X027999Y003375D02*
X028710Y003375D01*
X028710Y003533D02*
X028065Y003533D01*
X028070Y003692D02*
X028710Y003692D01*
X028710Y003850D02*
X028056Y003850D01*
X027990Y004009D02*
X028710Y004009D01*
X028710Y004167D02*
X027865Y004167D01*
X027609Y004326D02*
X028781Y004326D01*
X028815Y004360D02*
X028710Y004255D01*
X028710Y000860D01*
X002570Y000860D01*
X002570Y026996D01*
X028710Y027000D01*
X028710Y023750D01*
X028710Y023750D01*
X028710Y023676D01*
X028710Y023602D01*
X028710Y023601D01*
X028710Y023601D01*
X028763Y023549D01*
X028815Y023496D01*
X028816Y023496D01*
X028816Y023496D01*
X028890Y023496D01*
X028965Y023496D01*
X029610Y023499D01*
X029610Y023422D01*
X028853Y023422D01*
X028771Y023340D01*
X028771Y022752D01*
X028853Y022670D01*
X029610Y022670D01*
X029610Y020430D01*
X028853Y020430D01*
X028771Y020348D01*
X028771Y019765D01*
X027764Y019765D01*
X027681Y019683D01*
X027681Y018779D01*
X027764Y018697D01*
X028982Y018697D01*
X029064Y018779D01*
X029064Y019678D01*
X029610Y019678D01*
X029610Y017105D01*
X029715Y017000D01*
X034710Y017000D01*
X034710Y010560D01*
X029715Y010560D01*
X029610Y010455D01*
X029610Y004360D01*
X028815Y004360D01*
X029610Y004484D02*
X025772Y004484D01*
X027814Y004643D02*
X029610Y004643D01*
X029610Y004801D02*
X027969Y004801D01*
X028035Y004960D02*
X029610Y004960D01*
X029610Y005118D02*
X028070Y005118D01*
X028070Y005277D02*
X029610Y005277D01*
X029610Y005435D02*
X028020Y005435D01*
X027938Y005594D02*
X029610Y005594D01*
X029610Y005752D02*
X027780Y005752D01*
X026927Y007179D02*
X017613Y007179D01*
X017009Y007020D02*
X016715Y007020D01*
X016860Y006862D02*
X016880Y006862D01*
X016880Y006703D02*
X016860Y006703D01*
X016860Y006545D02*
X016880Y006545D01*
X016390Y006680D02*
X017090Y005980D01*
X016690Y006069D02*
X014710Y006069D01*
X014710Y006228D02*
X015121Y006228D01*
X014963Y006386D02*
X014761Y006386D01*
X014860Y006545D02*
X014880Y006545D01*
X014880Y006703D02*
X014860Y006703D01*
X014860Y006862D02*
X014880Y006862D01*
X015009Y007020D02*
X014715Y007020D01*
X014390Y006680D02*
X014490Y006580D01*
X014490Y005820D01*
X011670Y007179D02*
X010519Y007179D01*
X010768Y007337D02*
X011670Y007337D01*
X011670Y007496D02*
X010866Y007496D01*
X010900Y007654D02*
X011670Y007654D01*
X011670Y007813D02*
X010887Y007813D01*
X010820Y007971D02*
X011670Y007971D01*
X011670Y008130D02*
X010637Y008130D01*
X010719Y008288D02*
X011670Y008288D01*
X011670Y008447D02*
X010845Y008447D01*
X010900Y008605D02*
X011670Y008605D01*
X011670Y008764D02*
X010900Y008764D01*
X010842Y008922D02*
X011670Y008922D01*
X011670Y009081D02*
X010711Y009081D01*
X010658Y009239D02*
X011678Y009239D01*
X011836Y009398D02*
X010825Y009398D01*
X010891Y009556D02*
X011995Y009556D01*
X012195Y010210D02*
X012585Y010210D01*
X012835Y010460D01*
X012945Y010460D01*
X013195Y010210D01*
X013585Y010210D01*
X013860Y010485D01*
X013860Y010875D01*
X013610Y011125D01*
X013610Y012115D01*
X013717Y012115D01*
X013877Y012181D01*
X013999Y012304D01*
X014040Y012402D01*
X014040Y010995D01*
X013920Y010875D01*
X013920Y010485D01*
X014195Y010210D01*
X014585Y010210D01*
X014835Y010460D01*
X014945Y010460D01*
X015195Y010210D01*
X015585Y010210D01*
X015860Y010485D01*
X015860Y010875D01*
X015585Y011150D01*
X015195Y011150D01*
X014945Y010900D01*
X014835Y010900D01*
X014585Y011150D01*
X014480Y011150D01*
X014480Y012402D01*
X014521Y012304D01*
X014643Y012181D01*
X014803Y012115D01*
X014977Y012115D01*
X015137Y012181D01*
X015259Y012304D01*
X015323Y012458D01*
X015387Y012304D01*
X015510Y012181D01*
X015570Y012156D01*
X015570Y011819D01*
X015699Y011690D01*
X016170Y011219D01*
X016170Y011125D01*
X015920Y010875D01*
X015920Y010485D01*
X016195Y010210D01*
X016585Y010210D01*
X016835Y010460D01*
X016945Y010460D01*
X017195Y010210D01*
X017585Y010210D01*
X017860Y010485D01*
X017860Y010875D01*
X017585Y011150D01*
X017195Y011150D01*
X016945Y010900D01*
X016835Y010900D01*
X016610Y011125D01*
X016610Y011401D01*
X016010Y012001D01*
X016010Y012188D01*
X016125Y012304D01*
X016189Y012458D01*
X016253Y012304D01*
X016376Y012181D01*
X016536Y012115D01*
X016709Y012115D01*
X016869Y012181D01*
X016991Y012304D01*
X017058Y012463D01*
X017058Y012637D01*
X016991Y012797D01*
X016869Y012919D01*
X016722Y012980D01*
X017099Y012980D01*
X017839Y012240D01*
X018508Y012240D01*
X018508Y012165D01*
X018590Y012083D01*
X020281Y012083D01*
X020363Y012165D01*
X020363Y012754D01*
X020281Y012836D01*
X018590Y012836D01*
X018508Y012754D01*
X018508Y012680D01*
X018022Y012680D01*
X017410Y013291D01*
X017281Y013420D01*
X016818Y013420D01*
X016869Y013441D01*
X016991Y013563D01*
X017058Y013723D01*
X017058Y013897D01*
X016991Y014056D01*
X016869Y014179D01*
X016709Y014245D01*
X016536Y014245D01*
X016376Y014179D01*
X016253Y014056D01*
X016189Y013902D01*
X016125Y014056D01*
X016003Y014179D01*
X015843Y014245D01*
X015670Y014245D01*
X015510Y014179D01*
X015387Y014056D01*
X015323Y013902D01*
X015259Y014056D01*
X015137Y014179D01*
X015110Y014190D01*
X015110Y014209D01*
X015381Y014480D01*
X017911Y014480D01*
X018529Y015098D01*
X018590Y015036D01*
X020281Y015036D01*
X020363Y015118D01*
X020363Y015706D01*
X020281Y015789D01*
X018590Y015789D01*
X018508Y015706D01*
X018508Y015632D01*
X018441Y015632D01*
X018312Y015503D01*
X017729Y014920D01*
X015199Y014920D01*
X014799Y014520D01*
X014670Y014391D01*
X014670Y014190D01*
X014643Y014179D01*
X014521Y014056D01*
X014455Y013897D01*
X014455Y013723D01*
X014521Y013563D01*
X014643Y013441D01*
X014766Y013390D01*
X014489Y013390D01*
X014040Y012941D01*
X014040Y012698D01*
X013999Y012797D01*
X013877Y012919D01*
X013717Y012985D01*
X013544Y012985D01*
X013384Y012919D01*
X013261Y012797D01*
X013210Y012673D01*
X013210Y013588D01*
X013224Y013561D01*
X013268Y013500D01*
X013321Y013447D01*
X013381Y013403D01*
X013448Y013369D01*
X013519Y013346D01*
X013593Y013335D01*
X013622Y013335D01*
X013622Y013801D01*
X013639Y013801D01*
X013639Y013819D01*
X013622Y013819D01*
X013622Y014285D01*
X013593Y014285D01*
X013519Y014273D01*
X013448Y014250D01*
X013381Y014216D01*
X013321Y014172D01*
X013268Y014120D01*
X013224Y014059D01*
X013210Y014032D01*
X013210Y014289D01*
X013381Y014460D01*
X013791Y014460D01*
X013920Y014589D01*
X014311Y014980D01*
X014440Y015109D01*
X014440Y015829D01*
X014581Y015970D01*
X014766Y015970D01*
X014643Y015919D01*
X014521Y015797D01*
X014455Y015637D01*
X014455Y015463D01*
X014521Y015304D01*
X014643Y015181D01*
X014803Y015115D01*
X014977Y015115D01*
X015137Y015181D01*
X015259Y015304D01*
X015323Y015458D01*
X015387Y015304D01*
X015510Y015181D01*
X015670Y015115D01*
X015843Y015115D01*
X016003Y015181D01*
X016125Y015304D01*
X016189Y015458D01*
X016253Y015304D01*
X016376Y015181D01*
X016536Y015115D01*
X016709Y015115D01*
X016869Y015181D01*
X016991Y015304D01*
X017058Y015463D01*
X017058Y015637D01*
X016991Y015797D01*
X016869Y015919D01*
X016709Y015985D01*
X016536Y015985D01*
X016376Y015919D01*
X016253Y015797D01*
X016189Y015642D01*
X016125Y015797D01*
X016003Y015919D01*
X015843Y015985D01*
X015670Y015985D01*
X015510Y015919D01*
X015387Y015797D01*
X015323Y015642D01*
X015259Y015797D01*
X015137Y015919D01*
X015014Y015970D01*
X015227Y015970D01*
X015643Y016386D01*
X015670Y016375D01*
X015843Y016375D01*
X016003Y016441D01*
X016125Y016563D01*
X016189Y016718D01*
X016253Y016563D01*
X016376Y016441D01*
X016536Y016375D01*
X016709Y016375D01*
X016869Y016441D01*
X016991Y016563D01*
X017058Y016723D01*
X017058Y016897D01*
X016991Y017056D01*
X016869Y017179D01*
X016709Y017245D01*
X016536Y017245D01*
X016376Y017179D01*
X016253Y017056D01*
X016189Y016902D01*
X016125Y017056D01*
X016003Y017179D01*
X015843Y017245D01*
X015670Y017245D01*
X015510Y017179D01*
X015387Y017056D01*
X015323Y016902D01*
X015259Y017056D01*
X015168Y017147D01*
X015391Y017370D01*
X017229Y017370D01*
X018293Y016305D01*
X018422Y016177D01*
X018508Y016177D01*
X018508Y016102D01*
X018590Y016020D01*
X020281Y016020D01*
X020363Y016102D01*
X020363Y016691D01*
X020281Y016773D01*
X018590Y016773D01*
X018519Y016702D01*
X017411Y017810D01*
X015209Y017810D01*
X015080Y017681D01*
X014670Y017271D01*
X014670Y017190D01*
X014643Y017179D01*
X014521Y017056D01*
X014455Y016897D01*
X014455Y016883D01*
X014437Y016900D01*
X014342Y016940D01*
X014238Y016940D01*
X014143Y016900D01*
X014103Y016861D01*
X014094Y016921D01*
X014071Y016992D01*
X014037Y017059D01*
X013993Y017120D01*
X013940Y017172D01*
X013879Y017216D01*
X013813Y017250D01*
X013741Y017273D01*
X013668Y017285D01*
X013639Y017285D01*
X013639Y016819D01*
X013622Y016819D01*
X013622Y017285D01*
X013593Y017285D01*
X013519Y017273D01*
X013448Y017250D01*
X013381Y017216D01*
X013321Y017172D01*
X013268Y017120D01*
X013224Y017059D01*
X013190Y016992D01*
X013167Y016921D01*
X013155Y016847D01*
X012425Y016847D01*
X012436Y016811D02*
X012409Y016895D01*
X012369Y016974D01*
X012317Y017045D01*
X012255Y017107D01*
X012184Y017159D01*
X012105Y017199D01*
X012021Y017226D01*
X011934Y017240D01*
X011920Y017240D01*
X011920Y016710D01*
X011860Y016710D01*
X011860Y017240D01*
X011846Y017240D01*
X011759Y017226D01*
X011675Y017199D01*
X011596Y017159D01*
X011525Y017107D01*
X011463Y017045D01*
X011411Y016974D01*
X011371Y016895D01*
X011344Y016811D01*
X011330Y016724D01*
X011330Y016710D01*
X011860Y016710D01*
X011860Y016650D01*
X011330Y016650D01*
X011330Y016636D01*
X011344Y016549D01*
X011371Y016465D01*
X011411Y016386D01*
X011463Y016315D01*
X011525Y016253D01*
X011596Y016201D01*
X011675Y016161D01*
X011759Y016134D01*
X011846Y016120D01*
X011860Y016120D01*
X011860Y016650D01*
X011920Y016650D01*
X011920Y016710D01*
X012450Y016710D01*
X012450Y016724D01*
X012436Y016811D01*
X012450Y016650D02*
X011920Y016650D01*
X011920Y016120D01*
X011934Y016120D01*
X012021Y016134D01*
X012105Y016161D01*
X012184Y016201D01*
X012255Y016253D01*
X012317Y016315D01*
X012369Y016386D01*
X012409Y016465D01*
X012436Y016549D01*
X012450Y016636D01*
X012450Y016650D01*
X012430Y016530D02*
X013246Y016530D01*
X013268Y016500D02*
X013321Y016447D01*
X013381Y016403D01*
X013448Y016369D01*
X013519Y016346D01*
X013593Y016335D01*
X013622Y016335D01*
X013622Y016801D01*
X013639Y016801D01*
X013639Y016340D01*
X013539Y016240D01*
X013410Y016111D01*
X013410Y015930D01*
X013384Y015919D01*
X013261Y015797D01*
X013195Y015637D01*
X013195Y015463D01*
X013261Y015304D01*
X013384Y015181D01*
X013544Y015115D01*
X013717Y015115D01*
X013877Y015181D01*
X013999Y015304D01*
X014000Y015306D01*
X014000Y015291D01*
X013609Y014900D01*
X013199Y014900D01*
X013070Y014771D01*
X012910Y014611D01*
X012910Y015204D01*
X012927Y015221D01*
X012970Y015324D01*
X012970Y015436D01*
X012927Y015539D01*
X012849Y015617D01*
X012746Y015660D01*
X012634Y015660D01*
X012531Y015617D01*
X012453Y015539D01*
X012410Y015436D01*
X012410Y015324D01*
X012453Y015221D01*
X012470Y015204D01*
X012470Y012356D01*
X012453Y012339D01*
X012410Y012236D01*
X012410Y012124D01*
X012453Y012021D01*
X012531Y011943D01*
X012634Y011900D01*
X012746Y011900D01*
X012849Y011943D01*
X012927Y012021D01*
X012970Y012124D01*
X012970Y012189D01*
X013170Y011989D01*
X013170Y011125D01*
X012945Y010900D01*
X012835Y010900D01*
X012585Y011150D01*
X012195Y011150D01*
X011920Y010875D01*
X011920Y010485D01*
X012195Y010210D01*
X012057Y010349D02*
X011723Y010349D01*
X011860Y010507D02*
X011920Y010507D01*
X011920Y010666D02*
X011860Y010666D01*
X011860Y010824D02*
X011920Y010824D01*
X012028Y010983D02*
X011752Y010983D01*
X011594Y011141D02*
X012186Y011141D01*
X012594Y011141D02*
X013170Y011141D01*
X013170Y011300D02*
X011382Y011300D01*
X011310Y011458D02*
X013170Y011458D01*
X013170Y011617D02*
X011310Y011617D01*
X011310Y011775D02*
X013170Y011775D01*
X013170Y011934D02*
X012827Y011934D01*
X012957Y012092D02*
X013067Y012092D01*
X013390Y012080D02*
X012990Y012480D01*
X012990Y014380D01*
X013290Y014680D01*
X013700Y014680D01*
X014220Y015200D01*
X014220Y015920D01*
X014490Y016190D01*
X015136Y016190D01*
X015756Y016810D01*
X015366Y017006D02*
X015280Y017006D01*
X015185Y017164D02*
X015495Y017164D01*
X015344Y017323D02*
X017276Y017323D01*
X017435Y017164D02*
X016884Y017164D01*
X017012Y017006D02*
X017593Y017006D01*
X017752Y016847D02*
X017058Y016847D01*
X017043Y016689D02*
X017910Y016689D01*
X018069Y016530D02*
X016958Y016530D01*
X016287Y016530D02*
X016092Y016530D01*
X016177Y016689D02*
X016201Y016689D01*
X016232Y017006D02*
X016146Y017006D01*
X016018Y017164D02*
X016361Y017164D01*
X017320Y017590D02*
X018513Y016397D01*
X019436Y016397D01*
X019972Y016460D01*
X020363Y016530D02*
X033063Y016530D01*
X033035Y016501D02*
X032917Y016217D01*
X032917Y015910D01*
X033035Y015626D01*
X033252Y015408D01*
X033536Y015290D01*
X033844Y015290D01*
X034128Y015408D01*
X034345Y015626D01*
X034463Y015910D01*
X034463Y016217D01*
X034345Y016501D01*
X034128Y016719D01*
X033844Y016837D01*
X033536Y016837D01*
X033252Y016719D01*
X033035Y016501D01*
X032981Y016372D02*
X020363Y016372D01*
X020363Y016213D02*
X032917Y016213D01*
X032917Y016055D02*
X020315Y016055D01*
X020332Y015738D02*
X032988Y015738D01*
X032923Y015896D02*
X016892Y015896D01*
X017016Y015738D02*
X018539Y015738D01*
X018388Y015579D02*
X017058Y015579D01*
X017040Y015421D02*
X018229Y015421D01*
X018071Y015262D02*
X016950Y015262D01*
X016295Y015262D02*
X016084Y015262D01*
X016174Y015421D02*
X016205Y015421D01*
X016229Y015738D02*
X016150Y015738D01*
X016026Y015896D02*
X016353Y015896D01*
X015629Y016372D02*
X018227Y016372D01*
X018386Y016213D02*
X015470Y016213D01*
X015312Y016055D02*
X018556Y016055D01*
X018532Y015412D02*
X019436Y015412D01*
X019474Y014844D02*
X019474Y014466D01*
X020403Y014466D01*
X020403Y014688D01*
X020391Y014734D01*
X020367Y014775D01*
X020334Y014808D01*
X020293Y014832D01*
X020247Y014844D01*
X019474Y014844D01*
X019474Y014787D02*
X019398Y014787D01*
X019398Y014844D02*
X019398Y014466D01*
X019474Y014466D01*
X019474Y014390D01*
X020403Y014390D01*
X020403Y014168D01*
X020391Y014122D01*
X020367Y014081D01*
X020334Y014048D01*
X020293Y014024D01*
X020247Y014012D01*
X019474Y014012D01*
X019474Y014390D01*
X019398Y014390D01*
X019398Y014012D01*
X018625Y014012D01*
X018579Y014024D01*
X018538Y014048D01*
X018504Y014081D01*
X018481Y014122D01*
X018468Y014168D01*
X018468Y014390D01*
X019398Y014390D01*
X019398Y014466D01*
X018468Y014466D01*
X018468Y014688D01*
X018481Y014734D01*
X018504Y014775D01*
X018538Y014808D01*
X018579Y014832D01*
X018625Y014844D01*
X019398Y014844D01*
X019398Y014628D02*
X019474Y014628D01*
X019474Y014470D02*
X019398Y014470D01*
X019398Y014311D02*
X019474Y014311D01*
X019474Y014153D02*
X019398Y014153D01*
X019513Y013834D02*
X018329Y013834D01*
X018294Y013918D01*
X018163Y014048D01*
X017992Y014119D01*
X017808Y014119D01*
X017637Y014048D01*
X017506Y013918D01*
X017435Y013747D01*
X017435Y013562D01*
X017506Y013391D01*
X017637Y013260D01*
X017808Y013189D01*
X017813Y013189D01*
X017890Y013113D01*
X018033Y013054D01*
X019513Y013054D01*
X019547Y013068D01*
X020281Y013068D01*
X020363Y013150D01*
X020363Y013738D01*
X020281Y013820D01*
X019547Y013820D01*
X019513Y013834D01*
X020363Y013677D02*
X031657Y013677D01*
X031664Y013680D02*
X031501Y013612D01*
X031358Y013469D01*
X031280Y013281D01*
X031280Y013079D01*
X031358Y012891D01*
X031501Y012748D01*
X031664Y012680D01*
X031501Y012612D01*
X031358Y012469D01*
X031280Y012281D01*
X031280Y012079D01*
X031358Y011891D01*
X031501Y011748D01*
X031689Y011670D01*
X031891Y011670D01*
X032079Y011748D01*
X032222Y011891D01*
X032297Y012072D01*
X032446Y012107D01*
X032507Y012046D01*
X032662Y011982D01*
X032829Y011982D01*
X032983Y012046D01*
X033101Y012164D01*
X033165Y012319D01*
X033165Y012486D01*
X033101Y012640D01*
X032983Y012758D01*
X032829Y012822D01*
X032662Y012822D01*
X032507Y012758D01*
X032389Y012640D01*
X032346Y012535D01*
X032192Y012499D01*
X032079Y012612D01*
X031916Y012680D01*
X032079Y012748D01*
X032222Y012891D01*
X032294Y013064D01*
X032442Y013096D01*
X032507Y013030D01*
X032662Y012966D01*
X032829Y012966D01*
X032983Y013030D01*
X033101Y013148D01*
X033165Y013303D01*
X033165Y013470D01*
X033101Y013624D01*
X032983Y013742D01*
X032892Y013780D01*
X032983Y013818D01*
X033101Y013936D01*
X033165Y014090D01*
X033165Y014257D01*
X033101Y014412D01*
X032983Y014530D01*
X032829Y014594D01*
X032662Y014594D01*
X032507Y014530D01*
X032389Y014412D01*
X032383Y014396D01*
X032252Y014397D01*
X032222Y014469D01*
X032079Y014612D01*
X031940Y014670D01*
X032218Y014670D01*
X032300Y014752D01*
X032300Y014948D01*
X032378Y014946D01*
X032389Y014920D01*
X032507Y014802D01*
X032662Y014738D01*
X032829Y014738D01*
X032983Y014802D01*
X033101Y014920D01*
X033165Y015074D01*
X033165Y015241D01*
X033101Y015396D01*
X032983Y015514D01*
X032829Y015578D01*
X032662Y015578D01*
X032507Y015514D01*
X032389Y015396D01*
X032385Y015386D01*
X032300Y015388D01*
X032300Y015608D01*
X032218Y015690D01*
X031362Y015690D01*
X031280Y015608D01*
X031280Y014752D01*
X031362Y014670D01*
X031640Y014670D01*
X031501Y014612D01*
X031358Y014469D01*
X031280Y014281D01*
X031280Y014079D01*
X031358Y013891D01*
X031501Y013748D01*
X031664Y013680D01*
X031413Y013836D02*
X018328Y013836D01*
X018218Y013994D02*
X031315Y013994D01*
X031280Y014153D02*
X020399Y014153D01*
X020403Y014311D02*
X031292Y014311D01*
X031358Y014470D02*
X020403Y014470D01*
X020403Y014628D02*
X031539Y014628D01*
X031280Y014787D02*
X020355Y014787D01*
X020349Y015104D02*
X031280Y015104D01*
X031280Y015262D02*
X020363Y015262D01*
X020363Y015421D02*
X031280Y015421D01*
X031280Y015579D02*
X020363Y015579D01*
X020363Y016689D02*
X033222Y016689D01*
X034158Y016689D02*
X034710Y016689D01*
X034710Y016847D02*
X018374Y016847D01*
X018216Y017006D02*
X018589Y017006D01*
X018590Y017005D02*
X020281Y017005D01*
X020307Y017030D01*
X020336Y017001D01*
X020518Y016925D01*
X020715Y016925D01*
X020897Y017001D01*
X021036Y017140D01*
X021112Y017322D01*
X021112Y017519D01*
X021036Y017701D01*
X020897Y017840D01*
X020836Y017865D01*
X020836Y018738D01*
X020754Y018820D01*
X019535Y018820D01*
X019453Y018738D01*
X019453Y017835D01*
X019531Y017757D01*
X018590Y017757D01*
X018508Y017675D01*
X018508Y017087D01*
X018590Y017005D01*
X018508Y017164D02*
X018057Y017164D01*
X017899Y017323D02*
X018508Y017323D01*
X018508Y017481D02*
X017740Y017481D01*
X017582Y017640D02*
X018508Y017640D01*
X019490Y017798D02*
X017423Y017798D01*
X017337Y017960D02*
X017410Y018033D01*
X017450Y018128D01*
X017450Y018129D01*
X018181Y018860D01*
X020942Y018860D01*
X020943Y018860D01*
X021038Y018820D01*
X021142Y018820D01*
X021237Y018860D01*
X021310Y018933D01*
X021350Y019028D01*
X021350Y019132D01*
X021310Y019227D01*
X021237Y019300D01*
X021142Y019340D01*
X021038Y019340D01*
X020943Y019300D01*
X020942Y019300D01*
X017999Y019300D01*
X017870Y019171D01*
X017139Y018440D01*
X017138Y018440D01*
X017043Y018400D01*
X016970Y018327D01*
X016930Y018232D01*
X016930Y018128D01*
X016970Y018033D01*
X017043Y017960D01*
X017138Y017920D01*
X017242Y017920D01*
X017337Y017960D01*
X017330Y017957D02*
X019453Y017957D01*
X019453Y018115D02*
X017445Y018115D01*
X017595Y018274D02*
X019453Y018274D01*
X019453Y018432D02*
X017753Y018432D01*
X017912Y018591D02*
X019453Y018591D01*
X019464Y018749D02*
X018070Y018749D01*
X018090Y019080D02*
X021090Y019080D01*
X021350Y019066D02*
X027681Y019066D01*
X027681Y018908D02*
X021285Y018908D01*
X021312Y019225D02*
X027681Y019225D01*
X027681Y019383D02*
X027088Y019383D01*
X027104Y019399D02*
X027128Y019441D01*
X027140Y019486D01*
X027140Y019860D01*
X026610Y019860D01*
X026610Y019900D01*
X027140Y019900D01*
X027140Y020274D01*
X027128Y020319D01*
X027104Y020361D01*
X027071Y020394D01*
X027029Y020418D01*
X026984Y020430D01*
X026836Y020430D01*
X026879Y020448D01*
X027022Y020591D01*
X027055Y020670D01*
X027255Y020670D01*
X027255Y020566D01*
X027740Y020566D01*
X027740Y020566D01*
X027255Y020566D01*
X027255Y020424D01*
X027267Y020378D01*
X027291Y020337D01*
X027324Y020304D01*
X027365Y020280D01*
X027411Y020268D01*
X027740Y020268D01*
X027740Y020566D01*
X028225Y020566D01*
X028225Y020708D01*
X028213Y020753D01*
X028189Y020795D01*
X028185Y020799D01*
X028185Y021136D01*
X028164Y021156D01*
X028185Y021177D01*
X028185Y021529D01*
X028164Y021550D01*
X028185Y021571D01*
X028185Y021923D01*
X028164Y021944D01*
X028185Y021965D01*
X028185Y022317D01*
X028164Y022338D01*
X028185Y022358D01*
X028185Y022711D01*
X028103Y022793D01*
X027793Y022793D01*
X027786Y022800D01*
X027603Y022800D01*
X027596Y022793D01*
X027377Y022793D01*
X027339Y022754D01*
X027090Y022754D01*
X027100Y022779D01*
X027100Y022981D01*
X027022Y023169D01*
X026879Y023312D01*
X026691Y023390D01*
X026489Y023390D01*
X026301Y023312D01*
X026158Y023169D01*
X026080Y022981D01*
X026080Y022779D01*
X026109Y022710D01*
X025799Y022400D01*
X025000Y022400D01*
X025025Y022412D01*
X025089Y022459D01*
X025145Y022515D01*
X025192Y022580D01*
X025228Y022650D01*
X025253Y022726D01*
X025265Y022805D01*
X025265Y022844D01*
X024760Y022844D01*
X024255Y022844D01*
X024255Y022805D01*
X024267Y022726D01*
X024292Y022650D01*
X024328Y022580D01*
X024375Y022515D01*
X024431Y022459D01*
X024495Y022412D01*
X024520Y022400D01*
X023381Y022400D01*
X023150Y022631D01*
X023150Y022632D01*
X023110Y022727D01*
X023037Y022800D01*
X022942Y022840D01*
X022838Y022840D01*
X022743Y022800D01*
X022670Y022727D01*
X022630Y022632D01*
X022630Y022528D01*
X022670Y022433D01*
X022677Y022425D01*
X022642Y022440D01*
X022538Y022440D01*
X022443Y022400D01*
X022370Y022327D01*
X022330Y022232D01*
X022330Y022128D01*
X022370Y022033D01*
X022443Y021960D01*
X022538Y021920D01*
X022539Y021920D01*
X022670Y021789D01*
X022799Y021660D01*
X026129Y021660D01*
X026158Y021591D01*
X026301Y021448D01*
X026464Y021380D01*
X026301Y021312D01*
X026254Y021266D01*
X025028Y021266D01*
X025023Y021270D01*
X024852Y021341D01*
X024668Y021341D01*
X024658Y021337D01*
X020980Y021337D01*
X020980Y022458D01*
X020921Y022601D01*
X020811Y022711D01*
X020421Y023101D01*
X020311Y023211D01*
X020168Y023270D01*
X018645Y023270D01*
X018860Y023485D01*
X018860Y023875D01*
X018585Y024150D01*
X018195Y024150D01*
X017920Y023875D01*
X017920Y023485D01*
X018195Y023210D01*
X018268Y023210D01*
X017790Y022732D01*
X017780Y022742D01*
X017780Y023405D01*
X017860Y023485D01*
X017860Y023875D01*
X017780Y023955D01*
X017780Y024349D01*
X017822Y024391D01*
X017890Y024554D01*
X017958Y024391D01*
X018101Y024248D01*
X018289Y024170D01*
X018491Y024170D01*
X018679Y024248D01*
X018822Y024391D01*
X018900Y024579D01*
X018900Y024781D01*
X018822Y024969D01*
X018679Y025112D01*
X018491Y025190D01*
X018289Y025190D01*
X018101Y025112D01*
X017958Y024969D01*
X017890Y024806D01*
X017822Y024969D01*
X017679Y025112D01*
X017491Y025190D01*
X017289Y025190D01*
X017101Y025112D01*
X016958Y024969D01*
X016890Y024806D01*
X016822Y024969D01*
X016679Y025112D01*
X016491Y025190D01*
X016289Y025190D01*
X016101Y025112D01*
X015958Y024969D01*
X015911Y024856D01*
X015900Y024891D01*
X015860Y024968D01*
X015810Y025038D01*
X015748Y025100D01*
X015678Y025150D01*
X015601Y025190D01*
X015519Y025216D01*
X015433Y025230D01*
X015410Y025230D01*
X015410Y024700D01*
X015370Y024700D01*
X015370Y025230D01*
X015347Y025230D01*
X015261Y025216D01*
X015179Y025190D01*
X015102Y025150D01*
X015032Y025100D01*
X014970Y025038D01*
X014920Y024968D01*
X014890Y024910D01*
X014860Y024968D01*
X014810Y025038D01*
X014748Y025100D01*
X014678Y025150D01*
X014601Y025190D01*
X014519Y025216D01*
X014433Y025230D01*
X014410Y025230D01*
X014410Y024700D01*
X014370Y024700D01*
X014370Y025230D01*
X014347Y025230D01*
X014261Y025216D01*
X014179Y025190D01*
X014102Y025150D01*
X014032Y025100D01*
X013970Y025038D01*
X013920Y024968D01*
X013880Y024891D01*
X013869Y024856D01*
X013822Y024969D01*
X013679Y025112D01*
X013491Y025190D01*
X013289Y025190D01*
X013101Y025112D01*
X012958Y024969D01*
X012880Y024781D01*
X012880Y024579D01*
X012958Y024391D01*
X013101Y024248D01*
X013170Y024219D01*
X013170Y024125D01*
X012920Y023875D01*
X012920Y023485D01*
X013195Y023210D01*
X013585Y023210D01*
X013860Y023485D01*
X013860Y023875D01*
X013610Y024125D01*
X013610Y024219D01*
X013679Y024248D01*
X013822Y024391D01*
X013869Y024504D01*
X013880Y024469D01*
X013920Y024392D01*
X013970Y024322D01*
X014032Y024260D01*
X014102Y024210D01*
X014166Y024177D01*
X013880Y023891D01*
X013880Y023698D01*
X014372Y023698D01*
X014372Y023662D01*
X014408Y023662D01*
X014408Y023170D01*
X014601Y023170D01*
X014890Y023459D01*
X015179Y023170D01*
X015372Y023170D01*
X015372Y023662D01*
X015408Y023662D01*
X015408Y023698D01*
X015900Y023698D01*
X015900Y023891D01*
X015614Y024177D01*
X015678Y024210D01*
X015748Y024260D01*
X015810Y024322D01*
X015860Y024392D01*
X015900Y024469D01*
X015911Y024504D01*
X015958Y024391D01*
X016101Y024248D01*
X016289Y024170D01*
X016491Y024170D01*
X016679Y024248D01*
X016822Y024391D01*
X016890Y024554D01*
X016958Y024391D01*
X017000Y024349D01*
X017000Y023955D01*
X016920Y023875D01*
X016920Y023485D01*
X017000Y023405D01*
X017000Y022502D01*
X017059Y022359D01*
X017138Y022280D01*
X017130Y022260D01*
X017130Y022100D01*
X017191Y021953D01*
X017303Y021841D01*
X017450Y021780D01*
X018130Y021780D01*
X018277Y021841D01*
X018389Y021953D01*
X018405Y021991D01*
X018459Y021859D01*
X018569Y021749D01*
X018712Y021690D01*
X019062Y021690D01*
X019153Y021598D01*
X019153Y021479D01*
X019235Y021397D01*
X019745Y021397D01*
X019827Y021479D01*
X019827Y021607D01*
X019880Y021735D01*
X019880Y021891D01*
X019827Y022019D01*
X019827Y022147D01*
X019745Y022229D01*
X019626Y022229D01*
X019444Y022411D01*
X019301Y022470D01*
X018712Y022470D01*
X018574Y022413D01*
X018652Y022490D01*
X019928Y022490D01*
X020200Y022218D01*
X020200Y021337D01*
X020144Y021337D01*
X020119Y021363D01*
X019609Y021363D01*
X019527Y021281D01*
X019527Y021153D01*
X019474Y021025D01*
X019474Y020869D01*
X019527Y020741D01*
X019527Y020613D01*
X019609Y020531D01*
X020119Y020531D01*
X020144Y020557D01*
X024421Y020557D01*
X024497Y020482D01*
X024668Y020411D01*
X024852Y020411D01*
X025023Y020482D01*
X025028Y020486D01*
X026263Y020486D01*
X026301Y020448D01*
X026344Y020430D01*
X026196Y020430D01*
X026151Y020418D01*
X026109Y020394D01*
X026076Y020361D01*
X026052Y020319D01*
X026040Y020274D01*
X026040Y019900D01*
X026570Y019900D01*
X026570Y019860D01*
X026610Y019860D01*
X026610Y019330D01*
X026984Y019330D01*
X027029Y019342D01*
X027071Y019366D01*
X027104Y019399D01*
X027140Y019542D02*
X027681Y019542D01*
X027699Y019700D02*
X027140Y019700D01*
X027140Y019859D02*
X028771Y019859D01*
X028771Y020017D02*
X027140Y020017D01*
X027140Y020176D02*
X028771Y020176D01*
X028771Y020334D02*
X028186Y020334D01*
X028189Y020337D02*
X028213Y020378D01*
X028225Y020424D01*
X028225Y020566D01*
X027740Y020566D01*
X027740Y020566D01*
X027740Y020566D01*
X027740Y020268D01*
X028069Y020268D01*
X028115Y020280D01*
X028156Y020304D01*
X028189Y020337D01*
X028225Y020493D02*
X029610Y020493D01*
X029610Y020651D02*
X028225Y020651D01*
X028185Y020810D02*
X029610Y020810D01*
X029610Y020968D02*
X028185Y020968D01*
X028185Y021127D02*
X029610Y021127D01*
X029610Y021285D02*
X028185Y021285D01*
X028185Y021444D02*
X029610Y021444D01*
X029610Y021602D02*
X028185Y021602D01*
X028185Y021761D02*
X029610Y021761D01*
X029610Y021919D02*
X028185Y021919D01*
X028185Y022078D02*
X029610Y022078D01*
X029610Y022236D02*
X028185Y022236D01*
X028185Y022395D02*
X029610Y022395D01*
X029610Y022553D02*
X028185Y022553D01*
X028184Y022712D02*
X028812Y022712D01*
X028771Y022870D02*
X027100Y022870D01*
X027080Y023029D02*
X028771Y023029D01*
X028771Y023187D02*
X027004Y023187D01*
X026799Y023346D02*
X028776Y023346D01*
X028807Y023504D02*
X022820Y023504D01*
X022810Y023663D02*
X028710Y023663D01*
X028710Y023821D02*
X024083Y023821D01*
X024241Y023980D02*
X028710Y023980D01*
X028710Y024138D02*
X024400Y024138D01*
X024558Y024297D02*
X028710Y024297D01*
X028710Y024455D02*
X024717Y024455D01*
X024875Y024614D02*
X028710Y024614D01*
X028710Y024772D02*
X028436Y024772D01*
X028440Y024786D02*
X028440Y025160D01*
X027910Y025160D01*
X027910Y024630D01*
X028284Y024630D01*
X028329Y024642D01*
X028371Y024666D01*
X028404Y024699D01*
X028428Y024741D01*
X028440Y024786D01*
X028440Y024931D02*
X028710Y024931D01*
X028710Y025089D02*
X028440Y025089D01*
X028440Y025248D02*
X028710Y025248D01*
X028710Y025406D02*
X028440Y025406D01*
X028440Y025565D02*
X028710Y025565D01*
X028710Y025723D02*
X028418Y025723D01*
X028440Y025882D02*
X028710Y025882D01*
X028710Y026040D02*
X028440Y026040D01*
X028440Y026200D02*
X028440Y026574D01*
X028428Y026619D01*
X028404Y026661D01*
X028371Y026694D01*
X028329Y026718D01*
X028284Y026730D01*
X027910Y026730D01*
X027910Y026200D01*
X028440Y026200D01*
X028440Y026357D02*
X028710Y026357D01*
X028710Y026199D02*
X027910Y026199D01*
X027910Y026160D02*
X027910Y025200D01*
X027870Y025200D01*
X027870Y025730D01*
X027870Y026160D01*
X027910Y026160D01*
X027910Y026040D02*
X027870Y026040D01*
X027870Y025882D02*
X027910Y025882D01*
X027910Y025723D02*
X027870Y025723D01*
X027870Y025565D02*
X027910Y025565D01*
X027910Y025406D02*
X027870Y025406D01*
X027870Y025248D02*
X027910Y025248D01*
X027910Y025089D02*
X027870Y025089D01*
X027870Y024931D02*
X027910Y024931D01*
X027910Y024772D02*
X027870Y024772D01*
X027344Y024772D02*
X027203Y024772D01*
X027339Y024931D02*
X027340Y024931D01*
X026890Y025180D02*
X026890Y026180D01*
X026411Y026357D02*
X026369Y026357D01*
X026276Y026516D02*
X026504Y026516D01*
X026750Y026674D02*
X026030Y026674D01*
X025750Y026674D02*
X025030Y026674D01*
X024750Y026674D02*
X021530Y026674D01*
X021289Y026833D02*
X028710Y026833D01*
X028710Y026991D02*
X002570Y026991D01*
X002570Y026833D02*
X008343Y026833D01*
X008184Y026674D02*
X002570Y026674D01*
X002570Y026516D02*
X008026Y026516D01*
X007867Y026357D02*
X002570Y026357D01*
X002570Y026199D02*
X007029Y026199D01*
X008284Y025670D02*
X008804Y026190D01*
X009474Y026190D01*
X009468Y026181D01*
X009456Y026135D01*
X009456Y025660D01*
X010058Y025660D01*
X010058Y025500D01*
X009456Y025500D01*
X009456Y025025D01*
X009468Y024979D01*
X009492Y024938D01*
X009526Y024904D01*
X009567Y024881D01*
X009607Y024870D01*
X007152Y024870D01*
X007113Y024909D01*
X008202Y024909D01*
X008284Y024991D01*
X008284Y025670D01*
X008337Y025723D02*
X009456Y025723D01*
X009456Y025882D02*
X008495Y025882D01*
X008654Y026040D02*
X009456Y026040D01*
X010058Y025565D02*
X008284Y025565D01*
X008284Y025406D02*
X009456Y025406D01*
X009456Y025248D02*
X008284Y025248D01*
X008284Y025089D02*
X009456Y025089D01*
X009499Y024931D02*
X008224Y024931D01*
X008135Y024090D02*
X007645Y024090D01*
X007860Y023875D01*
X007860Y023485D01*
X007610Y023235D01*
X007610Y022141D01*
X007679Y022112D01*
X007822Y021969D01*
X007890Y021806D01*
X007958Y021969D01*
X008101Y022112D01*
X008170Y022141D01*
X008170Y023235D01*
X007920Y023485D01*
X007920Y023875D01*
X008135Y024090D01*
X008025Y023980D02*
X007755Y023980D01*
X007860Y023821D02*
X007920Y023821D01*
X007920Y023663D02*
X007860Y023663D01*
X007860Y023504D02*
X007920Y023504D01*
X008060Y023346D02*
X007720Y023346D01*
X007610Y023187D02*
X008170Y023187D01*
X008170Y023029D02*
X007610Y023029D01*
X007610Y022870D02*
X008170Y022870D01*
X008170Y022712D02*
X007610Y022712D01*
X007610Y022553D02*
X008170Y022553D01*
X008170Y022395D02*
X007610Y022395D01*
X007610Y022236D02*
X008170Y022236D01*
X008066Y022078D02*
X007714Y022078D01*
X007843Y021919D02*
X007937Y021919D01*
X008390Y021680D02*
X008390Y023680D01*
X008720Y023346D02*
X009060Y023346D01*
X009170Y023235D02*
X009170Y022141D01*
X009101Y022112D01*
X008958Y021969D01*
X008890Y021806D01*
X008822Y021969D01*
X008679Y022112D01*
X008610Y022141D01*
X008610Y023235D01*
X008860Y023485D01*
X008860Y023875D01*
X008645Y024090D01*
X009135Y024090D01*
X008920Y023875D01*
X008920Y023485D01*
X009170Y023235D01*
X009170Y023187D02*
X008610Y023187D01*
X008610Y023029D02*
X009170Y023029D01*
X009170Y022870D02*
X008610Y022870D01*
X008610Y022712D02*
X009170Y022712D01*
X009170Y022553D02*
X008610Y022553D01*
X008610Y022395D02*
X009170Y022395D01*
X009170Y022236D02*
X008610Y022236D01*
X008714Y022078D02*
X009066Y022078D01*
X008937Y021919D02*
X008843Y021919D01*
X009390Y021680D02*
X009390Y023680D01*
X009720Y023346D02*
X010060Y023346D01*
X010190Y023215D02*
X010190Y022149D01*
X010101Y022112D01*
X009958Y021969D01*
X009890Y021806D01*
X009822Y021969D01*
X009679Y022112D01*
X009610Y022141D01*
X009610Y023235D01*
X009860Y023485D01*
X009860Y023875D01*
X009645Y024090D01*
X010135Y024090D01*
X009920Y023875D01*
X009920Y023485D01*
X010190Y023215D01*
X010190Y023187D02*
X009610Y023187D01*
X009610Y023029D02*
X010190Y023029D01*
X010190Y022870D02*
X009610Y022870D01*
X009610Y022712D02*
X010190Y022712D01*
X010190Y022553D02*
X009610Y022553D01*
X009610Y022395D02*
X010190Y022395D01*
X010190Y022236D02*
X009610Y022236D01*
X009714Y022078D02*
X010066Y022078D01*
X009937Y021919D02*
X009843Y021919D01*
X010390Y021680D02*
X010410Y021700D01*
X010410Y023660D01*
X010390Y023680D01*
X010720Y023346D02*
X011060Y023346D01*
X011170Y023235D02*
X011170Y022141D01*
X011101Y022112D01*
X010958Y021969D01*
X010890Y021806D01*
X010822Y021969D01*
X010679Y022112D01*
X010630Y022133D01*
X010630Y023255D01*
X010860Y023485D01*
X010860Y023875D01*
X010645Y024090D01*
X011135Y024090D01*
X010920Y023875D01*
X010920Y023485D01*
X011170Y023235D01*
X011170Y023187D02*
X010630Y023187D01*
X010630Y023029D02*
X011170Y023029D01*
X011170Y022870D02*
X010630Y022870D01*
X010630Y022712D02*
X011170Y022712D01*
X011170Y022553D02*
X010630Y022553D01*
X010630Y022395D02*
X011170Y022395D01*
X011170Y022236D02*
X010630Y022236D01*
X010714Y022078D02*
X011066Y022078D01*
X010937Y021919D02*
X010843Y021919D01*
X011390Y021680D02*
X011390Y021180D01*
X012390Y020180D01*
X012390Y019180D01*
X012087Y019542D02*
X010885Y019542D01*
X010900Y019700D02*
X012170Y019700D01*
X012047Y019859D02*
X010868Y019859D01*
X010774Y020017D02*
X011920Y020017D01*
X011920Y020176D02*
X010526Y020176D01*
X010765Y020334D02*
X011920Y020334D01*
X011766Y020493D02*
X010864Y020493D01*
X010900Y020651D02*
X011608Y020651D01*
X011449Y020810D02*
X010888Y020810D01*
X010823Y020968D02*
X011291Y020968D01*
X011170Y021127D02*
X010645Y021127D01*
X010716Y021285D02*
X011064Y021285D01*
X010936Y021444D02*
X010844Y021444D01*
X011390Y021680D02*
X011390Y023680D01*
X011720Y023346D02*
X013060Y023346D01*
X012920Y023504D02*
X011860Y023504D01*
X011860Y023663D02*
X012920Y023663D01*
X012920Y023821D02*
X011860Y023821D01*
X011755Y023980D02*
X013025Y023980D01*
X013170Y024138D02*
X011597Y024138D01*
X011558Y024297D02*
X013052Y024297D01*
X012931Y024455D02*
X011717Y024455D01*
X011875Y024614D02*
X012880Y024614D01*
X012880Y024772D02*
X012034Y024772D01*
X012192Y024931D02*
X012942Y024931D01*
X013078Y025089D02*
X012351Y025089D01*
X012509Y025248D02*
X019071Y025248D01*
X019229Y025089D02*
X018702Y025089D01*
X018838Y024931D02*
X019388Y024931D01*
X019546Y024772D02*
X018900Y024772D01*
X018900Y024614D02*
X019705Y024614D01*
X019863Y024455D02*
X018849Y024455D01*
X018728Y024297D02*
X020022Y024297D01*
X020180Y024138D02*
X018597Y024138D01*
X018755Y023980D02*
X020339Y023980D01*
X020497Y023821D02*
X018860Y023821D01*
X018860Y023663D02*
X022370Y023663D01*
X022360Y023504D02*
X018860Y023504D01*
X018720Y023346D02*
X022330Y023346D01*
X022415Y023187D02*
X020335Y023187D01*
X020421Y023101D02*
X020421Y023101D01*
X020493Y023029D02*
X024289Y023029D01*
X024292Y023038D02*
X024267Y022963D01*
X024255Y022884D01*
X024255Y022844D01*
X024760Y022844D01*
X024760Y022844D01*
X024760Y022844D01*
X025265Y022844D01*
X025265Y022884D01*
X025253Y022963D01*
X025228Y023038D01*
X025192Y023109D01*
X025145Y023173D01*
X025089Y023229D01*
X025025Y023276D01*
X024954Y023312D01*
X024878Y023337D01*
X024800Y023349D01*
X024760Y023349D01*
X024720Y023349D01*
X024642Y023337D01*
X024566Y023312D01*
X024495Y023276D01*
X024431Y023229D01*
X024375Y023173D01*
X024328Y023109D01*
X024292Y023038D01*
X024255Y022870D02*
X020652Y022870D01*
X020810Y022712D02*
X022663Y022712D01*
X022630Y022553D02*
X020940Y022553D01*
X020980Y022395D02*
X022437Y022395D01*
X022332Y022236D02*
X020980Y022236D01*
X020980Y022078D02*
X022351Y022078D01*
X022540Y021919D02*
X020980Y021919D01*
X020980Y021761D02*
X022698Y021761D01*
X022890Y021880D02*
X026590Y021880D01*
X026851Y022141D01*
X027740Y022141D01*
X027701Y022180D01*
X027740Y022534D02*
X026936Y022534D01*
X026590Y022880D01*
X025890Y022180D01*
X023290Y022180D01*
X022890Y022580D01*
X023117Y022712D02*
X024272Y022712D01*
X024347Y022553D02*
X023228Y022553D01*
X022590Y022180D02*
X022890Y021880D01*
X024760Y022844D02*
X024760Y023349D01*
X024760Y022844D01*
X024760Y022844D01*
X024760Y022870D02*
X024760Y022870D01*
X024760Y023029D02*
X024760Y023029D01*
X024760Y023187D02*
X024760Y023187D01*
X024760Y023346D02*
X024760Y023346D01*
X024823Y023346D02*
X026381Y023346D01*
X026176Y023187D02*
X025131Y023187D01*
X025231Y023029D02*
X026100Y023029D01*
X026080Y022870D02*
X025265Y022870D01*
X025248Y022712D02*
X026108Y022712D01*
X025952Y022553D02*
X025173Y022553D01*
X024697Y023346D02*
X022850Y023346D01*
X022765Y023187D02*
X024389Y023187D01*
X022590Y023380D02*
X022590Y023980D01*
X022690Y024080D01*
X021703Y024772D02*
X023930Y024772D01*
X023772Y024614D02*
X020808Y024614D01*
X020650Y024772D02*
X021077Y024772D01*
X020941Y024931D02*
X020491Y024931D01*
X020333Y025089D02*
X020880Y025089D01*
X020880Y025248D02*
X020174Y025248D01*
X020016Y025406D02*
X020932Y025406D01*
X021053Y025565D02*
X019857Y025565D01*
X019699Y025723D02*
X021161Y025723D01*
X020967Y025882D02*
X019540Y025882D01*
X019382Y026040D02*
X020896Y026040D01*
X021619Y025723D02*
X024500Y025723D01*
X024500Y025565D02*
X021727Y025565D01*
X021848Y025406D02*
X024432Y025406D01*
X024380Y025248D02*
X021900Y025248D01*
X021900Y025089D02*
X024247Y025089D01*
X024089Y024931D02*
X021839Y024931D01*
X021813Y025882D02*
X024467Y025882D01*
X024396Y026040D02*
X021884Y026040D01*
X021900Y026199D02*
X024380Y026199D01*
X024411Y026357D02*
X021869Y026357D01*
X021776Y026516D02*
X024504Y026516D01*
X025276Y026516D02*
X025504Y026516D01*
X025411Y026357D02*
X025369Y026357D01*
X025890Y026180D02*
X025890Y025180D01*
X026339Y024931D02*
X026441Y024931D01*
X026577Y024772D02*
X026203Y024772D01*
X025577Y024772D02*
X025203Y024772D01*
X025339Y024931D02*
X025441Y024931D01*
X024890Y025180D02*
X024790Y025080D01*
X027030Y026674D02*
X027389Y026674D01*
X027340Y026516D02*
X027276Y026516D01*
X027870Y026516D02*
X027910Y026516D01*
X027910Y026674D02*
X027870Y026674D01*
X027870Y026357D02*
X027910Y026357D01*
X028440Y026516D02*
X028710Y026516D01*
X028710Y026674D02*
X028391Y026674D01*
X028965Y023496D02*
X028965Y023496D01*
X027740Y022534D02*
X027694Y022580D01*
X026153Y021602D02*
X020980Y021602D01*
X020980Y021444D02*
X026311Y021444D01*
X026274Y021285D02*
X024987Y021285D01*
X024486Y020493D02*
X018303Y020493D01*
X018419Y020334D02*
X026061Y020334D01*
X026040Y020176D02*
X018450Y020176D01*
X018415Y020017D02*
X026040Y020017D01*
X026040Y019860D02*
X026040Y019486D01*
X026052Y019441D01*
X026076Y019399D01*
X026109Y019366D01*
X026151Y019342D01*
X026196Y019330D01*
X026570Y019330D01*
X026570Y019860D01*
X026040Y019860D01*
X026040Y019859D02*
X018294Y019859D01*
X018779Y020651D02*
X017310Y020651D01*
X017331Y020810D02*
X017379Y020810D01*
X017090Y020880D02*
X017390Y021180D01*
X017790Y021180D01*
X018883Y021180D01*
X019116Y020947D01*
X019453Y020968D02*
X019474Y020968D01*
X019453Y020810D02*
X019499Y020810D01*
X019527Y020651D02*
X019453Y020651D01*
X019453Y021127D02*
X019516Y021127D01*
X019532Y021285D02*
X019448Y021285D01*
X019189Y021444D02*
X018352Y021444D01*
X018558Y021761D02*
X016635Y021761D01*
X016585Y021710D02*
X016860Y021985D01*
X016860Y022375D01*
X016585Y022650D01*
X016195Y022650D01*
X015920Y022375D01*
X015920Y021985D01*
X016195Y021710D01*
X016585Y021710D01*
X016689Y021602D02*
X019149Y021602D01*
X018435Y021919D02*
X018355Y021919D01*
X017225Y021919D02*
X016794Y021919D01*
X016860Y022078D02*
X017139Y022078D01*
X017130Y022236D02*
X016860Y022236D01*
X016840Y022395D02*
X017045Y022395D01*
X017000Y022553D02*
X016682Y022553D01*
X017000Y022712D02*
X011610Y022712D01*
X011610Y022870D02*
X017000Y022870D01*
X017000Y023029D02*
X011610Y023029D01*
X011610Y023187D02*
X014162Y023187D01*
X014179Y023170D02*
X013880Y023469D01*
X013880Y023662D01*
X014372Y023662D01*
X014372Y023170D01*
X014179Y023170D01*
X014372Y023187D02*
X014408Y023187D01*
X014408Y023346D02*
X014372Y023346D01*
X014372Y023504D02*
X014408Y023504D01*
X014408Y023662D02*
X014408Y023698D01*
X015372Y023698D01*
X015372Y023662D01*
X014880Y023662D01*
X014408Y023662D01*
X014408Y023663D02*
X015372Y023663D01*
X015372Y023698D02*
X015372Y024190D01*
X015370Y024190D01*
X015370Y024660D01*
X014840Y024660D01*
X014410Y024660D01*
X014410Y024700D01*
X015370Y024700D01*
X015370Y024660D01*
X015410Y024660D01*
X015410Y024190D01*
X015408Y024190D01*
X015408Y023698D01*
X015372Y023698D01*
X015408Y023663D02*
X015920Y023663D01*
X015900Y023662D02*
X015408Y023662D01*
X015408Y023170D01*
X015601Y023170D01*
X015900Y023469D01*
X015900Y023662D01*
X015900Y023504D02*
X015920Y023504D01*
X015920Y023485D02*
X016195Y023210D01*
X016585Y023210D01*
X016860Y023485D01*
X016860Y023875D01*
X016585Y024150D01*
X016195Y024150D01*
X015920Y023875D01*
X015920Y023485D01*
X016060Y023346D02*
X015777Y023346D01*
X015618Y023187D02*
X017000Y023187D01*
X017000Y023346D02*
X016720Y023346D01*
X016860Y023504D02*
X016920Y023504D01*
X016920Y023663D02*
X016860Y023663D01*
X016860Y023821D02*
X016920Y023821D01*
X017000Y023980D02*
X016755Y023980D01*
X016597Y024138D02*
X017000Y024138D01*
X017000Y024297D02*
X016728Y024297D01*
X016849Y024455D02*
X016931Y024455D01*
X016942Y024931D02*
X016838Y024931D01*
X016702Y025089D02*
X017078Y025089D01*
X017702Y025089D02*
X018078Y025089D01*
X017942Y024931D02*
X017838Y024931D01*
X017849Y024455D02*
X017931Y024455D01*
X018052Y024297D02*
X017780Y024297D01*
X017780Y024138D02*
X018183Y024138D01*
X018025Y023980D02*
X017780Y023980D01*
X017860Y023821D02*
X017920Y023821D01*
X017920Y023663D02*
X017860Y023663D01*
X017860Y023504D02*
X017920Y023504D01*
X017780Y023346D02*
X018060Y023346D01*
X018245Y023187D02*
X017780Y023187D01*
X017780Y023029D02*
X018087Y023029D01*
X017928Y022870D02*
X017780Y022870D01*
X016098Y022553D02*
X012682Y022553D01*
X012585Y022650D02*
X012860Y022375D01*
X012860Y021985D01*
X012610Y021735D01*
X012610Y021625D01*
X012860Y021375D01*
X012860Y020985D01*
X012585Y020710D01*
X012195Y020710D01*
X011920Y020985D01*
X011920Y021375D01*
X012170Y021625D01*
X012170Y021735D01*
X011920Y021985D01*
X011920Y022375D01*
X012195Y022650D01*
X012585Y022650D01*
X012840Y022395D02*
X015940Y022395D01*
X015920Y022236D02*
X012860Y022236D01*
X012860Y022078D02*
X015920Y022078D01*
X015986Y021919D02*
X012794Y021919D01*
X012635Y021761D02*
X016145Y021761D01*
X016179Y021690D02*
X015880Y021391D01*
X015880Y021180D01*
X016390Y021180D01*
X016390Y021180D01*
X016390Y021180D01*
X016390Y021690D01*
X016179Y021690D01*
X016091Y021602D02*
X012633Y021602D01*
X012791Y021444D02*
X015932Y021444D01*
X015880Y021285D02*
X012860Y021285D01*
X012860Y021127D02*
X015880Y021127D01*
X015880Y021180D02*
X015880Y020969D01*
X016179Y020670D01*
X016390Y020670D01*
X016390Y021180D01*
X015880Y021180D01*
X015881Y020968D02*
X012843Y020968D01*
X012684Y020810D02*
X016039Y020810D01*
X016195Y020650D02*
X015920Y020375D01*
X015920Y019985D01*
X016195Y019710D01*
X016585Y019710D01*
X016860Y019985D01*
X016860Y020375D01*
X016585Y020650D01*
X016195Y020650D01*
X016038Y020493D02*
X012742Y020493D01*
X012860Y020334D02*
X015920Y020334D01*
X015920Y020176D02*
X012860Y020176D01*
X012860Y020017D02*
X015920Y020017D01*
X016047Y019859D02*
X012733Y019859D01*
X012610Y019700D02*
X016870Y019700D01*
X016870Y019542D02*
X016750Y019542D01*
X016390Y019542D02*
X016390Y019542D01*
X016390Y019383D02*
X016390Y019383D01*
X016390Y019225D02*
X016390Y019225D01*
X016030Y019542D02*
X012693Y019542D01*
X012852Y019383D02*
X015880Y019383D01*
X015880Y019225D02*
X012860Y019225D01*
X012860Y019066D02*
X015880Y019066D01*
X015941Y018908D02*
X012782Y018908D01*
X012624Y018749D02*
X016100Y018749D01*
X016289Y018591D02*
X010900Y018591D01*
X010900Y018749D02*
X012156Y018749D01*
X011998Y018908D02*
X010848Y018908D01*
X010725Y019066D02*
X011920Y019066D01*
X011920Y019225D02*
X010623Y019225D01*
X010814Y019383D02*
X011928Y019383D01*
X010839Y018432D02*
X016131Y018432D01*
X016190Y018180D02*
X017090Y019080D01*
X017090Y020880D01*
X016870Y020810D02*
X016741Y020810D01*
X016870Y020651D02*
X012230Y020651D01*
X012096Y020810D02*
X012072Y020810D01*
X011937Y020968D02*
X011913Y020968D01*
X011920Y021127D02*
X011755Y021127D01*
X011716Y021285D02*
X011920Y021285D01*
X011989Y021444D02*
X011844Y021444D01*
X011900Y021602D02*
X012147Y021602D01*
X012145Y021761D02*
X011900Y021761D01*
X011843Y021919D02*
X011986Y021919D01*
X011920Y022078D02*
X011714Y022078D01*
X011610Y022236D02*
X011920Y022236D01*
X011940Y022395D02*
X011610Y022395D01*
X011610Y022553D02*
X012098Y022553D01*
X012390Y022180D02*
X012390Y021180D01*
X013720Y023346D02*
X014003Y023346D01*
X013880Y023504D02*
X013860Y023504D01*
X013860Y023663D02*
X014372Y023663D01*
X014372Y023698D02*
X014372Y024190D01*
X014370Y024190D01*
X014370Y024660D01*
X014410Y024660D01*
X014410Y024190D01*
X014408Y024190D01*
X014408Y023698D01*
X014372Y023698D01*
X014372Y023821D02*
X014408Y023821D01*
X014408Y023980D02*
X014372Y023980D01*
X014372Y024138D02*
X014408Y024138D01*
X014410Y024297D02*
X014370Y024297D01*
X014370Y024455D02*
X014410Y024455D01*
X014410Y024614D02*
X014370Y024614D01*
X014370Y024772D02*
X014410Y024772D01*
X014410Y024931D02*
X014370Y024931D01*
X014370Y025089D02*
X014410Y025089D01*
X014759Y025089D02*
X015021Y025089D01*
X014900Y024931D02*
X014880Y024931D01*
X015370Y024931D02*
X015410Y024931D01*
X015410Y025089D02*
X015370Y025089D01*
X015370Y024772D02*
X015410Y024772D01*
X015410Y024614D02*
X015370Y024614D01*
X015370Y024455D02*
X015410Y024455D01*
X015410Y024297D02*
X015370Y024297D01*
X015372Y024138D02*
X015408Y024138D01*
X015408Y023980D02*
X015372Y023980D01*
X015372Y023821D02*
X015408Y023821D01*
X015408Y023504D02*
X015372Y023504D01*
X015372Y023346D02*
X015408Y023346D01*
X015408Y023187D02*
X015372Y023187D01*
X015162Y023187D02*
X014618Y023187D01*
X014777Y023346D02*
X015003Y023346D01*
X015900Y023821D02*
X015920Y023821D01*
X016025Y023980D02*
X015812Y023980D01*
X015653Y024138D02*
X016183Y024138D01*
X016052Y024297D02*
X015784Y024297D01*
X015893Y024455D02*
X015931Y024455D01*
X015942Y024931D02*
X015880Y024931D01*
X015759Y025089D02*
X016078Y025089D01*
X014021Y025089D02*
X013702Y025089D01*
X013838Y024931D02*
X013900Y024931D01*
X013887Y024455D02*
X013849Y024455D01*
X013728Y024297D02*
X013996Y024297D01*
X014127Y024138D02*
X013610Y024138D01*
X013755Y023980D02*
X013968Y023980D01*
X013880Y023821D02*
X013860Y023821D01*
X013390Y023680D02*
X013390Y024680D01*
X012040Y025882D02*
X010820Y025882D01*
X010820Y026040D02*
X012198Y026040D01*
X011881Y025723D02*
X010820Y025723D01*
X010218Y025565D02*
X011723Y025565D01*
X011564Y025406D02*
X010820Y025406D01*
X010820Y025248D02*
X011406Y025248D01*
X011247Y025089D02*
X010820Y025089D01*
X010777Y024931D02*
X011089Y024931D01*
X011025Y023980D02*
X010755Y023980D01*
X010860Y023821D02*
X010920Y023821D01*
X010920Y023663D02*
X010860Y023663D01*
X010860Y023504D02*
X010920Y023504D01*
X009920Y023504D02*
X009860Y023504D01*
X009860Y023663D02*
X009920Y023663D01*
X009920Y023821D02*
X009860Y023821D01*
X009755Y023980D02*
X010025Y023980D01*
X009025Y023980D02*
X008755Y023980D01*
X008860Y023821D02*
X008920Y023821D01*
X008920Y023663D02*
X008860Y023663D01*
X008860Y023504D02*
X008920Y023504D01*
X007390Y023680D02*
X007390Y021680D01*
X006937Y021919D02*
X006843Y021919D01*
X006714Y022078D02*
X007066Y022078D01*
X007170Y022236D02*
X006610Y022236D01*
X006610Y022395D02*
X007170Y022395D01*
X007170Y022553D02*
X006610Y022553D01*
X006610Y022712D02*
X007170Y022712D01*
X007170Y022870D02*
X006610Y022870D01*
X006610Y023029D02*
X007170Y023029D01*
X007170Y023187D02*
X006610Y023187D01*
X006720Y023346D02*
X007060Y023346D01*
X006920Y023504D02*
X006860Y023504D01*
X006860Y023663D02*
X006920Y023663D01*
X006920Y023821D02*
X006860Y023821D01*
X006755Y023980D02*
X007025Y023980D01*
X006796Y024138D02*
X006597Y024138D01*
X006622Y024297D02*
X005728Y024297D01*
X005617Y024138D02*
X006183Y024138D01*
X006025Y023980D02*
X005812Y023980D01*
X005884Y023821D02*
X005920Y023821D01*
X005920Y023663D02*
X005900Y023663D01*
X005920Y023504D02*
X005869Y023504D01*
X005777Y023346D02*
X006060Y023346D01*
X006170Y023187D02*
X005533Y023187D01*
X005264Y023180D02*
X005101Y023112D01*
X004958Y022969D01*
X004880Y022781D01*
X004880Y022579D01*
X004958Y022391D01*
X005101Y022248D01*
X005214Y022201D01*
X005179Y022190D01*
X005102Y022150D01*
X005032Y022100D01*
X004970Y022038D01*
X004920Y021968D01*
X004880Y021891D01*
X004854Y021809D01*
X004840Y021723D01*
X004840Y021700D01*
X005370Y021700D01*
X005370Y021660D01*
X005410Y021660D01*
X005410Y021130D01*
X005410Y020700D01*
X005370Y020700D01*
X005370Y021660D01*
X004840Y021660D01*
X004840Y021637D01*
X004854Y021551D01*
X004880Y021469D01*
X004920Y021392D01*
X004970Y021322D01*
X005032Y021260D01*
X005102Y021210D01*
X005160Y021180D01*
X005102Y021150D01*
X005032Y021100D01*
X004970Y021038D01*
X004920Y020968D01*
X004880Y020891D01*
X004854Y020809D01*
X004840Y020723D01*
X004840Y020700D01*
X005370Y020700D01*
X005370Y020660D01*
X005410Y020660D01*
X005410Y020130D01*
X005433Y020130D01*
X005519Y020144D01*
X005601Y020170D01*
X005678Y020210D01*
X005748Y020260D01*
X005810Y020322D01*
X005860Y020392D01*
X005900Y020469D01*
X005911Y020504D01*
X005958Y020391D01*
X006101Y020248D01*
X006264Y020180D01*
X006101Y020112D01*
X005958Y019969D01*
X005880Y019781D01*
X005880Y019579D01*
X005958Y019391D01*
X006101Y019248D01*
X006264Y019180D01*
X006101Y019112D01*
X005958Y018969D01*
X005890Y018806D01*
X005822Y018969D01*
X005679Y019112D01*
X005491Y019190D01*
X005289Y019190D01*
X005101Y019112D01*
X004958Y018969D01*
X004890Y018806D01*
X004822Y018969D01*
X004679Y019112D01*
X004491Y019190D01*
X004289Y019190D01*
X004101Y019112D01*
X003958Y018969D01*
X003890Y018806D01*
X003822Y018969D01*
X003679Y019112D01*
X003491Y019190D01*
X003289Y019190D01*
X003101Y019112D01*
X003010Y019021D01*
X003010Y023189D01*
X003281Y023460D01*
X004929Y023460D01*
X004958Y023391D01*
X005101Y023248D01*
X005264Y023180D01*
X005247Y023187D02*
X003010Y023187D01*
X003010Y023029D02*
X005017Y023029D01*
X004917Y022870D02*
X003010Y022870D01*
X003010Y022712D02*
X004880Y022712D01*
X004891Y022553D02*
X003010Y022553D01*
X003010Y022395D02*
X004956Y022395D01*
X005129Y022236D02*
X003010Y022236D01*
X003010Y022078D02*
X005010Y022078D01*
X004895Y021919D02*
X003010Y021919D01*
X003010Y021761D02*
X004846Y021761D01*
X004845Y021602D02*
X003010Y021602D01*
X003010Y021444D02*
X004893Y021444D01*
X005007Y021285D02*
X003010Y021285D01*
X003010Y021127D02*
X005069Y021127D01*
X004919Y020968D02*
X003010Y020968D01*
X003010Y020810D02*
X004854Y020810D01*
X004840Y020660D02*
X004840Y020637D01*
X004854Y020551D01*
X004880Y020469D01*
X004920Y020392D01*
X004970Y020322D01*
X005032Y020260D01*
X005102Y020210D01*
X005179Y020170D01*
X005261Y020144D01*
X005347Y020130D01*
X005370Y020130D01*
X005370Y020660D01*
X004840Y020660D01*
X004840Y020651D02*
X003010Y020651D01*
X003010Y020493D02*
X004873Y020493D01*
X004962Y020334D02*
X003010Y020334D01*
X003010Y020176D02*
X005169Y020176D01*
X005370Y020176D02*
X005410Y020176D01*
X005410Y020334D02*
X005370Y020334D01*
X005370Y020493D02*
X005410Y020493D01*
X005410Y020651D02*
X005370Y020651D01*
X005370Y020810D02*
X005410Y020810D01*
X005410Y020968D02*
X005370Y020968D01*
X005370Y021127D02*
X005410Y021127D01*
X005410Y021285D02*
X005370Y021285D01*
X005370Y021444D02*
X005410Y021444D01*
X005410Y021602D02*
X005370Y021602D01*
X005885Y021919D02*
X005937Y021919D01*
X006066Y022078D02*
X005770Y022078D01*
X005651Y022236D02*
X006170Y022236D01*
X006170Y022395D02*
X005824Y022395D01*
X005889Y022553D02*
X006170Y022553D01*
X006170Y022712D02*
X005900Y022712D01*
X005863Y022870D02*
X006170Y022870D01*
X006170Y023029D02*
X005763Y023029D01*
X005003Y023346D02*
X003167Y023346D01*
X002861Y023663D02*
X002570Y023663D01*
X002570Y023821D02*
X003020Y023821D01*
X002703Y023504D02*
X002570Y023504D01*
X002570Y023346D02*
X002570Y023346D01*
X002570Y023187D02*
X002570Y023187D01*
X002570Y023029D02*
X002570Y023029D01*
X002570Y022870D02*
X002570Y022870D01*
X002570Y022712D02*
X002570Y022712D01*
X002570Y022553D02*
X002570Y022553D01*
X002570Y022395D02*
X002570Y022395D01*
X002570Y022236D02*
X002570Y022236D01*
X002570Y022078D02*
X002570Y022078D01*
X002570Y021919D02*
X002570Y021919D01*
X002570Y021761D02*
X002570Y021761D01*
X002570Y021602D02*
X002570Y021602D01*
X002570Y021444D02*
X002570Y021444D01*
X002570Y021285D02*
X002570Y021285D01*
X002570Y021127D02*
X002570Y021127D01*
X002570Y020968D02*
X002570Y020968D01*
X002570Y020810D02*
X002570Y020810D01*
X002570Y020651D02*
X002570Y020651D01*
X002570Y020493D02*
X002570Y020493D01*
X002570Y020334D02*
X002570Y020334D01*
X002570Y020176D02*
X002570Y020176D01*
X002570Y020017D02*
X002570Y020017D01*
X002570Y019859D02*
X002570Y019859D01*
X002570Y019700D02*
X002570Y019700D01*
X002570Y019542D02*
X002570Y019542D01*
X002570Y019383D02*
X002570Y019383D01*
X002570Y019225D02*
X002570Y019225D01*
X002570Y019066D02*
X002570Y019066D01*
X002570Y018908D02*
X002570Y018908D01*
X002570Y018749D02*
X002570Y018749D01*
X002570Y018591D02*
X002570Y018591D01*
X002570Y018432D02*
X002570Y018432D01*
X002570Y018274D02*
X002570Y018274D01*
X002570Y018115D02*
X002570Y018115D01*
X002570Y017957D02*
X002570Y017957D01*
X002570Y017798D02*
X002570Y017798D01*
X002570Y017640D02*
X002570Y017640D01*
X002570Y017481D02*
X002570Y017481D01*
X002570Y017323D02*
X002570Y017323D01*
X002570Y017164D02*
X002570Y017164D01*
X002570Y017006D02*
X002570Y017006D01*
X002570Y016847D02*
X002570Y016847D01*
X002570Y016689D02*
X002570Y016689D01*
X002570Y016530D02*
X002570Y016530D01*
X002570Y016372D02*
X002570Y016372D01*
X002570Y016213D02*
X002570Y016213D01*
X002570Y016055D02*
X002570Y016055D01*
X002570Y015896D02*
X002570Y015896D01*
X002570Y015738D02*
X002570Y015738D01*
X002570Y015579D02*
X002570Y015579D01*
X002570Y015421D02*
X002570Y015421D01*
X002570Y015262D02*
X002570Y015262D01*
X002570Y015104D02*
X002570Y015104D01*
X002570Y014945D02*
X002570Y014945D01*
X002570Y014787D02*
X002570Y014787D01*
X002570Y014628D02*
X002570Y014628D01*
X002570Y014470D02*
X002570Y014470D01*
X002570Y014311D02*
X002570Y014311D01*
X002570Y014153D02*
X002570Y014153D01*
X002570Y013994D02*
X002570Y013994D01*
X002570Y013836D02*
X002570Y013836D01*
X002570Y013677D02*
X002570Y013677D01*
X002570Y013519D02*
X002570Y013519D01*
X002570Y013360D02*
X002570Y013360D01*
X002570Y013202D02*
X002570Y013202D01*
X002570Y013043D02*
X002570Y013043D01*
X002570Y012885D02*
X002570Y012885D01*
X002570Y012726D02*
X002570Y012726D01*
X002570Y012568D02*
X002570Y012568D01*
X002570Y012409D02*
X002570Y012409D01*
X002570Y012251D02*
X002570Y012251D01*
X002570Y012092D02*
X002570Y012092D01*
X002570Y011934D02*
X002570Y011934D01*
X002570Y011775D02*
X002570Y011775D01*
X002570Y011617D02*
X002570Y011617D01*
X002570Y011458D02*
X002570Y011458D01*
X002570Y011300D02*
X002570Y011300D01*
X002570Y011141D02*
X002570Y011141D01*
X002570Y010983D02*
X002570Y010983D01*
X002570Y010824D02*
X002570Y010824D01*
X002570Y010666D02*
X002570Y010666D01*
X002570Y010507D02*
X002570Y010507D01*
X002570Y010349D02*
X002570Y010349D01*
X002570Y010190D02*
X002570Y010190D01*
X002570Y010032D02*
X002570Y010032D01*
X002570Y009873D02*
X002570Y009873D01*
X002570Y009715D02*
X002570Y009715D01*
X002570Y009556D02*
X002570Y009556D01*
X002570Y009398D02*
X002570Y009398D01*
X002570Y009239D02*
X002570Y009239D01*
X002570Y009081D02*
X002570Y009081D01*
X002570Y008922D02*
X002570Y008922D01*
X002570Y008764D02*
X002570Y008764D01*
X002570Y008605D02*
X002570Y008605D01*
X002570Y008447D02*
X002570Y008447D01*
X002570Y008288D02*
X002570Y008288D01*
X002570Y008130D02*
X002570Y008130D01*
X002570Y007971D02*
X002570Y007971D01*
X002570Y007813D02*
X002570Y007813D01*
X002570Y007654D02*
X002570Y007654D01*
X002570Y007496D02*
X002570Y007496D01*
X002570Y007337D02*
X002570Y007337D01*
X002570Y007179D02*
X002570Y007179D01*
X002570Y007020D02*
X002570Y007020D01*
X002570Y006862D02*
X002570Y006862D01*
X002570Y006703D02*
X002570Y006703D01*
X002570Y006545D02*
X002570Y006545D01*
X002570Y006386D02*
X002570Y006386D01*
X002570Y006228D02*
X002570Y006228D01*
X002570Y006069D02*
X002570Y006069D01*
X002570Y005911D02*
X002570Y005911D01*
X002570Y005752D02*
X002570Y005752D01*
X002570Y005594D02*
X002570Y005594D01*
X002570Y005435D02*
X002570Y005435D01*
X002570Y005277D02*
X002570Y005277D01*
X002570Y005118D02*
X002570Y005118D01*
X002570Y004960D02*
X002570Y004960D01*
X002570Y004801D02*
X002570Y004801D01*
X002570Y004643D02*
X002570Y004643D01*
X002570Y004484D02*
X002570Y004484D01*
X002570Y004326D02*
X002570Y004326D01*
X002570Y004167D02*
X002570Y004167D01*
X002570Y004009D02*
X002650Y004009D01*
X002570Y003850D02*
X002809Y003850D01*
X002967Y003692D02*
X002570Y003692D01*
X003370Y003058D02*
X003410Y003058D01*
X003410Y002899D02*
X003370Y002899D01*
X003370Y002741D02*
X003410Y002741D01*
X003790Y003058D02*
X004046Y003058D01*
X003929Y002899D02*
X003896Y002899D01*
X004734Y003058D02*
X005046Y003058D01*
X004929Y002899D02*
X004851Y002899D01*
X005734Y003058D02*
X006046Y003058D01*
X005929Y002899D02*
X005851Y002899D01*
X006734Y003058D02*
X007046Y003058D01*
X006929Y002899D02*
X006851Y002899D01*
X007734Y003058D02*
X008046Y003058D01*
X007929Y002899D02*
X007851Y002899D01*
X008734Y003058D02*
X009046Y003058D01*
X008929Y002899D02*
X008851Y002899D01*
X009734Y003058D02*
X010046Y003058D01*
X009929Y002899D02*
X009851Y002899D01*
X010734Y003058D02*
X011046Y003058D01*
X010929Y002899D02*
X010851Y002899D01*
X011734Y003058D02*
X012046Y003058D01*
X011929Y002899D02*
X011851Y002899D01*
X012734Y003058D02*
X013046Y003058D01*
X012929Y002899D02*
X012851Y002899D01*
X013734Y003058D02*
X014046Y003058D01*
X013929Y002899D02*
X013851Y002899D01*
X014734Y003058D02*
X015046Y003058D01*
X014929Y002899D02*
X014851Y002899D01*
X015734Y003058D02*
X016046Y003058D01*
X015929Y002899D02*
X015851Y002899D01*
X016734Y003058D02*
X017046Y003058D01*
X016929Y002899D02*
X016851Y002899D01*
X017734Y003058D02*
X018603Y003058D01*
X018444Y002899D02*
X017851Y002899D01*
X017900Y002741D02*
X018420Y002741D01*
X018420Y002582D02*
X017900Y002582D01*
X017836Y002424D02*
X018482Y002424D01*
X018640Y002265D02*
X017696Y002265D01*
X017685Y002107D02*
X018652Y002107D01*
X018493Y001948D02*
X017831Y001948D01*
X017897Y001790D02*
X018420Y001790D01*
X018420Y001631D02*
X017900Y001631D01*
X017856Y001473D02*
X018433Y001473D01*
X018591Y001314D02*
X017745Y001314D01*
X017035Y001314D02*
X016745Y001314D01*
X016856Y001473D02*
X016924Y001473D01*
X016035Y001314D02*
X015745Y001314D01*
X015856Y001473D02*
X015924Y001473D01*
X015035Y001314D02*
X014745Y001314D01*
X014856Y001473D02*
X014924Y001473D01*
X014035Y001314D02*
X013745Y001314D01*
X013856Y001473D02*
X013924Y001473D01*
X013035Y001314D02*
X012745Y001314D01*
X012856Y001473D02*
X012924Y001473D01*
X012035Y001314D02*
X011745Y001314D01*
X011856Y001473D02*
X011924Y001473D01*
X011035Y001314D02*
X010745Y001314D01*
X010856Y001473D02*
X010924Y001473D01*
X010035Y001314D02*
X009745Y001314D01*
X009856Y001473D02*
X009924Y001473D01*
X009035Y001314D02*
X008745Y001314D01*
X008856Y001473D02*
X008924Y001473D01*
X008035Y001314D02*
X007745Y001314D01*
X007856Y001473D02*
X007924Y001473D01*
X007035Y001314D02*
X006745Y001314D01*
X006856Y001473D02*
X006924Y001473D01*
X006035Y001314D02*
X005745Y001314D01*
X005856Y001473D02*
X005924Y001473D01*
X005035Y001314D02*
X004745Y001314D01*
X004856Y001473D02*
X004924Y001473D01*
X004035Y001314D02*
X003745Y001314D01*
X003856Y001473D02*
X003924Y001473D01*
X002570Y000997D02*
X028710Y000997D01*
X028453Y007673D02*
X028948Y007673D01*
X028993Y007685D01*
X029034Y007709D01*
X029068Y007743D01*
X029092Y007784D01*
X029104Y007830D01*
X029104Y008167D01*
X028453Y008167D01*
X028453Y008327D01*
X029104Y008327D01*
X029104Y008664D01*
X029092Y008710D01*
X029068Y008751D01*
X029034Y008785D01*
X028993Y008808D01*
X028948Y008821D01*
X028453Y008821D01*
X028453Y008327D01*
X028293Y008327D01*
X028293Y008821D01*
X027798Y008821D01*
X027752Y008808D01*
X027711Y008785D01*
X027677Y008751D01*
X027654Y008710D01*
X027641Y008664D01*
X027641Y008327D01*
X028293Y008327D01*
X028293Y008167D01*
X028453Y008167D01*
X028453Y007673D01*
X028453Y007813D02*
X028293Y007813D01*
X028293Y007673D02*
X027798Y007673D01*
X027752Y007685D01*
X027711Y007709D01*
X027677Y007743D01*
X027654Y007784D01*
X027641Y007830D01*
X027641Y008167D01*
X028293Y008167D01*
X028293Y007673D01*
X028293Y007971D02*
X028453Y007971D01*
X028453Y008130D02*
X028293Y008130D01*
X028293Y008288D02*
X020875Y008288D01*
X020875Y008130D02*
X027641Y008130D01*
X027641Y007971D02*
X020875Y007971D01*
X020875Y007813D02*
X027646Y007813D01*
X028453Y008288D02*
X029610Y008288D01*
X029610Y008130D02*
X029104Y008130D01*
X029104Y007971D02*
X029610Y007971D01*
X029610Y007813D02*
X029099Y007813D01*
X029104Y008447D02*
X029610Y008447D01*
X029610Y008605D02*
X029104Y008605D01*
X029056Y008764D02*
X029610Y008764D01*
X029610Y008922D02*
X020967Y008922D01*
X021013Y009081D02*
X029610Y009081D01*
X029610Y009239D02*
X020994Y009239D01*
X020893Y009398D02*
X029610Y009398D01*
X029610Y009556D02*
X020352Y009556D01*
X020363Y009715D02*
X029610Y009715D01*
X029610Y009873D02*
X020363Y009873D01*
X020363Y010032D02*
X029610Y010032D01*
X029610Y010190D02*
X020356Y010190D01*
X020790Y010480D02*
X019447Y010480D01*
X019436Y010491D01*
X019474Y011059D02*
X020247Y011059D01*
X020293Y011071D01*
X020334Y011095D01*
X020367Y011129D01*
X020391Y011170D01*
X020403Y011215D01*
X020403Y011437D01*
X019474Y011437D01*
X019474Y011513D01*
X020403Y011513D01*
X020403Y011735D01*
X020391Y011781D01*
X020367Y011822D01*
X020334Y011856D01*
X020293Y011879D01*
X020247Y011891D01*
X019474Y011891D01*
X019474Y011513D01*
X019398Y011513D01*
X019398Y011437D01*
X019474Y011437D01*
X019474Y011059D01*
X019398Y011059D02*
X018625Y011059D01*
X018579Y011071D01*
X018538Y011095D01*
X018504Y011129D01*
X018481Y011170D01*
X018468Y011215D01*
X018468Y011437D01*
X019398Y011437D01*
X019398Y011059D01*
X019398Y011141D02*
X019474Y011141D01*
X019474Y011300D02*
X019398Y011300D01*
X019398Y011458D02*
X018351Y011458D01*
X018368Y011492D02*
X018393Y011567D01*
X018405Y011646D01*
X018405Y011686D01*
X018405Y011725D01*
X018393Y011804D01*
X018368Y011880D01*
X018332Y011950D01*
X018285Y012015D01*
X018229Y012071D01*
X018165Y012118D01*
X018094Y012154D01*
X018018Y012178D01*
X017940Y012191D01*
X017900Y012191D01*
X017860Y012191D01*
X017782Y012178D01*
X017706Y012154D01*
X017635Y012118D01*
X017571Y012071D01*
X017515Y012015D01*
X017468Y011950D01*
X017432Y011880D01*
X017407Y011804D01*
X017395Y011725D01*
X017395Y011686D01*
X017900Y011686D01*
X017900Y012191D01*
X017900Y011686D01*
X017900Y011686D01*
X017900Y011686D01*
X018405Y011686D01*
X017900Y011686D01*
X017900Y011686D01*
X017395Y011686D01*
X017395Y011646D01*
X017407Y011567D01*
X017432Y011492D01*
X017468Y011421D01*
X017515Y011357D01*
X017571Y011301D01*
X017635Y011254D01*
X017706Y011218D01*
X017782Y011193D01*
X017860Y011181D01*
X017900Y011181D01*
X017940Y011181D01*
X018018Y011193D01*
X018094Y011218D01*
X018165Y011254D01*
X018229Y011301D01*
X018285Y011357D01*
X018332Y011421D01*
X018368Y011492D01*
X018468Y011513D02*
X018468Y011735D01*
X018481Y011781D01*
X018504Y011822D01*
X018538Y011856D01*
X018579Y011879D01*
X018625Y011891D01*
X019398Y011891D01*
X019398Y011513D01*
X018468Y011513D01*
X018468Y011617D02*
X018400Y011617D01*
X018397Y011775D02*
X018479Y011775D01*
X018341Y011934D02*
X031340Y011934D01*
X031280Y012092D02*
X020290Y012092D01*
X020363Y012251D02*
X031280Y012251D01*
X031333Y012409D02*
X020363Y012409D01*
X020363Y012568D02*
X031456Y012568D01*
X031553Y012726D02*
X020363Y012726D01*
X020363Y013202D02*
X031280Y013202D01*
X031295Y013043D02*
X017658Y013043D01*
X017778Y013202D02*
X017500Y013202D01*
X017537Y013360D02*
X017341Y013360D01*
X017453Y013519D02*
X016946Y013519D01*
X017038Y013677D02*
X017435Y013677D01*
X017472Y013836D02*
X017058Y013836D01*
X017017Y013994D02*
X017582Y013994D01*
X016895Y014153D02*
X018472Y014153D01*
X018468Y014311D02*
X015212Y014311D01*
X015163Y014153D02*
X015483Y014153D01*
X015361Y013994D02*
X015285Y013994D01*
X014890Y013810D02*
X014890Y014300D01*
X015290Y014700D01*
X017820Y014700D01*
X018532Y015412D01*
X018376Y014945D02*
X031280Y014945D01*
X031790Y015180D02*
X032745Y015158D01*
X032414Y015421D02*
X032300Y015421D01*
X032300Y015579D02*
X033081Y015579D01*
X033077Y015421D02*
X033240Y015421D01*
X033157Y015262D02*
X034710Y015262D01*
X034710Y015104D02*
X033165Y015104D01*
X033112Y014945D02*
X033448Y014945D01*
X033393Y014890D02*
X033333Y014745D01*
X033333Y014587D01*
X033393Y014441D01*
X033505Y014330D01*
X033650Y014269D01*
X033808Y014269D01*
X033954Y014330D01*
X034066Y014441D01*
X034126Y014587D01*
X034126Y014745D01*
X034066Y014890D01*
X033954Y015002D01*
X033808Y015062D01*
X033650Y015062D01*
X033505Y015002D01*
X033393Y014890D01*
X033350Y014787D02*
X032946Y014787D01*
X033043Y014470D02*
X033381Y014470D01*
X033333Y014628D02*
X032041Y014628D01*
X032222Y014470D02*
X032447Y014470D01*
X032544Y014787D02*
X032300Y014787D01*
X032300Y014945D02*
X032379Y014945D01*
X033143Y014311D02*
X033550Y014311D01*
X033909Y014311D02*
X034710Y014311D01*
X034710Y014153D02*
X033165Y014153D01*
X033125Y013994D02*
X034710Y013994D01*
X034710Y013836D02*
X033001Y013836D01*
X033048Y013677D02*
X034710Y013677D01*
X034710Y013519D02*
X033145Y013519D01*
X033165Y013360D02*
X034710Y013360D01*
X034710Y013202D02*
X033983Y013202D01*
X033954Y013230D02*
X033808Y013291D01*
X033650Y013291D01*
X033505Y013230D01*
X033393Y013119D01*
X033333Y012973D01*
X033333Y012815D01*
X033393Y012670D01*
X033505Y012558D01*
X033650Y012498D01*
X033808Y012498D01*
X033954Y012558D01*
X034066Y012670D01*
X034126Y012815D01*
X034126Y012973D01*
X034066Y013119D01*
X033954Y013230D01*
X034097Y013043D02*
X034710Y013043D01*
X034710Y012885D02*
X034126Y012885D01*
X034089Y012726D02*
X034710Y012726D01*
X034710Y012568D02*
X033964Y012568D01*
X033495Y012568D02*
X033131Y012568D01*
X033165Y012409D02*
X034710Y012409D01*
X034710Y012251D02*
X033890Y012251D01*
X033844Y012270D02*
X033536Y012270D01*
X033252Y012152D01*
X033035Y011934D01*
X032917Y011650D01*
X032917Y011343D01*
X033035Y011059D01*
X033252Y010841D01*
X033536Y010723D01*
X033844Y010723D01*
X034128Y010841D01*
X034345Y011059D01*
X034463Y011343D01*
X034463Y011650D01*
X034345Y011934D01*
X034128Y012152D01*
X033844Y012270D01*
X033490Y012251D02*
X033137Y012251D01*
X033192Y012092D02*
X033029Y012092D01*
X033034Y011934D02*
X032240Y011934D01*
X032106Y011775D02*
X032969Y011775D01*
X032917Y011617D02*
X020403Y011617D01*
X020392Y011775D02*
X031474Y011775D01*
X031790Y012180D02*
X032745Y012402D01*
X032359Y012568D02*
X032124Y012568D01*
X032027Y012726D02*
X032475Y012726D01*
X032216Y012885D02*
X033333Y012885D01*
X033362Y013043D02*
X032996Y013043D01*
X033123Y013202D02*
X033476Y013202D01*
X032745Y013386D02*
X031790Y013180D01*
X031313Y013360D02*
X020363Y013360D01*
X020363Y013519D02*
X031407Y013519D01*
X031364Y012885D02*
X017817Y012885D01*
X017975Y012726D02*
X018508Y012726D01*
X017930Y012460D02*
X017190Y013200D01*
X015650Y013200D01*
X015270Y012820D01*
X015160Y012820D01*
X014890Y012550D01*
X015206Y012251D02*
X015440Y012251D01*
X015343Y012409D02*
X015303Y012409D01*
X015570Y012092D02*
X014480Y012092D01*
X014480Y011934D02*
X015570Y011934D01*
X015614Y011775D02*
X014480Y011775D01*
X014480Y011617D02*
X015772Y011617D01*
X015931Y011458D02*
X014480Y011458D01*
X014480Y011300D02*
X016089Y011300D01*
X016170Y011141D02*
X015594Y011141D01*
X015752Y010983D02*
X016028Y010983D01*
X015920Y010824D02*
X015860Y010824D01*
X015860Y010666D02*
X015920Y010666D01*
X015920Y010507D02*
X015860Y010507D01*
X015723Y010349D02*
X016057Y010349D01*
X016390Y010680D02*
X016390Y011310D01*
X015790Y011910D01*
X015790Y012516D01*
X015756Y012550D01*
X016072Y012251D02*
X016306Y012251D01*
X016210Y012409D02*
X016169Y012409D01*
X016010Y012092D02*
X017600Y012092D01*
X017459Y011934D02*
X016078Y011934D01*
X016236Y011775D02*
X017403Y011775D01*
X017400Y011617D02*
X016395Y011617D01*
X016553Y011458D02*
X017449Y011458D01*
X017572Y011300D02*
X016610Y011300D01*
X016610Y011141D02*
X017186Y011141D01*
X017028Y010983D02*
X016752Y010983D01*
X016390Y010680D02*
X017390Y010680D01*
X017723Y010349D02*
X018508Y010349D01*
X018508Y010507D02*
X017860Y010507D01*
X017860Y010666D02*
X018508Y010666D01*
X018547Y010824D02*
X017860Y010824D01*
X017752Y010983D02*
X033111Y010983D01*
X033000Y011141D02*
X020374Y011141D01*
X020403Y011300D02*
X032935Y011300D01*
X032917Y011458D02*
X019474Y011458D01*
X019474Y011617D02*
X019398Y011617D01*
X019398Y011775D02*
X019474Y011775D01*
X019436Y012460D02*
X017930Y012460D01*
X017828Y012251D02*
X016938Y012251D01*
X017035Y012409D02*
X017670Y012409D01*
X017511Y012568D02*
X017058Y012568D01*
X017021Y012726D02*
X017353Y012726D01*
X017194Y012885D02*
X016903Y012885D01*
X017900Y012092D02*
X017900Y012092D01*
X017900Y011934D02*
X017900Y011934D01*
X017900Y011775D02*
X017900Y011775D01*
X017900Y011686D02*
X017900Y011181D01*
X017900Y011686D01*
X017900Y011686D01*
X017900Y011617D02*
X017900Y011617D01*
X017900Y011458D02*
X017900Y011458D01*
X017900Y011300D02*
X017900Y011300D01*
X018228Y011300D02*
X018468Y011300D01*
X018497Y011141D02*
X017594Y011141D01*
X017057Y010349D02*
X016723Y010349D01*
X015390Y010680D02*
X014390Y010680D01*
X014260Y010810D01*
X014260Y012850D01*
X014580Y013170D01*
X015300Y013170D01*
X015756Y013626D01*
X015756Y013810D01*
X016151Y013994D02*
X016227Y013994D01*
X016349Y014153D02*
X016029Y014153D01*
X015371Y014470D02*
X018468Y014470D01*
X018468Y014628D02*
X018059Y014628D01*
X018218Y014787D02*
X018516Y014787D01*
X017912Y015104D02*
X014435Y015104D01*
X014440Y015262D02*
X014562Y015262D01*
X014473Y015421D02*
X014440Y015421D01*
X014440Y015579D02*
X014455Y015579D01*
X014440Y015738D02*
X014497Y015738D01*
X014507Y015896D02*
X014620Y015896D01*
X015160Y015896D02*
X015487Y015896D01*
X015363Y015738D02*
X015283Y015738D01*
X015307Y015421D02*
X015339Y015421D01*
X015429Y015262D02*
X015218Y015262D01*
X015065Y014787D02*
X014118Y014787D01*
X014276Y014945D02*
X017754Y014945D01*
X014907Y014628D02*
X013959Y014628D01*
X013920Y014589D02*
X013920Y014589D01*
X013801Y014470D02*
X014748Y014470D01*
X014670Y014311D02*
X013232Y014311D01*
X013210Y014153D02*
X013301Y014153D01*
X013622Y014153D02*
X013639Y014153D01*
X013639Y014285D02*
X013639Y013819D01*
X014105Y013819D01*
X014105Y013847D01*
X014094Y013921D01*
X014071Y013992D01*
X014037Y014059D01*
X013993Y014120D01*
X013940Y014172D01*
X013879Y014216D01*
X013813Y014250D01*
X013741Y014273D01*
X013668Y014285D01*
X013639Y014285D01*
X013622Y013994D02*
X013639Y013994D01*
X013622Y013836D02*
X013639Y013836D01*
X013639Y013801D02*
X014105Y013801D01*
X014105Y013773D01*
X014094Y013699D01*
X014071Y013627D01*
X014037Y013561D01*
X013993Y013500D01*
X013940Y013447D01*
X013879Y013403D01*
X013813Y013369D01*
X013741Y013346D01*
X013668Y013335D01*
X013639Y013335D01*
X013639Y013801D01*
X013639Y013677D02*
X013622Y013677D01*
X013622Y013519D02*
X013639Y013519D01*
X013622Y013360D02*
X013639Y013360D01*
X013784Y013360D02*
X014459Y013360D01*
X014566Y013519D02*
X014006Y013519D01*
X014087Y013677D02*
X014474Y013677D01*
X014455Y013836D02*
X014105Y013836D01*
X014070Y013994D02*
X014495Y013994D01*
X014617Y014153D02*
X013960Y014153D01*
X013254Y013519D02*
X013210Y013519D01*
X013210Y013360D02*
X013477Y013360D01*
X013210Y013202D02*
X014300Y013202D01*
X014142Y013043D02*
X013210Y013043D01*
X013210Y012885D02*
X013349Y012885D01*
X013232Y012726D02*
X013210Y012726D01*
X013390Y012080D02*
X013390Y010680D01*
X012390Y010680D01*
X012723Y010349D02*
X013057Y010349D01*
X013028Y010983D02*
X012752Y010983D01*
X013610Y011141D02*
X014040Y011141D01*
X014040Y011300D02*
X013610Y011300D01*
X013610Y011458D02*
X014040Y011458D01*
X014040Y011617D02*
X013610Y011617D01*
X013610Y011775D02*
X014040Y011775D01*
X014040Y011934D02*
X013610Y011934D01*
X013610Y012092D02*
X014040Y012092D01*
X014040Y012251D02*
X013946Y012251D01*
X014480Y012251D02*
X014574Y012251D01*
X014040Y012726D02*
X014028Y012726D01*
X014040Y012885D02*
X013911Y012885D01*
X012690Y012180D02*
X012690Y015380D01*
X012887Y015579D02*
X013195Y015579D01*
X013213Y015421D02*
X012970Y015421D01*
X012944Y015262D02*
X013303Y015262D01*
X012910Y015104D02*
X013812Y015104D01*
X013958Y015262D02*
X013971Y015262D01*
X013630Y015550D02*
X013630Y016020D01*
X014290Y016680D01*
X014500Y017006D02*
X014064Y017006D01*
X013948Y017164D02*
X014629Y017164D01*
X014721Y017323D02*
X011444Y017323D01*
X011310Y017164D02*
X011606Y017164D01*
X011434Y017006D02*
X011310Y017006D01*
X011310Y016847D02*
X011355Y016847D01*
X011310Y016689D02*
X011860Y016689D01*
X011920Y016689D02*
X013170Y016689D01*
X013167Y016699D02*
X013190Y016627D01*
X013224Y016561D01*
X013268Y016500D01*
X013444Y016372D02*
X012358Y016372D01*
X012200Y016213D02*
X013512Y016213D01*
X013539Y016240D02*
X013539Y016240D01*
X013622Y016372D02*
X013639Y016372D01*
X013622Y016530D02*
X013639Y016530D01*
X013622Y016689D02*
X013639Y016689D01*
X013622Y016801D02*
X013155Y016801D01*
X013155Y016773D01*
X013167Y016699D01*
X013155Y016819D02*
X013622Y016819D01*
X013622Y016801D01*
X013622Y016847D02*
X013639Y016847D01*
X013622Y017006D02*
X013639Y017006D01*
X013622Y017164D02*
X013639Y017164D01*
X013312Y017164D02*
X012174Y017164D01*
X012346Y017006D02*
X013196Y017006D01*
X013155Y016847D02*
X013155Y016819D01*
X013410Y016055D02*
X011310Y016055D01*
X011310Y016213D02*
X011580Y016213D01*
X011422Y016372D02*
X011310Y016372D01*
X011310Y016530D02*
X011350Y016530D01*
X010870Y017006D02*
X010786Y017006D01*
X010870Y017164D02*
X010554Y017164D01*
X010754Y017323D02*
X010870Y017323D01*
X010860Y017481D02*
X010980Y017481D01*
X010900Y017640D02*
X011138Y017640D01*
X011297Y017798D02*
X010893Y017798D01*
X010827Y017957D02*
X014555Y017957D01*
X014714Y018115D02*
X010672Y018115D01*
X010705Y018274D02*
X014872Y018274D01*
X015090Y018180D02*
X016190Y018180D01*
X016410Y018089D02*
X016410Y018089D01*
X016436Y018115D02*
X016935Y018115D01*
X016947Y018274D02*
X016595Y018274D01*
X016753Y018432D02*
X017119Y018432D01*
X017289Y018591D02*
X016912Y018591D01*
X017070Y018749D02*
X017448Y018749D01*
X017606Y018908D02*
X017229Y018908D01*
X017310Y019066D02*
X017765Y019066D01*
X017923Y019225D02*
X017310Y019225D01*
X017310Y019383D02*
X026092Y019383D01*
X026040Y019542D02*
X017310Y019542D01*
X017310Y019700D02*
X026040Y019700D01*
X026570Y019700D02*
X026610Y019700D01*
X026610Y019542D02*
X026570Y019542D01*
X026570Y019383D02*
X026610Y019383D01*
X026610Y019859D02*
X026570Y019859D01*
X027119Y020334D02*
X027294Y020334D01*
X027255Y020493D02*
X026924Y020493D01*
X027047Y020651D02*
X027255Y020651D01*
X027740Y020493D02*
X027740Y020493D01*
X027740Y020334D02*
X027740Y020334D01*
X029064Y019542D02*
X029610Y019542D01*
X029610Y019383D02*
X029064Y019383D01*
X029064Y019225D02*
X029610Y019225D01*
X029610Y019066D02*
X029064Y019066D01*
X029064Y018908D02*
X029610Y018908D01*
X029610Y018749D02*
X029033Y018749D01*
X029610Y018591D02*
X020836Y018591D01*
X020824Y018749D02*
X027712Y018749D01*
X029610Y018432D02*
X020836Y018432D01*
X020836Y018274D02*
X029610Y018274D01*
X029610Y018115D02*
X020836Y018115D01*
X020836Y017957D02*
X029610Y017957D01*
X029610Y017798D02*
X020939Y017798D01*
X021062Y017640D02*
X029610Y017640D01*
X029610Y017481D02*
X021112Y017481D01*
X021112Y017323D02*
X029610Y017323D01*
X029610Y017164D02*
X021046Y017164D01*
X020902Y017006D02*
X029710Y017006D01*
X031790Y014180D02*
X032745Y014174D01*
X034077Y014470D02*
X034710Y014470D01*
X034710Y014628D02*
X034126Y014628D01*
X034109Y014787D02*
X034710Y014787D01*
X034710Y014945D02*
X034011Y014945D01*
X034140Y015421D02*
X034710Y015421D01*
X034710Y015579D02*
X034299Y015579D01*
X034392Y015738D02*
X034710Y015738D01*
X034710Y015896D02*
X034457Y015896D01*
X034463Y016055D02*
X034710Y016055D01*
X034710Y016213D02*
X034463Y016213D01*
X034399Y016372D02*
X034710Y016372D01*
X034710Y016530D02*
X034317Y016530D01*
X032494Y013043D02*
X032285Y013043D01*
X033015Y012726D02*
X033370Y012726D01*
X034188Y012092D02*
X034710Y012092D01*
X034710Y011934D02*
X034346Y011934D01*
X034411Y011775D02*
X034710Y011775D01*
X034710Y011617D02*
X034463Y011617D01*
X034463Y011458D02*
X034710Y011458D01*
X034710Y011300D02*
X034445Y011300D01*
X034380Y011141D02*
X034710Y011141D01*
X034710Y010983D02*
X034269Y010983D01*
X034087Y010824D02*
X034710Y010824D01*
X034710Y010666D02*
X021000Y010666D01*
X021070Y010507D02*
X029662Y010507D01*
X029610Y010349D02*
X021039Y010349D01*
X020324Y010824D02*
X033293Y010824D01*
X032461Y012092D02*
X032383Y012092D01*
X028453Y008764D02*
X028293Y008764D01*
X028293Y008605D02*
X028453Y008605D01*
X028453Y008447D02*
X028293Y008447D01*
X027641Y008447D02*
X020875Y008447D01*
X020875Y008605D02*
X027641Y008605D01*
X027690Y008764D02*
X020809Y008764D01*
X018508Y009715D02*
X010900Y009715D01*
X010862Y009873D02*
X018508Y009873D01*
X018508Y010032D02*
X010760Y010032D01*
X010540Y010190D02*
X018515Y010190D01*
X018582Y012092D02*
X018200Y012092D01*
X015186Y011141D02*
X014594Y011141D01*
X014752Y010983D02*
X015028Y010983D01*
X015057Y010349D02*
X014723Y010349D01*
X014057Y010349D02*
X013723Y010349D01*
X013860Y010507D02*
X013920Y010507D01*
X013920Y010666D02*
X013860Y010666D01*
X013860Y010824D02*
X013920Y010824D01*
X014028Y010983D02*
X013752Y010983D01*
X012553Y011934D02*
X011310Y011934D01*
X011310Y012092D02*
X012423Y012092D01*
X012416Y012251D02*
X012196Y012251D01*
X012185Y012239D02*
X012331Y012385D01*
X012410Y012577D01*
X012410Y012783D01*
X012331Y012975D01*
X012185Y013121D01*
X011993Y013200D01*
X011787Y013200D01*
X011595Y013121D01*
X011449Y012975D01*
X011370Y012783D01*
X011370Y012577D01*
X011449Y012385D01*
X011595Y012239D01*
X011787Y012160D01*
X011993Y012160D01*
X012185Y012239D01*
X012341Y012409D02*
X012470Y012409D01*
X012470Y012568D02*
X012406Y012568D01*
X012410Y012726D02*
X012470Y012726D01*
X012470Y012885D02*
X012368Y012885D01*
X012470Y013043D02*
X012262Y013043D01*
X012470Y013202D02*
X011310Y013202D01*
X011310Y013360D02*
X012470Y013360D01*
X012470Y013519D02*
X011310Y013519D01*
X011310Y013677D02*
X012470Y013677D01*
X012470Y013836D02*
X011310Y013836D01*
X011310Y013994D02*
X012470Y013994D01*
X012470Y014153D02*
X011310Y014153D01*
X011310Y014311D02*
X012470Y014311D01*
X012470Y014470D02*
X011310Y014470D01*
X011310Y014628D02*
X012470Y014628D01*
X012470Y014787D02*
X011310Y014787D01*
X011310Y014945D02*
X012470Y014945D01*
X012470Y015104D02*
X011310Y015104D01*
X011310Y015262D02*
X012436Y015262D01*
X012410Y015421D02*
X011310Y015421D01*
X011310Y015579D02*
X012493Y015579D01*
X012910Y014945D02*
X013654Y014945D01*
X013085Y014787D02*
X012910Y014787D01*
X012910Y014628D02*
X012927Y014628D01*
X013237Y015738D02*
X011310Y015738D01*
X011310Y015896D02*
X013361Y015896D01*
X011920Y016213D02*
X011860Y016213D01*
X011860Y016372D02*
X011920Y016372D01*
X011920Y016530D02*
X011860Y016530D01*
X011860Y016847D02*
X011920Y016847D01*
X011920Y017006D02*
X011860Y017006D01*
X011860Y017164D02*
X011920Y017164D01*
X011390Y017580D02*
X011090Y017280D01*
X011090Y011280D01*
X011390Y010980D01*
X011390Y010680D01*
X011057Y010349D02*
X010780Y010349D01*
X010870Y010507D02*
X010920Y010507D01*
X010920Y010666D02*
X010900Y010666D01*
X010882Y010824D02*
X010920Y010824D01*
X011028Y010983D02*
X010809Y010983D01*
X010918Y011141D02*
X010610Y011141D01*
X010731Y011300D02*
X010870Y011300D01*
X010870Y011458D02*
X010850Y011458D01*
X011310Y012251D02*
X011584Y012251D01*
X011439Y012409D02*
X011310Y012409D01*
X011310Y012568D02*
X011374Y012568D01*
X011370Y012726D02*
X011310Y012726D01*
X011310Y012885D02*
X011412Y012885D01*
X011310Y013043D02*
X011518Y013043D01*
X014890Y016810D02*
X014890Y017180D01*
X015300Y017590D01*
X017320Y017590D01*
X017050Y017957D02*
X015178Y017957D01*
X015197Y017798D02*
X015019Y017798D01*
X015038Y017640D02*
X014861Y017640D01*
X014880Y017481D02*
X014702Y017481D01*
X014490Y017580D02*
X015090Y018180D01*
X014490Y017580D02*
X011390Y017580D01*
X006157Y019225D02*
X003010Y019225D01*
X003010Y019383D02*
X005966Y019383D01*
X005895Y019542D02*
X003010Y019542D01*
X003010Y019700D02*
X005880Y019700D01*
X005912Y019859D02*
X003010Y019859D01*
X003010Y020017D02*
X006006Y020017D01*
X006254Y020176D02*
X005611Y020176D01*
X005818Y020334D02*
X006015Y020334D01*
X005916Y020493D02*
X005907Y020493D01*
X006390Y021680D02*
X006390Y023680D01*
X006463Y024455D02*
X005849Y024455D01*
X005900Y024614D02*
X006305Y024614D01*
X006146Y024772D02*
X005900Y024772D01*
X005725Y019066D02*
X006055Y019066D01*
X005932Y018908D02*
X005848Y018908D01*
X005055Y019066D02*
X004725Y019066D01*
X004848Y018908D02*
X004932Y018908D01*
X004055Y019066D02*
X003725Y019066D01*
X003848Y018908D02*
X003932Y018908D01*
X003055Y019066D02*
X003010Y019066D01*
X016390Y020810D02*
X016390Y020810D01*
X016390Y020968D02*
X016390Y020968D01*
X016390Y021127D02*
X016390Y021127D01*
X016390Y021285D02*
X016390Y021285D01*
X016390Y021444D02*
X016390Y021444D01*
X016390Y021602D02*
X016390Y021602D01*
X016848Y021444D02*
X017228Y021444D01*
X017141Y021285D02*
X016900Y021285D01*
X016900Y021127D02*
X017025Y021127D01*
X016870Y020493D02*
X016742Y020493D01*
X016860Y020334D02*
X016870Y020334D01*
X016860Y020176D02*
X016870Y020176D01*
X016860Y020017D02*
X016870Y020017D01*
X016870Y019859D02*
X016733Y019859D01*
X018090Y019080D02*
X017190Y018180D01*
X020282Y017006D02*
X020331Y017006D01*
X018779Y020810D02*
X018201Y020810D01*
X019791Y021444D02*
X020200Y021444D01*
X020200Y021602D02*
X019827Y021602D01*
X019880Y021761D02*
X020200Y021761D01*
X020200Y021919D02*
X019868Y021919D01*
X019827Y022078D02*
X020200Y022078D01*
X020182Y022236D02*
X019619Y022236D01*
X019460Y022395D02*
X020024Y022395D01*
X012169Y008605D02*
X012110Y008605D01*
X011065Y007020D02*
X010771Y007020D01*
X010867Y006862D02*
X010920Y006862D01*
X010920Y006703D02*
X010900Y006703D01*
X010886Y006545D02*
X010920Y006545D01*
X010468Y006069D02*
X005722Y006069D01*
X005630Y006228D02*
X006150Y006228D01*
X005963Y006386D02*
X005817Y006386D01*
X005886Y006545D02*
X005894Y006545D01*
X005847Y005911D02*
X010309Y005911D01*
X010150Y006228D02*
X009630Y006228D01*
X009817Y006386D02*
X009963Y006386D01*
X009894Y006545D02*
X009886Y006545D01*
X009150Y006228D02*
X008630Y006228D01*
X008817Y006386D02*
X008963Y006386D01*
X008894Y006545D02*
X008886Y006545D01*
X008150Y006228D02*
X007630Y006228D01*
X007817Y006386D02*
X007963Y006386D01*
X007894Y006545D02*
X007886Y006545D01*
X007150Y006228D02*
X006630Y006228D01*
X006817Y006386D02*
X006963Y006386D01*
X006894Y006545D02*
X006886Y006545D01*
X006151Y005752D02*
X005900Y005752D01*
X005900Y005594D02*
X005992Y005594D01*
X006617Y005118D02*
X007163Y005118D01*
X007005Y004960D02*
X006775Y004960D01*
X006860Y004801D02*
X006920Y004801D01*
X006920Y004643D02*
X006860Y004643D01*
X006897Y004484D02*
X006921Y004484D01*
X007056Y004326D02*
X007080Y004326D01*
X007214Y004167D02*
X007592Y004167D01*
X007750Y004009D02*
X007373Y004009D01*
X007390Y003680D02*
X006390Y004680D01*
X006592Y004167D02*
X006130Y004167D01*
X006030Y004009D02*
X006750Y004009D01*
X006909Y003850D02*
X005871Y003850D01*
X005713Y003692D02*
X007067Y003692D01*
X007390Y004680D02*
X008090Y003980D01*
D31*
X008790Y005780D03*
X010790Y005180D03*
X012790Y005880D03*
X014090Y004980D03*
X014490Y004380D03*
X014890Y006280D03*
X013390Y007680D03*
X012390Y008780D03*
X012390Y011680D03*
X012690Y012180D03*
X015090Y011880D03*
X016990Y011580D03*
X020790Y010480D03*
X021290Y013380D03*
X024690Y011980D03*
X025990Y011680D03*
X027490Y010980D03*
X028890Y011180D03*
X028890Y012680D03*
X028890Y014180D03*
X028890Y015680D03*
X028890Y017180D03*
X027390Y019280D03*
X024790Y021480D03*
X020690Y023280D03*
X019390Y023780D03*
X019390Y024680D03*
X013390Y020680D03*
X010890Y022380D03*
X009890Y022780D03*
X008890Y022780D03*
X007890Y022780D03*
X006890Y022780D03*
X003690Y021880D03*
X003690Y025080D03*
X004790Y025180D03*
X007090Y026680D03*
X008590Y025280D03*
X010990Y025280D03*
X012690Y024080D03*
X013290Y018180D03*
X012690Y015380D03*
X017190Y016180D03*
X018690Y018180D03*
X021790Y016280D03*
X024390Y015680D03*
X024390Y017180D03*
X028890Y009680D03*
X027290Y008080D03*
X028890Y006880D03*
X028890Y005380D03*
X023590Y005380D03*
X021390Y006680D03*
X019790Y006680D03*
X018990Y005780D03*
X018990Y003280D03*
X019890Y002680D03*
X019890Y001680D03*
D32*
X022590Y003980D03*
X022890Y003680D03*
X014290Y016680D03*
X017190Y018180D03*
X021090Y019080D03*
X022590Y022180D03*
X022890Y022580D03*
X022590Y023380D03*
M02*
