%
M48
M72
T01C0.0120
T02C0.0160
T03C0.0276
T04C0.0300
T05C0.0320
T06C0.0354
T07C0.0360
T08C0.0394
T09C0.0400
T10C0.0433
T11C0.0440
T12C0.0630
T13C0.0866
T14C0.1000
%
T01
X22590Y3980
X22890Y3680
X14290Y16680
X17190Y18180
X21090Y19080
X22590Y22180
X22890Y22580
X22590Y23380
T02
X20690Y23280
X19390Y23780
X19390Y24680
X24790Y21480
X27390Y19280
X28890Y17180
X28890Y15680
X28890Y14180
X28890Y12680
X28890Y11180
X27490Y10980
X25990Y11680
X24690Y11980
X21290Y13380
X24390Y15680
X24390Y17180
X21790Y16280
X18690Y18180
X17190Y16180
X13290Y18180
X13390Y20680
X10890Y22380
X9890Y22780
X8890Y22780
X7890Y22780
X6890Y22780
X3690Y21880
X3690Y25080
X4790Y25180
X7090Y26680
X8590Y25280
X10990Y25280
X12690Y24080
X12690Y15380
X12690Y12180
X12390Y11680
X15090Y11880
X16990Y11580
X20790Y10480
X21390Y6680
X19790Y6680
X18990Y5780
X18990Y3280
X19890Y2680
X19890Y1680
X23590Y5380
X27290Y8080
X28890Y6880
X28890Y5380
X28890Y9680
X14890Y6280
X14090Y4980
X14490Y4380
X12790Y5880
X10790Y5180
X8790Y5780
X12390Y8780
X13390Y7680
T03
X17900Y11686
X17900Y13654
X24760Y20876
X24760Y22844
T04
X18790Y22080
X6390Y25080
T05
X12390Y22180
X12390Y21180
X12390Y20180
X12390Y19180
X16390Y19180
X16390Y20180
X16390Y21180
X17790Y21180
X17790Y20180
X17790Y22180
X16390Y22180
X16390Y10680
X17390Y10680
X15390Y10680
X14390Y10680
X13390Y10680
X12390Y10680
X11390Y10680
X11390Y6680
X12390Y6680
X13390Y6680
X14390Y6680
X15390Y6680
X16390Y6680
X17390Y6680
X18890Y2680
X18890Y1680
X22890Y1680
X22890Y2680
T06
X16622Y12550
X15756Y12550
X14890Y12550
X13630Y12550
X13630Y13810
X14890Y13810
X15756Y13810
X16622Y13810
X16622Y15550
X15756Y15550
X14890Y15550
X13630Y15550
X13630Y16810
X14890Y16810
X15756Y16810
X16622Y16810
T07
X32745Y15158
X32745Y14174
X32745Y13386
X32745Y12402
T08
X21990Y4680
X20990Y4680
X19990Y4680
X18990Y4680
X17990Y4680
X16990Y4680
X15990Y4680
X14990Y4680
X13390Y4680
X12390Y4680
X11390Y4680
X10390Y4680
X9390Y4680
X8390Y4680
X7390Y4680
X6390Y4680
X6390Y23680
X7390Y23680
X8390Y23680
X9390Y23680
X10390Y23680
X11390Y23680
X13390Y23680
X14390Y23680
X15390Y23680
X16390Y23680
X17390Y23680
X18390Y23680
T09
X3390Y1680
X4390Y1680
X4390Y2680
X3390Y2680
X5390Y2680
X6390Y2680
X6390Y1680
X5390Y1680
X7390Y1680
X8390Y1680
X9390Y1680
X9390Y2680
X8390Y2680
X7390Y2680
X5390Y4680
X4390Y4680
X3390Y4680
X3390Y5680
X4390Y5680
X4390Y6680
X3390Y6680
X3390Y7680
X4390Y7680
X5390Y7680
X6390Y7680
X7390Y7680
X8390Y7680
X9390Y7680
X10390Y7680
X10390Y6680
X9390Y6680
X8390Y6680
X7390Y6680
X6390Y6680
X5390Y6680
X5390Y5680
X5390Y8680
X6390Y8680
X6390Y9680
X5390Y9680
X4390Y9680
X3390Y9680
X3390Y8680
X4390Y8680
X4390Y10680
X3390Y10680
X3390Y11680
X4390Y11680
X5390Y11680
X6390Y11680
X6390Y10680
X5390Y10680
X7390Y10680
X8390Y10680
X9390Y10680
X9390Y11680
X8390Y11680
X7390Y11680
X7390Y12680
X8390Y12680
X9390Y12680
X9390Y13680
X8390Y13680
X7390Y13680
X6390Y13680
X5390Y13680
X5390Y12680
X6390Y12680
X4390Y12680
X3390Y12680
X3390Y13680
X4390Y13680
X4390Y14680
X3390Y14680
X3390Y15680
X4390Y15680
X4390Y16680
X3390Y16680
X3390Y17680
X4390Y17680
X4390Y18680
X3390Y18680
X5390Y18680
X6390Y18680
X6390Y17680
X5390Y17680
X5390Y16680
X6390Y16680
X6390Y15680
X5390Y15680
X5390Y14680
X6390Y14680
X7390Y14680
X8390Y14680
X9390Y14680
X10390Y14680
X10390Y13680
X10390Y12680
X10390Y11680
X10390Y10680
X10390Y9680
X10390Y8680
X9390Y8680
X8390Y8680
X7390Y8680
X7390Y9680
X8390Y9680
X9390Y9680
X9390Y15680
X8390Y15680
X7390Y15680
X7390Y16680
X8390Y16680
X9390Y16680
X10390Y16680
X10390Y15680
X10390Y17680
X10390Y18680
X9390Y18680
X8390Y18680
X7390Y18680
X7390Y17680
X8390Y17680
X9390Y17680
X9390Y19680
X8390Y19680
X7390Y19680
X6390Y19680
X6390Y20680
X5390Y20680
X5390Y21680
X6390Y21680
X7390Y21680
X8390Y21680
X9390Y21680
X9390Y20680
X8390Y20680
X7390Y20680
X5390Y22680
X5390Y23680
X5390Y24680
X5390Y25680
X10390Y21680
X11390Y21680
X10390Y20680
X10390Y19680
X13390Y24680
X14390Y24680
X15390Y24680
X16390Y24680
X17390Y24680
X18390Y24680
X21390Y25180
X21390Y26180
X24890Y26180
X24890Y25180
X25890Y25180
X26890Y25180
X26890Y26180
X25890Y26180
X27890Y26180
X27890Y25180
X26590Y22880
X26590Y21880
X26590Y20880
X26590Y19880
X31790Y15180
X31790Y14180
X31790Y13180
X31790Y12180
X25390Y5880
X25390Y4880
X25390Y3880
X25390Y2880
X17390Y2680
X16390Y2680
X16390Y1680
X17390Y1680
X15390Y1680
X14390Y1680
X14390Y2680
X15390Y2680
X13390Y2680
X12390Y2680
X12390Y1680
X13390Y1680
X11390Y1680
X10390Y1680
X10390Y2680
X11390Y2680
T10
X20617Y9113
X33729Y12894
X33729Y14666
T11
X11890Y12680
X11890Y16680
T12
X20617Y17420
T13
X33690Y16063
X33690Y11497
T14
X27390Y6680
X27390Y5180
X27390Y3680
X27390Y2180
M30
