G75*
G70*
%OFA0B0*%
%FSLAX24Y24*%
%IPPOS*%
%LPD*%
%AMOC8*
5,1,8,0,0,1.08239X$1,22.5*
%
%ADD10C,0.0000*%
%ADD11OC8,0.0660*%
%ADD12C,0.0520*%
%ADD13C,0.0650*%
%ADD14C,0.0591*%
%ADD15R,0.0740X0.0740*%
%ADD16C,0.0740*%
%ADD17C,0.0760*%
%ADD18C,0.0560*%
%ADD19C,0.1266*%
%ADD20C,0.0500*%
%ADD21C,0.0160*%
%ADD22C,0.0450*%
%ADD23C,0.0280*%
%ADD24C,0.0240*%
D10*
X002390Y000680D02*
X002390Y027176D01*
X028890Y027180D01*
X028890Y023676D01*
X029790Y023680D01*
X029790Y017180D01*
X034890Y017180D01*
X034890Y010380D01*
X029790Y010380D01*
X029790Y004180D01*
X028890Y004180D01*
X028890Y000680D01*
X002390Y000680D01*
X020400Y009113D02*
X020402Y009142D01*
X020408Y009170D01*
X020417Y009198D01*
X020430Y009224D01*
X020447Y009247D01*
X020466Y009269D01*
X020488Y009288D01*
X020513Y009303D01*
X020539Y009316D01*
X020567Y009324D01*
X020595Y009329D01*
X020624Y009330D01*
X020653Y009327D01*
X020681Y009320D01*
X020708Y009310D01*
X020734Y009296D01*
X020757Y009279D01*
X020778Y009259D01*
X020796Y009236D01*
X020811Y009211D01*
X020822Y009184D01*
X020830Y009156D01*
X020834Y009127D01*
X020834Y009099D01*
X020830Y009070D01*
X020822Y009042D01*
X020811Y009015D01*
X020796Y008990D01*
X020778Y008967D01*
X020757Y008947D01*
X020734Y008930D01*
X020708Y008916D01*
X020681Y008906D01*
X020653Y008899D01*
X020624Y008896D01*
X020595Y008897D01*
X020567Y008902D01*
X020539Y008910D01*
X020513Y008923D01*
X020488Y008938D01*
X020466Y008957D01*
X020447Y008979D01*
X020430Y009002D01*
X020417Y009028D01*
X020408Y009056D01*
X020402Y009084D01*
X020400Y009113D01*
X026890Y006680D02*
X026892Y006724D01*
X026898Y006768D01*
X026908Y006811D01*
X026921Y006853D01*
X026938Y006894D01*
X026959Y006933D01*
X026983Y006970D01*
X027010Y007005D01*
X027040Y007037D01*
X027073Y007067D01*
X027109Y007093D01*
X027146Y007117D01*
X027186Y007136D01*
X027227Y007153D01*
X027270Y007165D01*
X027313Y007174D01*
X027357Y007179D01*
X027401Y007180D01*
X027445Y007177D01*
X027489Y007170D01*
X027532Y007159D01*
X027574Y007145D01*
X027614Y007127D01*
X027653Y007105D01*
X027689Y007081D01*
X027723Y007053D01*
X027755Y007022D01*
X027784Y006988D01*
X027810Y006952D01*
X027832Y006914D01*
X027851Y006874D01*
X027866Y006832D01*
X027878Y006790D01*
X027886Y006746D01*
X027890Y006702D01*
X027890Y006658D01*
X027886Y006614D01*
X027878Y006570D01*
X027866Y006528D01*
X027851Y006486D01*
X027832Y006446D01*
X027810Y006408D01*
X027784Y006372D01*
X027755Y006338D01*
X027723Y006307D01*
X027689Y006279D01*
X027653Y006255D01*
X027614Y006233D01*
X027574Y006215D01*
X027532Y006201D01*
X027489Y006190D01*
X027445Y006183D01*
X027401Y006180D01*
X027357Y006181D01*
X027313Y006186D01*
X027270Y006195D01*
X027227Y006207D01*
X027186Y006224D01*
X027146Y006243D01*
X027109Y006267D01*
X027073Y006293D01*
X027040Y006323D01*
X027010Y006355D01*
X026983Y006390D01*
X026959Y006427D01*
X026938Y006466D01*
X026921Y006507D01*
X026908Y006549D01*
X026898Y006592D01*
X026892Y006636D01*
X026890Y006680D01*
X026890Y005180D02*
X026892Y005224D01*
X026898Y005268D01*
X026908Y005311D01*
X026921Y005353D01*
X026938Y005394D01*
X026959Y005433D01*
X026983Y005470D01*
X027010Y005505D01*
X027040Y005537D01*
X027073Y005567D01*
X027109Y005593D01*
X027146Y005617D01*
X027186Y005636D01*
X027227Y005653D01*
X027270Y005665D01*
X027313Y005674D01*
X027357Y005679D01*
X027401Y005680D01*
X027445Y005677D01*
X027489Y005670D01*
X027532Y005659D01*
X027574Y005645D01*
X027614Y005627D01*
X027653Y005605D01*
X027689Y005581D01*
X027723Y005553D01*
X027755Y005522D01*
X027784Y005488D01*
X027810Y005452D01*
X027832Y005414D01*
X027851Y005374D01*
X027866Y005332D01*
X027878Y005290D01*
X027886Y005246D01*
X027890Y005202D01*
X027890Y005158D01*
X027886Y005114D01*
X027878Y005070D01*
X027866Y005028D01*
X027851Y004986D01*
X027832Y004946D01*
X027810Y004908D01*
X027784Y004872D01*
X027755Y004838D01*
X027723Y004807D01*
X027689Y004779D01*
X027653Y004755D01*
X027614Y004733D01*
X027574Y004715D01*
X027532Y004701D01*
X027489Y004690D01*
X027445Y004683D01*
X027401Y004680D01*
X027357Y004681D01*
X027313Y004686D01*
X027270Y004695D01*
X027227Y004707D01*
X027186Y004724D01*
X027146Y004743D01*
X027109Y004767D01*
X027073Y004793D01*
X027040Y004823D01*
X027010Y004855D01*
X026983Y004890D01*
X026959Y004927D01*
X026938Y004966D01*
X026921Y005007D01*
X026908Y005049D01*
X026898Y005092D01*
X026892Y005136D01*
X026890Y005180D01*
X026890Y003680D02*
X026892Y003724D01*
X026898Y003768D01*
X026908Y003811D01*
X026921Y003853D01*
X026938Y003894D01*
X026959Y003933D01*
X026983Y003970D01*
X027010Y004005D01*
X027040Y004037D01*
X027073Y004067D01*
X027109Y004093D01*
X027146Y004117D01*
X027186Y004136D01*
X027227Y004153D01*
X027270Y004165D01*
X027313Y004174D01*
X027357Y004179D01*
X027401Y004180D01*
X027445Y004177D01*
X027489Y004170D01*
X027532Y004159D01*
X027574Y004145D01*
X027614Y004127D01*
X027653Y004105D01*
X027689Y004081D01*
X027723Y004053D01*
X027755Y004022D01*
X027784Y003988D01*
X027810Y003952D01*
X027832Y003914D01*
X027851Y003874D01*
X027866Y003832D01*
X027878Y003790D01*
X027886Y003746D01*
X027890Y003702D01*
X027890Y003658D01*
X027886Y003614D01*
X027878Y003570D01*
X027866Y003528D01*
X027851Y003486D01*
X027832Y003446D01*
X027810Y003408D01*
X027784Y003372D01*
X027755Y003338D01*
X027723Y003307D01*
X027689Y003279D01*
X027653Y003255D01*
X027614Y003233D01*
X027574Y003215D01*
X027532Y003201D01*
X027489Y003190D01*
X027445Y003183D01*
X027401Y003180D01*
X027357Y003181D01*
X027313Y003186D01*
X027270Y003195D01*
X027227Y003207D01*
X027186Y003224D01*
X027146Y003243D01*
X027109Y003267D01*
X027073Y003293D01*
X027040Y003323D01*
X027010Y003355D01*
X026983Y003390D01*
X026959Y003427D01*
X026938Y003466D01*
X026921Y003507D01*
X026908Y003549D01*
X026898Y003592D01*
X026892Y003636D01*
X026890Y003680D01*
X026890Y002180D02*
X026892Y002224D01*
X026898Y002268D01*
X026908Y002311D01*
X026921Y002353D01*
X026938Y002394D01*
X026959Y002433D01*
X026983Y002470D01*
X027010Y002505D01*
X027040Y002537D01*
X027073Y002567D01*
X027109Y002593D01*
X027146Y002617D01*
X027186Y002636D01*
X027227Y002653D01*
X027270Y002665D01*
X027313Y002674D01*
X027357Y002679D01*
X027401Y002680D01*
X027445Y002677D01*
X027489Y002670D01*
X027532Y002659D01*
X027574Y002645D01*
X027614Y002627D01*
X027653Y002605D01*
X027689Y002581D01*
X027723Y002553D01*
X027755Y002522D01*
X027784Y002488D01*
X027810Y002452D01*
X027832Y002414D01*
X027851Y002374D01*
X027866Y002332D01*
X027878Y002290D01*
X027886Y002246D01*
X027890Y002202D01*
X027890Y002158D01*
X027886Y002114D01*
X027878Y002070D01*
X027866Y002028D01*
X027851Y001986D01*
X027832Y001946D01*
X027810Y001908D01*
X027784Y001872D01*
X027755Y001838D01*
X027723Y001807D01*
X027689Y001779D01*
X027653Y001755D01*
X027614Y001733D01*
X027574Y001715D01*
X027532Y001701D01*
X027489Y001690D01*
X027445Y001683D01*
X027401Y001680D01*
X027357Y001681D01*
X027313Y001686D01*
X027270Y001695D01*
X027227Y001707D01*
X027186Y001724D01*
X027146Y001743D01*
X027109Y001767D01*
X027073Y001793D01*
X027040Y001823D01*
X027010Y001855D01*
X026983Y001890D01*
X026959Y001927D01*
X026938Y001966D01*
X026921Y002007D01*
X026908Y002049D01*
X026898Y002092D01*
X026892Y002136D01*
X026890Y002180D01*
X033512Y012894D02*
X033514Y012923D01*
X033520Y012951D01*
X033529Y012979D01*
X033542Y013005D01*
X033559Y013028D01*
X033578Y013050D01*
X033600Y013069D01*
X033625Y013084D01*
X033651Y013097D01*
X033679Y013105D01*
X033707Y013110D01*
X033736Y013111D01*
X033765Y013108D01*
X033793Y013101D01*
X033820Y013091D01*
X033846Y013077D01*
X033869Y013060D01*
X033890Y013040D01*
X033908Y013017D01*
X033923Y012992D01*
X033934Y012965D01*
X033942Y012937D01*
X033946Y012908D01*
X033946Y012880D01*
X033942Y012851D01*
X033934Y012823D01*
X033923Y012796D01*
X033908Y012771D01*
X033890Y012748D01*
X033869Y012728D01*
X033846Y012711D01*
X033820Y012697D01*
X033793Y012687D01*
X033765Y012680D01*
X033736Y012677D01*
X033707Y012678D01*
X033679Y012683D01*
X033651Y012691D01*
X033625Y012704D01*
X033600Y012719D01*
X033578Y012738D01*
X033559Y012760D01*
X033542Y012783D01*
X033529Y012809D01*
X033520Y012837D01*
X033514Y012865D01*
X033512Y012894D01*
X033512Y014666D02*
X033514Y014695D01*
X033520Y014723D01*
X033529Y014751D01*
X033542Y014777D01*
X033559Y014800D01*
X033578Y014822D01*
X033600Y014841D01*
X033625Y014856D01*
X033651Y014869D01*
X033679Y014877D01*
X033707Y014882D01*
X033736Y014883D01*
X033765Y014880D01*
X033793Y014873D01*
X033820Y014863D01*
X033846Y014849D01*
X033869Y014832D01*
X033890Y014812D01*
X033908Y014789D01*
X033923Y014764D01*
X033934Y014737D01*
X033942Y014709D01*
X033946Y014680D01*
X033946Y014652D01*
X033942Y014623D01*
X033934Y014595D01*
X033923Y014568D01*
X033908Y014543D01*
X033890Y014520D01*
X033869Y014500D01*
X033846Y014483D01*
X033820Y014469D01*
X033793Y014459D01*
X033765Y014452D01*
X033736Y014449D01*
X033707Y014450D01*
X033679Y014455D01*
X033651Y014463D01*
X033625Y014476D01*
X033600Y014491D01*
X033578Y014510D01*
X033559Y014532D01*
X033542Y014555D01*
X033529Y014581D01*
X033520Y014609D01*
X033514Y014637D01*
X033512Y014666D01*
X020302Y017420D02*
X020304Y017455D01*
X020310Y017490D01*
X020320Y017524D01*
X020333Y017557D01*
X020350Y017588D01*
X020371Y017616D01*
X020394Y017643D01*
X020421Y017666D01*
X020449Y017687D01*
X020480Y017704D01*
X020513Y017717D01*
X020547Y017727D01*
X020582Y017733D01*
X020617Y017735D01*
X020652Y017733D01*
X020687Y017727D01*
X020721Y017717D01*
X020754Y017704D01*
X020785Y017687D01*
X020813Y017666D01*
X020840Y017643D01*
X020863Y017616D01*
X020884Y017588D01*
X020901Y017557D01*
X020914Y017524D01*
X020924Y017490D01*
X020930Y017455D01*
X020932Y017420D01*
X020930Y017385D01*
X020924Y017350D01*
X020914Y017316D01*
X020901Y017283D01*
X020884Y017252D01*
X020863Y017224D01*
X020840Y017197D01*
X020813Y017174D01*
X020785Y017153D01*
X020754Y017136D01*
X020721Y017123D01*
X020687Y017113D01*
X020652Y017107D01*
X020617Y017105D01*
X020582Y017107D01*
X020547Y017113D01*
X020513Y017123D01*
X020480Y017136D01*
X020449Y017153D01*
X020421Y017174D01*
X020394Y017197D01*
X020371Y017224D01*
X020350Y017252D01*
X020333Y017283D01*
X020320Y017316D01*
X020310Y017350D01*
X020304Y017385D01*
X020302Y017420D01*
D11*
X016390Y019180D03*
X016390Y020180D03*
X016390Y021180D03*
X016390Y022180D03*
X016390Y023680D03*
X017390Y023680D03*
X018390Y023680D03*
X015390Y023680D03*
X014390Y023680D03*
X013390Y023680D03*
X012390Y022180D03*
X012390Y021180D03*
X012390Y020180D03*
X012390Y019180D03*
X011390Y023680D03*
X010390Y023680D03*
X009390Y023680D03*
X008390Y023680D03*
X007390Y023680D03*
X006390Y023680D03*
X011390Y010680D03*
X012390Y010680D03*
X013390Y010680D03*
X014390Y010680D03*
X015390Y010680D03*
X016390Y010680D03*
X017390Y010680D03*
X017390Y006680D03*
X016390Y006680D03*
X015390Y006680D03*
X014390Y006680D03*
X013390Y006680D03*
X012390Y006680D03*
X011390Y006680D03*
X011390Y004680D03*
X010390Y004680D03*
X009390Y004680D03*
X008390Y004680D03*
X007390Y004680D03*
X006390Y004680D03*
X012390Y004680D03*
X013390Y004680D03*
X014990Y004680D03*
X015990Y004680D03*
X016990Y004680D03*
X017990Y004680D03*
X018990Y004680D03*
X019990Y004680D03*
X020990Y004680D03*
X021990Y004680D03*
X022890Y002680D03*
X022890Y001680D03*
X018890Y001680D03*
X018890Y002680D03*
D12*
X018050Y020180D02*
X017530Y020180D01*
X017530Y021180D02*
X018050Y021180D01*
X018050Y022180D02*
X017530Y022180D01*
D13*
X024760Y022844D03*
X024760Y020876D03*
X017900Y013654D03*
X017900Y011686D03*
D14*
X016622Y012550D03*
X015756Y012550D03*
X014890Y012550D03*
X013630Y012550D03*
X013630Y013810D03*
X014890Y013810D03*
X015756Y013810D03*
X016622Y013810D03*
X016622Y015550D03*
X015756Y015550D03*
X014890Y015550D03*
X013630Y015550D03*
X013630Y016810D03*
X014890Y016810D03*
X015756Y016810D03*
X016622Y016810D03*
D15*
X026590Y019880D03*
X031790Y015180D03*
X027890Y025180D03*
X027890Y026180D03*
X025390Y002880D03*
D16*
X025390Y003880D03*
X025390Y004880D03*
X025390Y005880D03*
X017390Y002680D03*
X016390Y002680D03*
X016390Y001680D03*
X017390Y001680D03*
X015390Y001680D03*
X014390Y001680D03*
X014390Y002680D03*
X015390Y002680D03*
X013390Y002680D03*
X012390Y002680D03*
X012390Y001680D03*
X013390Y001680D03*
X011390Y001680D03*
X010390Y001680D03*
X010390Y002680D03*
X011390Y002680D03*
X009390Y002680D03*
X008390Y002680D03*
X007390Y002680D03*
X007390Y001680D03*
X008390Y001680D03*
X009390Y001680D03*
X006390Y001680D03*
X005390Y001680D03*
X005390Y002680D03*
X006390Y002680D03*
X004390Y002680D03*
X003390Y002680D03*
X003390Y001680D03*
X004390Y001680D03*
X004390Y004680D03*
X003390Y004680D03*
X003390Y005680D03*
X004390Y005680D03*
X004390Y006680D03*
X003390Y006680D03*
X003390Y007680D03*
X004390Y007680D03*
X005390Y007680D03*
X006390Y007680D03*
X007390Y007680D03*
X008390Y007680D03*
X009390Y007680D03*
X010390Y007680D03*
X010390Y006680D03*
X009390Y006680D03*
X008390Y006680D03*
X007390Y006680D03*
X006390Y006680D03*
X005390Y006680D03*
X005390Y005680D03*
X005390Y004680D03*
X005390Y008680D03*
X006390Y008680D03*
X006390Y009680D03*
X005390Y009680D03*
X004390Y009680D03*
X003390Y009680D03*
X003390Y008680D03*
X004390Y008680D03*
X004390Y010680D03*
X003390Y010680D03*
X003390Y011680D03*
X004390Y011680D03*
X005390Y011680D03*
X006390Y011680D03*
X006390Y010680D03*
X005390Y010680D03*
X007390Y010680D03*
X008390Y010680D03*
X009390Y010680D03*
X009390Y011680D03*
X008390Y011680D03*
X007390Y011680D03*
X007390Y012680D03*
X008390Y012680D03*
X009390Y012680D03*
X009390Y013680D03*
X008390Y013680D03*
X007390Y013680D03*
X006390Y013680D03*
X005390Y013680D03*
X005390Y012680D03*
X006390Y012680D03*
X004390Y012680D03*
X003390Y012680D03*
X003390Y013680D03*
X004390Y013680D03*
X004390Y014680D03*
X003390Y014680D03*
X003390Y015680D03*
X004390Y015680D03*
X004390Y016680D03*
X003390Y016680D03*
X003390Y017680D03*
X004390Y017680D03*
X004390Y018680D03*
X003390Y018680D03*
X005390Y018680D03*
X006390Y018680D03*
X006390Y017680D03*
X005390Y017680D03*
X005390Y016680D03*
X006390Y016680D03*
X006390Y015680D03*
X005390Y015680D03*
X005390Y014680D03*
X006390Y014680D03*
X007390Y014680D03*
X008390Y014680D03*
X009390Y014680D03*
X010390Y014680D03*
X010390Y013680D03*
X010390Y012680D03*
X010390Y011680D03*
X010390Y010680D03*
X010390Y009680D03*
X010390Y008680D03*
X009390Y008680D03*
X008390Y008680D03*
X007390Y008680D03*
X007390Y009680D03*
X008390Y009680D03*
X009390Y009680D03*
X009390Y015680D03*
X008390Y015680D03*
X007390Y015680D03*
X007390Y016680D03*
X008390Y016680D03*
X009390Y016680D03*
X010390Y016680D03*
X010390Y015680D03*
X010390Y017680D03*
X010390Y018680D03*
X009390Y018680D03*
X008390Y018680D03*
X007390Y018680D03*
X007390Y017680D03*
X008390Y017680D03*
X009390Y017680D03*
X009390Y019680D03*
X008390Y019680D03*
X007390Y019680D03*
X006390Y019680D03*
X006390Y020680D03*
X005390Y020680D03*
X005390Y021680D03*
X006390Y021680D03*
X007390Y021680D03*
X008390Y021680D03*
X009390Y021680D03*
X009390Y020680D03*
X008390Y020680D03*
X007390Y020680D03*
X005390Y022680D03*
X005390Y023680D03*
X005390Y024680D03*
X005390Y025680D03*
X010390Y021680D03*
X011390Y021680D03*
X010390Y020680D03*
X010390Y019680D03*
X013390Y024680D03*
X014390Y024680D03*
X015390Y024680D03*
X016390Y024680D03*
X017390Y024680D03*
X018390Y024680D03*
X021390Y025180D03*
X021390Y026180D03*
X024890Y026180D03*
X024890Y025180D03*
X025890Y025180D03*
X026890Y025180D03*
X026890Y026180D03*
X025890Y026180D03*
X026590Y022880D03*
X026590Y021880D03*
X026590Y020880D03*
X031790Y014180D03*
X031790Y013180D03*
X031790Y012180D03*
D17*
X011890Y012680D03*
X011890Y016680D03*
D18*
X032745Y015158D03*
X032745Y014174D03*
X032745Y013386D03*
X032745Y012402D03*
D19*
X033690Y011497D03*
X033690Y016063D03*
D20*
X023590Y024980D02*
X023390Y025180D01*
X021390Y025180D01*
X020290Y025180D01*
X019990Y025480D01*
X017190Y025480D01*
X016390Y024680D01*
X016390Y023680D01*
X018790Y022080D02*
X018790Y020780D01*
X018190Y020180D01*
X017790Y020180D01*
X017900Y020070D01*
X017900Y013654D01*
X023590Y006480D02*
X023590Y024980D01*
X006390Y025080D02*
X006390Y026180D01*
X005990Y026580D01*
X004490Y026580D01*
X004190Y026280D01*
X004190Y023080D01*
X004490Y022780D01*
X005290Y022780D01*
X005390Y022680D01*
X023590Y006480D02*
X025390Y005880D01*
D21*
X025864Y006069D02*
X027088Y006069D01*
X027005Y006104D02*
X027255Y006000D01*
X027525Y006000D01*
X027775Y006104D01*
X027966Y006295D01*
X028070Y006545D01*
X028070Y006815D01*
X027966Y007065D01*
X027775Y007256D01*
X027525Y007360D01*
X027255Y007360D01*
X027005Y007256D01*
X026814Y007065D01*
X026710Y006815D01*
X026710Y006545D01*
X026814Y006295D01*
X027005Y006104D01*
X026881Y006228D02*
X025764Y006228D01*
X025822Y006169D02*
X025679Y006312D01*
X025491Y006390D01*
X025289Y006390D01*
X025201Y006354D01*
X023980Y006761D01*
X023980Y025058D01*
X023921Y025201D01*
X023811Y025311D01*
X023611Y025511D01*
X023468Y025570D01*
X021721Y025570D01*
X021679Y025612D01*
X021516Y025680D01*
X021679Y025748D01*
X021822Y025891D01*
X021900Y026079D01*
X021900Y026281D01*
X021822Y026469D01*
X021679Y026612D01*
X021491Y026690D01*
X021289Y026690D01*
X021101Y026612D01*
X020958Y026469D01*
X020880Y026281D01*
X020880Y026079D01*
X020958Y025891D01*
X021101Y025748D01*
X021264Y025680D01*
X021101Y025612D01*
X021059Y025570D01*
X020452Y025570D01*
X020321Y025701D01*
X020211Y025811D01*
X020068Y025870D01*
X017112Y025870D01*
X016969Y025811D01*
X016348Y025190D01*
X016289Y025190D01*
X016101Y025112D01*
X015958Y024969D01*
X015911Y024856D01*
X015900Y024891D01*
X015860Y024968D01*
X015810Y025038D01*
X015748Y025100D01*
X015678Y025150D01*
X015601Y025190D01*
X015519Y025216D01*
X015433Y025230D01*
X015410Y025230D01*
X015410Y024700D01*
X015370Y024700D01*
X015370Y025230D01*
X015347Y025230D01*
X015261Y025216D01*
X015179Y025190D01*
X015102Y025150D01*
X015032Y025100D01*
X014970Y025038D01*
X014920Y024968D01*
X014890Y024910D01*
X014860Y024968D01*
X014810Y025038D01*
X014748Y025100D01*
X014678Y025150D01*
X014601Y025190D01*
X014519Y025216D01*
X014433Y025230D01*
X014410Y025230D01*
X014410Y024700D01*
X014370Y024700D01*
X014370Y025230D01*
X014347Y025230D01*
X014261Y025216D01*
X014179Y025190D01*
X014102Y025150D01*
X014032Y025100D01*
X013970Y025038D01*
X013920Y024968D01*
X013880Y024891D01*
X013869Y024856D01*
X013822Y024969D01*
X013679Y025112D01*
X013491Y025190D01*
X013289Y025190D01*
X013101Y025112D01*
X012958Y024969D01*
X012880Y024781D01*
X012880Y024579D01*
X012958Y024391D01*
X013101Y024248D01*
X013289Y024170D01*
X013491Y024170D01*
X013679Y024248D01*
X013822Y024391D01*
X013869Y024504D01*
X013880Y024469D01*
X013920Y024392D01*
X013970Y024322D01*
X014032Y024260D01*
X014102Y024210D01*
X014166Y024177D01*
X013880Y023891D01*
X013880Y023698D01*
X014372Y023698D01*
X014372Y023662D01*
X014408Y023662D01*
X014408Y023170D01*
X014601Y023170D01*
X014890Y023459D01*
X015179Y023170D01*
X015372Y023170D01*
X015372Y023662D01*
X015408Y023662D01*
X015408Y023698D01*
X015900Y023698D01*
X015900Y023891D01*
X015614Y024177D01*
X015678Y024210D01*
X015748Y024260D01*
X015810Y024322D01*
X015860Y024392D01*
X015900Y024469D01*
X015911Y024504D01*
X015958Y024391D01*
X016000Y024349D01*
X016000Y023955D01*
X015920Y023875D01*
X015920Y023485D01*
X016170Y023235D01*
X016170Y022625D01*
X015920Y022375D01*
X015920Y021985D01*
X016195Y021710D01*
X016585Y021710D01*
X016860Y021985D01*
X016860Y022375D01*
X016610Y022625D01*
X016610Y023235D01*
X016860Y023485D01*
X016860Y023875D01*
X016780Y023955D01*
X016780Y024349D01*
X016822Y024391D01*
X016890Y024554D01*
X016958Y024391D01*
X017101Y024248D01*
X017289Y024170D01*
X017491Y024170D01*
X017679Y024248D01*
X017822Y024391D01*
X017890Y024554D01*
X017958Y024391D01*
X018101Y024248D01*
X018170Y024219D01*
X018170Y024125D01*
X017920Y023875D01*
X017920Y023485D01*
X018195Y023210D01*
X018585Y023210D01*
X018860Y023485D01*
X018860Y023875D01*
X018610Y024125D01*
X018610Y024219D01*
X018679Y024248D01*
X018822Y024391D01*
X018900Y024579D01*
X018900Y024781D01*
X018822Y024969D01*
X018701Y025090D01*
X019828Y025090D01*
X019959Y024959D01*
X020069Y024849D01*
X020212Y024790D01*
X021059Y024790D01*
X021101Y024748D01*
X021289Y024670D01*
X021491Y024670D01*
X021679Y024748D01*
X021721Y024790D01*
X023200Y024790D01*
X023200Y006543D01*
X023195Y006530D01*
X023200Y006466D01*
X023200Y006402D01*
X023205Y006389D01*
X023206Y006375D01*
X023235Y006318D01*
X023259Y006259D01*
X023269Y006249D01*
X023276Y006236D01*
X023324Y006194D01*
X023369Y006149D01*
X023382Y006144D01*
X023393Y006135D01*
X023454Y006114D01*
X023512Y006090D01*
X023527Y006090D01*
X024947Y005617D01*
X024958Y005591D01*
X025101Y005448D01*
X025214Y005401D01*
X025179Y005390D01*
X025102Y005350D01*
X025032Y005300D01*
X024970Y005238D01*
X024920Y005168D01*
X024880Y005091D01*
X024854Y005009D01*
X024840Y004923D01*
X024840Y004900D01*
X025370Y004900D01*
X025370Y004860D01*
X024840Y004860D01*
X024840Y004837D01*
X024854Y004751D01*
X024880Y004669D01*
X024920Y004592D01*
X024970Y004522D01*
X025032Y004460D01*
X025102Y004410D01*
X025179Y004370D01*
X025214Y004359D01*
X025101Y004312D01*
X024958Y004169D01*
X024880Y003981D01*
X024880Y003779D01*
X024958Y003591D01*
X025101Y003448D01*
X025144Y003430D01*
X024996Y003430D01*
X024951Y003418D01*
X024909Y003394D01*
X024876Y003361D01*
X024852Y003319D01*
X024840Y003274D01*
X024840Y002900D01*
X025370Y002900D01*
X025370Y002860D01*
X025410Y002860D01*
X025410Y002900D01*
X025940Y002900D01*
X025940Y003274D01*
X025928Y003319D01*
X025904Y003361D01*
X025871Y003394D01*
X025829Y003418D01*
X025784Y003430D01*
X025636Y003430D01*
X025679Y003448D01*
X025822Y003591D01*
X025900Y003779D01*
X025900Y003981D01*
X025822Y004169D01*
X025679Y004312D01*
X025566Y004359D01*
X025601Y004370D01*
X025678Y004410D01*
X025748Y004460D01*
X025810Y004522D01*
X025860Y004592D01*
X025900Y004669D01*
X025926Y004751D01*
X025940Y004837D01*
X025940Y004860D01*
X025410Y004860D01*
X025410Y004900D01*
X025940Y004900D01*
X025940Y004923D01*
X025926Y005009D01*
X025900Y005091D01*
X025860Y005168D01*
X025810Y005238D01*
X025748Y005300D01*
X025678Y005350D01*
X025601Y005390D01*
X025566Y005401D01*
X025679Y005448D01*
X025822Y005591D01*
X025900Y005779D01*
X025900Y005981D01*
X025822Y006169D01*
X025900Y005911D02*
X029610Y005911D01*
X029610Y006069D02*
X027692Y006069D01*
X027899Y006228D02*
X029610Y006228D01*
X029610Y006386D02*
X028004Y006386D01*
X028070Y006545D02*
X029610Y006545D01*
X029610Y006703D02*
X028070Y006703D01*
X028051Y006862D02*
X029610Y006862D01*
X029610Y007020D02*
X027985Y007020D01*
X027853Y007179D02*
X029610Y007179D01*
X029610Y007337D02*
X027581Y007337D01*
X027199Y007337D02*
X023980Y007337D01*
X023980Y007179D02*
X026927Y007179D01*
X026795Y007020D02*
X023980Y007020D01*
X023980Y006862D02*
X026729Y006862D01*
X026710Y006703D02*
X024154Y006703D01*
X024630Y006545D02*
X026710Y006545D01*
X026776Y006386D02*
X025501Y006386D01*
X025279Y006386D02*
X025105Y006386D01*
X024957Y005594D02*
X023110Y005594D01*
X023110Y005752D02*
X024541Y005752D01*
X025132Y005435D02*
X023110Y005435D01*
X023110Y005277D02*
X025009Y005277D01*
X024894Y005118D02*
X023110Y005118D01*
X023110Y004960D02*
X024846Y004960D01*
X024846Y004801D02*
X023110Y004801D01*
X023110Y004643D02*
X024894Y004643D01*
X025008Y004484D02*
X023110Y004484D01*
X023110Y004326D02*
X025133Y004326D01*
X024957Y004167D02*
X023110Y004167D01*
X023110Y004009D02*
X024891Y004009D01*
X024880Y003850D02*
X023110Y003850D01*
X023110Y003828D02*
X023110Y022432D01*
X023110Y022433D01*
X023150Y022528D01*
X023150Y022632D01*
X023110Y022727D01*
X023037Y022800D01*
X022942Y022840D01*
X022838Y022840D01*
X022743Y022800D01*
X022670Y022727D01*
X022630Y022632D01*
X022630Y022528D01*
X022670Y022433D01*
X022670Y022432D01*
X022670Y022428D01*
X022642Y022440D01*
X022538Y022440D01*
X022443Y022400D01*
X022370Y022327D01*
X022330Y022232D01*
X022330Y022128D01*
X022370Y022033D01*
X022370Y022032D01*
X022370Y004965D01*
X022185Y005150D01*
X021795Y005150D01*
X021520Y004875D01*
X021520Y004485D01*
X021795Y004210D01*
X022185Y004210D01*
X022370Y004395D01*
X022370Y004128D01*
X022370Y004127D01*
X022330Y004032D01*
X022330Y003928D01*
X022370Y003833D01*
X022443Y003760D01*
X022538Y003720D01*
X022630Y003720D01*
X022630Y003628D01*
X022670Y003533D01*
X022743Y003460D01*
X022838Y003420D01*
X022942Y003420D01*
X023037Y003460D01*
X023110Y003533D01*
X023150Y003628D01*
X023150Y003732D01*
X023110Y003827D01*
X023110Y003828D01*
X023150Y003692D02*
X024916Y003692D01*
X025016Y003533D02*
X023111Y003533D01*
X022890Y003680D02*
X022890Y022580D01*
X023150Y022553D02*
X023200Y022553D01*
X023200Y022395D02*
X023110Y022395D01*
X023110Y022236D02*
X023200Y022236D01*
X023200Y022078D02*
X023110Y022078D01*
X023110Y021919D02*
X023200Y021919D01*
X023200Y021761D02*
X023110Y021761D01*
X023110Y021602D02*
X023200Y021602D01*
X023200Y021444D02*
X023110Y021444D01*
X023110Y021285D02*
X023200Y021285D01*
X023200Y021127D02*
X023110Y021127D01*
X023110Y020968D02*
X023200Y020968D01*
X023200Y020810D02*
X023110Y020810D01*
X023110Y020651D02*
X023200Y020651D01*
X023200Y020493D02*
X023110Y020493D01*
X023110Y020334D02*
X023200Y020334D01*
X023200Y020176D02*
X023110Y020176D01*
X023110Y020017D02*
X023200Y020017D01*
X023200Y019859D02*
X023110Y019859D01*
X023110Y019700D02*
X023200Y019700D01*
X023200Y019542D02*
X023110Y019542D01*
X023110Y019383D02*
X023200Y019383D01*
X023200Y019225D02*
X023110Y019225D01*
X023110Y019066D02*
X023200Y019066D01*
X023200Y018908D02*
X023110Y018908D01*
X023110Y018749D02*
X023200Y018749D01*
X023200Y018591D02*
X023110Y018591D01*
X023110Y018432D02*
X023200Y018432D01*
X023200Y018274D02*
X023110Y018274D01*
X023110Y018115D02*
X023200Y018115D01*
X023200Y017957D02*
X023110Y017957D01*
X023110Y017798D02*
X023200Y017798D01*
X023200Y017640D02*
X023110Y017640D01*
X023110Y017481D02*
X023200Y017481D01*
X023200Y017323D02*
X023110Y017323D01*
X023110Y017164D02*
X023200Y017164D01*
X023200Y017006D02*
X023110Y017006D01*
X023110Y016847D02*
X023200Y016847D01*
X023200Y016689D02*
X023110Y016689D01*
X023110Y016530D02*
X023200Y016530D01*
X023200Y016372D02*
X023110Y016372D01*
X023110Y016213D02*
X023200Y016213D01*
X023200Y016055D02*
X023110Y016055D01*
X023110Y015896D02*
X023200Y015896D01*
X023200Y015738D02*
X023110Y015738D01*
X023110Y015579D02*
X023200Y015579D01*
X023200Y015421D02*
X023110Y015421D01*
X023110Y015262D02*
X023200Y015262D01*
X023200Y015104D02*
X023110Y015104D01*
X023110Y014945D02*
X023200Y014945D01*
X023200Y014787D02*
X023110Y014787D01*
X023110Y014628D02*
X023200Y014628D01*
X023200Y014470D02*
X023110Y014470D01*
X023110Y014311D02*
X023200Y014311D01*
X023200Y014153D02*
X023110Y014153D01*
X023110Y013994D02*
X023200Y013994D01*
X023200Y013836D02*
X023110Y013836D01*
X023110Y013677D02*
X023200Y013677D01*
X023200Y013519D02*
X023110Y013519D01*
X023110Y013360D02*
X023200Y013360D01*
X023200Y013202D02*
X023110Y013202D01*
X023110Y013043D02*
X023200Y013043D01*
X023200Y012885D02*
X023110Y012885D01*
X023110Y012726D02*
X023200Y012726D01*
X023200Y012568D02*
X023110Y012568D01*
X023110Y012409D02*
X023200Y012409D01*
X023200Y012251D02*
X023110Y012251D01*
X023110Y012092D02*
X023200Y012092D01*
X023200Y011934D02*
X023110Y011934D01*
X023110Y011775D02*
X023200Y011775D01*
X023200Y011617D02*
X023110Y011617D01*
X023110Y011458D02*
X023200Y011458D01*
X023200Y011300D02*
X023110Y011300D01*
X023110Y011141D02*
X023200Y011141D01*
X023200Y010983D02*
X023110Y010983D01*
X023110Y010824D02*
X023200Y010824D01*
X023200Y010666D02*
X023110Y010666D01*
X023110Y010507D02*
X023200Y010507D01*
X023200Y010349D02*
X023110Y010349D01*
X023110Y010190D02*
X023200Y010190D01*
X023200Y010032D02*
X023110Y010032D01*
X023110Y009873D02*
X023200Y009873D01*
X023200Y009715D02*
X023110Y009715D01*
X023110Y009556D02*
X023200Y009556D01*
X023200Y009398D02*
X023110Y009398D01*
X023110Y009239D02*
X023200Y009239D01*
X023200Y009081D02*
X023110Y009081D01*
X023110Y008922D02*
X023200Y008922D01*
X023200Y008764D02*
X023110Y008764D01*
X023110Y008605D02*
X023200Y008605D01*
X023200Y008447D02*
X023110Y008447D01*
X023110Y008288D02*
X023200Y008288D01*
X023200Y008130D02*
X023110Y008130D01*
X023110Y007971D02*
X023200Y007971D01*
X023200Y007813D02*
X023110Y007813D01*
X023110Y007654D02*
X023200Y007654D01*
X023200Y007496D02*
X023110Y007496D01*
X023110Y007337D02*
X023200Y007337D01*
X023200Y007179D02*
X023110Y007179D01*
X023110Y007020D02*
X023200Y007020D01*
X023200Y006862D02*
X023110Y006862D01*
X023110Y006703D02*
X023200Y006703D01*
X023200Y006545D02*
X023110Y006545D01*
X023110Y006386D02*
X023206Y006386D01*
X023286Y006228D02*
X023110Y006228D01*
X023110Y006069D02*
X023590Y006069D01*
X024065Y005911D02*
X023110Y005911D01*
X022370Y005911D02*
X019239Y005911D01*
X019227Y005939D02*
X019149Y006017D01*
X019046Y006060D01*
X018934Y006060D01*
X018831Y006017D01*
X018814Y006000D01*
X018411Y006000D01*
X018210Y006201D01*
X018210Y008571D01*
X016910Y009871D01*
X016781Y010000D01*
X014481Y010000D01*
X014271Y010210D01*
X014585Y010210D01*
X014860Y010485D01*
X014860Y010875D01*
X014585Y011150D01*
X014195Y011150D01*
X014110Y011065D01*
X014110Y011071D01*
X012970Y012211D01*
X012970Y012236D01*
X012931Y012330D01*
X013250Y012330D01*
X013261Y012304D01*
X013384Y012181D01*
X013544Y012115D01*
X013717Y012115D01*
X013877Y012181D01*
X013999Y012304D01*
X014065Y012463D01*
X014065Y012637D01*
X013999Y012797D01*
X013953Y012842D01*
X014321Y013210D01*
X014450Y013339D01*
X014450Y015041D01*
X014321Y015170D01*
X014054Y015437D01*
X014065Y015463D01*
X014065Y015637D01*
X013999Y015797D01*
X013877Y015919D01*
X013802Y015950D01*
X014718Y015950D01*
X014643Y015919D01*
X014521Y015797D01*
X014455Y015637D01*
X014455Y015463D01*
X014521Y015304D01*
X014643Y015181D01*
X014680Y015166D01*
X014680Y015129D01*
X014809Y015000D01*
X015299Y014510D01*
X017019Y014510D01*
X017140Y014389D01*
X017140Y013159D01*
X017269Y013030D01*
X018129Y012170D01*
X018789Y012170D01*
X020510Y010449D01*
X020510Y010424D01*
X020553Y010321D01*
X020631Y010243D01*
X020734Y010200D01*
X020846Y010200D01*
X020949Y010243D01*
X021027Y010321D01*
X021070Y010424D01*
X021070Y010536D01*
X021027Y010639D01*
X020949Y010717D01*
X020846Y010760D01*
X020821Y010760D01*
X019100Y012481D01*
X018971Y012610D01*
X018311Y012610D01*
X017678Y013243D01*
X017808Y013189D01*
X017992Y013189D01*
X018163Y013260D01*
X018294Y013391D01*
X018365Y013562D01*
X018365Y013747D01*
X018294Y013918D01*
X018290Y013922D01*
X018290Y019799D01*
X018411Y019849D01*
X019011Y020449D01*
X019121Y020559D01*
X019180Y020702D01*
X019180Y022158D01*
X019121Y022301D01*
X019011Y022411D01*
X018868Y022470D01*
X018712Y022470D01*
X018569Y022411D01*
X018459Y022301D01*
X018446Y022269D01*
X018389Y022407D01*
X018277Y022519D01*
X018130Y022580D01*
X017450Y022580D01*
X017303Y022519D01*
X017191Y022407D01*
X017130Y022260D01*
X017130Y022100D01*
X017191Y021953D01*
X017303Y021841D01*
X017450Y021780D01*
X018130Y021780D01*
X018277Y021841D01*
X018389Y021953D01*
X018400Y021980D01*
X018400Y021380D01*
X018389Y021407D01*
X018277Y021519D01*
X018130Y021580D01*
X017450Y021580D01*
X017303Y021519D01*
X017191Y021407D01*
X017130Y021260D01*
X017130Y021100D01*
X017191Y020953D01*
X017303Y020841D01*
X017450Y020780D01*
X018130Y020780D01*
X018277Y020841D01*
X018389Y020953D01*
X018400Y020980D01*
X018400Y020942D01*
X018038Y020580D01*
X017450Y020580D01*
X017303Y020519D01*
X017191Y020407D01*
X017130Y020260D01*
X017130Y020100D01*
X017191Y019953D01*
X017303Y019841D01*
X017450Y019780D01*
X017510Y019780D01*
X017510Y014641D01*
X017330Y014821D01*
X017201Y014950D01*
X015481Y014950D01*
X015193Y015238D01*
X015259Y015304D01*
X015323Y015458D01*
X015387Y015304D01*
X015510Y015181D01*
X015670Y015115D01*
X015843Y015115D01*
X016003Y015181D01*
X016125Y015304D01*
X016189Y015458D01*
X016253Y015304D01*
X016376Y015181D01*
X016536Y015115D01*
X016709Y015115D01*
X016869Y015181D01*
X016991Y015304D01*
X017058Y015463D01*
X017058Y015637D01*
X016991Y015797D01*
X016869Y015919D01*
X016709Y015985D01*
X016536Y015985D01*
X016376Y015919D01*
X016253Y015797D01*
X016189Y015642D01*
X016125Y015797D01*
X016003Y015919D01*
X015910Y015957D01*
X015910Y016081D01*
X015781Y016210D01*
X015601Y016390D01*
X015014Y016390D01*
X015137Y016441D01*
X015259Y016563D01*
X015323Y016718D01*
X015387Y016563D01*
X015510Y016441D01*
X015670Y016375D01*
X015843Y016375D01*
X016003Y016441D01*
X016125Y016563D01*
X016189Y016718D01*
X016253Y016563D01*
X016376Y016441D01*
X016536Y016375D01*
X016709Y016375D01*
X016869Y016441D01*
X016991Y016563D01*
X017058Y016723D01*
X017058Y016897D01*
X016991Y017056D01*
X016869Y017179D01*
X016709Y017245D01*
X016536Y017245D01*
X016376Y017179D01*
X016253Y017056D01*
X016189Y016902D01*
X016125Y017056D01*
X016003Y017179D01*
X015843Y017245D01*
X015670Y017245D01*
X015510Y017179D01*
X015387Y017056D01*
X015323Y016902D01*
X015259Y017056D01*
X015137Y017179D01*
X014977Y017245D01*
X014803Y017245D01*
X014643Y017179D01*
X014521Y017056D01*
X014510Y017030D01*
X014510Y017460D01*
X015981Y017460D01*
X016481Y017960D01*
X017042Y017960D01*
X017043Y017960D01*
X017138Y017920D01*
X017242Y017920D01*
X017337Y017960D01*
X017410Y018033D01*
X017450Y018128D01*
X017450Y018232D01*
X017410Y018327D01*
X017337Y018400D01*
X017242Y018440D01*
X017138Y018440D01*
X017043Y018400D01*
X017042Y018400D01*
X016299Y018400D01*
X016170Y018271D01*
X015799Y017900D01*
X014299Y017900D01*
X014199Y017800D01*
X014070Y017671D01*
X014070Y016994D01*
X014037Y017059D01*
X013993Y017120D01*
X013940Y017172D01*
X013879Y017216D01*
X013813Y017250D01*
X013741Y017273D01*
X013668Y017285D01*
X013639Y017285D01*
X013639Y016819D01*
X013622Y016819D01*
X013622Y017285D01*
X013593Y017285D01*
X013519Y017273D01*
X013448Y017250D01*
X013381Y017216D01*
X013321Y017172D01*
X013268Y017120D01*
X013224Y017059D01*
X013190Y016992D01*
X013167Y016921D01*
X013155Y016847D01*
X012425Y016847D01*
X012436Y016811D02*
X012409Y016895D01*
X012369Y016974D01*
X012317Y017045D01*
X012255Y017107D01*
X012184Y017159D01*
X012105Y017199D01*
X012021Y017226D01*
X011934Y017240D01*
X011920Y017240D01*
X011920Y016710D01*
X011860Y016710D01*
X011860Y017240D01*
X011846Y017240D01*
X011759Y017226D01*
X011675Y017199D01*
X011596Y017159D01*
X011525Y017107D01*
X011463Y017045D01*
X011411Y016974D01*
X011371Y016895D01*
X011344Y016811D01*
X011330Y016724D01*
X011330Y016710D01*
X011860Y016710D01*
X011860Y016650D01*
X011330Y016650D01*
X011330Y016636D01*
X011344Y016549D01*
X011371Y016465D01*
X011411Y016386D01*
X011463Y016315D01*
X011525Y016253D01*
X011596Y016201D01*
X011675Y016161D01*
X011759Y016134D01*
X011846Y016120D01*
X011860Y016120D01*
X011860Y016650D01*
X011920Y016650D01*
X011920Y016710D01*
X012450Y016710D01*
X012450Y016724D01*
X012436Y016811D01*
X012450Y016650D02*
X011920Y016650D01*
X011920Y016120D01*
X011934Y016120D01*
X012021Y016134D01*
X012105Y016161D01*
X012184Y016201D01*
X012255Y016253D01*
X012317Y016315D01*
X012369Y016386D01*
X012409Y016465D01*
X012436Y016549D01*
X012450Y016636D01*
X012450Y016650D01*
X012430Y016530D02*
X013246Y016530D01*
X013268Y016500D02*
X013321Y016447D01*
X013381Y016403D01*
X013407Y016390D01*
X012999Y016390D01*
X012470Y015861D01*
X012470Y015556D01*
X012453Y015539D01*
X012410Y015436D01*
X012410Y015324D01*
X012453Y015221D01*
X012531Y015143D01*
X012634Y015100D01*
X012746Y015100D01*
X012849Y015143D01*
X012927Y015221D01*
X012970Y015324D01*
X012970Y015436D01*
X012927Y015539D01*
X012910Y015556D01*
X012910Y015679D01*
X013181Y015950D01*
X013458Y015950D01*
X013384Y015919D01*
X013261Y015797D01*
X013195Y015637D01*
X013195Y015463D01*
X013261Y015304D01*
X013384Y015181D01*
X013544Y015115D01*
X013717Y015115D01*
X013743Y015126D01*
X014010Y014859D01*
X014010Y014096D01*
X013993Y014120D01*
X013940Y014172D01*
X013879Y014216D01*
X013813Y014250D01*
X013741Y014273D01*
X013668Y014285D01*
X013639Y014285D01*
X013639Y013819D01*
X013622Y013819D01*
X013622Y014285D01*
X013593Y014285D01*
X013519Y014273D01*
X013448Y014250D01*
X013381Y014216D01*
X013321Y014172D01*
X013268Y014120D01*
X013224Y014059D01*
X013190Y013992D01*
X013167Y013921D01*
X013155Y013847D01*
X013155Y013819D01*
X013622Y013819D01*
X013622Y013801D01*
X013639Y013801D01*
X013639Y013335D01*
X013668Y013335D01*
X013741Y013346D01*
X013813Y013369D01*
X013879Y013403D01*
X013927Y013438D01*
X013425Y012936D01*
X013384Y012919D01*
X013261Y012797D01*
X013250Y012770D01*
X012410Y012770D01*
X012410Y012783D01*
X012331Y012975D01*
X012185Y013121D01*
X011993Y013200D01*
X011787Y013200D01*
X011595Y013121D01*
X011449Y012975D01*
X011370Y012783D01*
X011370Y012577D01*
X011449Y012385D01*
X011595Y012239D01*
X011787Y012160D01*
X011993Y012160D01*
X012185Y012239D01*
X012275Y012330D01*
X012449Y012330D01*
X012410Y012236D01*
X012410Y012124D01*
X012453Y012021D01*
X012531Y011943D01*
X012634Y011900D01*
X012659Y011900D01*
X013409Y011150D01*
X013195Y011150D01*
X012920Y010875D01*
X012920Y010485D01*
X013195Y010210D01*
X013585Y010210D01*
X013670Y010295D01*
X013670Y010189D01*
X013799Y010060D01*
X014299Y009560D01*
X016599Y009560D01*
X017770Y008389D01*
X017770Y007021D01*
X017601Y007190D01*
X017390Y007190D01*
X017390Y006680D01*
X017390Y006680D01*
X017390Y006170D01*
X017601Y006170D01*
X017770Y006339D01*
X017770Y006019D01*
X017899Y005890D01*
X018189Y005600D01*
X011999Y005600D01*
X011590Y005191D01*
X011590Y005371D01*
X011461Y005500D01*
X011231Y005730D01*
X009769Y005730D01*
X009640Y005601D01*
X009170Y005131D01*
X009170Y005125D01*
X008920Y004875D01*
X008920Y004521D01*
X007560Y003161D01*
X007491Y003190D01*
X007289Y003190D01*
X007156Y003135D01*
X008231Y004210D01*
X008585Y004210D01*
X008860Y004485D01*
X008860Y004875D01*
X008585Y005150D01*
X008195Y005150D01*
X007920Y004875D01*
X007920Y004521D01*
X006560Y003161D01*
X006491Y003190D01*
X006289Y003190D01*
X006156Y003135D01*
X007231Y004210D01*
X007585Y004210D01*
X007860Y004485D01*
X007860Y004875D01*
X007585Y005150D01*
X007195Y005150D01*
X006920Y004875D01*
X006920Y004521D01*
X005560Y003161D01*
X005491Y003190D01*
X005289Y003190D01*
X005156Y003135D01*
X006231Y004210D01*
X006585Y004210D01*
X006860Y004485D01*
X006860Y004875D01*
X006585Y005150D01*
X006195Y005150D01*
X005920Y004875D01*
X005920Y004521D01*
X005845Y004446D01*
X005900Y004579D01*
X005900Y004781D01*
X005822Y004969D01*
X005679Y005112D01*
X005516Y005180D01*
X005679Y005248D01*
X005822Y005391D01*
X005900Y005579D01*
X005900Y005781D01*
X005822Y005969D01*
X005679Y006112D01*
X005516Y006180D01*
X005679Y006248D01*
X005822Y006391D01*
X005890Y006554D01*
X005958Y006391D01*
X006101Y006248D01*
X006289Y006170D01*
X006491Y006170D01*
X006679Y006248D01*
X006822Y006391D01*
X006890Y006554D01*
X006958Y006391D01*
X007101Y006248D01*
X007289Y006170D01*
X007491Y006170D01*
X007679Y006248D01*
X007822Y006391D01*
X007890Y006554D01*
X007958Y006391D01*
X008101Y006248D01*
X008289Y006170D01*
X008491Y006170D01*
X008679Y006248D01*
X008822Y006391D01*
X008890Y006554D01*
X008958Y006391D01*
X009101Y006248D01*
X009289Y006170D01*
X009491Y006170D01*
X009679Y006248D01*
X009822Y006391D01*
X009890Y006554D01*
X009958Y006391D01*
X010101Y006248D01*
X010289Y006170D01*
X010491Y006170D01*
X010679Y006248D01*
X010822Y006391D01*
X010900Y006579D01*
X010900Y006781D01*
X010822Y006969D01*
X010679Y007112D01*
X010516Y007180D01*
X010679Y007248D01*
X010822Y007391D01*
X010900Y007579D01*
X010900Y007781D01*
X010822Y007969D01*
X010679Y008112D01*
X010516Y008180D01*
X010679Y008248D01*
X010822Y008391D01*
X010900Y008579D01*
X010900Y008781D01*
X010822Y008969D01*
X010679Y009112D01*
X010516Y009180D01*
X010679Y009248D01*
X010822Y009391D01*
X010900Y009579D01*
X010900Y009781D01*
X010822Y009969D01*
X010679Y010112D01*
X010516Y010180D01*
X010679Y010248D01*
X010822Y010391D01*
X010900Y010579D01*
X010900Y010781D01*
X010822Y010969D01*
X010679Y011112D01*
X010516Y011180D01*
X010679Y011248D01*
X010822Y011391D01*
X010900Y011579D01*
X010900Y011781D01*
X010822Y011969D01*
X010679Y012112D01*
X010516Y012180D01*
X010679Y012248D01*
X010822Y012391D01*
X010900Y012579D01*
X010900Y012781D01*
X010822Y012969D01*
X010679Y013112D01*
X010516Y013180D01*
X010679Y013248D01*
X010822Y013391D01*
X010900Y013579D01*
X010900Y013781D01*
X010822Y013969D01*
X010679Y014112D01*
X010516Y014180D01*
X010679Y014248D01*
X010822Y014391D01*
X010900Y014579D01*
X010900Y014781D01*
X010822Y014969D01*
X010679Y015112D01*
X010516Y015180D01*
X010679Y015248D01*
X010822Y015391D01*
X010900Y015579D01*
X012470Y015579D01*
X012470Y015738D02*
X010900Y015738D01*
X010900Y015781D02*
X010822Y015969D01*
X010679Y016112D01*
X010516Y016180D01*
X010679Y016248D01*
X010822Y016391D01*
X010900Y016579D01*
X010900Y016781D01*
X010822Y016969D01*
X010679Y017112D01*
X010516Y017180D01*
X010679Y017248D01*
X010822Y017391D01*
X010900Y017579D01*
X010900Y017781D01*
X010822Y017969D01*
X010679Y018112D01*
X010516Y018180D01*
X010679Y018248D01*
X010822Y018391D01*
X010900Y018579D01*
X010900Y018781D01*
X010822Y018969D01*
X010679Y019112D01*
X010516Y019180D01*
X010679Y019248D01*
X010822Y019391D01*
X010900Y019579D01*
X010900Y019781D01*
X010822Y019969D01*
X010679Y020112D01*
X010516Y020180D01*
X010679Y020248D01*
X010822Y020391D01*
X010900Y020579D01*
X010900Y020781D01*
X010822Y020969D01*
X010679Y021112D01*
X010516Y021180D01*
X010679Y021248D01*
X010822Y021391D01*
X010890Y021554D01*
X010958Y021391D01*
X011101Y021248D01*
X011289Y021170D01*
X011491Y021170D01*
X011679Y021248D01*
X011822Y021391D01*
X011900Y021579D01*
X011900Y021781D01*
X011822Y021969D01*
X011679Y022112D01*
X011491Y022190D01*
X011289Y022190D01*
X011101Y022112D01*
X010958Y021969D01*
X010890Y021806D01*
X010822Y021969D01*
X010679Y022112D01*
X010491Y022190D01*
X010289Y022190D01*
X010101Y022112D01*
X009958Y021969D01*
X009890Y021806D01*
X009822Y021969D01*
X009679Y022112D01*
X009491Y022190D01*
X009289Y022190D01*
X009101Y022112D01*
X008958Y021969D01*
X008890Y021806D01*
X008822Y021969D01*
X008679Y022112D01*
X008491Y022190D01*
X008289Y022190D01*
X008101Y022112D01*
X007958Y021969D01*
X007890Y021806D01*
X007822Y021969D01*
X007679Y022112D01*
X007491Y022190D01*
X007289Y022190D01*
X007101Y022112D01*
X006958Y021969D01*
X006890Y021806D01*
X006822Y021969D01*
X006679Y022112D01*
X006491Y022190D01*
X006289Y022190D01*
X006101Y022112D01*
X005958Y021969D01*
X005911Y021856D01*
X005900Y021891D01*
X005860Y021968D01*
X005810Y022038D01*
X005748Y022100D01*
X005678Y022150D01*
X005601Y022190D01*
X005566Y022201D01*
X005679Y022248D01*
X005822Y022391D01*
X005900Y022579D01*
X005900Y022781D01*
X005822Y022969D01*
X005679Y023112D01*
X005516Y023180D01*
X005679Y023248D01*
X005822Y023391D01*
X005900Y023579D01*
X005900Y023781D01*
X005822Y023969D01*
X005679Y024112D01*
X005516Y024180D01*
X005679Y024248D01*
X005822Y024391D01*
X005836Y024423D01*
X005870Y024389D01*
X005999Y024260D01*
X011399Y024260D01*
X011509Y024150D01*
X011195Y024150D01*
X010920Y023875D01*
X010920Y023485D01*
X011195Y023210D01*
X011585Y023210D01*
X011860Y023485D01*
X011860Y023799D01*
X015699Y019960D01*
X015945Y019960D01*
X016195Y019710D01*
X016585Y019710D01*
X016860Y019985D01*
X016860Y020375D01*
X016585Y020650D01*
X016195Y020650D01*
X015945Y020400D01*
X015881Y020400D01*
X011581Y024700D01*
X006492Y024700D01*
X006611Y024749D01*
X006721Y024859D01*
X006780Y025002D01*
X006780Y026258D01*
X006721Y026401D01*
X006321Y026801D01*
X006211Y026911D01*
X006068Y026970D01*
X004412Y026970D01*
X004269Y026911D01*
X003969Y026611D01*
X003859Y026501D01*
X003800Y026358D01*
X003800Y023002D01*
X003859Y022859D01*
X004159Y022559D01*
X004269Y022449D01*
X004412Y022390D01*
X004959Y022390D01*
X005101Y022248D01*
X005214Y022201D01*
X005179Y022190D01*
X005102Y022150D01*
X005032Y022100D01*
X004970Y022038D01*
X004920Y021968D01*
X004880Y021891D01*
X004854Y021809D01*
X004840Y021723D01*
X004840Y021700D01*
X005370Y021700D01*
X005370Y021660D01*
X004840Y021660D01*
X004840Y021637D01*
X004854Y021551D01*
X004880Y021469D01*
X004920Y021392D01*
X004970Y021322D01*
X005032Y021260D01*
X005102Y021210D01*
X005160Y021180D01*
X005102Y021150D01*
X005032Y021100D01*
X004970Y021038D01*
X004920Y020968D01*
X004880Y020891D01*
X004854Y020809D01*
X004840Y020723D01*
X004840Y020700D01*
X005370Y020700D01*
X005370Y021660D01*
X005410Y021660D01*
X005410Y021130D01*
X005410Y020700D01*
X005370Y020700D01*
X005370Y020660D01*
X005410Y020660D01*
X005410Y020130D01*
X005433Y020130D01*
X005519Y020144D01*
X005601Y020170D01*
X005678Y020210D01*
X005748Y020260D01*
X005810Y020322D01*
X005860Y020392D01*
X005900Y020469D01*
X005911Y020504D01*
X005958Y020391D01*
X006101Y020248D01*
X006264Y020180D01*
X006101Y020112D01*
X005958Y019969D01*
X005880Y019781D01*
X005880Y019579D01*
X005958Y019391D01*
X006101Y019248D01*
X006264Y019180D01*
X006101Y019112D01*
X005958Y018969D01*
X005890Y018806D01*
X005822Y018969D01*
X005679Y019112D01*
X005491Y019190D01*
X005289Y019190D01*
X005101Y019112D01*
X004958Y018969D01*
X004890Y018806D01*
X004822Y018969D01*
X004679Y019112D01*
X004491Y019190D01*
X004289Y019190D01*
X004101Y019112D01*
X003958Y018969D01*
X003890Y018806D01*
X003822Y018969D01*
X003679Y019112D01*
X003491Y019190D01*
X003289Y019190D01*
X003101Y019112D01*
X002958Y018969D01*
X002880Y018781D01*
X002880Y018579D01*
X002958Y018391D01*
X003101Y018248D01*
X003264Y018180D01*
X003101Y018112D01*
X002958Y017969D01*
X002880Y017781D01*
X002880Y017579D01*
X002958Y017391D01*
X003101Y017248D01*
X003264Y017180D01*
X003101Y017112D01*
X002958Y016969D01*
X002880Y016781D01*
X002880Y016579D01*
X002958Y016391D01*
X003101Y016248D01*
X003264Y016180D01*
X003101Y016112D01*
X002958Y015969D01*
X002880Y015781D01*
X002880Y015579D01*
X002570Y015579D01*
X002570Y015421D02*
X002945Y015421D01*
X002958Y015391D02*
X003101Y015248D01*
X003264Y015180D01*
X003101Y015112D01*
X002958Y014969D01*
X002880Y014781D01*
X002880Y014579D01*
X002958Y014391D01*
X003101Y014248D01*
X003264Y014180D01*
X003101Y014112D01*
X002958Y013969D01*
X002880Y013781D01*
X002880Y013579D01*
X002958Y013391D01*
X003101Y013248D01*
X003264Y013180D01*
X003101Y013112D01*
X002958Y012969D01*
X002880Y012781D01*
X002880Y012579D01*
X002958Y012391D01*
X003101Y012248D01*
X003264Y012180D01*
X003101Y012112D01*
X002958Y011969D01*
X002880Y011781D01*
X002880Y011579D01*
X002958Y011391D01*
X003101Y011248D01*
X003264Y011180D01*
X003101Y011112D01*
X002958Y010969D01*
X002880Y010781D01*
X002880Y010579D01*
X002958Y010391D01*
X003101Y010248D01*
X003264Y010180D01*
X003101Y010112D01*
X002958Y009969D01*
X002880Y009781D01*
X002880Y009579D01*
X002958Y009391D01*
X003101Y009248D01*
X003264Y009180D01*
X003101Y009112D01*
X002958Y008969D01*
X002880Y008781D01*
X002880Y008579D01*
X002958Y008391D01*
X003101Y008248D01*
X003264Y008180D01*
X003101Y008112D01*
X002958Y007969D01*
X002880Y007781D01*
X002880Y007579D01*
X002958Y007391D01*
X003101Y007248D01*
X003264Y007180D01*
X003101Y007112D01*
X002958Y006969D01*
X002880Y006781D01*
X002880Y006579D01*
X002958Y006391D01*
X003101Y006248D01*
X003264Y006180D01*
X003101Y006112D01*
X002958Y005969D01*
X002880Y005781D01*
X002880Y005579D01*
X002958Y005391D01*
X003101Y005248D01*
X003264Y005180D01*
X003101Y005112D01*
X002958Y004969D01*
X002880Y004781D01*
X002880Y004579D01*
X002958Y004391D01*
X003101Y004248D01*
X003289Y004170D01*
X003491Y004170D01*
X003679Y004248D01*
X003822Y004391D01*
X003890Y004554D01*
X003958Y004391D01*
X004101Y004248D01*
X004289Y004170D01*
X004491Y004170D01*
X004679Y004248D01*
X004822Y004391D01*
X004890Y004554D01*
X004958Y004391D01*
X005101Y004248D01*
X005289Y004170D01*
X005491Y004170D01*
X005624Y004225D01*
X004560Y003161D01*
X004491Y003190D01*
X004289Y003190D01*
X004101Y003112D01*
X003958Y002969D01*
X003911Y002856D01*
X003900Y002891D01*
X003860Y002968D01*
X003810Y003038D01*
X003748Y003100D01*
X003678Y003150D01*
X003601Y003190D01*
X003519Y003216D01*
X003433Y003230D01*
X003410Y003230D01*
X003410Y002700D01*
X003370Y002700D01*
X003370Y003230D01*
X003347Y003230D01*
X003261Y003216D01*
X003179Y003190D01*
X003102Y003150D01*
X003032Y003100D01*
X002970Y003038D01*
X002920Y002968D01*
X002880Y002891D01*
X002854Y002809D01*
X002840Y002723D01*
X002840Y002700D01*
X003370Y002700D01*
X003370Y002660D01*
X002840Y002660D01*
X002840Y002637D01*
X002854Y002551D01*
X002880Y002469D01*
X002920Y002392D01*
X002970Y002322D01*
X003032Y002260D01*
X003102Y002210D01*
X003179Y002170D01*
X003214Y002159D01*
X003101Y002112D01*
X002958Y001969D01*
X002880Y001781D01*
X002880Y001579D01*
X002958Y001391D01*
X003101Y001248D01*
X003289Y001170D01*
X003491Y001170D01*
X003679Y001248D01*
X003822Y001391D01*
X003890Y001554D01*
X003958Y001391D01*
X004101Y001248D01*
X004289Y001170D01*
X004491Y001170D01*
X004679Y001248D01*
X004822Y001391D01*
X004890Y001554D01*
X004958Y001391D01*
X005101Y001248D01*
X005289Y001170D01*
X005491Y001170D01*
X005679Y001248D01*
X005822Y001391D01*
X005890Y001554D01*
X005958Y001391D01*
X006101Y001248D01*
X006289Y001170D01*
X006491Y001170D01*
X006679Y001248D01*
X006822Y001391D01*
X006890Y001554D01*
X006958Y001391D01*
X007101Y001248D01*
X007289Y001170D01*
X007491Y001170D01*
X007679Y001248D01*
X007822Y001391D01*
X007890Y001554D01*
X007958Y001391D01*
X008101Y001248D01*
X008289Y001170D01*
X008491Y001170D01*
X008679Y001248D01*
X008822Y001391D01*
X008890Y001554D01*
X008958Y001391D01*
X009101Y001248D01*
X009289Y001170D01*
X009491Y001170D01*
X009679Y001248D01*
X009822Y001391D01*
X009890Y001554D01*
X009958Y001391D01*
X010101Y001248D01*
X010289Y001170D01*
X010491Y001170D01*
X010679Y001248D01*
X010822Y001391D01*
X010890Y001554D01*
X010958Y001391D01*
X011101Y001248D01*
X011289Y001170D01*
X011491Y001170D01*
X011679Y001248D01*
X011822Y001391D01*
X011890Y001554D01*
X011958Y001391D01*
X012101Y001248D01*
X012289Y001170D01*
X012491Y001170D01*
X012679Y001248D01*
X012822Y001391D01*
X012890Y001554D01*
X012958Y001391D01*
X013101Y001248D01*
X013289Y001170D01*
X013491Y001170D01*
X013679Y001248D01*
X013822Y001391D01*
X013890Y001554D01*
X013958Y001391D01*
X014101Y001248D01*
X014289Y001170D01*
X014491Y001170D01*
X014679Y001248D01*
X014822Y001391D01*
X014890Y001554D01*
X014958Y001391D01*
X015101Y001248D01*
X015289Y001170D01*
X015491Y001170D01*
X015679Y001248D01*
X015822Y001391D01*
X015890Y001554D01*
X015958Y001391D01*
X016101Y001248D01*
X016289Y001170D01*
X016491Y001170D01*
X016679Y001248D01*
X016822Y001391D01*
X016890Y001554D01*
X016958Y001391D01*
X017101Y001248D01*
X017289Y001170D01*
X017491Y001170D01*
X017679Y001248D01*
X017822Y001391D01*
X017900Y001579D01*
X017900Y001781D01*
X017822Y001969D01*
X017679Y002112D01*
X017516Y002180D01*
X017679Y002248D01*
X017822Y002391D01*
X017851Y002460D01*
X018081Y002460D01*
X018420Y002799D01*
X018420Y002485D01*
X018670Y002235D01*
X018670Y002125D01*
X018420Y001875D01*
X018420Y001485D01*
X018695Y001210D01*
X019085Y001210D01*
X019360Y001485D01*
X019360Y001875D01*
X019110Y002125D01*
X019110Y002235D01*
X019360Y002485D01*
X019360Y002875D01*
X019328Y002907D01*
X020581Y004160D01*
X020685Y004264D01*
X020779Y004170D01*
X020972Y004170D01*
X020972Y004662D01*
X021008Y004662D01*
X021008Y004698D01*
X020972Y004698D01*
X020972Y005190D01*
X020779Y005190D01*
X020710Y005121D01*
X020710Y005371D01*
X020481Y005600D01*
X019206Y005600D01*
X019227Y005621D01*
X019270Y005724D01*
X019270Y005836D01*
X019227Y005939D01*
X019270Y005752D02*
X022370Y005752D01*
X022370Y005594D02*
X020488Y005594D01*
X020646Y005435D02*
X022370Y005435D01*
X022370Y005277D02*
X020710Y005277D01*
X020490Y005280D02*
X020390Y005380D01*
X012090Y005380D01*
X011390Y004680D01*
X009390Y002680D01*
X009560Y003161D02*
X009491Y003190D01*
X009289Y003190D01*
X009156Y003135D01*
X010231Y004210D01*
X010585Y004210D01*
X010860Y004485D01*
X010860Y004875D01*
X010585Y005150D01*
X010195Y005150D01*
X009920Y004875D01*
X009920Y004521D01*
X008560Y003161D01*
X008491Y003190D01*
X008289Y003190D01*
X008156Y003135D01*
X009231Y004210D01*
X009585Y004210D01*
X009860Y004485D01*
X009860Y004875D01*
X009698Y005037D01*
X009951Y005290D01*
X011049Y005290D01*
X011150Y005189D01*
X011150Y005105D01*
X010920Y004875D01*
X010920Y004521D01*
X009560Y003161D01*
X009615Y003216D02*
X009237Y003216D01*
X009396Y003375D02*
X009773Y003375D01*
X009932Y003533D02*
X009554Y003533D01*
X009713Y003692D02*
X010090Y003692D01*
X010249Y003850D02*
X009871Y003850D01*
X010030Y004009D02*
X010407Y004009D01*
X010566Y004167D02*
X010188Y004167D01*
X009724Y004326D02*
X009700Y004326D01*
X009566Y004167D02*
X009188Y004167D01*
X009030Y004009D02*
X009407Y004009D01*
X009249Y003850D02*
X008871Y003850D01*
X008713Y003692D02*
X009090Y003692D01*
X008932Y003533D02*
X008554Y003533D01*
X008396Y003375D02*
X008773Y003375D01*
X008615Y003216D02*
X008237Y003216D01*
X007932Y003533D02*
X007554Y003533D01*
X007396Y003375D02*
X007773Y003375D01*
X007615Y003216D02*
X007237Y003216D01*
X006932Y003533D02*
X006554Y003533D01*
X006396Y003375D02*
X006773Y003375D01*
X006615Y003216D02*
X006237Y003216D01*
X005932Y003533D02*
X005554Y003533D01*
X005396Y003375D02*
X005773Y003375D01*
X005615Y003216D02*
X005237Y003216D01*
X004932Y003533D02*
X002570Y003533D01*
X002570Y003375D02*
X004773Y003375D01*
X004615Y003216D02*
X003520Y003216D01*
X003410Y003216D02*
X003370Y003216D01*
X003260Y003216D02*
X002570Y003216D01*
X002570Y003058D02*
X002990Y003058D01*
X002884Y002899D02*
X002570Y002899D01*
X002570Y002741D02*
X002843Y002741D01*
X002849Y002582D02*
X002570Y002582D01*
X002570Y002424D02*
X002903Y002424D01*
X003027Y002265D02*
X002570Y002265D01*
X002570Y002107D02*
X003095Y002107D01*
X002949Y001948D02*
X002570Y001948D01*
X002570Y001790D02*
X002883Y001790D01*
X002880Y001631D02*
X002570Y001631D01*
X002570Y001473D02*
X002924Y001473D01*
X003035Y001314D02*
X002570Y001314D01*
X002570Y001156D02*
X028710Y001156D01*
X028710Y001314D02*
X023245Y001314D01*
X023101Y001170D02*
X023400Y001469D01*
X023400Y001680D01*
X023400Y001891D01*
X023101Y002190D01*
X022890Y002190D01*
X022890Y001680D01*
X023400Y001680D01*
X022890Y001680D01*
X022890Y001680D01*
X022890Y001680D01*
X022890Y001170D01*
X023101Y001170D01*
X022890Y001170D02*
X022890Y001680D01*
X022890Y001680D01*
X022890Y001680D01*
X022380Y001680D01*
X022380Y001891D01*
X022679Y002190D01*
X022890Y002190D01*
X022890Y001680D01*
X022380Y001680D01*
X022380Y001469D01*
X022679Y001170D01*
X022890Y001170D01*
X022890Y001314D02*
X022890Y001314D01*
X022890Y001473D02*
X022890Y001473D01*
X022890Y001631D02*
X022890Y001631D01*
X022890Y001790D02*
X022890Y001790D01*
X022890Y001948D02*
X022890Y001948D01*
X022890Y002107D02*
X022890Y002107D01*
X023085Y002210D02*
X023360Y002485D01*
X023360Y002875D01*
X023085Y003150D01*
X022695Y003150D01*
X022420Y002875D01*
X022420Y002485D01*
X022695Y002210D01*
X023085Y002210D01*
X023140Y002265D02*
X026710Y002265D01*
X026710Y002315D02*
X026710Y002045D01*
X026814Y001795D01*
X027005Y001604D01*
X027255Y001500D01*
X027525Y001500D01*
X027775Y001604D01*
X027966Y001795D01*
X028070Y002045D01*
X028070Y002315D01*
X027966Y002565D01*
X027775Y002756D01*
X027525Y002860D01*
X027255Y002860D01*
X027005Y002756D01*
X026814Y002565D01*
X026710Y002315D01*
X026755Y002424D02*
X025918Y002424D01*
X025928Y002441D02*
X025940Y002486D01*
X025940Y002860D01*
X025410Y002860D01*
X025410Y002330D01*
X025784Y002330D01*
X025829Y002342D01*
X025871Y002366D01*
X025904Y002399D01*
X025928Y002441D01*
X025940Y002582D02*
X026830Y002582D01*
X026989Y002741D02*
X025940Y002741D01*
X025940Y003058D02*
X027116Y003058D01*
X027005Y003104D02*
X027255Y003000D01*
X027525Y003000D01*
X027775Y003104D01*
X027966Y003295D01*
X028070Y003545D01*
X028070Y003815D01*
X027966Y004065D01*
X027775Y004256D01*
X027525Y004360D01*
X027255Y004360D01*
X027005Y004256D01*
X026814Y004065D01*
X026710Y003815D01*
X026710Y003545D01*
X026814Y003295D01*
X027005Y003104D01*
X026892Y003216D02*
X025940Y003216D01*
X025890Y003375D02*
X026781Y003375D01*
X026715Y003533D02*
X025764Y003533D01*
X025864Y003692D02*
X026710Y003692D01*
X026724Y003850D02*
X025900Y003850D01*
X025889Y004009D02*
X026790Y004009D01*
X026915Y004167D02*
X025823Y004167D01*
X025647Y004326D02*
X027171Y004326D01*
X027255Y004500D02*
X027525Y004500D01*
X027775Y004604D01*
X027966Y004795D01*
X028070Y005045D01*
X028070Y005315D01*
X027966Y005565D01*
X027775Y005756D01*
X027525Y005860D01*
X027255Y005860D01*
X027005Y005756D01*
X026814Y005565D01*
X026710Y005315D01*
X026710Y005045D01*
X026814Y004795D01*
X027005Y004604D01*
X027255Y004500D01*
X026966Y004643D02*
X025886Y004643D01*
X025934Y004801D02*
X026811Y004801D01*
X026745Y004960D02*
X025934Y004960D01*
X025886Y005118D02*
X026710Y005118D01*
X026710Y005277D02*
X025771Y005277D01*
X025648Y005435D02*
X026760Y005435D01*
X026842Y005594D02*
X025823Y005594D01*
X025889Y005752D02*
X027000Y005752D01*
X027780Y005752D02*
X029610Y005752D01*
X029610Y005594D02*
X027938Y005594D01*
X028020Y005435D02*
X029610Y005435D01*
X029610Y005277D02*
X028070Y005277D01*
X028070Y005118D02*
X029610Y005118D01*
X029610Y004960D02*
X028035Y004960D01*
X027969Y004801D02*
X029610Y004801D01*
X029610Y004643D02*
X027814Y004643D01*
X027609Y004326D02*
X028781Y004326D01*
X028815Y004360D02*
X028710Y004255D01*
X028710Y000860D01*
X002570Y000860D01*
X002570Y026996D01*
X028710Y027000D01*
X028710Y023750D01*
X028710Y023750D01*
X028710Y023676D01*
X028710Y023602D01*
X028710Y023601D01*
X028710Y023601D01*
X028763Y023549D01*
X028815Y023496D01*
X028816Y023496D01*
X028816Y023496D01*
X028890Y023496D01*
X028965Y023496D01*
X029610Y023499D01*
X029610Y017105D01*
X029715Y017000D01*
X034710Y017000D01*
X034710Y010560D01*
X029715Y010560D01*
X029610Y010455D01*
X029610Y004360D01*
X028815Y004360D01*
X028710Y004167D02*
X027865Y004167D01*
X027990Y004009D02*
X028710Y004009D01*
X028710Y003850D02*
X028056Y003850D01*
X028070Y003692D02*
X028710Y003692D01*
X028710Y003533D02*
X028065Y003533D01*
X027999Y003375D02*
X028710Y003375D01*
X028710Y003216D02*
X027888Y003216D01*
X027664Y003058D02*
X028710Y003058D01*
X028710Y002899D02*
X025410Y002899D01*
X025370Y002899D02*
X023336Y002899D01*
X023360Y002741D02*
X024840Y002741D01*
X024840Y002860D02*
X024840Y002486D01*
X024852Y002441D01*
X024876Y002399D01*
X024909Y002366D01*
X024951Y002342D01*
X024996Y002330D01*
X025370Y002330D01*
X025370Y002860D01*
X024840Y002860D01*
X024840Y003058D02*
X023177Y003058D01*
X023360Y002582D02*
X024840Y002582D01*
X024862Y002424D02*
X023298Y002424D01*
X023185Y002107D02*
X026710Y002107D01*
X026750Y001948D02*
X023343Y001948D01*
X023400Y001790D02*
X026819Y001790D01*
X026977Y001631D02*
X023400Y001631D01*
X023400Y001473D02*
X028710Y001473D01*
X028710Y001631D02*
X027803Y001631D01*
X027961Y001790D02*
X028710Y001790D01*
X028710Y001948D02*
X028030Y001948D01*
X028070Y002107D02*
X028710Y002107D01*
X028710Y002265D02*
X028070Y002265D01*
X028025Y002424D02*
X028710Y002424D01*
X028710Y002582D02*
X027950Y002582D01*
X027791Y002741D02*
X028710Y002741D01*
X028710Y000997D02*
X002570Y000997D01*
X003745Y001314D02*
X004035Y001314D01*
X003924Y001473D02*
X003856Y001473D01*
X004745Y001314D02*
X005035Y001314D01*
X004924Y001473D02*
X004856Y001473D01*
X005745Y001314D02*
X006035Y001314D01*
X005924Y001473D02*
X005856Y001473D01*
X006745Y001314D02*
X007035Y001314D01*
X006924Y001473D02*
X006856Y001473D01*
X007745Y001314D02*
X008035Y001314D01*
X007924Y001473D02*
X007856Y001473D01*
X008745Y001314D02*
X009035Y001314D01*
X008924Y001473D02*
X008856Y001473D01*
X009745Y001314D02*
X010035Y001314D01*
X009924Y001473D02*
X009856Y001473D01*
X010745Y001314D02*
X011035Y001314D01*
X010924Y001473D02*
X010856Y001473D01*
X011745Y001314D02*
X012035Y001314D01*
X011924Y001473D02*
X011856Y001473D01*
X012745Y001314D02*
X013035Y001314D01*
X012924Y001473D02*
X012856Y001473D01*
X013745Y001314D02*
X014035Y001314D01*
X013924Y001473D02*
X013856Y001473D01*
X014745Y001314D02*
X015035Y001314D01*
X014924Y001473D02*
X014856Y001473D01*
X015745Y001314D02*
X016035Y001314D01*
X015924Y001473D02*
X015856Y001473D01*
X016745Y001314D02*
X017035Y001314D01*
X016924Y001473D02*
X016856Y001473D01*
X017745Y001314D02*
X018591Y001314D01*
X018433Y001473D02*
X017856Y001473D01*
X017900Y001631D02*
X018420Y001631D01*
X018420Y001790D02*
X017897Y001790D01*
X017831Y001948D02*
X018493Y001948D01*
X018652Y002107D02*
X017685Y002107D01*
X017696Y002265D02*
X018640Y002265D01*
X018482Y002424D02*
X017836Y002424D01*
X017990Y002680D02*
X017390Y002680D01*
X017734Y003058D02*
X018056Y003058D01*
X017899Y002900D02*
X017851Y002900D01*
X017822Y002969D01*
X017679Y003112D01*
X017491Y003190D01*
X017289Y003190D01*
X017156Y003135D01*
X017481Y003460D01*
X018281Y003460D01*
X019031Y004210D01*
X019185Y004210D01*
X019460Y004485D01*
X019460Y004875D01*
X019185Y005150D01*
X018795Y005150D01*
X018520Y004875D01*
X018520Y004485D01*
X018602Y004403D01*
X018099Y003900D01*
X017921Y003900D01*
X018081Y004060D01*
X018210Y004189D01*
X018210Y004235D01*
X018460Y004485D01*
X018460Y004875D01*
X018185Y005150D01*
X017795Y005150D01*
X017520Y004875D01*
X017520Y004485D01*
X017702Y004303D01*
X017599Y004200D01*
X016721Y004200D01*
X016763Y004242D01*
X016795Y004210D01*
X017185Y004210D01*
X017460Y004485D01*
X017460Y004875D01*
X017185Y005150D01*
X016795Y005150D01*
X016520Y004875D01*
X016520Y004621D01*
X016460Y004561D01*
X016460Y004875D01*
X016185Y005150D01*
X015795Y005150D01*
X015520Y004875D01*
X015520Y004485D01*
X015552Y004453D01*
X015399Y004300D01*
X015275Y004300D01*
X015460Y004485D01*
X015460Y004875D01*
X015185Y005150D01*
X014795Y005150D01*
X014545Y004900D01*
X014299Y004900D01*
X014170Y004771D01*
X012560Y003161D01*
X012491Y003190D01*
X012289Y003190D01*
X012156Y003135D01*
X013231Y004210D01*
X013585Y004210D01*
X013860Y004485D01*
X013860Y004875D01*
X013585Y005150D01*
X013195Y005150D01*
X012920Y004875D01*
X012920Y004521D01*
X011560Y003161D01*
X011491Y003190D01*
X011289Y003190D01*
X011156Y003135D01*
X012231Y004210D01*
X012585Y004210D01*
X012860Y004485D01*
X012860Y004875D01*
X012585Y005150D01*
X012195Y005150D01*
X011920Y004875D01*
X011920Y004521D01*
X010560Y003161D01*
X010491Y003190D01*
X010289Y003190D01*
X010156Y003135D01*
X011231Y004210D01*
X011585Y004210D01*
X011860Y004485D01*
X011860Y004839D01*
X012181Y005160D01*
X020270Y005160D01*
X020270Y005065D01*
X020185Y005150D01*
X019795Y005150D01*
X019520Y004875D01*
X019520Y004521D01*
X017899Y002900D01*
X017990Y002680D02*
X019990Y004680D01*
X020009Y004210D02*
X018949Y003150D01*
X018771Y003150D01*
X019831Y004210D01*
X020009Y004210D01*
X019966Y004167D02*
X019788Y004167D01*
X019807Y004009D02*
X019630Y004009D01*
X019649Y003850D02*
X019471Y003850D01*
X019490Y003692D02*
X019313Y003692D01*
X019332Y003533D02*
X019154Y003533D01*
X019173Y003375D02*
X018996Y003375D01*
X019015Y003216D02*
X018837Y003216D01*
X018532Y003533D02*
X018354Y003533D01*
X018373Y003375D02*
X017396Y003375D01*
X017237Y003216D02*
X018215Y003216D01*
X018190Y003680D02*
X017390Y003680D01*
X016390Y002680D01*
X015390Y002680D02*
X016690Y003980D01*
X017690Y003980D01*
X017990Y004280D01*
X017990Y004680D01*
X017680Y004326D02*
X017300Y004326D01*
X017459Y004484D02*
X017521Y004484D01*
X017520Y004643D02*
X017460Y004643D01*
X017460Y004801D02*
X017520Y004801D01*
X017605Y004960D02*
X017375Y004960D01*
X017217Y005118D02*
X017763Y005118D01*
X018217Y005118D02*
X018763Y005118D01*
X018605Y004960D02*
X018375Y004960D01*
X018460Y004801D02*
X018520Y004801D01*
X018520Y004643D02*
X018460Y004643D01*
X018459Y004484D02*
X018521Y004484D01*
X018524Y004326D02*
X018300Y004326D01*
X018366Y004167D02*
X018188Y004167D01*
X018207Y004009D02*
X018030Y004009D01*
X018190Y003680D02*
X018990Y004480D01*
X018990Y004680D01*
X019300Y004326D02*
X019324Y004326D01*
X019459Y004484D02*
X019483Y004484D01*
X019460Y004643D02*
X019520Y004643D01*
X019520Y004801D02*
X019460Y004801D01*
X019375Y004960D02*
X019605Y004960D01*
X019763Y005118D02*
X019217Y005118D01*
X018990Y005780D02*
X018320Y005780D01*
X017990Y006110D01*
X017990Y008480D01*
X016690Y009780D01*
X014390Y009780D01*
X013890Y010280D01*
X013890Y010980D01*
X012690Y012180D01*
X012423Y012092D02*
X010699Y012092D01*
X010682Y012251D02*
X011584Y012251D01*
X011439Y012409D02*
X010830Y012409D01*
X010895Y012568D02*
X011374Y012568D01*
X011370Y012726D02*
X010900Y012726D01*
X010857Y012885D02*
X011412Y012885D01*
X011518Y013043D02*
X010748Y013043D01*
X010568Y013202D02*
X013690Y013202D01*
X013622Y013335D02*
X013622Y013801D01*
X013155Y013801D01*
X013155Y013773D01*
X013167Y013699D01*
X013190Y013627D01*
X013224Y013561D01*
X013268Y013500D01*
X013321Y013447D01*
X013381Y013403D01*
X013448Y013369D01*
X013519Y013346D01*
X013593Y013335D01*
X013622Y013335D01*
X013622Y013360D02*
X013639Y013360D01*
X013784Y013360D02*
X013849Y013360D01*
X013639Y013519D02*
X013622Y013519D01*
X013622Y013677D02*
X013639Y013677D01*
X013622Y013836D02*
X013639Y013836D01*
X013622Y013994D02*
X013639Y013994D01*
X013622Y014153D02*
X013639Y014153D01*
X013960Y014153D02*
X014010Y014153D01*
X014010Y014311D02*
X010742Y014311D01*
X010855Y014470D02*
X014010Y014470D01*
X014010Y014628D02*
X010900Y014628D01*
X010898Y014787D02*
X014010Y014787D01*
X013924Y014945D02*
X010832Y014945D01*
X010688Y015104D02*
X012626Y015104D01*
X012754Y015104D02*
X013766Y015104D01*
X014071Y015421D02*
X014473Y015421D01*
X014455Y015579D02*
X014065Y015579D01*
X014024Y015738D02*
X014497Y015738D01*
X014620Y015896D02*
X013900Y015896D01*
X013630Y015550D02*
X014230Y014950D01*
X014230Y013430D01*
X013630Y012830D01*
X013630Y012550D01*
X012020Y012550D01*
X011890Y012680D01*
X012368Y012885D02*
X013349Y012885D01*
X013532Y013043D02*
X012262Y013043D01*
X013254Y013519D02*
X010875Y013519D01*
X010900Y013677D02*
X013174Y013677D01*
X013155Y013836D02*
X010878Y013836D01*
X010797Y013994D02*
X013191Y013994D01*
X013301Y014153D02*
X010582Y014153D01*
X010791Y013360D02*
X013477Y013360D01*
X013996Y012885D02*
X014609Y012885D01*
X014643Y012919D02*
X014521Y012797D01*
X014455Y012637D01*
X014455Y012463D01*
X014521Y012304D01*
X014643Y012181D01*
X014803Y012115D01*
X014977Y012115D01*
X015137Y012181D01*
X015259Y012304D01*
X015323Y012458D01*
X015387Y012304D01*
X015510Y012181D01*
X015670Y012115D01*
X015843Y012115D01*
X016003Y012181D01*
X016125Y012304D01*
X016189Y012458D01*
X016253Y012304D01*
X016376Y012181D01*
X016536Y012115D01*
X016709Y012115D01*
X016869Y012181D01*
X016991Y012304D01*
X017058Y012463D01*
X017058Y012637D01*
X016991Y012797D01*
X016869Y012919D01*
X016709Y012985D01*
X016536Y012985D01*
X016376Y012919D01*
X016253Y012797D01*
X016189Y012642D01*
X016125Y012797D01*
X016003Y012919D01*
X015843Y012985D01*
X015670Y012985D01*
X015510Y012919D01*
X015387Y012797D01*
X015323Y012642D01*
X015259Y012797D01*
X015137Y012919D01*
X014977Y012985D01*
X014803Y012985D01*
X014643Y012919D01*
X014492Y012726D02*
X014028Y012726D01*
X014065Y012568D02*
X014455Y012568D01*
X014477Y012409D02*
X014043Y012409D01*
X013946Y012251D02*
X014574Y012251D01*
X015206Y012251D02*
X015440Y012251D01*
X015343Y012409D02*
X015303Y012409D01*
X015288Y012726D02*
X015358Y012726D01*
X015475Y012885D02*
X015171Y012885D01*
X014977Y013375D02*
X015137Y013441D01*
X015259Y013563D01*
X015323Y013718D01*
X015387Y013563D01*
X015510Y013441D01*
X015670Y013375D01*
X015843Y013375D01*
X016003Y013441D01*
X016125Y013563D01*
X016189Y013718D01*
X016253Y013563D01*
X016376Y013441D01*
X016536Y013375D01*
X016709Y013375D01*
X016869Y013441D01*
X016991Y013563D01*
X017058Y013723D01*
X017058Y013897D01*
X016991Y014056D01*
X016869Y014179D01*
X016709Y014245D01*
X016536Y014245D01*
X016376Y014179D01*
X016253Y014056D01*
X016189Y013902D01*
X016125Y014056D01*
X016003Y014179D01*
X015843Y014245D01*
X015670Y014245D01*
X015510Y014179D01*
X015387Y014056D01*
X015323Y013902D01*
X015259Y014056D01*
X015137Y014179D01*
X014977Y014245D01*
X014803Y014245D01*
X014643Y014179D01*
X014521Y014056D01*
X014455Y013897D01*
X014455Y013723D01*
X014521Y013563D01*
X014643Y013441D01*
X014803Y013375D01*
X014977Y013375D01*
X015214Y013519D02*
X015432Y013519D01*
X015340Y013677D02*
X015306Y013677D01*
X015285Y013994D02*
X015361Y013994D01*
X015483Y014153D02*
X015163Y014153D01*
X015181Y014628D02*
X014450Y014628D01*
X014450Y014470D02*
X017059Y014470D01*
X017140Y014311D02*
X014450Y014311D01*
X014450Y014153D02*
X014617Y014153D01*
X014495Y013994D02*
X014450Y013994D01*
X014450Y013836D02*
X014455Y013836D01*
X014450Y013677D02*
X014474Y013677D01*
X014450Y013519D02*
X014566Y013519D01*
X014450Y013360D02*
X017140Y013360D01*
X017140Y013202D02*
X014313Y013202D01*
X014154Y013043D02*
X017256Y013043D01*
X017414Y012885D02*
X016903Y012885D01*
X017021Y012726D02*
X017573Y012726D01*
X017731Y012568D02*
X017058Y012568D01*
X017035Y012409D02*
X017890Y012409D01*
X017900Y012191D02*
X017860Y012191D01*
X017782Y012178D01*
X017706Y012154D01*
X017635Y012118D01*
X017571Y012071D01*
X017515Y012015D01*
X017468Y011950D01*
X017432Y011880D01*
X017407Y011804D01*
X017395Y011725D01*
X017395Y011686D01*
X017900Y011686D01*
X017900Y012191D01*
X017900Y011686D01*
X017900Y011686D01*
X017900Y011686D01*
X018405Y011686D01*
X018405Y011725D01*
X018393Y011804D01*
X018368Y011880D01*
X018332Y011950D01*
X018285Y012015D01*
X018229Y012071D01*
X018165Y012118D01*
X018094Y012154D01*
X018018Y012178D01*
X017940Y012191D01*
X017900Y012191D01*
X017900Y012092D02*
X017900Y012092D01*
X017900Y011934D02*
X017900Y011934D01*
X017900Y011775D02*
X017900Y011775D01*
X017900Y011686D02*
X017900Y011686D01*
X017395Y011686D01*
X017395Y011646D01*
X017407Y011567D01*
X017432Y011492D01*
X017468Y011421D01*
X017515Y011357D01*
X017571Y011301D01*
X017635Y011254D01*
X017706Y011218D01*
X017782Y011193D01*
X017860Y011181D01*
X017900Y011181D01*
X017940Y011181D01*
X018018Y011193D01*
X018094Y011218D01*
X018165Y011254D01*
X018229Y011301D01*
X018285Y011357D01*
X018332Y011421D01*
X018368Y011492D01*
X018393Y011567D01*
X018405Y011646D01*
X018405Y011686D01*
X017900Y011686D01*
X017900Y011181D01*
X017900Y011686D01*
X017900Y011686D01*
X017900Y011617D02*
X017900Y011617D01*
X017900Y011458D02*
X017900Y011458D01*
X017900Y011300D02*
X017900Y011300D01*
X018228Y011300D02*
X019659Y011300D01*
X019501Y011458D02*
X018351Y011458D01*
X018400Y011617D02*
X019342Y011617D01*
X019184Y011775D02*
X018397Y011775D01*
X018341Y011934D02*
X019025Y011934D01*
X018867Y012092D02*
X018200Y012092D01*
X018048Y012251D02*
X016938Y012251D01*
X017459Y011934D02*
X013248Y011934D01*
X013089Y012092D02*
X017600Y012092D01*
X017403Y011775D02*
X013406Y011775D01*
X013565Y011617D02*
X017400Y011617D01*
X017449Y011458D02*
X013723Y011458D01*
X013882Y011300D02*
X017572Y011300D01*
X017585Y011150D02*
X017195Y011150D01*
X016920Y010875D01*
X016920Y010485D01*
X017195Y010210D01*
X017585Y010210D01*
X017860Y010485D01*
X017860Y010875D01*
X017585Y011150D01*
X017594Y011141D02*
X019818Y011141D01*
X019976Y010983D02*
X017752Y010983D01*
X017860Y010824D02*
X020135Y010824D01*
X020293Y010666D02*
X017860Y010666D01*
X017860Y010507D02*
X020452Y010507D01*
X020541Y010349D02*
X017723Y010349D01*
X017057Y010349D02*
X016723Y010349D01*
X016860Y010485D02*
X016585Y010210D01*
X016195Y010210D01*
X015920Y010485D01*
X015920Y010875D01*
X016195Y011150D01*
X016585Y011150D01*
X016860Y010875D01*
X016860Y010485D01*
X016860Y010507D02*
X016920Y010507D01*
X016920Y010666D02*
X016860Y010666D01*
X016860Y010824D02*
X016920Y010824D01*
X017028Y010983D02*
X016752Y010983D01*
X016594Y011141D02*
X017186Y011141D01*
X016186Y011141D02*
X015594Y011141D01*
X015585Y011150D02*
X015195Y011150D01*
X014920Y010875D01*
X014920Y010485D01*
X015195Y010210D01*
X015585Y010210D01*
X015860Y010485D01*
X015860Y010875D01*
X015585Y011150D01*
X015752Y010983D02*
X016028Y010983D01*
X015920Y010824D02*
X015860Y010824D01*
X015860Y010666D02*
X015920Y010666D01*
X015920Y010507D02*
X015860Y010507D01*
X015723Y010349D02*
X016057Y010349D01*
X016908Y009873D02*
X022370Y009873D01*
X022370Y009715D02*
X017067Y009715D01*
X017225Y009556D02*
X022370Y009556D01*
X022370Y009398D02*
X020893Y009398D01*
X020841Y009449D02*
X020696Y009510D01*
X020538Y009510D01*
X020392Y009449D01*
X020281Y009338D01*
X020220Y009192D01*
X020220Y009034D01*
X020281Y008888D01*
X020392Y008777D01*
X020538Y008717D01*
X020696Y008717D01*
X020841Y008777D01*
X020953Y008888D01*
X021013Y009034D01*
X021013Y009192D01*
X020953Y009338D01*
X020841Y009449D01*
X020994Y009239D02*
X022370Y009239D01*
X022370Y009081D02*
X021013Y009081D01*
X020967Y008922D02*
X022370Y008922D01*
X022370Y008764D02*
X020809Y008764D01*
X020424Y008764D02*
X018018Y008764D01*
X017859Y008922D02*
X020267Y008922D01*
X020220Y009081D02*
X017701Y009081D01*
X017542Y009239D02*
X020240Y009239D01*
X020340Y009398D02*
X017384Y009398D01*
X017078Y009081D02*
X010711Y009081D01*
X010658Y009239D02*
X016920Y009239D01*
X016761Y009398D02*
X010825Y009398D01*
X010891Y009556D02*
X016603Y009556D01*
X017237Y008922D02*
X012634Y008922D01*
X012627Y008939D02*
X012549Y009017D01*
X012446Y009060D01*
X012334Y009060D01*
X012231Y009017D01*
X012153Y008939D01*
X012110Y008836D01*
X012110Y008811D01*
X011670Y008371D01*
X011670Y007065D01*
X011585Y007150D01*
X011195Y007150D01*
X010920Y006875D01*
X010920Y006485D01*
X011195Y006210D01*
X011585Y006210D01*
X011670Y006295D01*
X011670Y006189D01*
X011799Y006060D01*
X012199Y005660D01*
X012614Y005660D01*
X012631Y005643D01*
X012734Y005600D01*
X012846Y005600D01*
X012949Y005643D01*
X013027Y005721D01*
X013070Y005824D01*
X013070Y005936D01*
X013027Y006039D01*
X012949Y006117D01*
X012846Y006160D01*
X012734Y006160D01*
X012631Y006117D01*
X012614Y006100D01*
X012381Y006100D01*
X012271Y006210D01*
X012585Y006210D01*
X012860Y006485D01*
X012860Y006875D01*
X012585Y007150D01*
X012195Y007150D01*
X012110Y007065D01*
X012110Y008189D01*
X012421Y008500D01*
X012446Y008500D01*
X012549Y008543D01*
X012627Y008621D01*
X012670Y008724D01*
X012670Y008836D01*
X012627Y008939D01*
X012670Y008764D02*
X017395Y008764D01*
X017554Y008605D02*
X012611Y008605D01*
X012390Y008780D02*
X011890Y008280D01*
X011890Y006280D01*
X012290Y005880D01*
X012790Y005880D01*
X012997Y006069D02*
X017770Y006069D01*
X017770Y006228D02*
X017659Y006228D01*
X017390Y006228D02*
X017390Y006228D01*
X017390Y006170D02*
X017390Y006680D01*
X017390Y006680D01*
X017390Y006680D01*
X016880Y006680D01*
X016880Y006891D01*
X017179Y007190D01*
X017390Y007190D01*
X017390Y006680D01*
X016880Y006680D01*
X016880Y006469D01*
X017179Y006170D01*
X017390Y006170D01*
X017390Y006386D02*
X017390Y006386D01*
X017390Y006545D02*
X017390Y006545D01*
X017390Y006703D02*
X017390Y006703D01*
X017390Y006862D02*
X017390Y006862D01*
X017390Y007020D02*
X017390Y007020D01*
X017390Y007179D02*
X017390Y007179D01*
X017613Y007179D02*
X017770Y007179D01*
X017770Y007337D02*
X012110Y007337D01*
X012110Y007179D02*
X013167Y007179D01*
X013179Y007190D02*
X012880Y006891D01*
X012880Y006680D01*
X013390Y006680D01*
X013390Y006680D01*
X013390Y007190D01*
X013601Y007190D01*
X013900Y006891D01*
X013900Y006680D01*
X013390Y006680D01*
X013390Y006680D01*
X013390Y006680D01*
X013390Y007190D01*
X013179Y007190D01*
X013390Y007179D02*
X013390Y007179D01*
X013390Y007020D02*
X013390Y007020D01*
X013390Y006862D02*
X013390Y006862D01*
X013390Y006703D02*
X013390Y006703D01*
X013390Y006680D02*
X012880Y006680D01*
X012880Y006469D01*
X013179Y006170D01*
X013390Y006170D01*
X013601Y006170D01*
X013900Y006469D01*
X013900Y006680D01*
X013390Y006680D01*
X013390Y006170D01*
X013390Y006680D01*
X013390Y006680D01*
X013390Y006545D02*
X013390Y006545D01*
X013390Y006386D02*
X013390Y006386D01*
X013390Y006228D02*
X013390Y006228D01*
X013659Y006228D02*
X014178Y006228D01*
X014195Y006210D02*
X014585Y006210D01*
X014860Y006485D01*
X014860Y006875D01*
X014585Y007150D01*
X014195Y007150D01*
X013920Y006875D01*
X013920Y006485D01*
X014195Y006210D01*
X014019Y006386D02*
X013817Y006386D01*
X013900Y006545D02*
X013920Y006545D01*
X013920Y006703D02*
X013900Y006703D01*
X013900Y006862D02*
X013920Y006862D01*
X014065Y007020D02*
X013771Y007020D01*
X013613Y007179D02*
X015167Y007179D01*
X015179Y007190D02*
X014880Y006891D01*
X014880Y006680D01*
X015390Y006680D01*
X015390Y006680D01*
X015390Y007190D01*
X015601Y007190D01*
X015900Y006891D01*
X015900Y006680D01*
X015390Y006680D01*
X015390Y006680D01*
X015390Y006680D01*
X015390Y007190D01*
X015179Y007190D01*
X015390Y007179D02*
X015390Y007179D01*
X015390Y007020D02*
X015390Y007020D01*
X015390Y006862D02*
X015390Y006862D01*
X015390Y006703D02*
X015390Y006703D01*
X015390Y006680D02*
X014880Y006680D01*
X014880Y006469D01*
X015179Y006170D01*
X015390Y006170D01*
X015601Y006170D01*
X015900Y006469D01*
X015900Y006680D01*
X015390Y006680D01*
X015390Y006170D01*
X015390Y006680D01*
X015390Y006680D01*
X015390Y006545D02*
X015390Y006545D01*
X015390Y006386D02*
X015390Y006386D01*
X015390Y006228D02*
X015390Y006228D01*
X015659Y006228D02*
X016178Y006228D01*
X016195Y006210D02*
X016585Y006210D01*
X016860Y006485D01*
X016860Y006875D01*
X016585Y007150D01*
X016195Y007150D01*
X015920Y006875D01*
X015920Y006485D01*
X016195Y006210D01*
X016019Y006386D02*
X015817Y006386D01*
X015900Y006545D02*
X015920Y006545D01*
X015920Y006703D02*
X015900Y006703D01*
X015900Y006862D02*
X015920Y006862D01*
X016065Y007020D02*
X015771Y007020D01*
X015613Y007179D02*
X017167Y007179D01*
X017009Y007020D02*
X016715Y007020D01*
X016860Y006862D02*
X016880Y006862D01*
X016880Y006703D02*
X016860Y006703D01*
X016860Y006545D02*
X016880Y006545D01*
X016963Y006386D02*
X016761Y006386D01*
X016602Y006228D02*
X017121Y006228D01*
X017878Y005911D02*
X013070Y005911D01*
X013040Y005752D02*
X018037Y005752D01*
X018342Y006069D02*
X022370Y006069D01*
X022370Y006228D02*
X018210Y006228D01*
X018210Y006386D02*
X022370Y006386D01*
X022370Y006545D02*
X018210Y006545D01*
X018210Y006703D02*
X022370Y006703D01*
X022370Y006862D02*
X018210Y006862D01*
X018210Y007020D02*
X022370Y007020D01*
X022370Y007179D02*
X018210Y007179D01*
X018210Y007337D02*
X022370Y007337D01*
X022370Y007496D02*
X018210Y007496D01*
X018210Y007654D02*
X022370Y007654D01*
X022370Y007813D02*
X018210Y007813D01*
X018210Y007971D02*
X022370Y007971D01*
X022370Y008130D02*
X018210Y008130D01*
X018210Y008288D02*
X022370Y008288D01*
X022370Y008447D02*
X018210Y008447D01*
X018176Y008605D02*
X022370Y008605D01*
X023980Y008605D02*
X029610Y008605D01*
X029610Y008447D02*
X023980Y008447D01*
X023980Y008288D02*
X029610Y008288D01*
X029610Y008130D02*
X023980Y008130D01*
X023980Y007971D02*
X029610Y007971D01*
X029610Y007813D02*
X023980Y007813D01*
X023980Y007654D02*
X029610Y007654D01*
X029610Y007496D02*
X023980Y007496D01*
X023980Y008764D02*
X029610Y008764D01*
X029610Y008922D02*
X023980Y008922D01*
X023980Y009081D02*
X029610Y009081D01*
X029610Y009239D02*
X023980Y009239D01*
X023980Y009398D02*
X029610Y009398D01*
X029610Y009556D02*
X023980Y009556D01*
X023980Y009715D02*
X029610Y009715D01*
X029610Y009873D02*
X023980Y009873D01*
X023980Y010032D02*
X029610Y010032D01*
X029610Y010190D02*
X023980Y010190D01*
X023980Y010349D02*
X029610Y010349D01*
X029662Y010507D02*
X023980Y010507D01*
X023980Y010666D02*
X034710Y010666D01*
X034710Y010824D02*
X034087Y010824D01*
X034128Y010841D02*
X034345Y011059D01*
X034463Y011343D01*
X034463Y011650D01*
X034345Y011934D01*
X034128Y012152D01*
X033844Y012270D01*
X033536Y012270D01*
X033252Y012152D01*
X033035Y011934D01*
X032917Y011650D01*
X032917Y011343D01*
X033035Y011059D01*
X033252Y010841D01*
X033536Y010723D01*
X033844Y010723D01*
X034128Y010841D01*
X034269Y010983D02*
X034710Y010983D01*
X034710Y011141D02*
X034380Y011141D01*
X034445Y011300D02*
X034710Y011300D01*
X034710Y011458D02*
X034463Y011458D01*
X034463Y011617D02*
X034710Y011617D01*
X034710Y011775D02*
X034411Y011775D01*
X034346Y011934D02*
X034710Y011934D01*
X034710Y012092D02*
X034188Y012092D01*
X033890Y012251D02*
X034710Y012251D01*
X034710Y012409D02*
X033165Y012409D01*
X033165Y012486D02*
X033101Y012640D01*
X032983Y012758D01*
X032829Y012822D01*
X032662Y012822D01*
X032507Y012758D01*
X032389Y012640D01*
X032325Y012486D01*
X032325Y012319D01*
X032389Y012164D01*
X032507Y012046D01*
X032662Y011982D01*
X032829Y011982D01*
X032983Y012046D01*
X033101Y012164D01*
X033165Y012319D01*
X033165Y012486D01*
X033131Y012568D02*
X033495Y012568D01*
X033505Y012558D02*
X033650Y012498D01*
X033808Y012498D01*
X033954Y012558D01*
X034066Y012670D01*
X034126Y012815D01*
X034126Y012973D01*
X034066Y013119D01*
X033954Y013230D01*
X033808Y013291D01*
X033650Y013291D01*
X033505Y013230D01*
X033393Y013119D01*
X033333Y012973D01*
X033333Y012815D01*
X033393Y012670D01*
X033505Y012558D01*
X033370Y012726D02*
X033015Y012726D01*
X032829Y012966D02*
X032662Y012966D01*
X032507Y013030D01*
X032389Y013148D01*
X032325Y013303D01*
X032325Y013470D01*
X032389Y013624D01*
X032507Y013742D01*
X032598Y013780D01*
X032507Y013818D01*
X032389Y013936D01*
X032325Y014090D01*
X032325Y014257D01*
X032389Y014412D01*
X032507Y014530D01*
X032662Y014594D01*
X032829Y014594D01*
X032983Y014530D01*
X033101Y014412D01*
X033165Y014257D01*
X033165Y014090D01*
X033101Y013936D01*
X032983Y013818D01*
X032892Y013780D01*
X032983Y013742D01*
X033101Y013624D01*
X033165Y013470D01*
X033165Y013303D01*
X033101Y013148D01*
X032983Y013030D01*
X032829Y012966D01*
X032996Y013043D02*
X033362Y013043D01*
X033333Y012885D02*
X032216Y012885D01*
X032222Y012891D02*
X032300Y013079D01*
X032300Y013281D01*
X032222Y013469D01*
X032079Y013612D01*
X031916Y013680D01*
X032079Y013748D01*
X032222Y013891D01*
X032300Y014079D01*
X032300Y014281D01*
X032222Y014469D01*
X032079Y014612D01*
X031940Y014670D01*
X032218Y014670D01*
X032300Y014752D01*
X032300Y015608D01*
X032218Y015690D01*
X031362Y015690D01*
X031280Y015608D01*
X031280Y014752D01*
X031362Y014670D01*
X031640Y014670D01*
X031501Y014612D01*
X031358Y014469D01*
X031280Y014281D01*
X031280Y014079D01*
X031358Y013891D01*
X031501Y013748D01*
X031664Y013680D01*
X031501Y013612D01*
X031358Y013469D01*
X031280Y013281D01*
X031280Y013079D01*
X031358Y012891D01*
X031501Y012748D01*
X031664Y012680D01*
X031501Y012612D01*
X031358Y012469D01*
X031280Y012281D01*
X031280Y012079D01*
X031358Y011891D01*
X031501Y011748D01*
X031689Y011670D01*
X031891Y011670D01*
X032079Y011748D01*
X032222Y011891D01*
X032300Y012079D01*
X032300Y012281D01*
X032222Y012469D01*
X032079Y012612D01*
X031916Y012680D01*
X032079Y012748D01*
X032222Y012891D01*
X032285Y013043D02*
X032494Y013043D01*
X032367Y013202D02*
X032300Y013202D01*
X032325Y013360D02*
X032267Y013360D01*
X032345Y013519D02*
X032173Y013519D01*
X031923Y013677D02*
X032442Y013677D01*
X032489Y013836D02*
X032167Y013836D01*
X032265Y013994D02*
X032365Y013994D01*
X032325Y014153D02*
X032300Y014153D01*
X032288Y014311D02*
X032347Y014311D01*
X032447Y014470D02*
X032222Y014470D01*
X032041Y014628D02*
X033333Y014628D01*
X033333Y014587D02*
X033393Y014441D01*
X033505Y014330D01*
X033650Y014269D01*
X033808Y014269D01*
X033954Y014330D01*
X034066Y014441D01*
X034126Y014587D01*
X034126Y014745D01*
X034066Y014890D01*
X033954Y015002D01*
X033808Y015062D01*
X033650Y015062D01*
X033505Y015002D01*
X033393Y014890D01*
X033333Y014745D01*
X033333Y014587D01*
X033381Y014470D02*
X033043Y014470D01*
X033143Y014311D02*
X033550Y014311D01*
X033909Y014311D02*
X034710Y014311D01*
X034710Y014153D02*
X033165Y014153D01*
X033125Y013994D02*
X034710Y013994D01*
X034710Y013836D02*
X033001Y013836D01*
X033048Y013677D02*
X034710Y013677D01*
X034710Y013519D02*
X033145Y013519D01*
X033165Y013360D02*
X034710Y013360D01*
X034710Y013202D02*
X033983Y013202D01*
X034097Y013043D02*
X034710Y013043D01*
X034710Y012885D02*
X034126Y012885D01*
X034089Y012726D02*
X034710Y012726D01*
X034710Y012568D02*
X033964Y012568D01*
X033490Y012251D02*
X033137Y012251D01*
X033192Y012092D02*
X033029Y012092D01*
X033034Y011934D02*
X032240Y011934D01*
X032300Y012092D02*
X032461Y012092D01*
X032353Y012251D02*
X032300Y012251D01*
X032325Y012409D02*
X032247Y012409D01*
X032359Y012568D02*
X032124Y012568D01*
X032027Y012726D02*
X032475Y012726D01*
X033123Y013202D02*
X033476Y013202D01*
X034077Y014470D02*
X034710Y014470D01*
X034710Y014628D02*
X034126Y014628D01*
X034109Y014787D02*
X034710Y014787D01*
X034710Y014945D02*
X034011Y014945D01*
X033844Y015290D02*
X034128Y015408D01*
X034345Y015626D01*
X034463Y015910D01*
X034463Y016217D01*
X034345Y016501D01*
X034128Y016719D01*
X033844Y016837D01*
X033536Y016837D01*
X033252Y016719D01*
X033035Y016501D01*
X032917Y016217D01*
X032917Y015910D01*
X033035Y015626D01*
X033252Y015408D01*
X033536Y015290D01*
X033844Y015290D01*
X034140Y015421D02*
X034710Y015421D01*
X034710Y015579D02*
X034299Y015579D01*
X034392Y015738D02*
X034710Y015738D01*
X034710Y015896D02*
X034457Y015896D01*
X034463Y016055D02*
X034710Y016055D01*
X034710Y016213D02*
X034463Y016213D01*
X034399Y016372D02*
X034710Y016372D01*
X034710Y016530D02*
X034317Y016530D01*
X034158Y016689D02*
X034710Y016689D01*
X034710Y016847D02*
X023980Y016847D01*
X023980Y016689D02*
X033222Y016689D01*
X033063Y016530D02*
X023980Y016530D01*
X023980Y016372D02*
X032981Y016372D01*
X032917Y016213D02*
X023980Y016213D01*
X023980Y016055D02*
X032917Y016055D01*
X032923Y015896D02*
X023980Y015896D01*
X023980Y015738D02*
X032988Y015738D01*
X033081Y015579D02*
X032300Y015579D01*
X032300Y015421D02*
X032414Y015421D01*
X032389Y015396D02*
X032325Y015241D01*
X032325Y015074D01*
X032389Y014920D01*
X032507Y014802D01*
X032662Y014738D01*
X032829Y014738D01*
X032983Y014802D01*
X033101Y014920D01*
X033165Y015074D01*
X033165Y015241D01*
X033101Y015396D01*
X032983Y015514D01*
X032829Y015578D01*
X032662Y015578D01*
X032507Y015514D01*
X032389Y015396D01*
X032334Y015262D02*
X032300Y015262D01*
X032300Y015104D02*
X032325Y015104D01*
X032300Y014945D02*
X032379Y014945D01*
X032300Y014787D02*
X032544Y014787D01*
X032946Y014787D02*
X033350Y014787D01*
X033448Y014945D02*
X033112Y014945D01*
X033165Y015104D02*
X034710Y015104D01*
X034710Y015262D02*
X033157Y015262D01*
X033077Y015421D02*
X033240Y015421D01*
X031539Y014628D02*
X023980Y014628D01*
X023980Y014470D02*
X031358Y014470D01*
X031292Y014311D02*
X023980Y014311D01*
X023980Y014153D02*
X031280Y014153D01*
X031315Y013994D02*
X023980Y013994D01*
X023980Y013836D02*
X031413Y013836D01*
X031657Y013677D02*
X023980Y013677D01*
X023980Y013519D02*
X031407Y013519D01*
X031313Y013360D02*
X023980Y013360D01*
X023980Y013202D02*
X031280Y013202D01*
X031295Y013043D02*
X023980Y013043D01*
X023980Y012885D02*
X031364Y012885D01*
X031553Y012726D02*
X023980Y012726D01*
X023980Y012568D02*
X031456Y012568D01*
X031333Y012409D02*
X023980Y012409D01*
X023980Y012251D02*
X031280Y012251D01*
X031280Y012092D02*
X023980Y012092D01*
X023980Y011934D02*
X031340Y011934D01*
X031474Y011775D02*
X023980Y011775D01*
X023980Y011617D02*
X032917Y011617D01*
X032917Y011458D02*
X023980Y011458D01*
X023980Y011300D02*
X032935Y011300D01*
X033000Y011141D02*
X023980Y011141D01*
X023980Y010983D02*
X033111Y010983D01*
X033293Y010824D02*
X023980Y010824D01*
X022370Y010824D02*
X020757Y010824D01*
X020599Y010983D02*
X022370Y010983D01*
X022370Y011141D02*
X020440Y011141D01*
X020282Y011300D02*
X022370Y011300D01*
X022370Y011458D02*
X020123Y011458D01*
X019965Y011617D02*
X022370Y011617D01*
X022370Y011775D02*
X019806Y011775D01*
X019648Y011934D02*
X022370Y011934D01*
X022370Y012092D02*
X019489Y012092D01*
X019331Y012251D02*
X022370Y012251D01*
X022370Y012409D02*
X019172Y012409D01*
X019014Y012568D02*
X022370Y012568D01*
X022370Y012726D02*
X018195Y012726D01*
X018037Y012885D02*
X022370Y012885D01*
X022370Y013043D02*
X017878Y013043D01*
X017778Y013202D02*
X017720Y013202D01*
X018022Y013202D02*
X022370Y013202D01*
X022370Y013360D02*
X018263Y013360D01*
X018347Y013519D02*
X022370Y013519D01*
X022370Y013677D02*
X018365Y013677D01*
X018328Y013836D02*
X022370Y013836D01*
X022370Y013994D02*
X018290Y013994D01*
X018290Y014153D02*
X022370Y014153D01*
X022370Y014311D02*
X018290Y014311D01*
X018290Y014470D02*
X022370Y014470D01*
X022370Y014628D02*
X018290Y014628D01*
X018290Y014787D02*
X022370Y014787D01*
X022370Y014945D02*
X018290Y014945D01*
X018290Y015104D02*
X022370Y015104D01*
X022370Y015262D02*
X018290Y015262D01*
X018290Y015421D02*
X022370Y015421D01*
X022370Y015579D02*
X018290Y015579D01*
X018290Y015738D02*
X022370Y015738D01*
X022370Y015896D02*
X018290Y015896D01*
X018290Y016055D02*
X022370Y016055D01*
X022370Y016213D02*
X018290Y016213D01*
X018290Y016372D02*
X022370Y016372D01*
X022370Y016530D02*
X018290Y016530D01*
X018290Y016689D02*
X022370Y016689D01*
X022370Y016847D02*
X018290Y016847D01*
X018290Y017006D02*
X020331Y017006D01*
X020336Y017001D02*
X020518Y016925D01*
X020715Y016925D01*
X020897Y017001D01*
X021036Y017140D01*
X021112Y017322D01*
X021112Y017519D01*
X021036Y017701D01*
X020897Y017840D01*
X020715Y017915D01*
X020518Y017915D01*
X020336Y017840D01*
X020197Y017701D01*
X020122Y017519D01*
X020122Y017322D01*
X020197Y017140D01*
X020336Y017001D01*
X020187Y017164D02*
X018290Y017164D01*
X018290Y017323D02*
X020122Y017323D01*
X020122Y017481D02*
X018290Y017481D01*
X018290Y017640D02*
X020172Y017640D01*
X020295Y017798D02*
X018290Y017798D01*
X018290Y017957D02*
X022370Y017957D01*
X022370Y018115D02*
X018290Y018115D01*
X018290Y018274D02*
X022370Y018274D01*
X022370Y018432D02*
X018290Y018432D01*
X018290Y018591D02*
X022370Y018591D01*
X022370Y018749D02*
X018290Y018749D01*
X018290Y018908D02*
X020895Y018908D01*
X020870Y018933D02*
X020943Y018860D01*
X021038Y018820D01*
X021142Y018820D01*
X021237Y018860D01*
X021310Y018933D01*
X021350Y019028D01*
X021350Y019132D01*
X021310Y019227D01*
X021310Y019228D01*
X021310Y021789D01*
X022641Y023120D01*
X022642Y023120D01*
X022737Y023160D01*
X022810Y023233D01*
X022850Y023328D01*
X022850Y023432D01*
X022810Y023527D01*
X022737Y023600D01*
X022642Y023640D01*
X022538Y023640D01*
X022443Y023600D01*
X022370Y023527D01*
X022330Y023432D01*
X022330Y023431D01*
X020870Y021971D01*
X020870Y019228D01*
X020870Y019227D01*
X020830Y019132D01*
X020830Y019028D01*
X020870Y018933D01*
X020830Y019066D02*
X018290Y019066D01*
X018290Y019225D02*
X020868Y019225D01*
X020870Y019383D02*
X018290Y019383D01*
X018290Y019542D02*
X020870Y019542D01*
X020870Y019700D02*
X018290Y019700D01*
X018420Y019859D02*
X020870Y019859D01*
X020870Y020017D02*
X018579Y020017D01*
X018737Y020176D02*
X020870Y020176D01*
X020870Y020334D02*
X018896Y020334D01*
X019054Y020493D02*
X020870Y020493D01*
X020870Y020651D02*
X019159Y020651D01*
X019180Y020810D02*
X020870Y020810D01*
X020870Y020968D02*
X019180Y020968D01*
X019180Y021127D02*
X020870Y021127D01*
X020870Y021285D02*
X019180Y021285D01*
X019180Y021444D02*
X020870Y021444D01*
X020870Y021602D02*
X019180Y021602D01*
X019180Y021761D02*
X020870Y021761D01*
X020870Y021919D02*
X019180Y021919D01*
X019180Y022078D02*
X020976Y022078D01*
X021135Y022236D02*
X019148Y022236D01*
X019027Y022395D02*
X021293Y022395D01*
X021452Y022553D02*
X018195Y022553D01*
X018394Y022395D02*
X018553Y022395D01*
X018400Y021919D02*
X018355Y021919D01*
X018400Y021761D02*
X016635Y021761D01*
X016601Y021690D02*
X016390Y021690D01*
X016390Y021180D01*
X016900Y021180D01*
X016900Y021391D01*
X016601Y021690D01*
X016689Y021602D02*
X018400Y021602D01*
X018400Y021444D02*
X018352Y021444D01*
X018395Y020968D02*
X018400Y020968D01*
X018268Y020810D02*
X018201Y020810D01*
X018109Y020651D02*
X015630Y020651D01*
X015472Y020810D02*
X016039Y020810D01*
X016179Y020670D02*
X016390Y020670D01*
X016601Y020670D01*
X016900Y020969D01*
X016900Y021180D01*
X016390Y021180D01*
X016390Y021180D01*
X016390Y021180D01*
X016390Y020670D01*
X016390Y021180D01*
X016390Y021180D01*
X016390Y021180D01*
X015880Y021180D01*
X015880Y021391D01*
X016179Y021690D01*
X016390Y021690D01*
X016390Y021180D01*
X015880Y021180D01*
X015880Y020969D01*
X016179Y020670D01*
X016038Y020493D02*
X015789Y020493D01*
X015790Y020180D02*
X011490Y024480D01*
X006090Y024480D01*
X005890Y024680D01*
X005390Y024680D01*
X005851Y024900D02*
X005822Y024969D01*
X005679Y025112D01*
X005516Y025180D01*
X005679Y025248D01*
X005822Y025391D01*
X005900Y025579D01*
X005900Y025781D01*
X005822Y025969D01*
X005679Y026112D01*
X005491Y026190D01*
X005289Y026190D01*
X005101Y026112D01*
X004958Y025969D01*
X004880Y025781D01*
X004880Y025579D01*
X004958Y025391D01*
X005101Y025248D01*
X005264Y025180D01*
X005101Y025112D01*
X004958Y024969D01*
X004880Y024781D01*
X004880Y024579D01*
X004958Y024391D01*
X005101Y024248D01*
X005264Y024180D01*
X005101Y024112D01*
X004958Y023969D01*
X004880Y023781D01*
X004880Y023579D01*
X004958Y023391D01*
X005101Y023248D01*
X005264Y023180D01*
X005240Y023170D01*
X004652Y023170D01*
X004580Y023242D01*
X004580Y026118D01*
X004652Y026190D01*
X005828Y026190D01*
X006000Y026018D01*
X006000Y025002D01*
X006059Y024859D01*
X006169Y024749D01*
X006288Y024700D01*
X006181Y024700D01*
X005981Y024900D01*
X005851Y024900D01*
X005838Y024931D02*
X006030Y024931D01*
X006000Y025089D02*
X005702Y025089D01*
X005679Y025248D02*
X006000Y025248D01*
X006000Y025406D02*
X005829Y025406D01*
X005894Y025565D02*
X006000Y025565D01*
X006000Y025723D02*
X005900Y025723D01*
X005859Y025882D02*
X006000Y025882D01*
X005978Y026040D02*
X005751Y026040D01*
X005029Y026040D02*
X004580Y026040D01*
X004580Y025882D02*
X004921Y025882D01*
X004880Y025723D02*
X004580Y025723D01*
X004580Y025565D02*
X004886Y025565D01*
X004951Y025406D02*
X004580Y025406D01*
X004580Y025248D02*
X005101Y025248D01*
X005078Y025089D02*
X004580Y025089D01*
X004580Y024931D02*
X004942Y024931D01*
X004880Y024772D02*
X004580Y024772D01*
X004580Y024614D02*
X004880Y024614D01*
X004931Y024455D02*
X004580Y024455D01*
X004580Y024297D02*
X005052Y024297D01*
X005163Y024138D02*
X004580Y024138D01*
X004580Y023980D02*
X004968Y023980D01*
X004896Y023821D02*
X004580Y023821D01*
X004580Y023663D02*
X004880Y023663D01*
X004911Y023504D02*
X004580Y023504D01*
X004580Y023346D02*
X005003Y023346D01*
X005247Y023187D02*
X004635Y023187D01*
X004007Y022712D02*
X002570Y022712D01*
X002570Y022870D02*
X003855Y022870D01*
X003800Y023029D02*
X002570Y023029D01*
X002570Y023187D02*
X003800Y023187D01*
X003800Y023346D02*
X002570Y023346D01*
X002570Y023504D02*
X003800Y023504D01*
X003800Y023663D02*
X002570Y023663D01*
X002570Y023821D02*
X003800Y023821D01*
X003800Y023980D02*
X002570Y023980D01*
X002570Y024138D02*
X003800Y024138D01*
X003800Y024297D02*
X002570Y024297D01*
X002570Y024455D02*
X003800Y024455D01*
X003800Y024614D02*
X002570Y024614D01*
X002570Y024772D02*
X003800Y024772D01*
X003800Y024931D02*
X002570Y024931D01*
X002570Y025089D02*
X003800Y025089D01*
X003800Y025248D02*
X002570Y025248D01*
X002570Y025406D02*
X003800Y025406D01*
X003800Y025565D02*
X002570Y025565D01*
X002570Y025723D02*
X003800Y025723D01*
X003800Y025882D02*
X002570Y025882D01*
X002570Y026040D02*
X003800Y026040D01*
X003800Y026199D02*
X002570Y026199D01*
X002570Y026357D02*
X003800Y026357D01*
X003874Y026516D02*
X002570Y026516D01*
X002570Y026674D02*
X004032Y026674D01*
X004191Y026833D02*
X002570Y026833D01*
X002570Y026991D02*
X028710Y026991D01*
X028710Y026833D02*
X006289Y026833D01*
X006448Y026674D02*
X021250Y026674D01*
X021530Y026674D02*
X024750Y026674D01*
X024789Y026690D02*
X024601Y026612D01*
X024458Y026469D01*
X024380Y026281D01*
X024380Y026079D01*
X024458Y025891D01*
X024601Y025748D01*
X024764Y025680D01*
X024601Y025612D01*
X024458Y025469D01*
X024380Y025281D01*
X024380Y025079D01*
X024458Y024891D01*
X024601Y024748D01*
X024789Y024670D01*
X024991Y024670D01*
X025179Y024748D01*
X025322Y024891D01*
X025390Y025054D01*
X025458Y024891D01*
X025601Y024748D01*
X025789Y024670D01*
X025991Y024670D01*
X026179Y024748D01*
X026322Y024891D01*
X026390Y025054D01*
X026458Y024891D01*
X026601Y024748D01*
X026789Y024670D01*
X026991Y024670D01*
X027179Y024748D01*
X027322Y024891D01*
X027340Y024934D01*
X027340Y024786D01*
X027352Y024741D01*
X027376Y024699D01*
X027409Y024666D01*
X027451Y024642D01*
X027496Y024630D01*
X027870Y024630D01*
X027870Y025160D01*
X027910Y025160D01*
X027910Y025200D01*
X028440Y025200D01*
X028440Y025574D01*
X028428Y025619D01*
X028404Y025661D01*
X028385Y025680D01*
X028404Y025699D01*
X028428Y025741D01*
X028440Y025786D01*
X028440Y026160D01*
X027910Y026160D01*
X027910Y026200D01*
X027870Y026200D01*
X027870Y026730D01*
X027496Y026730D01*
X027451Y026718D01*
X027409Y026694D01*
X027376Y026661D01*
X027352Y026619D01*
X027340Y026574D01*
X027340Y026426D01*
X027322Y026469D01*
X027179Y026612D01*
X026991Y026690D01*
X026789Y026690D01*
X026601Y026612D01*
X026458Y026469D01*
X026390Y026306D01*
X026322Y026469D01*
X026179Y026612D01*
X025991Y026690D01*
X025789Y026690D01*
X025601Y026612D01*
X025458Y026469D01*
X025390Y026306D01*
X025322Y026469D01*
X025179Y026612D01*
X024991Y026690D01*
X024789Y026690D01*
X025030Y026674D02*
X025750Y026674D01*
X026030Y026674D02*
X026750Y026674D01*
X027030Y026674D02*
X027389Y026674D01*
X027340Y026516D02*
X027276Y026516D01*
X027870Y026516D02*
X027910Y026516D01*
X027910Y026674D02*
X027870Y026674D01*
X027910Y026730D02*
X027910Y026200D01*
X028440Y026200D01*
X028440Y026574D01*
X028428Y026619D01*
X028404Y026661D01*
X028371Y026694D01*
X028329Y026718D01*
X028284Y026730D01*
X027910Y026730D01*
X027910Y026357D02*
X027870Y026357D01*
X027910Y026199D02*
X028710Y026199D01*
X028710Y026357D02*
X028440Y026357D01*
X028440Y026516D02*
X028710Y026516D01*
X028710Y026674D02*
X028391Y026674D01*
X028440Y026040D02*
X028710Y026040D01*
X028710Y025882D02*
X028440Y025882D01*
X028418Y025723D02*
X028710Y025723D01*
X028710Y025565D02*
X028440Y025565D01*
X028440Y025406D02*
X028710Y025406D01*
X028710Y025248D02*
X028440Y025248D01*
X028440Y025160D02*
X028440Y024786D01*
X028428Y024741D01*
X028404Y024699D01*
X028371Y024666D01*
X028329Y024642D01*
X028284Y024630D01*
X027910Y024630D01*
X027910Y025160D01*
X028440Y025160D01*
X028440Y025089D02*
X028710Y025089D01*
X028710Y024931D02*
X028440Y024931D01*
X028436Y024772D02*
X028710Y024772D01*
X028710Y024614D02*
X023980Y024614D01*
X023980Y024772D02*
X024577Y024772D01*
X024441Y024931D02*
X023980Y024931D01*
X023967Y025089D02*
X024380Y025089D01*
X024380Y025248D02*
X023874Y025248D01*
X023811Y025311D02*
X023811Y025311D01*
X023716Y025406D02*
X024432Y025406D01*
X024553Y025565D02*
X023481Y025565D01*
X024396Y026040D02*
X021884Y026040D01*
X021900Y026199D02*
X024380Y026199D01*
X024411Y026357D02*
X021869Y026357D01*
X021776Y026516D02*
X024504Y026516D01*
X025276Y026516D02*
X025504Y026516D01*
X025411Y026357D02*
X025369Y026357D01*
X026276Y026516D02*
X026504Y026516D01*
X026411Y026357D02*
X026369Y026357D01*
X027870Y026160D02*
X027870Y025730D01*
X027870Y025200D01*
X027910Y025200D01*
X027910Y026160D01*
X027870Y026160D01*
X027870Y026040D02*
X027910Y026040D01*
X027910Y025882D02*
X027870Y025882D01*
X027870Y025723D02*
X027910Y025723D01*
X027910Y025565D02*
X027870Y025565D01*
X027870Y025406D02*
X027910Y025406D01*
X027910Y025248D02*
X027870Y025248D01*
X027870Y025089D02*
X027910Y025089D01*
X027910Y024931D02*
X027870Y024931D01*
X027870Y024772D02*
X027910Y024772D01*
X027344Y024772D02*
X027203Y024772D01*
X027339Y024931D02*
X027340Y024931D01*
X026577Y024772D02*
X026203Y024772D01*
X026339Y024931D02*
X026441Y024931D01*
X025577Y024772D02*
X025203Y024772D01*
X025339Y024931D02*
X025441Y024931D01*
X024661Y025723D02*
X021619Y025723D01*
X021813Y025882D02*
X024467Y025882D01*
X023200Y024772D02*
X021703Y024772D01*
X021077Y024772D02*
X018900Y024772D01*
X018900Y024614D02*
X023200Y024614D01*
X023200Y024455D02*
X018849Y024455D01*
X018728Y024297D02*
X023200Y024297D01*
X023200Y024138D02*
X018610Y024138D01*
X018755Y023980D02*
X023200Y023980D01*
X023200Y023821D02*
X018860Y023821D01*
X018860Y023663D02*
X023200Y023663D01*
X023200Y023504D02*
X022820Y023504D01*
X022850Y023346D02*
X023200Y023346D01*
X023200Y023187D02*
X022765Y023187D01*
X022590Y023380D02*
X021090Y021880D01*
X021090Y019080D01*
X021350Y019066D02*
X022370Y019066D01*
X022370Y018908D02*
X021285Y018908D01*
X021312Y019225D02*
X022370Y019225D01*
X022370Y019383D02*
X021310Y019383D01*
X021310Y019542D02*
X022370Y019542D01*
X022370Y019700D02*
X021310Y019700D01*
X021310Y019859D02*
X022370Y019859D01*
X022370Y020017D02*
X021310Y020017D01*
X021310Y020176D02*
X022370Y020176D01*
X022370Y020334D02*
X021310Y020334D01*
X021310Y020493D02*
X022370Y020493D01*
X022370Y020651D02*
X021310Y020651D01*
X021310Y020810D02*
X022370Y020810D01*
X022370Y020968D02*
X021310Y020968D01*
X021310Y021127D02*
X022370Y021127D01*
X022370Y021285D02*
X021310Y021285D01*
X021310Y021444D02*
X022370Y021444D01*
X022370Y021602D02*
X021310Y021602D01*
X021310Y021761D02*
X022370Y021761D01*
X022370Y021919D02*
X021440Y021919D01*
X021599Y022078D02*
X022351Y022078D01*
X022332Y022236D02*
X021757Y022236D01*
X021916Y022395D02*
X022437Y022395D01*
X022630Y022553D02*
X022074Y022553D01*
X022233Y022712D02*
X022663Y022712D01*
X022391Y022870D02*
X023200Y022870D01*
X023200Y022712D02*
X023117Y022712D01*
X023200Y023029D02*
X022550Y023029D01*
X022244Y023346D02*
X018720Y023346D01*
X018860Y023504D02*
X022360Y023504D01*
X022086Y023187D02*
X016610Y023187D01*
X016610Y023029D02*
X021927Y023029D01*
X021769Y022870D02*
X016610Y022870D01*
X016610Y022712D02*
X021610Y022712D01*
X022590Y022180D02*
X022590Y003980D01*
X022330Y004009D02*
X020430Y004009D01*
X020588Y004167D02*
X022370Y004167D01*
X022370Y004326D02*
X022300Y004326D01*
X021680Y004326D02*
X021357Y004326D01*
X021500Y004469D02*
X021201Y004170D01*
X021008Y004170D01*
X021008Y004662D01*
X021500Y004662D01*
X021500Y004469D01*
X021500Y004484D02*
X021521Y004484D01*
X021520Y004643D02*
X021500Y004643D01*
X021500Y004698D02*
X021500Y004891D01*
X021201Y005190D01*
X021008Y005190D01*
X021008Y004698D01*
X021500Y004698D01*
X021500Y004801D02*
X021520Y004801D01*
X021605Y004960D02*
X021432Y004960D01*
X021273Y005118D02*
X021763Y005118D01*
X022217Y005118D02*
X022370Y005118D01*
X021008Y005118D02*
X020972Y005118D01*
X020972Y004960D02*
X021008Y004960D01*
X021008Y004801D02*
X020972Y004801D01*
X020972Y004643D02*
X021008Y004643D01*
X021008Y004484D02*
X020972Y004484D01*
X020972Y004326D02*
X021008Y004326D01*
X020490Y004380D02*
X020490Y005280D01*
X020270Y005118D02*
X020217Y005118D01*
X020490Y004380D02*
X018890Y002780D01*
X018890Y002680D01*
X018890Y001680D01*
X019360Y001631D02*
X022380Y001631D01*
X022380Y001473D02*
X019347Y001473D01*
X019189Y001314D02*
X022535Y001314D01*
X022380Y001790D02*
X019360Y001790D01*
X019287Y001948D02*
X022437Y001948D01*
X022595Y002107D02*
X019128Y002107D01*
X019140Y002265D02*
X022640Y002265D01*
X022482Y002424D02*
X019298Y002424D01*
X019360Y002582D02*
X022420Y002582D01*
X022420Y002741D02*
X019360Y002741D01*
X019336Y002899D02*
X022444Y002899D01*
X022603Y003058D02*
X019479Y003058D01*
X019637Y003216D02*
X024840Y003216D01*
X024890Y003375D02*
X019796Y003375D01*
X019954Y003533D02*
X022669Y003533D01*
X022630Y003692D02*
X020113Y003692D01*
X020271Y003850D02*
X022362Y003850D01*
X025370Y002741D02*
X025410Y002741D01*
X025410Y002582D02*
X025370Y002582D01*
X025370Y002424D02*
X025410Y002424D01*
X025772Y004484D02*
X029610Y004484D01*
X022370Y010032D02*
X014450Y010032D01*
X014291Y010190D02*
X022370Y010190D01*
X022370Y010349D02*
X021039Y010349D01*
X021070Y010507D02*
X022370Y010507D01*
X022370Y010666D02*
X021000Y010666D01*
X020790Y010480D02*
X018880Y012390D01*
X018220Y012390D01*
X017360Y013250D01*
X017360Y014480D01*
X017110Y014730D01*
X015390Y014730D01*
X014900Y015220D01*
X014900Y015540D01*
X014890Y015550D01*
X015218Y015262D02*
X015429Y015262D01*
X015339Y015421D02*
X015307Y015421D01*
X015328Y015104D02*
X017510Y015104D01*
X017510Y015262D02*
X016950Y015262D01*
X017040Y015421D02*
X017510Y015421D01*
X017510Y015579D02*
X017058Y015579D01*
X017016Y015738D02*
X017510Y015738D01*
X017510Y015896D02*
X016892Y015896D01*
X016353Y015896D02*
X016026Y015896D01*
X015910Y016055D02*
X017510Y016055D01*
X017510Y016213D02*
X015778Y016213D01*
X015620Y016372D02*
X017510Y016372D01*
X017510Y016530D02*
X016958Y016530D01*
X017043Y016689D02*
X017510Y016689D01*
X017510Y016847D02*
X017058Y016847D01*
X017012Y017006D02*
X017510Y017006D01*
X017510Y017164D02*
X016884Y017164D01*
X016361Y017164D02*
X016018Y017164D01*
X016146Y017006D02*
X016232Y017006D01*
X016201Y016689D02*
X016177Y016689D01*
X016092Y016530D02*
X016287Y016530D01*
X015690Y015990D02*
X015510Y016170D01*
X013090Y016170D01*
X012690Y015770D01*
X012690Y015380D01*
X012944Y015262D02*
X013303Y015262D01*
X013213Y015421D02*
X012970Y015421D01*
X012910Y015579D02*
X013195Y015579D01*
X013237Y015738D02*
X012969Y015738D01*
X013127Y015896D02*
X013361Y015896D01*
X012663Y016055D02*
X010737Y016055D01*
X010853Y015896D02*
X012505Y015896D01*
X012410Y015421D02*
X010835Y015421D01*
X010900Y015579D02*
X010900Y015781D01*
X010595Y016213D02*
X011580Y016213D01*
X011422Y016372D02*
X010803Y016372D01*
X010880Y016530D02*
X011350Y016530D01*
X011355Y016847D02*
X010873Y016847D01*
X010900Y016689D02*
X011860Y016689D01*
X011920Y016689D02*
X013170Y016689D01*
X013167Y016699D02*
X013190Y016627D01*
X013224Y016561D01*
X013268Y016500D01*
X013167Y016699D02*
X013155Y016773D01*
X013155Y016801D01*
X013622Y016801D01*
X013622Y016819D01*
X013155Y016819D01*
X013155Y016847D01*
X013196Y017006D02*
X012346Y017006D01*
X012174Y017164D02*
X013312Y017164D01*
X013622Y017164D02*
X013639Y017164D01*
X013622Y017006D02*
X013639Y017006D01*
X013622Y016847D02*
X013639Y016847D01*
X013948Y017164D02*
X014070Y017164D01*
X014064Y017006D02*
X014070Y017006D01*
X014290Y016680D02*
X014290Y017580D01*
X014390Y017680D01*
X015890Y017680D01*
X016390Y018180D01*
X017190Y018180D01*
X017433Y018274D02*
X017510Y018274D01*
X017510Y018432D02*
X017261Y018432D01*
X017119Y018432D02*
X010839Y018432D01*
X010900Y018591D02*
X017510Y018591D01*
X017510Y018749D02*
X016680Y018749D01*
X016601Y018670D02*
X016900Y018969D01*
X016900Y019180D01*
X016900Y019391D01*
X016601Y019690D01*
X016390Y019690D01*
X016390Y019180D01*
X016900Y019180D01*
X016390Y019180D01*
X016390Y019180D01*
X016390Y019180D01*
X016390Y018670D01*
X016601Y018670D01*
X016390Y018670D02*
X016390Y019180D01*
X016390Y019180D01*
X016390Y019180D01*
X015880Y019180D01*
X015880Y019391D01*
X016179Y019690D01*
X016390Y019690D01*
X016390Y019180D01*
X015880Y019180D01*
X015880Y018969D01*
X016179Y018670D01*
X016390Y018670D01*
X016390Y018749D02*
X016390Y018749D01*
X016390Y018908D02*
X016390Y018908D01*
X016390Y019066D02*
X016390Y019066D01*
X016390Y019225D02*
X016390Y019225D01*
X016390Y019383D02*
X016390Y019383D01*
X016390Y019542D02*
X016390Y019542D01*
X016750Y019542D02*
X017510Y019542D01*
X017510Y019700D02*
X010900Y019700D01*
X010885Y019542D02*
X012087Y019542D01*
X012195Y019650D02*
X011920Y019375D01*
X011920Y018985D01*
X012195Y018710D01*
X012585Y018710D01*
X012860Y018985D01*
X012860Y019375D01*
X012585Y019650D01*
X012195Y019650D01*
X012195Y019710D02*
X012585Y019710D01*
X012860Y019985D01*
X012860Y020375D01*
X012585Y020650D01*
X012195Y020650D01*
X011920Y020375D01*
X011920Y019985D01*
X012195Y019710D01*
X012047Y019859D02*
X010868Y019859D01*
X010774Y020017D02*
X011920Y020017D01*
X011920Y020176D02*
X010526Y020176D01*
X010765Y020334D02*
X011920Y020334D01*
X012038Y020493D02*
X010864Y020493D01*
X010900Y020651D02*
X015008Y020651D01*
X015166Y020493D02*
X012742Y020493D01*
X012860Y020334D02*
X015325Y020334D01*
X015483Y020176D02*
X012860Y020176D01*
X012860Y020017D02*
X015642Y020017D01*
X015790Y020180D02*
X016390Y020180D01*
X016860Y020176D02*
X017130Y020176D01*
X017161Y020334D02*
X016860Y020334D01*
X016742Y020493D02*
X017277Y020493D01*
X017379Y020810D02*
X016741Y020810D01*
X016899Y020968D02*
X017185Y020968D01*
X017130Y021127D02*
X016900Y021127D01*
X016900Y021285D02*
X017141Y021285D01*
X017228Y021444D02*
X016848Y021444D01*
X016390Y021444D02*
X016390Y021444D01*
X016390Y021602D02*
X016390Y021602D01*
X016145Y021761D02*
X014521Y021761D01*
X014362Y021919D02*
X015986Y021919D01*
X015920Y022078D02*
X014204Y022078D01*
X014045Y022236D02*
X015920Y022236D01*
X015940Y022395D02*
X013887Y022395D01*
X013728Y022553D02*
X016098Y022553D01*
X016170Y022712D02*
X013570Y022712D01*
X013411Y022870D02*
X016170Y022870D01*
X016170Y023029D02*
X013253Y023029D01*
X013195Y023210D02*
X013585Y023210D01*
X013860Y023485D01*
X013860Y023875D01*
X013585Y024150D01*
X013195Y024150D01*
X012920Y023875D01*
X012920Y023485D01*
X013195Y023210D01*
X013094Y023187D02*
X014162Y023187D01*
X014179Y023170D02*
X013880Y023469D01*
X013880Y023662D01*
X014372Y023662D01*
X014372Y023170D01*
X014179Y023170D01*
X014372Y023187D02*
X014408Y023187D01*
X014408Y023346D02*
X014372Y023346D01*
X014372Y023504D02*
X014408Y023504D01*
X014408Y023662D02*
X014408Y023698D01*
X014372Y023698D01*
X014372Y024190D01*
X014370Y024190D01*
X014370Y024660D01*
X014410Y024660D01*
X014410Y024700D01*
X015370Y024700D01*
X015370Y024660D01*
X015410Y024660D01*
X015410Y024190D01*
X015408Y024190D01*
X015408Y023698D01*
X015372Y023698D01*
X015372Y024190D01*
X015370Y024190D01*
X015370Y024660D01*
X014840Y024660D01*
X014410Y024660D01*
X014410Y024190D01*
X014408Y024190D01*
X014408Y023698D01*
X015372Y023698D01*
X015372Y023662D01*
X014880Y023662D01*
X014408Y023662D01*
X014408Y023663D02*
X015372Y023663D01*
X015408Y023663D02*
X015920Y023663D01*
X015900Y023662D02*
X015408Y023662D01*
X015408Y023170D01*
X015601Y023170D01*
X015900Y023469D01*
X015900Y023662D01*
X015900Y023504D02*
X015920Y023504D01*
X016060Y023346D02*
X015777Y023346D01*
X015618Y023187D02*
X016170Y023187D01*
X016390Y023680D02*
X016390Y022180D01*
X016860Y022236D02*
X017130Y022236D01*
X017139Y022078D02*
X016860Y022078D01*
X016794Y021919D02*
X017225Y021919D01*
X017186Y022395D02*
X016840Y022395D01*
X016682Y022553D02*
X017385Y022553D01*
X017195Y023210D02*
X017585Y023210D01*
X017860Y023485D01*
X017860Y023875D01*
X017585Y024150D01*
X017195Y024150D01*
X016920Y023875D01*
X016920Y023485D01*
X017195Y023210D01*
X017060Y023346D02*
X016720Y023346D01*
X016860Y023504D02*
X016920Y023504D01*
X016920Y023663D02*
X016860Y023663D01*
X016860Y023821D02*
X016920Y023821D01*
X017025Y023980D02*
X016780Y023980D01*
X016780Y024138D02*
X017183Y024138D01*
X017052Y024297D02*
X016780Y024297D01*
X016849Y024455D02*
X016931Y024455D01*
X017597Y024138D02*
X018170Y024138D01*
X018052Y024297D02*
X017728Y024297D01*
X017849Y024455D02*
X017931Y024455D01*
X018025Y023980D02*
X017755Y023980D01*
X017860Y023821D02*
X017920Y023821D01*
X017920Y023663D02*
X017860Y023663D01*
X017860Y023504D02*
X017920Y023504D01*
X018060Y023346D02*
X017720Y023346D01*
X018390Y023680D02*
X018390Y024680D01*
X018838Y024931D02*
X019988Y024931D01*
X019959Y024959D02*
X019959Y024959D01*
X019829Y025089D02*
X018702Y025089D01*
X020299Y025723D02*
X021161Y025723D01*
X020967Y025882D02*
X006780Y025882D01*
X006780Y026040D02*
X020896Y026040D01*
X020880Y026199D02*
X006780Y026199D01*
X006739Y026357D02*
X020911Y026357D01*
X021004Y026516D02*
X006606Y026516D01*
X006780Y025723D02*
X016881Y025723D01*
X016723Y025565D02*
X006780Y025565D01*
X006780Y025406D02*
X016564Y025406D01*
X016406Y025248D02*
X006780Y025248D01*
X006780Y025089D02*
X013078Y025089D01*
X012942Y024931D02*
X006750Y024931D01*
X006634Y024772D02*
X012880Y024772D01*
X012880Y024614D02*
X011668Y024614D01*
X011826Y024455D02*
X012931Y024455D01*
X013052Y024297D02*
X011985Y024297D01*
X012143Y024138D02*
X013183Y024138D01*
X013025Y023980D02*
X012302Y023980D01*
X012460Y023821D02*
X012920Y023821D01*
X012920Y023663D02*
X012619Y023663D01*
X012777Y023504D02*
X012920Y023504D01*
X012936Y023346D02*
X013060Y023346D01*
X012630Y023029D02*
X011053Y023029D01*
X011081Y023000D02*
X010728Y023353D01*
X010860Y023485D01*
X010860Y023875D01*
X010585Y024150D01*
X010195Y024150D01*
X009920Y023875D01*
X009920Y023485D01*
X010195Y023210D01*
X010249Y023210D01*
X010299Y023160D01*
X010899Y022560D01*
X011699Y022560D01*
X011920Y022339D01*
X011920Y021985D01*
X012195Y021710D01*
X012585Y021710D01*
X012860Y021985D01*
X012860Y022375D01*
X012585Y022650D01*
X012231Y022650D01*
X012010Y022871D01*
X011881Y023000D01*
X011081Y023000D01*
X010990Y022780D02*
X010390Y023380D01*
X010390Y023680D01*
X010060Y023346D02*
X009720Y023346D01*
X009585Y023210D02*
X009860Y023485D01*
X009860Y023875D01*
X009585Y024150D01*
X009195Y024150D01*
X008920Y023875D01*
X008920Y023485D01*
X009195Y023210D01*
X009585Y023210D01*
X009860Y023504D02*
X009920Y023504D01*
X009920Y023663D02*
X009860Y023663D01*
X009860Y023821D02*
X009920Y023821D01*
X010025Y023980D02*
X009755Y023980D01*
X009597Y024138D02*
X010183Y024138D01*
X010597Y024138D02*
X011183Y024138D01*
X011025Y023980D02*
X010755Y023980D01*
X010860Y023821D02*
X010920Y023821D01*
X010920Y023663D02*
X010860Y023663D01*
X010860Y023504D02*
X010920Y023504D01*
X011060Y023346D02*
X010736Y023346D01*
X010894Y023187D02*
X012472Y023187D01*
X012313Y023346D02*
X011720Y023346D01*
X011860Y023504D02*
X012155Y023504D01*
X011996Y023663D02*
X011860Y023663D01*
X012011Y022870D02*
X012789Y022870D01*
X012947Y022712D02*
X012170Y022712D01*
X011790Y022780D02*
X010990Y022780D01*
X010747Y022712D02*
X005900Y022712D01*
X005889Y022553D02*
X011706Y022553D01*
X011864Y022395D02*
X005824Y022395D01*
X005651Y022236D02*
X011920Y022236D01*
X011920Y022078D02*
X011714Y022078D01*
X011843Y021919D02*
X011986Y021919D01*
X011900Y021761D02*
X012145Y021761D01*
X012195Y021650D02*
X011920Y021375D01*
X011920Y020985D01*
X012195Y020710D01*
X012585Y020710D01*
X012860Y020985D01*
X012860Y021375D01*
X012585Y021650D01*
X012195Y021650D01*
X012147Y021602D02*
X011900Y021602D01*
X011844Y021444D02*
X011989Y021444D01*
X011920Y021285D02*
X011716Y021285D01*
X011920Y021127D02*
X010645Y021127D01*
X010716Y021285D02*
X011064Y021285D01*
X010936Y021444D02*
X010844Y021444D01*
X010823Y020968D02*
X011937Y020968D01*
X012096Y020810D02*
X010888Y020810D01*
X010843Y021919D02*
X010937Y021919D01*
X011066Y022078D02*
X010714Y022078D01*
X010066Y022078D02*
X009714Y022078D01*
X009843Y021919D02*
X009937Y021919D01*
X009066Y022078D02*
X008714Y022078D01*
X008843Y021919D02*
X008937Y021919D01*
X008066Y022078D02*
X007714Y022078D01*
X007843Y021919D02*
X007937Y021919D01*
X007066Y022078D02*
X006714Y022078D01*
X006843Y021919D02*
X006937Y021919D01*
X006066Y022078D02*
X005770Y022078D01*
X005885Y021919D02*
X005937Y021919D01*
X005410Y021602D02*
X005370Y021602D01*
X005370Y021444D02*
X005410Y021444D01*
X005410Y021285D02*
X005370Y021285D01*
X005370Y021127D02*
X005410Y021127D01*
X005410Y020968D02*
X005370Y020968D01*
X005370Y020810D02*
X005410Y020810D01*
X005370Y020660D02*
X004840Y020660D01*
X004840Y020637D01*
X004854Y020551D01*
X004880Y020469D01*
X004920Y020392D01*
X004970Y020322D01*
X005032Y020260D01*
X005102Y020210D01*
X005179Y020170D01*
X005261Y020144D01*
X005347Y020130D01*
X005370Y020130D01*
X005370Y020660D01*
X005370Y020651D02*
X005410Y020651D01*
X005410Y020493D02*
X005370Y020493D01*
X005370Y020334D02*
X005410Y020334D01*
X005410Y020176D02*
X005370Y020176D01*
X005169Y020176D02*
X002570Y020176D01*
X002570Y020334D02*
X004962Y020334D01*
X004873Y020493D02*
X002570Y020493D01*
X002570Y020651D02*
X004840Y020651D01*
X004854Y020810D02*
X002570Y020810D01*
X002570Y020968D02*
X004919Y020968D01*
X005069Y021127D02*
X002570Y021127D01*
X002570Y021285D02*
X005007Y021285D01*
X004893Y021444D02*
X002570Y021444D01*
X002570Y021602D02*
X004845Y021602D01*
X004846Y021761D02*
X002570Y021761D01*
X002570Y021919D02*
X004895Y021919D01*
X005010Y022078D02*
X002570Y022078D01*
X002570Y022236D02*
X005129Y022236D01*
X004401Y022395D02*
X002570Y022395D01*
X002570Y022553D02*
X004165Y022553D01*
X005533Y023187D02*
X010272Y023187D01*
X010430Y023029D02*
X005763Y023029D01*
X005863Y022870D02*
X010589Y022870D01*
X011790Y022780D02*
X012390Y022180D01*
X012860Y022236D02*
X013423Y022236D01*
X013581Y022078D02*
X012860Y022078D01*
X012794Y021919D02*
X013740Y021919D01*
X013898Y021761D02*
X012635Y021761D01*
X012633Y021602D02*
X014057Y021602D01*
X014215Y021444D02*
X012791Y021444D01*
X012860Y021285D02*
X014374Y021285D01*
X014532Y021127D02*
X012860Y021127D01*
X012843Y020968D02*
X014691Y020968D01*
X014849Y020810D02*
X012684Y020810D01*
X012733Y019859D02*
X016047Y019859D01*
X016733Y019859D02*
X017286Y019859D01*
X017165Y020017D02*
X016860Y020017D01*
X016900Y019383D02*
X017510Y019383D01*
X017510Y019225D02*
X016900Y019225D01*
X016900Y019066D02*
X017510Y019066D01*
X017510Y018908D02*
X016839Y018908D01*
X016100Y018749D02*
X012624Y018749D01*
X012782Y018908D02*
X015941Y018908D01*
X015880Y019066D02*
X012860Y019066D01*
X012860Y019225D02*
X015880Y019225D01*
X015880Y019383D02*
X012852Y019383D01*
X012693Y019542D02*
X016030Y019542D01*
X016172Y018274D02*
X010705Y018274D01*
X010672Y018115D02*
X016014Y018115D01*
X015855Y017957D02*
X010827Y017957D01*
X010893Y017798D02*
X014197Y017798D01*
X014070Y017640D02*
X010900Y017640D01*
X010860Y017481D02*
X014070Y017481D01*
X014070Y017323D02*
X010754Y017323D01*
X010554Y017164D02*
X011606Y017164D01*
X011434Y017006D02*
X010786Y017006D01*
X011860Y017006D02*
X011920Y017006D01*
X011920Y017164D02*
X011860Y017164D01*
X011860Y016847D02*
X011920Y016847D01*
X011920Y016530D02*
X011860Y016530D01*
X011860Y016372D02*
X011920Y016372D01*
X011920Y016213D02*
X011860Y016213D01*
X012200Y016213D02*
X012822Y016213D01*
X012980Y016372D02*
X012358Y016372D01*
X012436Y015262D02*
X010693Y015262D01*
X014229Y015262D02*
X014562Y015262D01*
X014705Y015104D02*
X014388Y015104D01*
X014321Y015170D02*
X014321Y015170D01*
X014450Y014945D02*
X014864Y014945D01*
X015022Y014787D02*
X014450Y014787D01*
X015690Y015616D02*
X015756Y015550D01*
X015690Y015616D02*
X015690Y015990D01*
X016150Y015738D02*
X016229Y015738D01*
X016205Y015421D02*
X016174Y015421D01*
X016084Y015262D02*
X016295Y015262D01*
X017206Y014945D02*
X017510Y014945D01*
X017510Y014787D02*
X017365Y014787D01*
X017140Y014153D02*
X016895Y014153D01*
X017017Y013994D02*
X017140Y013994D01*
X017140Y013836D02*
X017058Y013836D01*
X017038Y013677D02*
X017140Y013677D01*
X017140Y013519D02*
X016946Y013519D01*
X016298Y013519D02*
X016080Y013519D01*
X016172Y013677D02*
X016206Y013677D01*
X016227Y013994D02*
X016151Y013994D01*
X016029Y014153D02*
X016349Y014153D01*
X016341Y012885D02*
X016037Y012885D01*
X016154Y012726D02*
X016224Y012726D01*
X016210Y012409D02*
X016169Y012409D01*
X016072Y012251D02*
X016306Y012251D01*
X015186Y011141D02*
X014594Y011141D01*
X014752Y010983D02*
X015028Y010983D01*
X014920Y010824D02*
X014860Y010824D01*
X014860Y010666D02*
X014920Y010666D01*
X014920Y010507D02*
X014860Y010507D01*
X014723Y010349D02*
X015057Y010349D01*
X013986Y009873D02*
X010862Y009873D01*
X010900Y009715D02*
X014144Y009715D01*
X013827Y010032D02*
X010760Y010032D01*
X010540Y010190D02*
X013670Y010190D01*
X013057Y010349D02*
X012723Y010349D01*
X012860Y010485D02*
X012585Y010210D01*
X012195Y010210D01*
X011920Y010485D01*
X011920Y010875D01*
X012195Y011150D01*
X012585Y011150D01*
X012860Y010875D01*
X012860Y010485D01*
X012860Y010507D02*
X012920Y010507D01*
X012920Y010666D02*
X012860Y010666D01*
X012860Y010824D02*
X012920Y010824D01*
X013028Y010983D02*
X012752Y010983D01*
X012594Y011141D02*
X013186Y011141D01*
X013259Y011300D02*
X010731Y011300D01*
X010850Y011458D02*
X013101Y011458D01*
X012942Y011617D02*
X010900Y011617D01*
X010900Y011775D02*
X012784Y011775D01*
X012553Y011934D02*
X010837Y011934D01*
X010610Y011141D02*
X011186Y011141D01*
X011195Y011150D02*
X010920Y010875D01*
X010920Y010485D01*
X011195Y010210D01*
X011585Y010210D01*
X011860Y010485D01*
X011860Y010875D01*
X011585Y011150D01*
X011195Y011150D01*
X011028Y010983D02*
X010809Y010983D01*
X010882Y010824D02*
X010920Y010824D01*
X010920Y010666D02*
X010900Y010666D01*
X010920Y010507D02*
X010870Y010507D01*
X010780Y010349D02*
X011057Y010349D01*
X011723Y010349D02*
X012057Y010349D01*
X011920Y010507D02*
X011860Y010507D01*
X011860Y010666D02*
X011920Y010666D01*
X011920Y010824D02*
X011860Y010824D01*
X011752Y010983D02*
X012028Y010983D01*
X012186Y011141D02*
X011594Y011141D01*
X012196Y012251D02*
X012416Y012251D01*
X012964Y012251D02*
X013314Y012251D01*
X014040Y011141D02*
X014186Y011141D01*
X012146Y008922D02*
X010842Y008922D01*
X010900Y008764D02*
X012062Y008764D01*
X011904Y008605D02*
X010900Y008605D01*
X010845Y008447D02*
X011745Y008447D01*
X011670Y008288D02*
X010719Y008288D01*
X010637Y008130D02*
X011670Y008130D01*
X011670Y007971D02*
X010820Y007971D01*
X010887Y007813D02*
X011670Y007813D01*
X011670Y007654D02*
X010900Y007654D01*
X010866Y007496D02*
X011670Y007496D01*
X011670Y007337D02*
X010768Y007337D01*
X010519Y007179D02*
X011670Y007179D01*
X012110Y007496D02*
X017770Y007496D01*
X017770Y007654D02*
X012110Y007654D01*
X012110Y007813D02*
X017770Y007813D01*
X017770Y007971D02*
X012110Y007971D01*
X012110Y008130D02*
X017770Y008130D01*
X017770Y008288D02*
X012209Y008288D01*
X012368Y008447D02*
X017712Y008447D01*
X015009Y007020D02*
X014715Y007020D01*
X014860Y006862D02*
X014880Y006862D01*
X014880Y006703D02*
X014860Y006703D01*
X014860Y006545D02*
X014880Y006545D01*
X014963Y006386D02*
X014761Y006386D01*
X014602Y006228D02*
X015121Y006228D01*
X015217Y005118D02*
X015763Y005118D01*
X015605Y004960D02*
X015375Y004960D01*
X015460Y004801D02*
X015520Y004801D01*
X015520Y004643D02*
X015460Y004643D01*
X015459Y004484D02*
X015521Y004484D01*
X015424Y004326D02*
X015300Y004326D01*
X015490Y004080D02*
X014790Y004080D01*
X013390Y002680D01*
X013560Y003161D02*
X013491Y003190D01*
X013289Y003190D01*
X013156Y003135D01*
X014481Y004460D01*
X014545Y004460D01*
X014705Y004300D01*
X014699Y004300D01*
X014570Y004171D01*
X013560Y003161D01*
X013615Y003216D02*
X013237Y003216D01*
X013396Y003375D02*
X013773Y003375D01*
X013932Y003533D02*
X013554Y003533D01*
X013713Y003692D02*
X014090Y003692D01*
X014249Y003850D02*
X013871Y003850D01*
X014030Y004009D02*
X014407Y004009D01*
X014566Y004167D02*
X014188Y004167D01*
X014347Y004326D02*
X014680Y004326D01*
X014390Y004680D02*
X014990Y004680D01*
X014605Y004960D02*
X013775Y004960D01*
X013860Y004801D02*
X014200Y004801D01*
X014041Y004643D02*
X013860Y004643D01*
X013859Y004484D02*
X013883Y004484D01*
X013724Y004326D02*
X013700Y004326D01*
X013566Y004167D02*
X013188Y004167D01*
X013030Y004009D02*
X013407Y004009D01*
X013249Y003850D02*
X012871Y003850D01*
X012713Y003692D02*
X013090Y003692D01*
X012932Y003533D02*
X012554Y003533D01*
X012396Y003375D02*
X012773Y003375D01*
X012615Y003216D02*
X012237Y003216D01*
X011932Y003533D02*
X011554Y003533D01*
X011396Y003375D02*
X011773Y003375D01*
X011615Y003216D02*
X011237Y003216D01*
X010932Y003533D02*
X010554Y003533D01*
X010396Y003375D02*
X010773Y003375D01*
X010615Y003216D02*
X010237Y003216D01*
X010390Y002680D02*
X012390Y004680D01*
X012700Y004326D02*
X012724Y004326D01*
X012859Y004484D02*
X012883Y004484D01*
X012860Y004643D02*
X012920Y004643D01*
X012920Y004801D02*
X012860Y004801D01*
X012775Y004960D02*
X013005Y004960D01*
X013163Y005118D02*
X012617Y005118D01*
X012163Y005118D02*
X012139Y005118D01*
X012005Y004960D02*
X011981Y004960D01*
X011920Y004801D02*
X011860Y004801D01*
X011860Y004643D02*
X011920Y004643D01*
X011883Y004484D02*
X011859Y004484D01*
X011724Y004326D02*
X011700Y004326D01*
X011566Y004167D02*
X011188Y004167D01*
X011030Y004009D02*
X011407Y004009D01*
X011249Y003850D02*
X010871Y003850D01*
X010713Y003692D02*
X011090Y003692D01*
X011713Y003692D02*
X012090Y003692D01*
X012249Y003850D02*
X011871Y003850D01*
X012030Y004009D02*
X012407Y004009D01*
X012566Y004167D02*
X012188Y004167D01*
X011390Y004680D02*
X011370Y004700D01*
X011370Y005280D01*
X011140Y005510D01*
X009860Y005510D01*
X009390Y005040D01*
X009390Y004680D01*
X007390Y002680D01*
X008390Y002680D02*
X010390Y004680D01*
X010700Y004326D02*
X010724Y004326D01*
X010859Y004484D02*
X010883Y004484D01*
X010860Y004643D02*
X010920Y004643D01*
X010920Y004801D02*
X010860Y004801D01*
X010775Y004960D02*
X011005Y004960D01*
X011150Y005118D02*
X010617Y005118D01*
X010163Y005118D02*
X009779Y005118D01*
X009775Y004960D02*
X010005Y004960D01*
X009920Y004801D02*
X009860Y004801D01*
X009860Y004643D02*
X009920Y004643D01*
X009883Y004484D02*
X009859Y004484D01*
X009938Y005277D02*
X011062Y005277D01*
X011526Y005435D02*
X011834Y005435D01*
X011992Y005594D02*
X011368Y005594D01*
X011790Y006069D02*
X005722Y006069D01*
X005630Y006228D02*
X006150Y006228D01*
X005963Y006386D02*
X005817Y006386D01*
X005886Y006545D02*
X005894Y006545D01*
X005847Y005911D02*
X011948Y005911D01*
X012107Y005752D02*
X005900Y005752D01*
X005900Y005594D02*
X009632Y005594D01*
X009474Y005435D02*
X005841Y005435D01*
X005708Y005277D02*
X009315Y005277D01*
X009163Y005118D02*
X008617Y005118D01*
X008775Y004960D02*
X009005Y004960D01*
X008920Y004801D02*
X008860Y004801D01*
X008860Y004643D02*
X008920Y004643D01*
X008883Y004484D02*
X008859Y004484D01*
X008724Y004326D02*
X008700Y004326D01*
X008566Y004167D02*
X008188Y004167D01*
X008030Y004009D02*
X008407Y004009D01*
X008249Y003850D02*
X007871Y003850D01*
X007713Y003692D02*
X008090Y003692D01*
X007566Y004167D02*
X007188Y004167D01*
X007030Y004009D02*
X007407Y004009D01*
X007249Y003850D02*
X006871Y003850D01*
X006713Y003692D02*
X007090Y003692D01*
X006566Y004167D02*
X006188Y004167D01*
X006030Y004009D02*
X006407Y004009D01*
X006249Y003850D02*
X005871Y003850D01*
X005713Y003692D02*
X006090Y003692D01*
X005566Y004167D02*
X002570Y004167D01*
X002570Y004009D02*
X005407Y004009D01*
X005249Y003850D02*
X002570Y003850D01*
X002570Y003692D02*
X005090Y003692D01*
X005023Y004326D02*
X004757Y004326D01*
X004861Y004484D02*
X004919Y004484D01*
X005861Y004484D02*
X005883Y004484D01*
X005900Y004643D02*
X005920Y004643D01*
X005920Y004801D02*
X005892Y004801D01*
X005826Y004960D02*
X006005Y004960D01*
X006163Y005118D02*
X005665Y005118D01*
X006390Y004680D02*
X004390Y002680D01*
X004046Y003058D02*
X003790Y003058D01*
X003896Y002899D02*
X003929Y002899D01*
X003410Y002899D02*
X003370Y002899D01*
X003370Y002741D02*
X003410Y002741D01*
X003410Y003058D02*
X003370Y003058D01*
X003023Y004326D02*
X002570Y004326D01*
X002570Y004484D02*
X002919Y004484D01*
X002880Y004643D02*
X002570Y004643D01*
X002570Y004801D02*
X002888Y004801D01*
X002954Y004960D02*
X002570Y004960D01*
X002570Y005118D02*
X003115Y005118D01*
X003072Y005277D02*
X002570Y005277D01*
X002570Y005435D02*
X002939Y005435D01*
X002880Y005594D02*
X002570Y005594D01*
X002570Y005752D02*
X002880Y005752D01*
X002933Y005911D02*
X002570Y005911D01*
X002570Y006069D02*
X003058Y006069D01*
X003150Y006228D02*
X002570Y006228D01*
X002570Y006386D02*
X002963Y006386D01*
X002894Y006545D02*
X002570Y006545D01*
X002570Y006703D02*
X002880Y006703D01*
X002913Y006862D02*
X002570Y006862D01*
X002570Y007020D02*
X003009Y007020D01*
X003261Y007179D02*
X002570Y007179D01*
X002570Y007337D02*
X003012Y007337D01*
X002914Y007496D02*
X002570Y007496D01*
X002570Y007654D02*
X002880Y007654D01*
X002893Y007813D02*
X002570Y007813D01*
X002570Y007971D02*
X002960Y007971D01*
X003143Y008130D02*
X002570Y008130D01*
X002570Y008288D02*
X003061Y008288D01*
X002935Y008447D02*
X002570Y008447D01*
X002570Y008605D02*
X002880Y008605D01*
X002880Y008764D02*
X002570Y008764D01*
X002570Y008922D02*
X002938Y008922D01*
X003069Y009081D02*
X002570Y009081D01*
X002570Y009239D02*
X003122Y009239D01*
X002955Y009398D02*
X002570Y009398D01*
X002570Y009556D02*
X002889Y009556D01*
X002880Y009715D02*
X002570Y009715D01*
X002570Y009873D02*
X002918Y009873D01*
X003020Y010032D02*
X002570Y010032D01*
X002570Y010190D02*
X003240Y010190D01*
X003000Y010349D02*
X002570Y010349D01*
X002570Y010507D02*
X002910Y010507D01*
X002880Y010666D02*
X002570Y010666D01*
X002570Y010824D02*
X002898Y010824D01*
X002971Y010983D02*
X002570Y010983D01*
X002570Y011141D02*
X003170Y011141D01*
X003049Y011300D02*
X002570Y011300D01*
X002570Y011458D02*
X002930Y011458D01*
X002880Y011617D02*
X002570Y011617D01*
X002570Y011775D02*
X002880Y011775D01*
X002943Y011934D02*
X002570Y011934D01*
X002570Y012092D02*
X003081Y012092D01*
X003098Y012251D02*
X002570Y012251D01*
X002570Y012409D02*
X002950Y012409D01*
X002885Y012568D02*
X002570Y012568D01*
X002570Y012726D02*
X002880Y012726D01*
X002923Y012885D02*
X002570Y012885D01*
X002570Y013043D02*
X003032Y013043D01*
X003212Y013202D02*
X002570Y013202D01*
X002570Y013360D02*
X002989Y013360D01*
X002905Y013519D02*
X002570Y013519D01*
X002570Y013677D02*
X002880Y013677D01*
X002902Y013836D02*
X002570Y013836D01*
X002570Y013994D02*
X002983Y013994D01*
X003198Y014153D02*
X002570Y014153D01*
X002570Y014311D02*
X003038Y014311D01*
X002925Y014470D02*
X002570Y014470D01*
X002570Y014628D02*
X002880Y014628D01*
X002882Y014787D02*
X002570Y014787D01*
X002570Y014945D02*
X002948Y014945D01*
X003092Y015104D02*
X002570Y015104D01*
X002570Y015262D02*
X003087Y015262D01*
X002958Y015391D02*
X002880Y015579D01*
X002880Y015738D02*
X002570Y015738D01*
X002570Y015896D02*
X002927Y015896D01*
X003043Y016055D02*
X002570Y016055D01*
X002570Y016213D02*
X003185Y016213D01*
X002977Y016372D02*
X002570Y016372D01*
X002570Y016530D02*
X002900Y016530D01*
X002880Y016689D02*
X002570Y016689D01*
X002570Y016847D02*
X002907Y016847D01*
X002994Y017006D02*
X002570Y017006D01*
X002570Y017164D02*
X003226Y017164D01*
X003026Y017323D02*
X002570Y017323D01*
X002570Y017481D02*
X002920Y017481D01*
X002880Y017640D02*
X002570Y017640D01*
X002570Y017798D02*
X002887Y017798D01*
X002953Y017957D02*
X002570Y017957D01*
X002570Y018115D02*
X003108Y018115D01*
X003075Y018274D02*
X002570Y018274D01*
X002570Y018432D02*
X002941Y018432D01*
X002880Y018591D02*
X002570Y018591D01*
X002570Y018749D02*
X002880Y018749D01*
X002932Y018908D02*
X002570Y018908D01*
X002570Y019066D02*
X003055Y019066D01*
X002570Y019225D02*
X006157Y019225D01*
X006055Y019066D02*
X005725Y019066D01*
X005848Y018908D02*
X005932Y018908D01*
X005966Y019383D02*
X002570Y019383D01*
X002570Y019542D02*
X005895Y019542D01*
X005880Y019700D02*
X002570Y019700D01*
X002570Y019859D02*
X005912Y019859D01*
X006006Y020017D02*
X002570Y020017D01*
X003725Y019066D02*
X004055Y019066D01*
X003932Y018908D02*
X003848Y018908D01*
X004725Y019066D02*
X005055Y019066D01*
X004932Y018908D02*
X004848Y018908D01*
X005611Y020176D02*
X006254Y020176D01*
X006015Y020334D02*
X005818Y020334D01*
X005907Y020493D02*
X005916Y020493D01*
X006195Y023210D02*
X006585Y023210D01*
X006860Y023485D01*
X006860Y023875D01*
X006585Y024150D01*
X006195Y024150D01*
X005920Y023875D01*
X005920Y023485D01*
X006195Y023210D01*
X006060Y023346D02*
X005777Y023346D01*
X005869Y023504D02*
X005920Y023504D01*
X005920Y023663D02*
X005900Y023663D01*
X005884Y023821D02*
X005920Y023821D01*
X006025Y023980D02*
X005812Y023980D01*
X005617Y024138D02*
X006183Y024138D01*
X005962Y024297D02*
X005728Y024297D01*
X006109Y024772D02*
X006146Y024772D01*
X006597Y024138D02*
X007183Y024138D01*
X007195Y024150D02*
X006920Y023875D01*
X006920Y023485D01*
X007195Y023210D01*
X007585Y023210D01*
X007860Y023485D01*
X007860Y023875D01*
X007585Y024150D01*
X007195Y024150D01*
X007025Y023980D02*
X006755Y023980D01*
X006860Y023821D02*
X006920Y023821D01*
X006920Y023663D02*
X006860Y023663D01*
X006860Y023504D02*
X006920Y023504D01*
X007060Y023346D02*
X006720Y023346D01*
X007720Y023346D02*
X008060Y023346D01*
X008195Y023210D02*
X007920Y023485D01*
X007920Y023875D01*
X008195Y024150D01*
X008585Y024150D01*
X008860Y023875D01*
X008860Y023485D01*
X008585Y023210D01*
X008195Y023210D01*
X007920Y023504D02*
X007860Y023504D01*
X007860Y023663D02*
X007920Y023663D01*
X007920Y023821D02*
X007860Y023821D01*
X007755Y023980D02*
X008025Y023980D01*
X008183Y024138D02*
X007597Y024138D01*
X008597Y024138D02*
X009183Y024138D01*
X009025Y023980D02*
X008755Y023980D01*
X008860Y023821D02*
X008920Y023821D01*
X008920Y023663D02*
X008860Y023663D01*
X008860Y023504D02*
X008920Y023504D01*
X009060Y023346D02*
X008720Y023346D01*
X012682Y022553D02*
X013106Y022553D01*
X013264Y022395D02*
X012840Y022395D01*
X013720Y023346D02*
X014003Y023346D01*
X013880Y023504D02*
X013860Y023504D01*
X013860Y023663D02*
X014372Y023663D01*
X014372Y023821D02*
X014408Y023821D01*
X014408Y023980D02*
X014372Y023980D01*
X014372Y024138D02*
X014408Y024138D01*
X014410Y024297D02*
X014370Y024297D01*
X014370Y024455D02*
X014410Y024455D01*
X014410Y024614D02*
X014370Y024614D01*
X014370Y024772D02*
X014410Y024772D01*
X014410Y024931D02*
X014370Y024931D01*
X014370Y025089D02*
X014410Y025089D01*
X014759Y025089D02*
X015021Y025089D01*
X014900Y024931D02*
X014880Y024931D01*
X015370Y024931D02*
X015410Y024931D01*
X015410Y025089D02*
X015370Y025089D01*
X015370Y024772D02*
X015410Y024772D01*
X015410Y024614D02*
X015370Y024614D01*
X015370Y024455D02*
X015410Y024455D01*
X015410Y024297D02*
X015370Y024297D01*
X015372Y024138D02*
X015408Y024138D01*
X015408Y023980D02*
X015372Y023980D01*
X015372Y023821D02*
X015408Y023821D01*
X015408Y023504D02*
X015372Y023504D01*
X015372Y023346D02*
X015408Y023346D01*
X015408Y023187D02*
X015372Y023187D01*
X015162Y023187D02*
X014618Y023187D01*
X014777Y023346D02*
X015003Y023346D01*
X015900Y023821D02*
X015920Y023821D01*
X016000Y023980D02*
X015812Y023980D01*
X015653Y024138D02*
X016000Y024138D01*
X016000Y024297D02*
X015784Y024297D01*
X015893Y024455D02*
X015931Y024455D01*
X015942Y024931D02*
X015880Y024931D01*
X015759Y025089D02*
X016078Y025089D01*
X014021Y025089D02*
X013702Y025089D01*
X013838Y024931D02*
X013900Y024931D01*
X013887Y024455D02*
X013849Y024455D01*
X013728Y024297D02*
X013996Y024297D01*
X014127Y024138D02*
X013597Y024138D01*
X013755Y023980D02*
X013968Y023980D01*
X013880Y023821D02*
X013860Y023821D01*
X014679Y021602D02*
X016091Y021602D01*
X015932Y021444D02*
X014838Y021444D01*
X014996Y021285D02*
X015880Y021285D01*
X015880Y021127D02*
X015155Y021127D01*
X015313Y020968D02*
X015881Y020968D01*
X016390Y020968D02*
X016390Y020968D01*
X016390Y020810D02*
X016390Y020810D01*
X016390Y021127D02*
X016390Y021127D01*
X016390Y021285D02*
X016390Y021285D01*
X011928Y019383D02*
X010814Y019383D01*
X010623Y019225D02*
X011920Y019225D01*
X011920Y019066D02*
X010725Y019066D01*
X010848Y018908D02*
X011998Y018908D01*
X012156Y018749D02*
X010900Y018749D01*
X014510Y017323D02*
X017510Y017323D01*
X017510Y017481D02*
X016002Y017481D01*
X016161Y017640D02*
X017510Y017640D01*
X017510Y017798D02*
X016319Y017798D01*
X016478Y017957D02*
X017050Y017957D01*
X017330Y017957D02*
X017510Y017957D01*
X017510Y018115D02*
X017445Y018115D01*
X015495Y017164D02*
X015151Y017164D01*
X015280Y017006D02*
X015366Y017006D01*
X015335Y016689D02*
X015311Y016689D01*
X015226Y016530D02*
X015420Y016530D01*
X014629Y017164D02*
X014510Y017164D01*
X020902Y017006D02*
X022370Y017006D01*
X022370Y017164D02*
X021046Y017164D01*
X021112Y017323D02*
X022370Y017323D01*
X022370Y017481D02*
X021112Y017481D01*
X021062Y017640D02*
X022370Y017640D01*
X022370Y017798D02*
X020939Y017798D01*
X023980Y017798D02*
X029610Y017798D01*
X029610Y017640D02*
X023980Y017640D01*
X023980Y017481D02*
X029610Y017481D01*
X029610Y017323D02*
X023980Y017323D01*
X023980Y017164D02*
X029610Y017164D01*
X029710Y017006D02*
X023980Y017006D01*
X023980Y017957D02*
X029610Y017957D01*
X029610Y018115D02*
X023980Y018115D01*
X023980Y018274D02*
X029610Y018274D01*
X029610Y018432D02*
X023980Y018432D01*
X023980Y018591D02*
X029610Y018591D01*
X029610Y018749D02*
X023980Y018749D01*
X023980Y018908D02*
X029610Y018908D01*
X029610Y019066D02*
X023980Y019066D01*
X023980Y019225D02*
X029610Y019225D01*
X029610Y019383D02*
X027088Y019383D01*
X027104Y019399D02*
X027128Y019441D01*
X027140Y019486D01*
X027140Y019860D01*
X026610Y019860D01*
X026610Y019900D01*
X027140Y019900D01*
X027140Y020274D01*
X027128Y020319D01*
X027104Y020361D01*
X027071Y020394D01*
X027029Y020418D01*
X026984Y020430D01*
X026836Y020430D01*
X026879Y020448D01*
X027022Y020591D01*
X027100Y020779D01*
X027100Y020981D01*
X027022Y021169D01*
X026879Y021312D01*
X026716Y021380D01*
X026879Y021448D01*
X027022Y021591D01*
X027100Y021779D01*
X027100Y021981D01*
X027022Y022169D01*
X026879Y022312D01*
X026716Y022380D01*
X026879Y022448D01*
X027022Y022591D01*
X027100Y022779D01*
X027100Y022981D01*
X027022Y023169D01*
X026879Y023312D01*
X026691Y023390D01*
X026489Y023390D01*
X026301Y023312D01*
X026158Y023169D01*
X026080Y022981D01*
X026080Y022779D01*
X026158Y022591D01*
X026301Y022448D01*
X026464Y022380D01*
X026301Y022312D01*
X026158Y022169D01*
X026080Y021981D01*
X026080Y021779D01*
X026158Y021591D01*
X026301Y021448D01*
X026464Y021380D01*
X026301Y021312D01*
X026158Y021169D01*
X026080Y020981D01*
X026080Y020779D01*
X026158Y020591D01*
X026301Y020448D01*
X026344Y020430D01*
X026196Y020430D01*
X026151Y020418D01*
X026109Y020394D01*
X026076Y020361D01*
X026052Y020319D01*
X026040Y020274D01*
X026040Y019900D01*
X026570Y019900D01*
X026570Y019860D01*
X026040Y019860D01*
X026040Y019486D01*
X026052Y019441D01*
X026076Y019399D01*
X026109Y019366D01*
X026151Y019342D01*
X026196Y019330D01*
X026570Y019330D01*
X026570Y019860D01*
X026610Y019860D01*
X026610Y019330D01*
X026984Y019330D01*
X027029Y019342D01*
X027071Y019366D01*
X027104Y019399D01*
X027140Y019542D02*
X029610Y019542D01*
X029610Y019700D02*
X027140Y019700D01*
X027140Y019859D02*
X029610Y019859D01*
X029610Y020017D02*
X027140Y020017D01*
X027140Y020176D02*
X029610Y020176D01*
X029610Y020334D02*
X027119Y020334D01*
X026924Y020493D02*
X029610Y020493D01*
X029610Y020651D02*
X027047Y020651D01*
X027100Y020810D02*
X029610Y020810D01*
X029610Y020968D02*
X027100Y020968D01*
X027040Y021127D02*
X029610Y021127D01*
X029610Y021285D02*
X026906Y021285D01*
X026869Y021444D02*
X029610Y021444D01*
X029610Y021602D02*
X027027Y021602D01*
X027093Y021761D02*
X029610Y021761D01*
X029610Y021919D02*
X027100Y021919D01*
X027060Y022078D02*
X029610Y022078D01*
X029610Y022236D02*
X026955Y022236D01*
X026751Y022395D02*
X029610Y022395D01*
X029610Y022553D02*
X026984Y022553D01*
X027072Y022712D02*
X029610Y022712D01*
X029610Y022870D02*
X027100Y022870D01*
X027080Y023029D02*
X029610Y023029D01*
X029610Y023187D02*
X027004Y023187D01*
X026799Y023346D02*
X029610Y023346D01*
X028965Y023496D02*
X028965Y023496D01*
X028807Y023504D02*
X023980Y023504D01*
X023980Y023346D02*
X024697Y023346D01*
X024720Y023349D02*
X024642Y023337D01*
X024566Y023312D01*
X024495Y023276D01*
X024431Y023229D01*
X024375Y023173D01*
X024328Y023109D01*
X024292Y023038D01*
X024267Y022963D01*
X024255Y022884D01*
X024255Y022844D01*
X024255Y022805D01*
X024267Y022726D01*
X024292Y022650D01*
X024328Y022580D01*
X024375Y022515D01*
X024431Y022459D01*
X024495Y022412D01*
X024566Y022376D01*
X024642Y022352D01*
X024720Y022339D01*
X024760Y022339D01*
X024800Y022339D01*
X024878Y022352D01*
X024954Y022376D01*
X025025Y022412D01*
X025089Y022459D01*
X025145Y022515D01*
X025192Y022580D01*
X025228Y022650D01*
X025253Y022726D01*
X025265Y022805D01*
X025265Y022844D01*
X024760Y022844D01*
X024760Y022339D01*
X024760Y022844D01*
X024760Y022844D01*
X024255Y022844D01*
X024760Y022844D01*
X024760Y022844D01*
X024760Y022844D01*
X025265Y022844D01*
X025265Y022884D01*
X025253Y022963D01*
X025228Y023038D01*
X025192Y023109D01*
X025145Y023173D01*
X025089Y023229D01*
X025025Y023276D01*
X024954Y023312D01*
X024878Y023337D01*
X024800Y023349D01*
X024760Y023349D01*
X024720Y023349D01*
X024760Y023349D02*
X024760Y022844D01*
X024760Y022844D01*
X024760Y023349D01*
X024760Y023346D02*
X024760Y023346D01*
X024823Y023346D02*
X026381Y023346D01*
X026176Y023187D02*
X025131Y023187D01*
X025231Y023029D02*
X026100Y023029D01*
X026080Y022870D02*
X025265Y022870D01*
X025248Y022712D02*
X026108Y022712D01*
X026196Y022553D02*
X025173Y022553D01*
X024990Y022395D02*
X026429Y022395D01*
X026225Y022236D02*
X023980Y022236D01*
X023980Y022078D02*
X026120Y022078D01*
X026080Y021919D02*
X023980Y021919D01*
X023980Y021761D02*
X026087Y021761D01*
X026153Y021602D02*
X023980Y021602D01*
X023980Y021444D02*
X026311Y021444D01*
X026274Y021285D02*
X024987Y021285D01*
X025023Y021270D02*
X024852Y021341D01*
X024668Y021341D01*
X024497Y021270D01*
X024366Y021139D01*
X024295Y020968D01*
X023980Y020968D01*
X023980Y020810D02*
X024295Y020810D01*
X024295Y020783D02*
X024366Y020612D01*
X024497Y020482D01*
X024668Y020411D01*
X024852Y020411D01*
X025023Y020482D01*
X025154Y020612D01*
X025225Y020783D01*
X025225Y020968D01*
X026080Y020968D01*
X026080Y020810D02*
X025225Y020810D01*
X025225Y020968D02*
X025154Y021139D01*
X025023Y021270D01*
X025159Y021127D02*
X026140Y021127D01*
X026133Y020651D02*
X025170Y020651D01*
X025034Y020493D02*
X026256Y020493D01*
X026061Y020334D02*
X023980Y020334D01*
X023980Y020176D02*
X026040Y020176D01*
X026040Y020017D02*
X023980Y020017D01*
X023980Y019859D02*
X026040Y019859D01*
X026040Y019700D02*
X023980Y019700D01*
X023980Y019542D02*
X026040Y019542D01*
X026092Y019383D02*
X023980Y019383D01*
X023980Y020493D02*
X024486Y020493D01*
X024350Y020651D02*
X023980Y020651D01*
X024295Y020783D02*
X024295Y020968D01*
X024361Y021127D02*
X023980Y021127D01*
X023980Y021285D02*
X024533Y021285D01*
X024530Y022395D02*
X023980Y022395D01*
X023980Y022553D02*
X024347Y022553D01*
X024272Y022712D02*
X023980Y022712D01*
X023980Y022870D02*
X024255Y022870D01*
X024289Y023029D02*
X023980Y023029D01*
X023980Y023187D02*
X024389Y023187D01*
X024760Y023187D02*
X024760Y023187D01*
X024760Y023029D02*
X024760Y023029D01*
X024760Y022870D02*
X024760Y022870D01*
X024760Y022712D02*
X024760Y022712D01*
X024760Y022553D02*
X024760Y022553D01*
X024760Y022395D02*
X024760Y022395D01*
X023980Y023663D02*
X028710Y023663D01*
X028710Y023821D02*
X023980Y023821D01*
X023980Y023980D02*
X028710Y023980D01*
X028710Y024138D02*
X023980Y024138D01*
X023980Y024297D02*
X028710Y024297D01*
X028710Y024455D02*
X023980Y024455D01*
X020321Y025701D02*
X020321Y025701D01*
X026570Y019859D02*
X026610Y019859D01*
X026610Y019700D02*
X026570Y019700D01*
X026570Y019542D02*
X026610Y019542D01*
X026610Y019383D02*
X026570Y019383D01*
X023980Y015579D02*
X031280Y015579D01*
X031280Y015421D02*
X023980Y015421D01*
X023980Y015262D02*
X031280Y015262D01*
X031280Y015104D02*
X023980Y015104D01*
X023980Y014945D02*
X031280Y014945D01*
X031280Y014787D02*
X023980Y014787D01*
X032106Y011775D02*
X032969Y011775D01*
X019166Y004167D02*
X018988Y004167D01*
X019007Y004009D02*
X018830Y004009D01*
X018849Y003850D02*
X018671Y003850D01*
X018690Y003692D02*
X018513Y003692D01*
X018420Y002741D02*
X018362Y002741D01*
X018420Y002582D02*
X018203Y002582D01*
X016890Y004680D02*
X015990Y003780D01*
X015490Y003780D01*
X014390Y002680D01*
X015490Y004080D02*
X015990Y004580D01*
X015990Y004680D01*
X016460Y004643D02*
X016520Y004643D01*
X016520Y004801D02*
X016460Y004801D01*
X016375Y004960D02*
X016605Y004960D01*
X016763Y005118D02*
X016217Y005118D01*
X016890Y004680D02*
X016990Y004680D01*
X014763Y005118D02*
X013617Y005118D01*
X013390Y004680D02*
X011390Y002680D01*
X012390Y002680D02*
X014390Y004680D01*
X013121Y006228D02*
X012602Y006228D01*
X012761Y006386D02*
X012963Y006386D01*
X012880Y006545D02*
X012860Y006545D01*
X012860Y006703D02*
X012880Y006703D01*
X012880Y006862D02*
X012860Y006862D01*
X012715Y007020D02*
X013009Y007020D01*
X011670Y006228D02*
X011602Y006228D01*
X011390Y006480D02*
X011390Y006680D01*
X010920Y006703D02*
X010900Y006703D01*
X010886Y006545D02*
X010920Y006545D01*
X011019Y006386D02*
X010817Y006386D01*
X010630Y006228D02*
X011178Y006228D01*
X010920Y006862D02*
X010867Y006862D01*
X010771Y007020D02*
X011065Y007020D01*
X010150Y006228D02*
X009630Y006228D01*
X009817Y006386D02*
X009963Y006386D01*
X009894Y006545D02*
X009886Y006545D01*
X009150Y006228D02*
X008630Y006228D01*
X008817Y006386D02*
X008963Y006386D01*
X008894Y006545D02*
X008886Y006545D01*
X008150Y006228D02*
X007630Y006228D01*
X007817Y006386D02*
X007963Y006386D01*
X007894Y006545D02*
X007886Y006545D01*
X007150Y006228D02*
X006630Y006228D01*
X006817Y006386D02*
X006963Y006386D01*
X006894Y006545D02*
X006886Y006545D01*
X006617Y005118D02*
X007163Y005118D01*
X007005Y004960D02*
X006775Y004960D01*
X006860Y004801D02*
X006920Y004801D01*
X006920Y004643D02*
X006860Y004643D01*
X006859Y004484D02*
X006883Y004484D01*
X006724Y004326D02*
X006700Y004326D01*
X007390Y004680D02*
X005390Y002680D01*
X006390Y002680D02*
X008390Y004680D01*
X007920Y004643D02*
X007860Y004643D01*
X007860Y004801D02*
X007920Y004801D01*
X008005Y004960D02*
X007775Y004960D01*
X007617Y005118D02*
X008163Y005118D01*
X007883Y004484D02*
X007859Y004484D01*
X007724Y004326D02*
X007700Y004326D01*
X004023Y004326D02*
X003757Y004326D01*
X003861Y004484D02*
X003919Y004484D01*
X011590Y005277D02*
X011675Y005277D01*
D22*
X018790Y022080D03*
X006390Y025080D03*
D23*
X004790Y025180D03*
X003690Y025080D03*
X007090Y026680D03*
X008590Y025280D03*
X010990Y025280D03*
X012690Y024080D03*
X010890Y022380D03*
X009890Y022780D03*
X008890Y022780D03*
X007890Y022780D03*
X006890Y022780D03*
X003690Y021880D03*
X013390Y020680D03*
X013290Y018180D03*
X012690Y015380D03*
X017190Y016180D03*
X018690Y018180D03*
X021790Y016280D03*
X024390Y015680D03*
X024390Y017180D03*
X027390Y019280D03*
X024790Y021480D03*
X020690Y023280D03*
X019390Y023780D03*
X019390Y024680D03*
X028890Y017180D03*
X028890Y015680D03*
X028890Y014180D03*
X028890Y012680D03*
X028890Y011180D03*
X027490Y010980D03*
X025990Y011680D03*
X024690Y011980D03*
X021290Y013380D03*
X020790Y010480D03*
X016990Y011580D03*
X015090Y011880D03*
X012690Y012180D03*
X012390Y011680D03*
X012390Y008780D03*
X013390Y007680D03*
X014890Y006280D03*
X014090Y004980D03*
X014490Y004380D03*
X012790Y005880D03*
X010790Y005180D03*
X008790Y005780D03*
X018990Y005780D03*
X019790Y006680D03*
X021390Y006680D03*
X023590Y005380D03*
X027290Y008080D03*
X028890Y006880D03*
X028890Y005380D03*
X028890Y009680D03*
X018990Y003280D03*
X019890Y002680D03*
X019890Y001680D03*
D24*
X022590Y003980D03*
X022890Y003680D03*
X014290Y016680D03*
X017190Y018180D03*
X021090Y019080D03*
X022590Y022180D03*
X022890Y022580D03*
X022590Y023380D03*
M02*
