G75*
G70*
%OFA0B0*%
%FSLAX24Y24*%
%IPPOS*%
%LPD*%
%AMOC8*
5,1,8,0,0,1.08239X$1,22.5*
%
%ADD10C,0.0000*%
%ADD11C,0.1040*%
%ADD12C,0.0473*%
%ADD13C,0.0670*%
%ADD14OC8,0.0700*%
%ADD15C,0.0560*%
%ADD16C,0.0690*%
%ADD17C,0.0631*%
%ADD18R,0.0780X0.0780*%
%ADD19C,0.0780*%
%ADD20C,0.0800*%
%ADD21C,0.0600*%
%ADD22C,0.1306*%
D10*
X002390Y000680D02*
X002390Y027176D01*
X028890Y027180D01*
X028890Y023676D01*
X029790Y023680D01*
X029790Y017180D01*
X034890Y017180D01*
X034890Y010380D01*
X029790Y010380D01*
X029790Y004180D01*
X028890Y004180D01*
X028890Y000680D01*
X002390Y000680D01*
X020400Y009113D02*
X020402Y009142D01*
X020408Y009170D01*
X020417Y009198D01*
X020430Y009224D01*
X020447Y009247D01*
X020466Y009269D01*
X020488Y009288D01*
X020513Y009303D01*
X020539Y009316D01*
X020567Y009324D01*
X020595Y009329D01*
X020624Y009330D01*
X020653Y009327D01*
X020681Y009320D01*
X020708Y009310D01*
X020734Y009296D01*
X020757Y009279D01*
X020778Y009259D01*
X020796Y009236D01*
X020811Y009211D01*
X020822Y009184D01*
X020830Y009156D01*
X020834Y009127D01*
X020834Y009099D01*
X020830Y009070D01*
X020822Y009042D01*
X020811Y009015D01*
X020796Y008990D01*
X020778Y008967D01*
X020757Y008947D01*
X020734Y008930D01*
X020708Y008916D01*
X020681Y008906D01*
X020653Y008899D01*
X020624Y008896D01*
X020595Y008897D01*
X020567Y008902D01*
X020539Y008910D01*
X020513Y008923D01*
X020488Y008938D01*
X020466Y008957D01*
X020447Y008979D01*
X020430Y009002D01*
X020417Y009028D01*
X020408Y009056D01*
X020402Y009084D01*
X020400Y009113D01*
X026890Y006680D02*
X026892Y006724D01*
X026898Y006768D01*
X026908Y006811D01*
X026921Y006853D01*
X026938Y006894D01*
X026959Y006933D01*
X026983Y006970D01*
X027010Y007005D01*
X027040Y007037D01*
X027073Y007067D01*
X027109Y007093D01*
X027146Y007117D01*
X027186Y007136D01*
X027227Y007153D01*
X027270Y007165D01*
X027313Y007174D01*
X027357Y007179D01*
X027401Y007180D01*
X027445Y007177D01*
X027489Y007170D01*
X027532Y007159D01*
X027574Y007145D01*
X027614Y007127D01*
X027653Y007105D01*
X027689Y007081D01*
X027723Y007053D01*
X027755Y007022D01*
X027784Y006988D01*
X027810Y006952D01*
X027832Y006914D01*
X027851Y006874D01*
X027866Y006832D01*
X027878Y006790D01*
X027886Y006746D01*
X027890Y006702D01*
X027890Y006658D01*
X027886Y006614D01*
X027878Y006570D01*
X027866Y006528D01*
X027851Y006486D01*
X027832Y006446D01*
X027810Y006408D01*
X027784Y006372D01*
X027755Y006338D01*
X027723Y006307D01*
X027689Y006279D01*
X027653Y006255D01*
X027614Y006233D01*
X027574Y006215D01*
X027532Y006201D01*
X027489Y006190D01*
X027445Y006183D01*
X027401Y006180D01*
X027357Y006181D01*
X027313Y006186D01*
X027270Y006195D01*
X027227Y006207D01*
X027186Y006224D01*
X027146Y006243D01*
X027109Y006267D01*
X027073Y006293D01*
X027040Y006323D01*
X027010Y006355D01*
X026983Y006390D01*
X026959Y006427D01*
X026938Y006466D01*
X026921Y006507D01*
X026908Y006549D01*
X026898Y006592D01*
X026892Y006636D01*
X026890Y006680D01*
X026890Y005180D02*
X026892Y005224D01*
X026898Y005268D01*
X026908Y005311D01*
X026921Y005353D01*
X026938Y005394D01*
X026959Y005433D01*
X026983Y005470D01*
X027010Y005505D01*
X027040Y005537D01*
X027073Y005567D01*
X027109Y005593D01*
X027146Y005617D01*
X027186Y005636D01*
X027227Y005653D01*
X027270Y005665D01*
X027313Y005674D01*
X027357Y005679D01*
X027401Y005680D01*
X027445Y005677D01*
X027489Y005670D01*
X027532Y005659D01*
X027574Y005645D01*
X027614Y005627D01*
X027653Y005605D01*
X027689Y005581D01*
X027723Y005553D01*
X027755Y005522D01*
X027784Y005488D01*
X027810Y005452D01*
X027832Y005414D01*
X027851Y005374D01*
X027866Y005332D01*
X027878Y005290D01*
X027886Y005246D01*
X027890Y005202D01*
X027890Y005158D01*
X027886Y005114D01*
X027878Y005070D01*
X027866Y005028D01*
X027851Y004986D01*
X027832Y004946D01*
X027810Y004908D01*
X027784Y004872D01*
X027755Y004838D01*
X027723Y004807D01*
X027689Y004779D01*
X027653Y004755D01*
X027614Y004733D01*
X027574Y004715D01*
X027532Y004701D01*
X027489Y004690D01*
X027445Y004683D01*
X027401Y004680D01*
X027357Y004681D01*
X027313Y004686D01*
X027270Y004695D01*
X027227Y004707D01*
X027186Y004724D01*
X027146Y004743D01*
X027109Y004767D01*
X027073Y004793D01*
X027040Y004823D01*
X027010Y004855D01*
X026983Y004890D01*
X026959Y004927D01*
X026938Y004966D01*
X026921Y005007D01*
X026908Y005049D01*
X026898Y005092D01*
X026892Y005136D01*
X026890Y005180D01*
X026890Y003680D02*
X026892Y003724D01*
X026898Y003768D01*
X026908Y003811D01*
X026921Y003853D01*
X026938Y003894D01*
X026959Y003933D01*
X026983Y003970D01*
X027010Y004005D01*
X027040Y004037D01*
X027073Y004067D01*
X027109Y004093D01*
X027146Y004117D01*
X027186Y004136D01*
X027227Y004153D01*
X027270Y004165D01*
X027313Y004174D01*
X027357Y004179D01*
X027401Y004180D01*
X027445Y004177D01*
X027489Y004170D01*
X027532Y004159D01*
X027574Y004145D01*
X027614Y004127D01*
X027653Y004105D01*
X027689Y004081D01*
X027723Y004053D01*
X027755Y004022D01*
X027784Y003988D01*
X027810Y003952D01*
X027832Y003914D01*
X027851Y003874D01*
X027866Y003832D01*
X027878Y003790D01*
X027886Y003746D01*
X027890Y003702D01*
X027890Y003658D01*
X027886Y003614D01*
X027878Y003570D01*
X027866Y003528D01*
X027851Y003486D01*
X027832Y003446D01*
X027810Y003408D01*
X027784Y003372D01*
X027755Y003338D01*
X027723Y003307D01*
X027689Y003279D01*
X027653Y003255D01*
X027614Y003233D01*
X027574Y003215D01*
X027532Y003201D01*
X027489Y003190D01*
X027445Y003183D01*
X027401Y003180D01*
X027357Y003181D01*
X027313Y003186D01*
X027270Y003195D01*
X027227Y003207D01*
X027186Y003224D01*
X027146Y003243D01*
X027109Y003267D01*
X027073Y003293D01*
X027040Y003323D01*
X027010Y003355D01*
X026983Y003390D01*
X026959Y003427D01*
X026938Y003466D01*
X026921Y003507D01*
X026908Y003549D01*
X026898Y003592D01*
X026892Y003636D01*
X026890Y003680D01*
X026890Y002180D02*
X026892Y002224D01*
X026898Y002268D01*
X026908Y002311D01*
X026921Y002353D01*
X026938Y002394D01*
X026959Y002433D01*
X026983Y002470D01*
X027010Y002505D01*
X027040Y002537D01*
X027073Y002567D01*
X027109Y002593D01*
X027146Y002617D01*
X027186Y002636D01*
X027227Y002653D01*
X027270Y002665D01*
X027313Y002674D01*
X027357Y002679D01*
X027401Y002680D01*
X027445Y002677D01*
X027489Y002670D01*
X027532Y002659D01*
X027574Y002645D01*
X027614Y002627D01*
X027653Y002605D01*
X027689Y002581D01*
X027723Y002553D01*
X027755Y002522D01*
X027784Y002488D01*
X027810Y002452D01*
X027832Y002414D01*
X027851Y002374D01*
X027866Y002332D01*
X027878Y002290D01*
X027886Y002246D01*
X027890Y002202D01*
X027890Y002158D01*
X027886Y002114D01*
X027878Y002070D01*
X027866Y002028D01*
X027851Y001986D01*
X027832Y001946D01*
X027810Y001908D01*
X027784Y001872D01*
X027755Y001838D01*
X027723Y001807D01*
X027689Y001779D01*
X027653Y001755D01*
X027614Y001733D01*
X027574Y001715D01*
X027532Y001701D01*
X027489Y001690D01*
X027445Y001683D01*
X027401Y001680D01*
X027357Y001681D01*
X027313Y001686D01*
X027270Y001695D01*
X027227Y001707D01*
X027186Y001724D01*
X027146Y001743D01*
X027109Y001767D01*
X027073Y001793D01*
X027040Y001823D01*
X027010Y001855D01*
X026983Y001890D01*
X026959Y001927D01*
X026938Y001966D01*
X026921Y002007D01*
X026908Y002049D01*
X026898Y002092D01*
X026892Y002136D01*
X026890Y002180D01*
X033512Y012894D02*
X033514Y012923D01*
X033520Y012951D01*
X033529Y012979D01*
X033542Y013005D01*
X033559Y013028D01*
X033578Y013050D01*
X033600Y013069D01*
X033625Y013084D01*
X033651Y013097D01*
X033679Y013105D01*
X033707Y013110D01*
X033736Y013111D01*
X033765Y013108D01*
X033793Y013101D01*
X033820Y013091D01*
X033846Y013077D01*
X033869Y013060D01*
X033890Y013040D01*
X033908Y013017D01*
X033923Y012992D01*
X033934Y012965D01*
X033942Y012937D01*
X033946Y012908D01*
X033946Y012880D01*
X033942Y012851D01*
X033934Y012823D01*
X033923Y012796D01*
X033908Y012771D01*
X033890Y012748D01*
X033869Y012728D01*
X033846Y012711D01*
X033820Y012697D01*
X033793Y012687D01*
X033765Y012680D01*
X033736Y012677D01*
X033707Y012678D01*
X033679Y012683D01*
X033651Y012691D01*
X033625Y012704D01*
X033600Y012719D01*
X033578Y012738D01*
X033559Y012760D01*
X033542Y012783D01*
X033529Y012809D01*
X033520Y012837D01*
X033514Y012865D01*
X033512Y012894D01*
X033512Y014666D02*
X033514Y014695D01*
X033520Y014723D01*
X033529Y014751D01*
X033542Y014777D01*
X033559Y014800D01*
X033578Y014822D01*
X033600Y014841D01*
X033625Y014856D01*
X033651Y014869D01*
X033679Y014877D01*
X033707Y014882D01*
X033736Y014883D01*
X033765Y014880D01*
X033793Y014873D01*
X033820Y014863D01*
X033846Y014849D01*
X033869Y014832D01*
X033890Y014812D01*
X033908Y014789D01*
X033923Y014764D01*
X033934Y014737D01*
X033942Y014709D01*
X033946Y014680D01*
X033946Y014652D01*
X033942Y014623D01*
X033934Y014595D01*
X033923Y014568D01*
X033908Y014543D01*
X033890Y014520D01*
X033869Y014500D01*
X033846Y014483D01*
X033820Y014469D01*
X033793Y014459D01*
X033765Y014452D01*
X033736Y014449D01*
X033707Y014450D01*
X033679Y014455D01*
X033651Y014463D01*
X033625Y014476D01*
X033600Y014491D01*
X033578Y014510D01*
X033559Y014532D01*
X033542Y014555D01*
X033529Y014581D01*
X033520Y014609D01*
X033514Y014637D01*
X033512Y014666D01*
X020302Y017420D02*
X020304Y017455D01*
X020310Y017490D01*
X020320Y017524D01*
X020333Y017557D01*
X020350Y017588D01*
X020371Y017616D01*
X020394Y017643D01*
X020421Y017666D01*
X020449Y017687D01*
X020480Y017704D01*
X020513Y017717D01*
X020547Y017727D01*
X020582Y017733D01*
X020617Y017735D01*
X020652Y017733D01*
X020687Y017727D01*
X020721Y017717D01*
X020754Y017704D01*
X020785Y017687D01*
X020813Y017666D01*
X020840Y017643D01*
X020863Y017616D01*
X020884Y017588D01*
X020901Y017557D01*
X020914Y017524D01*
X020924Y017490D01*
X020930Y017455D01*
X020932Y017420D01*
X020930Y017385D01*
X020924Y017350D01*
X020914Y017316D01*
X020901Y017283D01*
X020884Y017252D01*
X020863Y017224D01*
X020840Y017197D01*
X020813Y017174D01*
X020785Y017153D01*
X020754Y017136D01*
X020721Y017123D01*
X020687Y017113D01*
X020652Y017107D01*
X020617Y017105D01*
X020582Y017107D01*
X020547Y017113D01*
X020513Y017123D01*
X020480Y017136D01*
X020449Y017153D01*
X020421Y017174D01*
X020394Y017197D01*
X020371Y017224D01*
X020350Y017252D01*
X020333Y017283D01*
X020320Y017316D01*
X020310Y017350D01*
X020304Y017385D01*
X020302Y017420D01*
D11*
X027390Y006680D03*
X027390Y005180D03*
X027390Y003680D03*
X027390Y002180D03*
D12*
X020617Y009113D03*
X033729Y012894D03*
X033729Y014666D03*
D13*
X020617Y017420D03*
D14*
X016390Y019180D03*
X016390Y020180D03*
X016390Y021180D03*
X016390Y022180D03*
X016390Y023680D03*
X017390Y023680D03*
X018390Y023680D03*
X015390Y023680D03*
X014390Y023680D03*
X013390Y023680D03*
X012390Y022180D03*
X012390Y021180D03*
X012390Y020180D03*
X012390Y019180D03*
X011390Y023680D03*
X010390Y023680D03*
X009390Y023680D03*
X008390Y023680D03*
X007390Y023680D03*
X006390Y023680D03*
X011390Y010680D03*
X012390Y010680D03*
X013390Y010680D03*
X014390Y010680D03*
X015390Y010680D03*
X016390Y010680D03*
X017390Y010680D03*
X017390Y006680D03*
X016390Y006680D03*
X015390Y006680D03*
X014390Y006680D03*
X013390Y006680D03*
X012390Y006680D03*
X011390Y006680D03*
X011390Y004680D03*
X010390Y004680D03*
X009390Y004680D03*
X008390Y004680D03*
X007390Y004680D03*
X006390Y004680D03*
X012390Y004680D03*
X013390Y004680D03*
X014990Y004680D03*
X015990Y004680D03*
X016990Y004680D03*
X017990Y004680D03*
X018990Y004680D03*
X019990Y004680D03*
X020990Y004680D03*
X021990Y004680D03*
X022890Y002680D03*
X022890Y001680D03*
X018890Y001680D03*
X018890Y002680D03*
D15*
X018050Y020180D02*
X017530Y020180D01*
X017530Y021180D02*
X018050Y021180D01*
X018050Y022180D02*
X017530Y022180D01*
D16*
X024760Y022844D03*
X024760Y020876D03*
X017900Y013654D03*
X017900Y011686D03*
D17*
X016622Y012550D03*
X015756Y012550D03*
X014890Y012550D03*
X013630Y012550D03*
X013630Y013810D03*
X014890Y013810D03*
X015756Y013810D03*
X016622Y013810D03*
X016622Y015550D03*
X015756Y015550D03*
X014890Y015550D03*
X013630Y015550D03*
X013630Y016810D03*
X014890Y016810D03*
X015756Y016810D03*
X016622Y016810D03*
D18*
X026590Y019880D03*
X031790Y015180D03*
X027890Y025180D03*
X027890Y026180D03*
X025390Y002880D03*
D19*
X025390Y003880D03*
X025390Y004880D03*
X025390Y005880D03*
X017390Y002680D03*
X016390Y002680D03*
X016390Y001680D03*
X017390Y001680D03*
X015390Y001680D03*
X014390Y001680D03*
X014390Y002680D03*
X015390Y002680D03*
X013390Y002680D03*
X012390Y002680D03*
X012390Y001680D03*
X013390Y001680D03*
X011390Y001680D03*
X010390Y001680D03*
X010390Y002680D03*
X011390Y002680D03*
X009390Y002680D03*
X008390Y002680D03*
X007390Y002680D03*
X007390Y001680D03*
X008390Y001680D03*
X009390Y001680D03*
X006390Y001680D03*
X005390Y001680D03*
X005390Y002680D03*
X006390Y002680D03*
X004390Y002680D03*
X003390Y002680D03*
X003390Y001680D03*
X004390Y001680D03*
X004390Y004680D03*
X003390Y004680D03*
X003390Y005680D03*
X004390Y005680D03*
X004390Y006680D03*
X003390Y006680D03*
X003390Y007680D03*
X004390Y007680D03*
X005390Y007680D03*
X006390Y007680D03*
X007390Y007680D03*
X008390Y007680D03*
X009390Y007680D03*
X010390Y007680D03*
X010390Y006680D03*
X009390Y006680D03*
X008390Y006680D03*
X007390Y006680D03*
X006390Y006680D03*
X005390Y006680D03*
X005390Y005680D03*
X005390Y004680D03*
X005390Y008680D03*
X006390Y008680D03*
X006390Y009680D03*
X005390Y009680D03*
X004390Y009680D03*
X003390Y009680D03*
X003390Y008680D03*
X004390Y008680D03*
X004390Y010680D03*
X003390Y010680D03*
X003390Y011680D03*
X004390Y011680D03*
X005390Y011680D03*
X006390Y011680D03*
X006390Y010680D03*
X005390Y010680D03*
X007390Y010680D03*
X008390Y010680D03*
X009390Y010680D03*
X009390Y011680D03*
X008390Y011680D03*
X007390Y011680D03*
X007390Y012680D03*
X008390Y012680D03*
X009390Y012680D03*
X009390Y013680D03*
X008390Y013680D03*
X007390Y013680D03*
X006390Y013680D03*
X005390Y013680D03*
X005390Y012680D03*
X006390Y012680D03*
X004390Y012680D03*
X003390Y012680D03*
X003390Y013680D03*
X004390Y013680D03*
X004390Y014680D03*
X003390Y014680D03*
X003390Y015680D03*
X004390Y015680D03*
X004390Y016680D03*
X003390Y016680D03*
X003390Y017680D03*
X004390Y017680D03*
X004390Y018680D03*
X003390Y018680D03*
X005390Y018680D03*
X006390Y018680D03*
X006390Y017680D03*
X005390Y017680D03*
X005390Y016680D03*
X006390Y016680D03*
X006390Y015680D03*
X005390Y015680D03*
X005390Y014680D03*
X006390Y014680D03*
X007390Y014680D03*
X008390Y014680D03*
X009390Y014680D03*
X010390Y014680D03*
X010390Y013680D03*
X010390Y012680D03*
X010390Y011680D03*
X010390Y010680D03*
X010390Y009680D03*
X010390Y008680D03*
X009390Y008680D03*
X008390Y008680D03*
X007390Y008680D03*
X007390Y009680D03*
X008390Y009680D03*
X009390Y009680D03*
X009390Y015680D03*
X008390Y015680D03*
X007390Y015680D03*
X007390Y016680D03*
X008390Y016680D03*
X009390Y016680D03*
X010390Y016680D03*
X010390Y015680D03*
X010390Y017680D03*
X010390Y018680D03*
X009390Y018680D03*
X008390Y018680D03*
X007390Y018680D03*
X007390Y017680D03*
X008390Y017680D03*
X009390Y017680D03*
X009390Y019680D03*
X008390Y019680D03*
X007390Y019680D03*
X006390Y019680D03*
X006390Y020680D03*
X005390Y020680D03*
X005390Y021680D03*
X006390Y021680D03*
X007390Y021680D03*
X008390Y021680D03*
X009390Y021680D03*
X009390Y020680D03*
X008390Y020680D03*
X007390Y020680D03*
X005390Y022680D03*
X005390Y023680D03*
X005390Y024680D03*
X005390Y025680D03*
X010390Y021680D03*
X011390Y021680D03*
X010390Y020680D03*
X010390Y019680D03*
X013390Y024680D03*
X014390Y024680D03*
X015390Y024680D03*
X016390Y024680D03*
X017390Y024680D03*
X018390Y024680D03*
X021390Y025180D03*
X021390Y026180D03*
X024890Y026180D03*
X024890Y025180D03*
X025890Y025180D03*
X026890Y025180D03*
X026890Y026180D03*
X025890Y026180D03*
X026590Y022880D03*
X026590Y021880D03*
X026590Y020880D03*
X031790Y014180D03*
X031790Y013180D03*
X031790Y012180D03*
D20*
X011890Y012680D03*
X011890Y016680D03*
D21*
X032745Y015158D03*
X032745Y014174D03*
X032745Y013386D03*
X032745Y012402D03*
D22*
X033690Y011497D03*
X033690Y016063D03*
M02*
